<svg xmlns="http://www.w3.org/2000/svg" viewBox="0 0 814.61 256.11"><defs><style>.cls-1{fill:#d5a86d;}.cls-1,.cls-10,.cls-12,.cls-13,.cls-14,.cls-15,.cls-16,.cls-17,.cls-18,.cls-19,.cls-2,.cls-20,.cls-21,.cls-3,.cls-4,.cls-5,.cls-9{stroke:#000;stroke-miterlimit:10;stroke-width:3px;}.cls-2{fill:#d7bb98;}.cls-3{fill:#ffdc64;}.cls-4{fill:#d72104;}.cls-5{fill:#fb7857;}.cls-6{fill:#d64321;}.cls-7{fill:#f2876c;}.cls-8{fill:#ffa95b;}.cls-9{fill:#9f3e2a;}.cls-10{fill:#ea6365;}.cls-11{fill:#f19590;}.cls-12{fill:#696969;}.cls-13{fill:#dfdfdf;}.cls-14{fill:#909090;}.cls-15{fill:#ccc;}.cls-16{fill:none;}.cls-17{fill:#fff;}.cls-19{fill:#7a644a;}.cls-20{fill:#679e05;}.cls-21{fill:#da5406;}</style></defs><g id="Layer_2" data-name="Layer 2"><g id="Broodje"><path class="cls-1" d="M141.16,183.28c-2.4,4.25,2.47,7.64.66,15.67-.8,3.56-2.3,5.29-2,9.33s2,5.66,2.34,6a8.08,8.08,0,0,0,4.33,2c6.28,1.31,7.2,4.2,15.67,7.67,4.73,1.93,3.84.75,11.66,3.33,8.13,2.68,8,3.52,13,4.67,3.27.75,6.62,1.05,13.34,1.66,4.25.39,6.18.43,9.33,1.34,3.68,1.05,3.74,1.76,7,2.66,5,1.39,5.95,0,11,1s5.06,2.59,10.67,4c1.84.47,2.42.44,10.33,1,8.47.6,12.77.91,15.67,1.34,6.57,1,5.43,1.52,11.33,2.33,8.61,1.18,10.35-.1,16.33,1.67,5.32,1.56,4.86,2.83,8.67,3.33,6.15.8,7.8-2.47,14.33-2.33,4.56.09,5.06,1.7,11.67,3.33,2.65.65,6.26,1.3,15.33,1.33a221.64,221.64,0,0,0,24-1.33c14.91-1.42,12-.51,29.34-2,18.92-1.63,28.38-2.44,38-4,7.21-1.17,12.8-2.33,21.33-2,7.12.28,10.59,1.38,16.67,2.33C480,249,488,248.67,503.49,248c13.83-.65,12.26-1.15,37.33-3,18.21-1.35,20-1.15,31.67-2.34,12.7-1.29,13.47-1.81,20.33-2,13.22-.37,15.45,1.42,25.34,0,6.19-.89,5.46-1.61,17.66-4a149.7,149.7,0,0,1,17-2.66c5.52-.5,9.9-.44,18.67-.34,11.72.14,12.24.61,19,.34,10.79-.44,15.64-1.88,18.67-3,3.87-1.45,7.42-2.81,10.33-6.34,2.7-3.27,3.41-6.64,4.33-11a39.6,39.6,0,0,0,.34-14.66c-.91-5.46-1.43-8.63-4-11-3-2.78-6.54-2.39-14-3-5.83-.49-11.54-1.94-17.34-2.67-16-2-26.59-4.06-33-5-25-3.66-49.56.09-83.66.67-32.16.54-29-2.47-75.34-3.67-18.25-.47-23.11-.12-81,1-114.54,2.21-104.9,1-123,2.33-43.74,3.21-52.06,6.76-72.66,2.67-13.72-2.72-24.59-3.26-46.34-4.33,0,0-7.13-.36-22,2.66-2.32.48-8.25.62-10.59,4.54Z"/><path class="cls-2" d="M156.72,189.61c5.5,1.85,6.89,2.9,10.67,4.34,15.91,6,41.46,6.55,47.33,6.66,4.87.1,6,0,18,.13,10.79.14,16.14.31,18,.38,7.38.26,13.06.59,15.67.75,6.47.39,11.42.7,18,1.41,7.46.81,8,1.17,13,1.67a145.92,145.92,0,0,0,20.67.33c13.42-.49,15-1.34,30.66-2.33,11.9-.76,17.85-1.14,25.67-.67,6.62.39,8,.93,21,2.33,11,1.19,16.54,1.79,22,2,11.68.47,12-.77,37-1.66,7.69-.28,10.44-.26,18.33-.67,10.12-.53,17.61-1.18,19.34-1.33,11.09-1,19.61-2.14,26-3,16.8-2.29,16.28-2.84,23.66-3.34a163.57,163.57,0,0,1,24.67.34c11.22.85,11.85,1.83,22.67,2.66,7.55.58,13.36.5,25,.34,14.35-.21,21.53-.31,30.66-1.34,13.2-1.48,14.77-3,23.67-2.66s13.23.43,18.67,1.66c3.66.84,7.62,2.07,13,1.34a32.79,32.79,0,0,0,7.33-2c4.55-1.73,6.38-3.4,7-4,1.47-1.43,2.34-2.28,2.33-3.34,0-3.18-8-5.53-12-6.66-9.89-2.83-15.79-2.48-24.33-3.34-12.73-1.27-11.14-3-26.33-5A206.63,206.63,0,0,0,628.39,173c-10.65-.16-10.74.49-23.33.66-19.43.27-20.91-1.23-37.34-.66-11.85.41-11.93,1.22-23.33,1.33a245.67,245.67,0,0,1-24.67-1c-13.26-1.24-15-2.54-25-3.33-6.87-.54-12-.4-27.33.66-26.77,1.85-29,2.61-42,3.34-17,.94-19.12,0-43.33.33-27.91.42-24.84,1.82-42.34,1.67-23.56-.22-27.65-2.41-48.33-1.34-7.91.41-12.48,1-22.33,1-11.84,0-14-.84-24.67-.33-7.15.34-17,1.24-18,1.33-8.76.81-9.27,1.09-12.33,1-8.3-.22-9.61-2.65-18.34-3.66-4.62-.54-3.08.25-16.33.33-6.22,0-12.44.27-18.67.33,0,0-7.34.07-11.66,2.34a54,54,0,0,0-4.67,3.66c-.52.43-.95.79-1,1.34-.12,1.3,2.26,2.2,3.67,3.33C150,187.65,152.8,188.29,156.72,189.61Z"/><path class="cls-3" d="M315,166.51c-4.52.88-8.3,1.37-11,1.67-9,1-13,.19-14.95-.23a16.61,16.61,0,0,1-7.77-3.66c-1.31-1.16-3.16-2.8-2.89-4.89s2.6-3.36,3-3.56L249,144.51l-131.5,43.33,9.33,3.34a49.93,49.93,0,0,1,12.67-.5,20.33,20.33,0,0,1,5,1.33,8.62,8.62,0,0,1,2.85,1.67,7.53,7.53,0,0,1,1.82,2.66,19.14,19.14,0,0,1,6.43.27c1.89.4,2.52.86,2.9,1.4a4.14,4.14,0,0,1,.2,3.57l90.63,30.26q12.77-4.25,25.67-8.66,13.55-4.65,26.83-9.34c-2.42-1.05-3.88-2.55-3.66-3.66s2.42-1.69,3.83-2c.67-.15,3.26-.66,8.67.5a42.66,42.66,0,0,1,4.33,1.16l64.67-22ZM193.49,191.15c-.34.52-.92.67-3.22.89a17,17,0,0,1-4.81.05c-1.79-.31-2.12-.76-2.25-1a2,2,0,0,1,.23-2c.14-.2.59-.76,3.33-1.11a10.72,10.72,0,0,1,3.94-.06c1.06.23,2.51.54,2.92,1.64A1.8,1.8,0,0,1,193.49,191.15Zm20.36-15.64c-3-.3-4.89-.67-6.16-2.21-.19-.22-1.36-1.63-1-3,.31-1.09,1.52-1.78,4.46-2.58a40.34,40.34,0,0,1,8.87-1.42,37.5,37.5,0,0,1,11.42,1.54,6.9,6.9,0,0,1,1.75.92c.38.28,2.17,1.58,2,2.92a2.16,2.16,0,0,1-1,1.29,16.85,16.85,0,0,1-7.13,2.54A63.05,63.05,0,0,1,213.85,175.51Zm35,30.44a9.2,9.2,0,0,1-2.73,1.23,18.88,18.88,0,0,1-4.33.72,32,32,0,0,1-5.22-.5,7.46,7.46,0,0,1-3.67-1.22,2.16,2.16,0,0,1-.89-1.11,2.24,2.24,0,0,1,.73-2.17c.25-.22.58-.41,2.55-.67,1-.12,1.44-.19,2.06-.22a34.45,34.45,0,0,1,7.77.28,15.71,15.71,0,0,1,3.67,1.22c.76.35,1.24.64,1.28,1.06S249.4,205.55,248.8,206Zm14.11-17.11a7.65,7.65,0,0,1-4.89-.5c-.2-.09-2.16-1.06-2-1.83.07-.37.68-.55,1.89-.89a10.84,10.84,0,0,1,3.66-.55,5.23,5.23,0,0,1,2.17.38c.83.38,2.09,1.27,1.95,2.06S263.92,188.65,262.91,188.84Zm59.33,2.73a23.33,23.33,0,0,1-5.22,1.05,33.42,33.42,0,0,1-7.39-.33c-2.49-.29-3.62-.59-4.67-1.45-.39-.32-1.55-1.28-1.39-2.27s1.79-1.67,3.45-2.28a15.26,15.26,0,0,1,2.14-.62,25,25,0,0,1,5.86-.38,29.38,29.38,0,0,1,6.55.55c3,.71,3.66,1.56,3.89,2.17a2.29,2.29,0,0,1,0,1.61C325.11,190.51,324.18,191,322.24,191.57Z"/><path class="cls-3" d="M474.2,168.34c-4.53.88-8.31,1.37-11,1.67-9,1-13.05.2-14.95-.22a16.77,16.77,0,0,1-7.78-3.67c-1.3-1.16-3.15-2.79-2.88-4.89s2.59-3.35,3-3.55L408.2,146.34,276.7,189.68,286,193a50.42,50.42,0,0,1,12.67-.5,20.33,20.33,0,0,1,5,1.33,8.42,8.42,0,0,1,2.84,1.67,7.33,7.33,0,0,1,1.82,2.67,19.25,19.25,0,0,1,6.44.26c1.89.41,2.51.86,2.9,1.4a4.14,4.14,0,0,1,.2,3.57l90.63,30.27q12.75-4.25,25.67-8.67,13.55-4.65,26.83-9.33c-2.42-1.06-3.89-2.56-3.67-3.67s2.43-1.69,3.84-2c.67-.15,3.26-.66,8.66.5a41.83,41.83,0,0,1,4.34,1.17l64.66-22ZM352.73,193c-.34.52-.92.67-3.22.89a17.19,17.19,0,0,1-4.81.06c-1.79-.31-2.12-.77-2.25-1a2,2,0,0,1,.22-2c.14-.19.6-.76,3.34-1.11a10.49,10.49,0,0,1,3.94-.05c1.06.22,2.51.54,2.92,1.64A1.78,1.78,0,0,1,352.73,193Zm20.36-15.64c-3-.3-4.89-.67-6.17-2.21-.18-.21-1.35-1.63-1-3,.32-1.09,1.52-1.77,4.46-2.58a41.16,41.16,0,0,1,8.88-1.42,37.24,37.24,0,0,1,11.41,1.55,6.25,6.25,0,0,1,1.75.91c.39.28,2.18,1.59,2,2.92a2.09,2.09,0,0,1-1,1.29,16.83,16.83,0,0,1-7.12,2.54A63.05,63.05,0,0,1,373.09,177.34ZM408,207.79a8.91,8.91,0,0,1-2.72,1.22,18.34,18.34,0,0,1-4.33.72,31.87,31.87,0,0,1-5.22-.5,7.46,7.46,0,0,1-3.67-1.22,2.16,2.16,0,0,1-.89-1.11,2.26,2.26,0,0,1,.72-2.17c.25-.22.59-.4,2.56-.67.95-.12,1.43-.19,2-.22a34.53,34.53,0,0,1,7.78.28,15.71,15.71,0,0,1,3.67,1.22c.76.35,1.24.64,1.28,1.06S408.64,207.38,408,207.79Zm14.12-17.11a7.79,7.79,0,0,1-4.89-.5c-.2-.1-2.16-1.07-2-1.84.07-.37.68-.54,1.89-.89a10.8,10.8,0,0,1,3.66-.55,5.11,5.11,0,0,1,2.17.39c.82.37,2.08,1.26,1.94,2.05S423.16,190.48,422.15,190.68Zm59.33,2.72a22.78,22.78,0,0,1-5.22,1,33.39,33.39,0,0,1-7.39-.33c-2.49-.29-3.63-.59-4.67-1.44-.39-.33-1.56-1.28-1.39-2.28s1.79-1.67,3.45-2.28a15.69,15.69,0,0,1,2.13-.62,25.16,25.16,0,0,1,5.87-.38,28.7,28.7,0,0,1,6.55.56c3,.7,3.66,1.55,3.89,2.16a2.36,2.36,0,0,1,0,1.61C484.35,192.35,483.42,192.83,481.48,193.4Z"/><path class="cls-3" d="M547.71,169.68c-4.53.87-8.31,1.37-11,1.66-9,1-13.05.2-15-.22a16.65,16.65,0,0,1-7.78-3.66c-1.3-1.16-3.15-2.8-2.89-4.89s2.6-3.36,3-3.56l-32.38-11.33L350.21,191l9.33,3.33a50.91,50.91,0,0,1,12.67-.5,20.54,20.54,0,0,1,5,1.34,8.42,8.42,0,0,1,2.84,1.67,7.53,7.53,0,0,1,1.82,2.66,19.53,19.53,0,0,1,6.44.26c1.89.41,2.51.87,2.9,1.41a4.12,4.12,0,0,1,.2,3.56L482,235q12.75-4.24,25.67-8.67,13.55-4.64,26.83-9.33c-2.42-1-3.89-2.55-3.67-3.67s2.43-1.69,3.84-2c.67-.14,3.26-.66,8.66.5a44.55,44.55,0,0,1,4.34,1.17l64.66-22ZM426.24,194.32c-.34.52-.92.67-3.22.89a17,17,0,0,1-4.81,0c-1.79-.31-2.12-.77-2.25-1a2,2,0,0,1,.22-2c.14-.2.6-.76,3.34-1.11a10.51,10.51,0,0,1,3.94-.06c1.06.23,2.51.54,2.92,1.64A1.84,1.84,0,0,1,426.24,194.32Zm20.36-15.64c-3-.3-4.89-.67-6.17-2.21-.18-.22-1.35-1.63-1-3,.32-1.09,1.52-1.78,4.46-2.58a40.48,40.48,0,0,1,8.88-1.42A37.07,37.07,0,0,1,464.22,171a6.73,6.73,0,0,1,1.75.92c.39.28,2.18,1.58,2,2.91a2.11,2.11,0,0,1-1,1.3,16.83,16.83,0,0,1-7.12,2.54A63.05,63.05,0,0,1,446.6,178.68Zm34.94,30.44a8.91,8.91,0,0,1-2.72,1.22,18.79,18.79,0,0,1-4.33.73,33.07,33.07,0,0,1-5.22-.5,7.57,7.57,0,0,1-3.67-1.23,2.09,2.09,0,0,1-.89-1.11,2.23,2.23,0,0,1,.72-2.16c.25-.22.58-.41,2.56-.67.95-.13,1.43-.19,2.05-.22a34,34,0,0,1,7.78.28,15.14,15.14,0,0,1,3.67,1.22c.76.35,1.24.64,1.28,1S482.15,208.72,481.54,209.12ZM495.65,192a7.69,7.69,0,0,1-4.88-.5c-.2-.09-2.16-1.06-2-1.83.07-.37.68-.55,1.88-.89a10.64,10.64,0,0,1,3.67-.56,5.43,5.43,0,0,1,2.17.39c.82.38,2.08,1.27,1.94,2.06S496.67,191.82,495.65,192ZM555,194.73a22.75,22.75,0,0,1-5.22,1.06,33.39,33.39,0,0,1-7.39-.33c-2.49-.3-3.63-.59-4.67-1.45-.39-.32-1.56-1.28-1.39-2.28s1.79-1.66,3.45-2.27a14.26,14.26,0,0,1,2.13-.62,24.63,24.63,0,0,1,5.87-.38,29.38,29.38,0,0,1,6.55.55c3,.71,3.66,1.55,3.89,2.17a2.35,2.35,0,0,1,0,1.61C557.86,193.68,556.93,194.16,555,194.73Z"/><path class="cls-3" d="M664.46,163.39c-4.52.88-8.3,1.37-11,1.67-9,1-13.05.2-14.94-.22a16.77,16.77,0,0,1-7.78-3.67c-1.31-1.16-3.16-2.8-2.89-4.89s2.6-3.35,3-3.56l-32.39-11.33L467,184.72l9.33,3.34a50.42,50.42,0,0,1,12.67-.5,20.22,20.22,0,0,1,5,1.33,8.62,8.62,0,0,1,2.85,1.67,7.53,7.53,0,0,1,1.82,2.66,19.22,19.22,0,0,1,6.44.27c1.88.41,2.51.86,2.89,1.4a4.14,4.14,0,0,1,.2,3.57l90.63,30.26q12.76-4.23,25.67-8.66,13.54-4.65,26.83-9.34c-2.42-1.05-3.88-2.55-3.66-3.66s2.42-1.69,3.83-2c.68-.15,3.27-.66,8.67.5,1.83.39,3.32.84,4.33,1.16l64.67-22ZM543,188c-.34.52-.92.67-3.22.89A16.63,16.63,0,0,1,535,189c-1.78-.3-2.12-.76-2.25-1a2,2,0,0,1,.23-2c.14-.19.59-.76,3.33-1.11a10.49,10.49,0,0,1,3.94,0c1.06.22,2.51.53,2.92,1.63A1.8,1.8,0,0,1,543,188Zm20.36-15.64c-3-.3-4.89-.67-6.16-2.21-.19-.22-1.36-1.63-1-3,.31-1.09,1.52-1.78,4.46-2.58a41,41,0,0,1,8.87-1.42A37.5,37.5,0,0,1,581,164.72a6.9,6.9,0,0,1,1.75.92c.39.28,2.17,1.59,2,2.92a2.16,2.16,0,0,1-1,1.29,16.85,16.85,0,0,1-7.13,2.54A63.05,63.05,0,0,1,563.35,172.39Zm34.95,30.45a9.18,9.18,0,0,1-2.72,1.22,19.08,19.08,0,0,1-4.34.72,32,32,0,0,1-5.22-.5,7.46,7.46,0,0,1-3.67-1.22,2.21,2.21,0,0,1-.89-1.11,2.24,2.24,0,0,1,.73-2.17c.25-.22.58-.4,2.55-.67,1-.12,1.44-.19,2.06-.22a34.55,34.55,0,0,1,7.78.28,15.73,15.73,0,0,1,3.66,1.22c.76.35,1.24.64,1.28,1.06S598.9,202.43,598.3,202.84Zm14.11-17.12a7.65,7.65,0,0,1-4.89-.5c-.2-.09-2.16-1.06-2-1.83.08-.37.68-.55,1.89-.89a10.86,10.86,0,0,1,3.67-.55,5.06,5.06,0,0,1,2.16.39c.83.37,2.09,1.26,2,2S613.42,185.53,612.41,185.72Zm59.33,2.73a23.21,23.21,0,0,1-5.22,1.05,33.42,33.42,0,0,1-7.39-.33c-2.49-.29-3.62-.59-4.67-1.45-.39-.32-1.55-1.27-1.38-2.27s1.78-1.67,3.44-2.28a15.66,15.66,0,0,1,2.14-.62,25,25,0,0,1,5.86-.38,29.47,29.47,0,0,1,6.56.55c3,.71,3.65,1.56,3.88,2.17a2.29,2.29,0,0,1,0,1.61C674.62,187.39,673.69,187.88,671.74,188.45Z"/><path class="cls-4" d="M168.9,183.48a41,41,0,0,0,4.44,8.22c5.43,7.48,25.38,11.75,26.44,12a178.72,178.72,0,0,0,34.45,4.22c8.82.3,18.45.57,31.11-1.33,4.87-.73,12.06-2.71,26.44-6.67,10.35-2.84,15.35-4.49,19.12-9.33,1-1.33,4.57-5.88,3.77-10.67-1.49-9-17.35-13.12-23.55-14.66-31.63-7.89-49.72,5.08-91.34,5.11-2.57,0-13.11-3.14-26.88-1.78-2.26.22-4.06.5-5.1.67a22.68,22.68,0,0,0-.23,9.91A24.74,24.74,0,0,0,168.9,183.48Z"/><path class="cls-5" d="M168,167.57c-1.27,5.52,2.74,10.71,4.78,13.27,2.57,3.24,9.59,10.85,32.39,16.46a156.32,156.32,0,0,0,34.52,4.25c12.5.21,21.08-1.1,38.23-3.71s22.39-5,27.08-9c2.26-2,9.85-8.56,9-16.44-.83-7.59-9-12.25-18-17.34a78.93,78.93,0,0,0-18.89-7.55c-4.6-1.24-13.58-3.34-30.51-3.81-25.91-.71-42.78,3.16-47.26,4.25a82.2,82.2,0,0,0-23.57,10.89C171.42,161.73,168.82,164.11,168,167.57Z"/><path class="cls-6" d="M180.28,174.48c0-1.15.38-2.82,1.17-6.17a10.13,10.13,0,0,1,1.5-3.83,8.88,8.88,0,0,1,2.5-2.34c1.4-.86,2.85-1.17,6.33-1.33,2.87-.13,3.74,0,6.84,0,5.29,0,5.12-.39,7.66-.17a39.21,39.21,0,0,1,7.84,1.84,42.82,42.82,0,0,1,7.83,3c.49.25,1.32.69,2.33,1.33,2.66,1.69,4.63,2.94,4.84,4.67.06.52,0,1.11-1.5,3.33a41.67,41.67,0,0,1-4.5,5.67c-2.52,2.57-3.89,4-6.17,5.33a22.74,22.74,0,0,1-7,2.67,31.79,31.79,0,0,1-14.83-.5c-4.54-1-7.16-1.65-9.84-4C184.59,183.37,180.4,179.68,180.28,174.48Z"/><path class="cls-6" d="M207.45,153.81c0-1.12,1.83-1.95,3.67-2.67a49.39,49.39,0,0,1,13.5-3c6.89-.61,10.34-.92,13.83-1,6.48-.13,11.35.22,12.83.34,3.87.3,7.14.81,13.67,1.83a55,55,0,0,1,12.5,3.17c4.62,1.82,5.19,2.85,5.17,3.5,0,1.1-1.79,2-4.17,2.83-5.8,2.14-9.54,2.32-15.5,3.33-5.67,1-6.72,1.55-13.33,2.5-2.59.38-3.89.56-5.67.67a52.86,52.86,0,0,1-12.83-1c-4.21-.79-9.42-3-19.84-7.5C209.8,156.18,207.41,155.12,207.45,153.81Z"/><path class="cls-6" d="M222,191.64c-.6-1.55,1-3.61,4.17-7.66,2.52-3.21,3.78-4.81,5.83-6.17a18.77,18.77,0,0,1,9-3c2.22-.17,4.48.27,9,1.17a91.59,91.59,0,0,1,9,2.16c3.14.94,5.93,2.07,11.5,4.34,6.52,2.65,8,3.47,8.17,4.83.17,1.65-1.76,3.14-2.67,3.83-2.11,1.63-4.37,2-7.67,2.34-5.94.62-9.46.63-9.46.63s-7.56,0-16.2.37a71.53,71.53,0,0,1-14.34-.34C223.87,193.52,222.4,192.81,222,191.64Z"/><path class="cls-6" d="M252.62,173c5,1.47,9.75,3.65,14.83,4.66,12.51,2.5,11.18,3.91,17.5,4.17,4.6.19,11.22.46,14.5-3.83a9.31,9.31,0,0,0,1.67-6.84c-.81-4.23-4.93-6.36-6.5-7.16-4.22-2.17-8.11-1.83-14.67-1.17-9.91,1-8.58,2.93-17,3.5a38.07,38.07,0,0,0-11,3c-.9.38-2.36,1-2.33,1.83C249.65,172.1,251.83,172.74,252.62,173Z"/><path class="cls-7" d="M224.12,172.64c1.42-.11,1.75,1.36,3.83,2.67,2.94,1.85,6.5,1.55,9,1.33a19.83,19.83,0,0,0,2.33-.33,3.22,3.22,0,0,1-.16,2c-.49,1.11-2,.69-3.67,2-.35.28-1.15.93-1,1.33.06.17.32.4,3.5.34,2,0,2.51-.15,3.33.16,1,.38.86.75,1.84,1.17a6.8,6.8,0,0,0,4.33,0c1.58-.37,1.44-.69,2.67-.83,1.45-.17,2,.24,3.16-.17.41-.14,1.5-.52,1.67-1.33s-.87-1.76-1.17-2c-.86-.71-1.42-.61-3.33-1.34-1.43-.54-2.5-1-2.5-1.5s1.49-1.1,1.67-1.16c1.49-.49,2.19.1,3-.5.66-.5.39-1,1-1.5.84-.65,2-.07,3.66.16s1.73-.24,4.67-.33c3.67-.11,4.91.63,5.5-.17s0-2.55-1-3.5c-1.32-1.23-3.28-1-5.17-.83a42.45,42.45,0,0,0-5,1.17c-3.16.77-3.79.84-4.5.5-1.29-.63-.75-1.64-2.33-2.84-1-.75-1.54-.59-4.17-2-1-.54-1.37-.8-1.33-1s1.05-.2,2.5-.33a15.1,15.1,0,0,0,4.83-1.17,4.88,4.88,0,0,0,2.67-2c.41-.74.71-1.95.17-2.5-.11-.1-.39-.33-1.84-.16-2.06.23-2.35.79-3.5.66a9.22,9.22,0,0,1-2.33-1c-1.8-.89-1.76-1.06-2.5-1.33-1.28-.47-1.52,0-4-.17s-3.25-.63-4,0-.36,1.11-1,1.5-1.36,0-3-.33a17.39,17.39,0,0,0-3.67-.17c-2,0-3,.07-3.33.67a1.7,1.7,0,0,0,.5,1.67c.58.61,1.16.43,3,1,1.58.48,1.89.85,2,1a2.14,2.14,0,0,1,.33,2c-.3.75-1,.72-2.5,1.66s-1.42,1.34-2.5,1.84a8.11,8.11,0,0,1-3.16.5c-3.06.21-3,.59-5,.66a32.51,32.51,0,0,1-5.67-.66c-3.68-.59-5.08-1-5.83-.17a1.79,1.79,0,0,0-.34,1.67c.39,1.08,2.13,1.46,3.17,1.5,1.26.05,2.07-.39,2.33,0s-.28.73-.16,1.5c0,.29.17.63,1,1.5a8.94,8.94,0,0,0,1.83,1.66,5.94,5.94,0,0,0,4.17,1,10.69,10.69,0,0,0,3-1.66C223.31,173,223.45,172.7,224.12,172.64Z"/><path class="cls-8" d="M191.56,165.09c1.6.48,2.48.16,4.11.28s1.86.58,4.45.83c1.59.16,2.18.05,2.44-.33s.05-1.27-.22-1.73c-.76-1.26-2.41-1.53-4.56-1.88A21.54,21.54,0,0,0,194,162c-3.41,0-3.81.46-3.94.73a1.61,1.61,0,0,0,.22,1.44A2.26,2.26,0,0,0,191.56,165.09Z"/><path class="cls-8" d="M186.56,168.26c.62-.5,1.78-.49,4.06-.45,1.25,0,1.92.09,2.16.11a8.6,8.6,0,0,1,3.06.72c.5.26,1.32.68,1.28,1.12s-1.56.84-2.39,1a16.72,16.72,0,0,1-4.39.11c-1.44-.1-1.31-.2-2.39-.23-1.42,0-2,.13-2.22-.22S185.81,168.85,186.56,168.26Z"/><path class="cls-8" d="M184.51,174.81c.75-.69,1.64-.48,4.61-.33,1.85.09,2.45.05,4.44.22,2.59.22,3.08.41,3.17.72.14.5-.72,1.2-1.39,1.56-1,.51-1.54.32-3.56.39a34.9,34.9,0,0,0-4.94.33,2.91,2.91,0,0,1-2.11-.11,1.85,1.85,0,0,1-.89-1.33A1.91,1.91,0,0,1,184.51,174.81Z"/><path class="cls-8" d="M189.67,180.42a16,16,0,0,1,3.89-1.22,21.8,21.8,0,0,1,4.11-.72,9.64,9.64,0,0,1,3.11.55c.94.29,1.53.48,1.62.89.16.78-1.66,1.74-1.84,1.84-1,.54-1.61.47-4.39.88a29.68,29.68,0,0,1-3.22.45,8,8,0,0,1-3.28-.39c-.54-.2-1.47-.54-1.5-1.06C188.16,181.44,188.3,181.08,189.67,180.42Z"/><path class="cls-8" d="M199.62,185.2c.21-1.17,1.75-1.74,3.94-2.56a19.51,19.51,0,0,1,2.56-.72c1.82-.37,3.29-.68,3.72,0s-.27,1.67-.61,2.22a6.5,6.5,0,0,1-2.78,2.39,8.91,8.91,0,0,1-3,.83c-1.51.21-2.37.34-3-.22A2.12,2.12,0,0,1,199.62,185.2Z"/><path class="cls-8" d="M226.67,189a2.8,2.8,0,0,1,.73-2.11,3.39,3.39,0,0,1,2.11-.67,12.1,12.1,0,0,1,2.16,0,8.75,8.75,0,0,1,3,.39c.24.13,1.61.88,1.66,2.17a2.83,2.83,0,0,1-1.22,2.16c-.81.67-1.75.81-3.61,1.06-1.58.21-2.38.31-3,0A3.49,3.49,0,0,1,226.67,189Z"/><path class="cls-8" d="M243.4,187.81c-.62.64-1.58,1.64-1.39,2.61s1.58,1.51,2.83,2a5.48,5.48,0,0,0,4.22.16c.37-.17,1.35-.64,1.5-1.5.1-.56-.35-1.21-1.28-2.5a5.79,5.79,0,0,0-1.55-1.77,3.58,3.58,0,0,0-2.95,0A4.18,4.18,0,0,0,243.4,187.81Z"/><path class="cls-8" d="M254,186.92c.25.78.75,1.26,2.05,2.34a8.61,8.61,0,0,0,2.28,1.61,5.11,5.11,0,0,0,2.39-.23c.85-.19,1.28-.3,1.5-.66.45-.75-.33-1.92-.39-2-.49-.71-1.27-1-2.83-1.61a10.47,10.47,0,0,0-2.95-.78c-.8-.08-1.77-.16-2.09.35A1.2,1.2,0,0,0,254,186.92Z"/><path class="cls-8" d="M265.73,187.87a5.9,5.9,0,0,0,2.39,1.44c2.37.89,2.4,1,3.05,1.06a3.46,3.46,0,0,0,2.11-.34c.65-.36,1.51-1.2,1.34-2s-1.19-1.08-2-1.33a10.81,10.81,0,0,0-3.78-.17c-1.15.06-.17.09-2.39.39-.36.05-.85.12-.94.39S265.61,187.73,265.73,187.87Z"/><path class="cls-8" d="M276.45,175.76c0,.33.77.62,3.61,1.61,2.4.83,3.61,1.24,3.95,1.33a19.59,19.59,0,0,0,5.39.61c1.91-.06,2.54-.38,2.94-.83a2,2,0,0,0,.5-1.89c-.43-1-2.3-1.11-5.33-1.22-3.19-.13-2.91.26-4.78,0a13.08,13.08,0,0,0-4.39-.34C278,175.09,276.49,175.31,276.45,175.76Z"/><path class="cls-8" d="M285.73,173.37a29.93,29.93,0,0,1,6.33.66,4.47,4.47,0,0,0,1.5.11c.55,0,1.79-.15,2.11-.94a1.74,1.74,0,0,0-.66-1.89c-.61-.43-1.25-.21-3.5.17a23.2,23.2,0,0,1-3.23.44c-1.41,0-1.93-.35-3.88-.33-1.54,0-1.79.23-1.84.39s.41.73.72.94A3.91,3.91,0,0,0,285.73,173.37Z"/><path class="cls-8" d="M284,169.64c-.21-.44.29-1.13.67-1.5.54-.51,1.15-.66,2.72-.88a21.61,21.61,0,0,1,3.61-.39,11.21,11.21,0,0,1,3.45.94c1.05.4,1.22.57,1.22.72,0,.44-1.46.76-2.34.95a30,30,0,0,1-3.94.44c-1,.09-1.85.17-3.06.17C284.41,170.09,284.07,169.89,284,169.64Z"/><path class="cls-8" d="M275.84,165.2h0a19.17,19.17,0,0,1,5.28-1.89c1.19-.21.8,0,3.39-.22a26.65,26.65,0,0,1,4.33-.33c1.11.05,2.81.14,3,.83s-.85,1.42-1.56,1.83c-1.08.64-1.83.55-5.38.61-1.39,0-2.65,0-5.17.06-.84,0-1.67-.22-2.5-.17a3,3,0,0,1-1.11-.22.34.34,0,0,1-.21-.15A.63.63,0,0,1,275.84,165.2Z"/><path class="cls-8" d="M263.7,158.09c.12.18.46.55,2.61.47a29.61,29.61,0,0,0,3.25-.39,22.29,22.29,0,0,0,3.2-.47,5.93,5.93,0,0,0,2.61-1.33c.37-.35.91-.86.8-1.36s-1.13-.89-1.66-1c-1.26-.33-1.77,0-4.39.11a6.8,6.8,0,0,0-2.36.25c-.91.36-.89.74-2,1.28s-1.55.38-1.92.91A1.5,1.5,0,0,0,263.7,158.09Z"/><path class="cls-8" d="M256.26,155.53a7,7,0,0,0,3.55-.3,15.78,15.78,0,0,0,2-.7c1.25-.52,1.4-.77,1.44-.94.16-.54-.34-1.26-.91-1.61s-1.09-.11-3.56.11c-1.58.14-2.18.08-2.66.61a2.92,2.92,0,0,0-.59,1.22,1.51,1.51,0,0,0,0,1.2A1.09,1.09,0,0,0,256.26,155.53Z"/><path class="cls-8" d="M243.26,153.81c.53.32,1.31.46,3.05.31a15.33,15.33,0,0,0,2.72-.48,4.65,4.65,0,0,0,1.39-.55,2.15,2.15,0,0,0,1.17-1.25,1.92,1.92,0,0,0-.53-1.56,3.27,3.27,0,0,0-2.28-.77,20.16,20.16,0,0,0-3.22.11c-1.45,0-1.83,0-2.19.36s-.38.76-.56,1.72c-.24,1.31,0,1.7.14,1.86A1.07,1.07,0,0,0,243.26,153.81Z"/><path class="cls-8" d="M229.53,152.45a6,6,0,0,0,2.53,1.06A16.11,16.11,0,0,0,235,154c1.45.08,1.85-.1,2.11-.28a2.12,2.12,0,0,0,.83-1.28,2.42,2.42,0,0,0-.39-1.66,3.86,3.86,0,0,0-1.5-1.64c-.37-.22-.71-.31-3.33-.31a7.6,7.6,0,0,0-3.42.45c-.92.42-1.05.8-1.08.94-.12.52.28,1.08.61,1.53A4.66,4.66,0,0,0,229.53,152.45Z"/><path class="cls-8" d="M214,152.51c.31-.66,1.32-.74,2.89-.87a15.45,15.45,0,0,1,3.06.09,6.06,6.06,0,0,1,2.78.72,3,3,0,0,1,1.5,1.94A2.12,2.12,0,0,1,224,156a2.63,2.63,0,0,1-1.94.8,7.35,7.35,0,0,1-2.56-.11,11.5,11.5,0,0,1-3.11-1,4.12,4.12,0,0,1-2-1.5C214.21,153.85,213.76,153.1,214,152.51Z"/><path class="cls-4" d="M272.87,183.88a41.21,41.21,0,0,0,4.44,8.23c5.43,7.47,25.38,11.75,26.45,12a179.29,179.29,0,0,0,34.44,4.22c8.83.29,18.45.57,31.11-1.34,4.87-.73,12.06-2.7,26.45-6.66,10.34-2.85,15.34-4.49,19.11-9.34,1-1.32,4.57-5.88,3.77-10.66-1.49-9-17.35-13.12-23.55-14.67-31.63-7.89-49.72,5.08-91.33,5.11-2.58,0-13.12-3.13-26.89-1.78-2.26.23-4.06.5-5.1.67a22.73,22.73,0,0,0-.23,9.92A25.49,25.49,0,0,0,272.87,183.88Z"/><path class="cls-5" d="M272,168c-1.27,5.52,2.74,10.72,4.78,13.28,2.58,3.24,9.59,10.85,32.39,16.46A157,157,0,0,0,343.68,202c12.5.21,21.08-1.1,38.23-3.72s22.39-5,27.08-9c2.26-2,9.85-8.56,9-16.44-.83-7.58-9-12.24-18-17.33a79.29,79.29,0,0,0-18.89-7.56c-4.6-1.24-13.58-3.34-30.51-3.8-25.91-.72-42.78,3.16-47.26,4.25a81.88,81.88,0,0,0-23.56,10.89C275.39,162.13,272.79,164.51,272,168Z"/><path class="cls-6" d="M284.26,174.88c0-1.14.37-2.81,1.16-6.16a10.12,10.12,0,0,1,1.5-3.84,8.76,8.76,0,0,1,2.5-2.33c1.41-.86,2.85-1.18,6.34-1.33,2.86-.13,3.73,0,6.83,0,5.29,0,5.13-.4,7.67-.17a39.86,39.86,0,0,1,7.83,1.83,43.59,43.59,0,0,1,7.83,3c.49.25,1.32.69,2.34,1.34,2.66,1.69,4.62,2.93,4.83,4.66.06.52,0,1.12-1.5,3.34a40.52,40.52,0,0,1-4.5,5.66c-2.51,2.57-3.89,4-6.17,5.34a22.4,22.4,0,0,1-7,2.66,31.66,31.66,0,0,1-14.83-.5c-4.54-1-7.16-1.65-9.83-4C288.57,183.78,284.37,180.09,284.26,174.88Z"/><path class="cls-6" d="M311.42,154.22c0-1.12,1.83-2,3.67-2.67a49,49,0,0,1,13.5-3c6.89-.62,10.34-.93,13.83-1,6.48-.13,11.36.22,12.84.33,3.87.3,7.13.82,13.66,1.84a55.41,55.41,0,0,1,12.5,3.16c4.62,1.82,5.19,2.86,5.17,3.5,0,1.11-1.79,2-4.17,2.84-5.8,2.14-9.54,2.32-15.5,3.33-5.67,1-6.72,1.55-13.33,2.5-2.59.37-3.89.56-5.67.67a52.86,52.86,0,0,1-12.83-1c-4.21-.8-9.42-3-19.83-7.5C313.77,156.58,311.38,155.53,311.42,154.22Z"/><path class="cls-6" d="M325.92,192.05c-.6-1.56,1-3.61,4.17-7.67,2.52-3.2,3.78-4.81,5.83-6.16a18.8,18.8,0,0,1,9-3c2.22-.18,4.48.27,9,1.16,2.3.46,5.19,1,9,2.17,3.14.93,5.93,2.07,11.5,4.33,6.52,2.66,8,3.48,8.17,4.84.17,1.65-1.76,3.14-2.67,3.83-2.11,1.62-4.37,2-7.66,2.33-5.95.62-9.47.64-9.47.64s-7.56,0-16.2.36a71.37,71.37,0,0,1-14.33-.33C327.84,193.93,326.37,193.21,325.92,192.05Z"/><path class="cls-6" d="M356.59,173.38c5,1.48,9.75,3.66,14.83,4.67,12.51,2.49,11.18,3.91,17.5,4.17,4.6.19,11.22.46,14.5-3.84a9.21,9.21,0,0,0,1.67-6.83c-.81-4.24-4.93-6.36-6.5-7.17-4.22-2.17-8.11-1.83-14.67-1.16-9.91,1-8.58,2.93-17,3.5a38.07,38.07,0,0,0-11,3c-.9.38-2.36,1-2.33,1.83C353.62,172.51,355.8,173.15,356.59,173.38Z"/><path class="cls-7" d="M328.09,173.05c1.42-.12,1.75,1.36,3.83,2.67,2.94,1.84,6.5,1.54,9,1.33a20.39,20.39,0,0,0,2.34-.33,3.32,3.32,0,0,1-.17,2c-.49,1.1-2,.68-3.67,2-.35.28-1.15.92-1,1.33.06.17.32.4,3.5.33,2,0,2.51-.14,3.34.17,1,.38.86.75,1.83,1.17a6.87,6.87,0,0,0,4.33,0c1.59-.37,1.44-.7,2.67-.84,1.45-.16,2,.25,3.17-.16.4-.15,1.5-.53,1.66-1.34s-.87-1.75-1.16-2c-.87-.71-1.43-.6-3.34-1.33-1.43-.55-2.5-1-2.5-1.5s1.49-1.11,1.67-1.17c1.49-.48,2.19.1,3-.5s.39-1,1-1.5c.85-.65,2-.06,3.67.17s1.72-.25,4.66-.33c3.67-.11,4.91.62,5.5-.17s0-2.56-1-3.5c-1.32-1.23-3.28-1-5.16-.83a40.29,40.29,0,0,0-5,1.16c-3.17.77-3.8.85-4.5.5-1.3-.62-.76-1.64-2.34-2.83-1-.75-1.54-.6-4.16-2-1-.54-1.38-.8-1.34-1s1.05-.21,2.5-.33a15.29,15.29,0,0,0,4.84-1.17,4.94,4.94,0,0,0,2.66-2c.41-.74.71-2,.17-2.5-.11-.11-.39-.33-1.83-.17-2.07.24-2.36.79-3.5.67a9.07,9.07,0,0,1-2.34-1c-1.8-.9-1.76-1.06-2.5-1.33-1.28-.47-1.52,0-4-.17s-3.25-.63-4,0-.36,1.11-1,1.5-1.36,0-3-.33a16.68,16.68,0,0,0-3.66-.17c-2,0-3.05.06-3.34.67a1.71,1.71,0,0,0,.5,1.66c.58.62,1.17.44,3,1,1.58.49,1.89.85,2,1a2.15,2.15,0,0,1,.34,2c-.31.76-1,.73-2.5,1.67s-1.43,1.34-2.5,1.83a7.81,7.81,0,0,1-3.17.5c-3.06.22-3,.59-5,.67a31.84,31.84,0,0,1-5.67-.67c-3.68-.59-5.08-1-5.83-.16a1.73,1.73,0,0,0-.33,1.66c.38,1.08,2.12,1.46,3.16,1.5,1.26.05,2.07-.38,2.34,0s-.28.73-.17,1.5c0,.3.17.63,1,1.5a9,9,0,0,0,1.83,1.67,5.94,5.94,0,0,0,4.17,1,10.68,10.68,0,0,0,3-1.67C327.28,173.45,327.42,173.11,328.09,173.05Z"/><path class="cls-8" d="M295.53,165.49c1.6.49,2.48.16,4.12.28s1.85.58,4.44.84c1.59.15,2.18,0,2.44-.34s.05-1.27-.22-1.72c-.76-1.27-2.41-1.54-4.55-1.89a20.86,20.86,0,0,0-3.84-.22c-3.41,0-3.81.46-3.94.72a1.66,1.66,0,0,0,.22,1.45A2.24,2.24,0,0,0,295.53,165.49Z"/><path class="cls-8" d="M290.53,168.66c.63-.5,1.78-.48,4.06-.44,1.25,0,1.92.08,2.17.11a8.07,8.07,0,0,1,3.05.72c.51.26,1.32.68,1.28,1.11s-1.56.85-2.39,1a16.3,16.3,0,0,1-4.39.11c-1.43-.1-1.31-.19-2.39-.22-1.42,0-2,.12-2.22-.22S289.78,169.26,290.53,168.66Z"/><path class="cls-8" d="M288.48,175.22c.75-.7,1.64-.48,4.61-.34,1.85.09,2.45.06,4.44.23,2.6.21,3.08.4,3.17.72.14.49-.72,1.2-1.39,1.55-1,.52-1.54.33-3.55.39a34.56,34.56,0,0,0-4.95.34,2.91,2.91,0,0,1-2.11-.12,1.85,1.85,0,0,1-.89-1.33A1.89,1.89,0,0,1,288.48,175.22Z"/><path class="cls-8" d="M293.65,180.83a15.84,15.84,0,0,1,3.88-1.22,21.38,21.38,0,0,1,4.12-.73,9.72,9.72,0,0,1,3.11.56c.93.29,1.52.48,1.61.89.16.78-1.66,1.74-1.84,1.83-1,.54-1.61.48-4.38.89a29.42,29.42,0,0,1-3.23.44,7.74,7.74,0,0,1-3.27-.38c-.55-.2-1.48-.55-1.5-1.06C292.14,181.84,292.27,181.49,293.65,180.83Z"/><path class="cls-8" d="M303.59,185.61c.21-1.17,1.75-1.74,3.94-2.56a18,18,0,0,1,2.56-.72c1.82-.38,3.29-.68,3.72-.06s-.27,1.67-.61,2.22a6.43,6.43,0,0,1-2.78,2.39,9,9,0,0,1-3,.84c-1.51.21-2.37.33-3.05-.23A2.09,2.09,0,0,1,303.59,185.61Z"/><path class="cls-8" d="M330.65,189.38a2.75,2.75,0,0,1,.72-2.11,3.41,3.41,0,0,1,2.11-.66,11.19,11.19,0,0,1,2.17,0,9.11,9.11,0,0,1,2.94.38c.24.13,1.61.89,1.67,2.17a2.89,2.89,0,0,1-1.23,2.17c-.8.67-1.75.81-3.61,1-1.58.21-2.38.31-3,0A3.47,3.47,0,0,1,330.65,189.38Z"/><path class="cls-8" d="M347.37,188.22c-.62.64-1.58,1.64-1.39,2.61s1.58,1.51,2.83,1.94a5.44,5.44,0,0,0,4.22.17c.37-.18,1.35-.65,1.5-1.5.11-.56-.35-1.22-1.27-2.5a5.86,5.86,0,0,0-1.56-1.78,3.6,3.6,0,0,0-2.94,0A4,4,0,0,0,347.37,188.22Z"/><path class="cls-8" d="M358,187.33c.25.78.75,1.26,2,2.33a8.35,8.35,0,0,0,2.28,1.61,5,5,0,0,0,2.39-.22c.85-.2,1.28-.3,1.5-.67.45-.75-.33-1.91-.39-2-.48-.7-1.27-1-2.83-1.61a11.26,11.26,0,0,0-3-.78c-.8-.07-1.77-.16-2.09.35A1.22,1.22,0,0,0,358,187.33Z"/><path class="cls-8" d="M369.7,188.27a5.89,5.89,0,0,0,2.39,1.45c2.37.89,2.4,1,3.05,1.05a3.48,3.48,0,0,0,2.12-.33c.64-.37,1.5-1.21,1.33-2s-1.19-1.08-2-1.33a10.81,10.81,0,0,0-3.78-.17,20.53,20.53,0,0,0-2.39.39c-.36,0-.85.11-.94.39S369.58,188.13,369.7,188.27Z"/><path class="cls-8" d="M380.42,176.16c0,.33.77.63,3.61,1.61,2.4.83,3.61,1.25,4,1.34a19.64,19.64,0,0,0,5.39.61c1.91-.06,2.54-.38,2.94-.84a2,2,0,0,0,.5-1.89c-.43-1-2.3-1.1-5.33-1.22-3.19-.12-2.91.27-4.78,0a13.09,13.09,0,0,0-4.39-.33C381.92,175.5,380.46,175.72,380.42,176.16Z"/><path class="cls-8" d="M389.7,173.77a28.94,28.94,0,0,1,6.33.67,4.77,4.77,0,0,0,1.5.11c.55-.05,1.79-.16,2.11-.94a1.74,1.74,0,0,0-.66-1.89c-.61-.44-1.25-.22-3.5.16a24,24,0,0,1-3.22.45c-1.42,0-1.94-.35-3.89-.34-1.54,0-1.79.23-1.84.39-.09.31.41.74.73,1A3.86,3.86,0,0,0,389.7,173.77Z"/><path class="cls-8" d="M387.92,170.05c-.21-.45.29-1.14.67-1.5.54-.52,1.16-.66,2.72-.89a22.94,22.94,0,0,1,3.61-.39,11.54,11.54,0,0,1,3.45.95c1.05.4,1.22.57,1.22.72,0,.44-1.46.75-2.33.94a57.61,57.61,0,0,1-7,.61C388.38,170.49,388,170.29,387.92,170.05Z"/><path class="cls-8" d="M379.81,165.61h0a19.17,19.17,0,0,1,5.28-1.89c1.19-.22.8,0,3.39-.23a26.65,26.65,0,0,1,4.33-.33c1.11.06,2.81.15,3,.83s-.85,1.42-1.55,1.84c-1.09.64-1.84.54-5.39.61-1.39,0-2.65,0-5.17.05-.83,0-1.67-.21-2.5-.16a3.28,3.28,0,0,1-1.11-.22.43.43,0,0,1-.21-.15A.63.63,0,0,1,379.81,165.61Z"/><path class="cls-8" d="M367.67,158.49c.12.18.46.56,2.61.48a29.61,29.61,0,0,0,3.25-.39,23.92,23.92,0,0,0,3.2-.47,5.94,5.94,0,0,0,2.61-1.34c.37-.35.91-.85.8-1.36s-1.13-.89-1.66-1c-1.26-.33-1.77,0-4.39.11a7.07,7.07,0,0,0-2.36.25c-.91.37-.89.75-2,1.28s-1.55.39-1.92.92A1.5,1.5,0,0,0,367.67,158.49Z"/><path class="cls-8" d="M360.23,155.94a6.94,6.94,0,0,0,3.55-.31,15.13,15.13,0,0,0,2-.69c1.26-.53,1.4-.78,1.45-.95.15-.54-.35-1.25-.92-1.61s-1.09-.11-3.56.11c-1.58.15-2.18.09-2.66.62a2.87,2.87,0,0,0-.59,1.22,1.53,1.53,0,0,0,0,1.19A1.11,1.11,0,0,0,360.23,155.94Z"/><path class="cls-8" d="M347.23,154.22c.53.31,1.31.46,3,.3a14.71,14.71,0,0,0,2.73-.47,4.91,4.91,0,0,0,1.39-.56,2.16,2.16,0,0,0,1.16-1.25,1.88,1.88,0,0,0-.53-1.55,3.31,3.31,0,0,0-2.27-.78,21.64,21.64,0,0,0-3.23.11c-1.45.06-1.83,0-2.19.36s-.38.76-.56,1.73c-.23,1.31,0,1.69.14,1.86A1.07,1.07,0,0,0,347.23,154.22Z"/><path class="cls-8" d="M333.51,152.86a6,6,0,0,0,2.52,1,15.93,15.93,0,0,0,3,.45c1.45.08,1.85-.1,2.11-.28a2.12,2.12,0,0,0,.83-1.28,2.45,2.45,0,0,0-.39-1.67,4,4,0,0,0-1.5-1.64c-.37-.21-.71-.31-3.33-.3a7.63,7.63,0,0,0-3.42.44c-.92.42-1,.81-1.08,1-.12.52.28,1.08.61,1.53A4.53,4.53,0,0,0,333.51,152.86Z"/><path class="cls-8" d="M318,152.91c.3-.65,1.31-.73,2.89-.86a15.08,15.08,0,0,1,3.05.08,6,6,0,0,1,2.78.73,3,3,0,0,1,1.5,1.94,2.09,2.09,0,0,1-.31,1.58,2.68,2.68,0,0,1-1.94.81,7.6,7.6,0,0,1-2.56-.11,11.29,11.29,0,0,1-3.11-1.06,4.12,4.12,0,0,1-2-1.5C318.18,154.25,317.73,153.5,318,152.91Z"/><path class="cls-4" d="M395.89,184.75a41,41,0,0,0,4.44,8.22c5.43,7.48,25.38,11.76,26.45,12a178.14,178.14,0,0,0,34.44,4.23c8.83.29,18.45.56,31.11-1.34,4.87-.73,12.06-2.71,26.45-6.66,10.34-2.85,15.34-4.49,19.11-9.34,1-1.32,4.57-5.88,3.77-10.66-1.49-9-17.35-13.12-23.55-14.67-31.63-7.89-49.72,5.08-91.33,5.11-2.58,0-13.12-3.14-26.89-1.78-2.26.22-4.06.5-5.1.67a22.68,22.68,0,0,0-.23,9.91A24.47,24.47,0,0,0,395.89,184.75Z"/><path class="cls-5" d="M395,168.84c-1.27,5.52,2.74,10.71,4.78,13.28,2.58,3.23,9.59,10.85,32.39,16.46a157,157,0,0,0,34.52,4.25c12.5.21,21.08-1.1,38.23-3.72s22.39-5,27.08-9c2.26-2,9.85-8.56,9-16.44-.83-7.59-9-12.25-18-17.33a78.87,78.87,0,0,0-18.89-7.56c-4.6-1.24-13.58-3.34-30.51-3.81-25.91-.71-42.78,3.17-47.26,4.25a82.08,82.08,0,0,0-23.56,10.89C398.41,163,395.81,165.38,395,168.84Z"/><path class="cls-6" d="M407.28,175.75c0-1.14.37-2.82,1.16-6.17a10.13,10.13,0,0,1,1.5-3.83,8.76,8.76,0,0,1,2.5-2.33c1.4-.86,2.85-1.18,6.34-1.34,2.86-.12,3.73,0,6.83,0,5.29,0,5.13-.39,7.67-.16a39.14,39.14,0,0,1,7.83,1.83,43.59,43.59,0,0,1,7.83,3c.49.25,1.32.69,2.34,1.33,2.65,1.69,4.62,2.94,4.83,4.67.06.52,0,1.12-1.5,3.33a41.67,41.67,0,0,1-4.5,5.67c-2.52,2.57-3.89,4-6.17,5.33a22.48,22.48,0,0,1-7,2.67,31.66,31.66,0,0,1-14.83-.5c-4.54-1.05-7.16-1.65-9.83-4C411.58,184.64,407.39,181,407.28,175.75Z"/><path class="cls-6" d="M434.44,155.08c0-1.12,1.83-2,3.67-2.66a48.63,48.63,0,0,1,13.5-3c6.89-.62,10.34-.93,13.83-1,6.48-.14,11.35.22,12.84.33,3.87.3,7.13.81,13.66,1.83a55.49,55.49,0,0,1,12.5,3.17c4.62,1.82,5.19,2.85,5.17,3.5,0,1.11-1.79,2-4.17,2.83-5.8,2.14-9.54,2.33-15.5,3.34-5.67,1-6.72,1.55-13.33,2.5-2.59.37-3.89.56-5.67.66a52.3,52.3,0,0,1-12.83-1c-4.21-.79-9.42-3-19.83-7.5C436.79,157.45,434.4,156.4,434.44,155.08Z"/><path class="cls-6" d="M448.94,192.92c-.6-1.56,1-3.62,4.17-7.67,2.52-3.21,3.78-4.81,5.83-6.17a18.88,18.88,0,0,1,9-3c2.22-.17,4.48.28,9,1.17a88.66,88.66,0,0,1,9,2.17c3.14.93,5.93,2.06,11.5,4.33,6.52,2.65,8,3.48,8.17,4.83.17,1.66-1.76,3.14-2.67,3.84-2.11,1.62-4.37,2-7.66,2.33-5.95.62-9.47.64-9.47.64s-7.56,0-16.2.36a71.37,71.37,0,0,1-14.33-.33C450.86,194.8,449.39,194.08,448.94,192.92Z"/><path class="cls-6" d="M479.61,174.25c5,1.47,9.75,3.65,14.83,4.67,12.51,2.49,11.18,3.9,17.5,4.16,4.6.19,11.22.47,14.5-3.83a9.26,9.26,0,0,0,1.67-6.83c-.81-4.24-4.93-6.36-6.5-7.17-4.22-2.17-8.11-1.83-14.67-1.17-9.91,1-8.58,2.93-17,3.5a38.47,38.47,0,0,0-11,3c-.9.38-2.36,1-2.33,1.84C476.64,173.38,478.82,174,479.61,174.25Z"/><path class="cls-7" d="M451.11,173.92c1.42-.12,1.75,1.36,3.83,2.66,2.94,1.85,6.5,1.55,9,1.34a22.44,22.44,0,0,0,2.34-.34,3.31,3.31,0,0,1-.17,2c-.49,1.11-2,.69-3.67,2-.35.29-1.15.93-1,1.34.06.16.32.4,3.5.33,2,0,2.51-.15,3.34.17,1,.38.85.75,1.83,1.16a6.74,6.74,0,0,0,4.33,0c1.59-.37,1.44-.69,2.67-.83,1.45-.17,2,.25,3.17-.17.4-.14,1.5-.52,1.66-1.33s-.87-1.76-1.16-2c-.87-.71-1.43-.6-3.34-1.33-1.43-.55-2.5-1-2.5-1.5s1.49-1.11,1.67-1.17c1.49-.48,2.19.1,3-.5.66-.49.39-1,1-1.5.84-.65,2-.07,3.67.17s1.72-.25,4.66-.34c3.67-.1,4.91.63,5.5-.16s0-2.56-1-3.5c-1.32-1.24-3.28-1-5.16-.84a43.87,43.87,0,0,0-5,1.17c-3.17.77-3.8.84-4.5.5-1.3-.63-.76-1.64-2.34-2.83-1-.75-1.54-.6-4.16-2-1-.55-1.38-.81-1.34-1s1.05-.21,2.5-.34a15.1,15.1,0,0,0,4.84-1.16,4.94,4.94,0,0,0,2.66-2c.41-.74.71-2,.17-2.5-.11-.11-.39-.33-1.83-.17-2.07.24-2.36.79-3.5.67a9.92,9.92,0,0,1-2.34-1c-1.8-.9-1.76-1.07-2.5-1.34-1.28-.46-1.52,0-4-.16s-3.25-.64-4,0-.36,1.11-1,1.5-1.36,0-3-.34a16.77,16.77,0,0,0-3.66-.16c-2,0-3,.06-3.34.66a1.73,1.73,0,0,0,.5,1.67c.58.62,1.17.44,3,1,1.58.49,1.89.85,2,1a2.18,2.18,0,0,1,.34,2c-.31.75-1,.72-2.5,1.67s-1.43,1.33-2.5,1.83a8,8,0,0,1-3.17.5c-3.06.21-3,.59-5,.67a31.84,31.84,0,0,1-5.67-.67c-3.68-.59-5.08-1-5.83-.17a1.76,1.76,0,0,0-.33,1.67c.38,1.08,2.12,1.46,3.16,1.5,1.26.05,2.07-.38,2.34,0s-.29.73-.17,1.5c0,.3.17.63,1,1.5a9.35,9.35,0,0,0,1.83,1.67,6,6,0,0,0,4.17,1,10.82,10.82,0,0,0,3-1.67C450.3,174.31,450.44,174,451.11,173.92Z"/><path class="cls-8" d="M418.55,166.36c1.6.49,2.48.16,4.11.28s1.86.58,4.45.83c1.59.16,2.18.05,2.44-.33s.05-1.27-.22-1.72c-.76-1.27-2.41-1.54-4.55-1.89a20.86,20.86,0,0,0-3.84-.22c-3.41,0-3.81.45-3.94.72a1.63,1.63,0,0,0,.22,1.44A2.26,2.26,0,0,0,418.55,166.36Z"/><path class="cls-8" d="M413.55,169.53c.63-.5,1.78-.49,4.06-.45,1.25,0,1.92.09,2.17.12a8.07,8.07,0,0,1,3.05.72c.5.25,1.32.67,1.28,1.11s-1.56.84-2.39,1a16.72,16.72,0,0,1-4.39.11c-1.44-.1-1.31-.19-2.39-.22-1.42,0-2,.12-2.22-.22S412.8,170.13,413.55,169.53Z"/><path class="cls-8" d="M411.5,176.08c.75-.69,1.64-.48,4.61-.33,1.85.09,2.45.06,4.44.22,2.59.22,3.08.41,3.17.73.14.49-.72,1.19-1.39,1.55-1,.51-1.54.33-3.55.39a36.55,36.55,0,0,0-4.95.33,2.86,2.86,0,0,1-2.11-.11,1.85,1.85,0,0,1-.89-1.33A1.94,1.94,0,0,1,411.5,176.08Z"/><path class="cls-8" d="M416.66,181.7a16.08,16.08,0,0,1,3.89-1.23,21.8,21.8,0,0,1,4.11-.72,9.47,9.47,0,0,1,3.12.56c.93.29,1.52.48,1.61.89.16.78-1.66,1.74-1.84,1.83-1,.54-1.61.48-4.39.89a29,29,0,0,1-3.22.44,7.65,7.65,0,0,1-3.28-.39c-.54-.2-1.47-.54-1.5-1.05C415.16,182.71,415.29,182.36,416.66,181.7Z"/><path class="cls-8" d="M426.61,186.47c.21-1.16,1.75-1.74,3.94-2.55a16.62,16.62,0,0,1,2.56-.72c1.82-.38,3.29-.68,3.72-.06s-.27,1.67-.61,2.22a6.43,6.43,0,0,1-2.78,2.39,8.68,8.68,0,0,1-3,.83c-1.51.22-2.37.34-3.05-.22A2.11,2.11,0,0,1,426.61,186.47Z"/><path class="cls-8" d="M453.66,190.25a2.81,2.81,0,0,1,.73-2.11,3.45,3.45,0,0,1,2.11-.67,12.1,12.1,0,0,1,2.16,0,9,9,0,0,1,2.95.39,3,3,0,0,1,1.67,2.17,2.89,2.89,0,0,1-1.23,2.17c-.8.67-1.75.8-3.61,1.05-1.58.21-2.38.31-3,0A3.5,3.5,0,0,1,453.66,190.25Z"/><path class="cls-8" d="M470.39,189.08c-.62.64-1.58,1.64-1.39,2.62s1.58,1.51,2.83,1.94a5.48,5.48,0,0,0,4.22.17c.37-.18,1.35-.65,1.5-1.5.11-.56-.35-1.22-1.27-2.5a5.86,5.86,0,0,0-1.56-1.78,3.6,3.6,0,0,0-2.94,0A4.12,4.12,0,0,0,470.39,189.08Z"/><path class="cls-8" d="M481,188.2c.25.77.75,1.26,2.05,2.33a8.35,8.35,0,0,0,2.28,1.61,5.09,5.09,0,0,0,2.39-.22c.85-.2,1.28-.31,1.5-.67.45-.75-.33-1.92-.39-2-.49-.7-1.27-1-2.83-1.61a11.26,11.26,0,0,0-2.95-.78c-.8-.08-1.77-.16-2.09.35A1.22,1.22,0,0,0,481,188.2Z"/><path class="cls-8" d="M492.72,189.14a6,6,0,0,0,2.39,1.44c2.37.9,2.4,1,3.05,1.06a3.56,3.56,0,0,0,2.12-.33c.64-.37,1.5-1.21,1.33-2s-1.19-1.08-2-1.34a10.86,10.86,0,0,0-3.78-.16,20.53,20.53,0,0,0-2.39.39c-.36.05-.85.11-.94.38S492.6,189,492.72,189.14Z"/><path class="cls-8" d="M503.44,177c0,.33.77.63,3.61,1.61,2.4.83,3.61,1.25,3.95,1.33a19.2,19.2,0,0,0,5.39.61c1.91-.05,2.54-.37,2.94-.83a2,2,0,0,0,.5-1.89c-.43-1-2.3-1.1-5.33-1.22-3.19-.12-2.91.26-4.78,0a12.83,12.83,0,0,0-4.39-.33C504.94,176.37,503.48,176.59,503.44,177Z"/><path class="cls-8" d="M512.72,174.64a28.94,28.94,0,0,1,6.33.67,5.11,5.11,0,0,0,1.5.11c.55,0,1.79-.16,2.11-.95a1.74,1.74,0,0,0-.66-1.89c-.61-.43-1.25-.21-3.5.17a26,26,0,0,1-3.22.45c-1.42,0-1.94-.36-3.89-.34-1.54,0-1.79.23-1.84.39-.09.31.41.74.73.95A3.93,3.93,0,0,0,512.72,174.64Z"/><path class="cls-8" d="M510.94,170.92c-.21-.45.29-1.14.67-1.5.54-.52,1.15-.67,2.72-.89a21.61,21.61,0,0,1,3.61-.39,11.49,11.49,0,0,1,3.45.94c1.05.4,1.22.58,1.22.73,0,.43-1.46.75-2.33.94a29.86,29.86,0,0,1-3.95.45c-1,.08-1.85.16-3.05.16C511.4,171.36,511.06,171.16,510.94,170.92Z"/><path class="cls-8" d="M502.83,166.47h0a19.17,19.17,0,0,1,5.28-1.89c1.19-.21.8,0,3.39-.22a26.65,26.65,0,0,1,4.33-.33c1.11.06,2.81.14,3,.83s-.85,1.42-1.55,1.84c-1.09.63-1.84.54-5.39.61l-5.17.05c-.84,0-1.67-.22-2.5-.16a3.14,3.14,0,0,1-1.11-.23.36.36,0,0,1-.21-.14A.67.67,0,0,1,502.83,166.47Z"/><path class="cls-8" d="M490.69,159.36c.12.18.46.55,2.61.47a29.14,29.14,0,0,0,3.25-.38,23.31,23.31,0,0,0,3.2-.48,5.83,5.83,0,0,0,2.61-1.33c.37-.35.91-.85.8-1.36s-1.13-.89-1.66-1c-1.26-.33-1.77,0-4.39.11a7.07,7.07,0,0,0-2.36.25c-.91.37-.89.74-2,1.28s-1.55.39-1.92.92A1.48,1.48,0,0,0,490.69,159.36Z"/><path class="cls-8" d="M483.25,156.81a7.06,7.06,0,0,0,3.55-.31,15.13,15.13,0,0,0,2-.69c1.25-.53,1.4-.78,1.45-.95.15-.54-.35-1.25-.92-1.61s-1.09-.11-3.56.11c-1.58.15-2.18.09-2.66.61a3,3,0,0,0-.59,1.23,1.53,1.53,0,0,0,0,1.19A1.11,1.11,0,0,0,483.25,156.81Z"/><path class="cls-8" d="M470.25,155.08c.53.32,1.31.47,3.05.31a15.58,15.58,0,0,0,2.73-.47,4.83,4.83,0,0,0,1.38-.56,2.15,2.15,0,0,0,1.17-1.25,1.88,1.88,0,0,0-.53-1.55,3.31,3.31,0,0,0-2.27-.78,20.27,20.27,0,0,0-3.23.11c-1.45.06-1.83,0-2.19.36s-.38.76-.56,1.72c-.24,1.31,0,1.7.14,1.86A.93.93,0,0,0,470.25,155.08Z"/><path class="cls-8" d="M456.53,153.72a5.82,5.82,0,0,0,2.52,1.06,16.11,16.11,0,0,0,2.95.44c1.45.08,1.85-.1,2.11-.27a2.17,2.17,0,0,0,.83-1.28,2.45,2.45,0,0,0-.39-1.67,3.91,3.91,0,0,0-1.5-1.64c-.37-.21-.71-.31-3.33-.3a7.63,7.63,0,0,0-3.42.44c-.92.42-1.05.8-1.08.95-.12.52.28,1.07.61,1.52A3.77,3.77,0,0,0,456.53,153.72Z"/><path class="cls-8" d="M441,153.78c.3-.65,1.31-.74,2.88-.86A14.44,14.44,0,0,1,447,153a6.19,6.19,0,0,1,2.78.72,3.07,3.07,0,0,1,1.5,1.95,2.09,2.09,0,0,1-.31,1.58,2.68,2.68,0,0,1-1.94.81,7.6,7.6,0,0,1-2.56-.11,12,12,0,0,1-3.11-1.06,4.12,4.12,0,0,1-2-1.5C441.2,155.12,440.75,154.37,441,153.78Z"/><path class="cls-4" d="M526,184.75a41,41,0,0,0,4.44,8.22c5.43,7.48,25.38,11.76,26.45,12a178.14,178.14,0,0,0,34.44,4.23c8.83.29,18.45.56,31.11-1.34,4.87-.73,12.06-2.71,26.45-6.66,10.34-2.85,15.34-4.49,19.11-9.34,1-1.32,4.57-5.88,3.78-10.66-1.49-9-17.35-13.12-23.56-14.67-31.63-7.89-49.72,5.08-91.33,5.11-2.57,0-13.12-3.14-26.89-1.78-2.25.22-4.06.5-5.1.67a22.84,22.84,0,0,0-.23,9.91A25.34,25.34,0,0,0,526,184.75Z"/><path class="cls-5" d="M525.1,168.84c-1.27,5.52,2.75,10.71,4.78,13.28,2.58,3.23,9.59,10.85,32.4,16.46a156.84,156.84,0,0,0,34.51,4.25c12.51.21,21.08-1.1,38.23-3.72s22.4-5,27.09-9c2.26-2,9.84-8.56,9-16.44-.83-7.59-9-12.25-18-17.33a78.51,78.51,0,0,0-18.89-7.56c-4.6-1.24-13.58-3.34-30.51-3.81-25.91-.71-42.78,3.17-47.26,4.25a82.21,82.21,0,0,0-23.56,10.89C528.5,163,525.9,165.38,525.1,168.84Z"/><path class="cls-6" d="M537.37,175.75c0-1.14.37-2.82,1.17-6.17a10,10,0,0,1,1.5-3.83,8.47,8.47,0,0,1,2.5-2.33c1.4-.86,2.84-1.18,6.33-1.34,2.86-.12,3.74,0,6.83,0,5.29,0,5.13-.39,7.67-.16a39.14,39.14,0,0,1,7.83,1.83,43.79,43.79,0,0,1,7.84,3c.48.25,1.31.69,2.33,1.33,2.66,1.69,4.62,2.94,4.83,4.67.07.52,0,1.12-1.5,3.33a41.67,41.67,0,0,1-4.5,5.67c-2.51,2.57-3.88,4-6.16,5.33a22.57,22.57,0,0,1-7,2.67,31.7,31.7,0,0,1-14.84-.5c-4.54-1.05-7.16-1.65-9.83-4C541.68,184.64,537.48,181,537.37,175.75Z"/><path class="cls-6" d="M564.54,155.08c0-1.12,1.82-2,3.66-2.66a48.63,48.63,0,0,1,13.5-3c6.9-.62,10.34-.93,13.84-1,6.47-.14,11.35.22,12.83.33,3.87.3,7.13.81,13.67,1.83a55.76,55.76,0,0,1,12.5,3.17c4.61,1.82,5.18,2.85,5.16,3.5,0,1.11-1.78,2-4.16,2.83-5.8,2.14-9.55,2.33-15.5,3.34-5.68,1-6.73,1.55-13.34,2.5-2.59.37-3.89.56-5.66.66a52.37,52.37,0,0,1-12.84-1c-4.2-.79-9.41-3-19.83-7.5C566.89,157.45,564.5,156.4,564.54,155.08Z"/><path class="cls-6" d="M579,192.92c-.61-1.56,1-3.62,4.16-7.67,2.53-3.21,3.79-4.81,5.84-6.17a18.85,18.85,0,0,1,9-3c2.21-.17,4.47.28,9,1.17a90,90,0,0,1,9,2.17c3.13.93,5.92,2.06,11.5,4.33,6.52,2.65,8,3.48,8.16,4.83.18,1.66-1.76,3.14-2.66,3.84-2.11,1.62-4.37,2-7.67,2.33-5.94.62-9.47.64-9.47.64s-7.56,0-16.2.36a71.37,71.37,0,0,1-14.33-.33C581,194.8,579.49,194.08,579,192.92Z"/><path class="cls-6" d="M609.7,174.25c5,1.47,9.75,3.65,14.84,4.67,12.5,2.49,11.17,3.9,17.5,4.16,4.59.19,11.21.47,14.5-3.83a9.23,9.23,0,0,0,1.66-6.83c-.81-4.24-4.93-6.36-6.5-7.17-4.21-2.17-8.11-1.83-14.66-1.17-9.91,1-8.59,2.93-17,3.5a38.39,38.39,0,0,0-11,3c-.91.38-2.37,1-2.34,1.84C606.74,173.38,608.91,174,609.7,174.25Z"/><path class="cls-7" d="M581.2,173.92c1.42-.12,1.75,1.36,3.84,2.66,2.94,1.85,6.49,1.55,9,1.34a22.18,22.18,0,0,0,2.33-.34,3.24,3.24,0,0,1-.17,2c-.49,1.11-2,.69-3.66,2-.35.29-1.15.93-1,1.34.06.16.31.4,3.5.33,2,0,2.5-.15,3.33.17,1,.38.86.75,1.83,1.16a6.77,6.77,0,0,0,4.34,0c1.58-.37,1.43-.69,2.66-.83,1.45-.17,2,.25,3.17-.17.41-.14,1.5-.52,1.67-1.33s-.88-1.76-1.17-2c-.87-.71-1.42-.6-3.33-1.33-1.43-.55-2.51-1-2.5-1.5s1.48-1.11,1.66-1.17c1.5-.48,2.19.1,3-.5s.39-1,1-1.5c.85-.65,2-.07,3.67.17s1.72-.25,4.67-.34c3.66-.1,4.9.63,5.5-.16s0-2.56-1-3.5c-1.33-1.24-3.29-1-5.17-.84a44.41,44.41,0,0,0-5,1.17c-3.17.77-3.8.84-4.5.5-1.29-.63-.75-1.64-2.33-2.83-1-.75-1.55-.6-4.17-2-1-.55-1.38-.81-1.33-1s1-.21,2.5-.34a15.1,15.1,0,0,0,4.83-1.16,5,5,0,0,0,2.67-2c.4-.74.7-2,.16-2.5-.11-.11-.39-.33-1.83-.17-2.06.24-2.36.79-3.5.67a9.91,9.91,0,0,1-2.33-1c-1.8-.9-1.76-1.07-2.5-1.34-1.29-.46-1.52,0-4-.16s-3.26-.64-4,0-.37,1.11-1,1.5-1.37,0-3-.34a16.86,16.86,0,0,0-3.67-.16c-2,0-3,.06-3.33.66a1.68,1.68,0,0,0,.5,1.67c.58.62,1.16.44,3,1,1.57.49,1.88.85,2,1a2.18,2.18,0,0,1,.33,2c-.31.75-1,.72-2.5,1.67s-1.42,1.33-2.5,1.83a8,8,0,0,1-3.17.5c-3.05.21-3,.59-5,.67a31.85,31.85,0,0,1-5.66-.67c-3.68-.59-5.09-1-5.84-.17a1.76,1.76,0,0,0-.33,1.67c.38,1.08,2.13,1.46,3.17,1.5,1.25.05,2.06-.38,2.33,0s-.28.73-.17,1.5c0,.3.18.63,1,1.5a9.65,9.65,0,0,0,1.84,1.67,6,6,0,0,0,4.16,1,10.68,10.68,0,0,0,3-1.67C580.39,174.31,580.54,174,581.2,173.92Z"/><path class="cls-8" d="M548.65,166.36c1.59.49,2.47.16,4.11.28s1.85.58,4.44.83c1.6.16,2.19.05,2.45-.33s0-1.27-.23-1.72c-.75-1.27-2.4-1.54-4.55-1.89a20.69,20.69,0,0,0-3.83-.22c-3.42,0-3.82.45-3.95.72a1.63,1.63,0,0,0,.22,1.44A2.28,2.28,0,0,0,548.65,166.36Z"/><path class="cls-8" d="M543.65,169.53c.62-.5,1.77-.49,4.05-.45,1.25,0,1.92.09,2.17.12a8,8,0,0,1,3,.72c.51.25,1.33.67,1.28,1.11s-1.55.84-2.39,1a16.71,16.71,0,0,1-4.39.11c-1.43-.1-1.31-.19-2.38-.22-1.43,0-2,.12-2.23-.22S542.9,170.13,543.65,169.53Z"/><path class="cls-8" d="M541.59,176.08c.75-.69,1.64-.48,4.61-.33,1.86.09,2.45.06,4.45.22,2.59.22,3.07.41,3.16.73.14.49-.72,1.19-1.39,1.55-.95.51-1.54.33-3.55.39a36.55,36.55,0,0,0-5,.33,2.86,2.86,0,0,1-2.11-.11,1.85,1.85,0,0,1-.89-1.33A2,2,0,0,1,541.59,176.08Z"/><path class="cls-8" d="M546.76,181.7a16,16,0,0,1,3.89-1.23,21.66,21.66,0,0,1,4.11-.72,9.45,9.45,0,0,1,3.11.56c.93.29,1.52.48,1.61.89.16.78-1.66,1.74-1.83,1.83-1,.54-1.62.48-4.39.89a29.32,29.32,0,0,1-3.22.44,7.63,7.63,0,0,1-3.28-.39c-.55-.2-1.48-.54-1.5-1.05C545.25,182.71,545.38,182.36,546.76,181.7Z"/><path class="cls-8" d="M556.7,186.47c.21-1.16,1.75-1.74,3.95-2.55a16,16,0,0,1,2.55-.72c1.83-.38,3.3-.68,3.72-.06s-.27,1.67-.61,2.22a6.47,6.47,0,0,1-2.77,2.39,8.68,8.68,0,0,1-3,.83c-1.51.22-2.37.34-3.06-.22A2.11,2.11,0,0,1,556.7,186.47Z"/><path class="cls-8" d="M583.76,190.25a2.79,2.79,0,0,1,.72-2.11,3.47,3.47,0,0,1,2.11-.67,12.2,12.2,0,0,1,2.17,0,9,9,0,0,1,2.94.39,3,3,0,0,1,1.67,2.17,2.88,2.88,0,0,1-1.22,2.17c-.81.67-1.76.8-3.61,1.05-1.58.21-2.38.31-3,0A3.46,3.46,0,0,1,583.76,190.25Z"/><path class="cls-8" d="M600.48,189.08c-.61.64-1.57,1.64-1.39,2.62s1.58,1.51,2.83,1.94a5.5,5.5,0,0,0,4.23.17c.36-.18,1.34-.65,1.5-1.5.1-.56-.36-1.22-1.28-2.5a5.86,5.86,0,0,0-1.56-1.78,3.61,3.61,0,0,0-2.94,0A4.12,4.12,0,0,0,600.48,189.08Z"/><path class="cls-8" d="M611.09,188.2c.26.77.75,1.26,2.06,2.33a8.22,8.22,0,0,0,2.27,1.61,5.08,5.08,0,0,0,2.39-.22c.86-.2,1.29-.31,1.5-.67.46-.75-.33-1.92-.39-2-.48-.7-1.27-1-2.83-1.61a11.32,11.32,0,0,0-2.94-.78c-.81-.08-1.78-.16-2.09.35A1.18,1.18,0,0,0,611.09,188.2Z"/><path class="cls-8" d="M622.81,189.14a6,6,0,0,0,2.39,1.44c2.38.9,2.41,1,3.06,1.06a3.52,3.52,0,0,0,2.11-.33c.65-.37,1.5-1.21,1.33-2s-1.19-1.08-2-1.34a10.86,10.86,0,0,0-3.78-.16,20.18,20.18,0,0,0-2.38.39c-.37.05-.86.11-.95.38S622.69,189,622.81,189.14Z"/><path class="cls-8" d="M633.54,177c0,.33.76.63,3.61,1.61,2.4.83,3.6,1.25,3.94,1.33a19.25,19.25,0,0,0,5.39.61c1.91-.05,2.54-.37,2.94-.83a2,2,0,0,0,.5-1.89c-.42-1-2.3-1.1-5.33-1.22-3.18-.12-2.91.26-4.78,0a12.83,12.83,0,0,0-4.39-.33C635,176.37,633.57,176.59,633.54,177Z"/><path class="cls-8" d="M642.81,174.64a29.07,29.07,0,0,1,6.34.67,5.07,5.07,0,0,0,1.5.11c.54,0,1.78-.16,2.11-.95a1.75,1.75,0,0,0-.67-1.89c-.61-.43-1.25-.21-3.5.17a26,26,0,0,1-3.22.45c-1.42,0-1.94-.36-3.89-.34-1.54,0-1.78.23-1.83.39-.1.31.4.74.72.95A3.93,3.93,0,0,0,642.81,174.64Z"/><path class="cls-8" d="M641,170.92c-.22-.45.29-1.14.66-1.5.54-.52,1.16-.67,2.72-.89a21.69,21.69,0,0,1,3.62-.39,11.52,11.52,0,0,1,3.44.94c1,.4,1.22.58,1.22.73,0,.43-1.46.75-2.33.94a29.63,29.63,0,0,1-4,.45c-1,.08-1.85.16-3,.16C641.49,171.36,641.15,171.16,641,170.92Z"/><path class="cls-8" d="M632.92,166.47h0a19.32,19.32,0,0,1,5.28-1.89c1.2-.21.8,0,3.39-.22a26.65,26.65,0,0,1,4.33-.33c1.12.06,2.81.14,3,.83s-.85,1.42-1.55,1.84c-1.08.63-1.84.54-5.39.61l-5.17.05c-.83,0-1.66-.22-2.5-.16a3.17,3.17,0,0,1-1.11-.23.39.39,0,0,1-.21-.14A.79.79,0,0,1,632.92,166.47Z"/><path class="cls-8" d="M620.79,159.36c.11.18.45.55,2.61.47a29.4,29.4,0,0,0,3.25-.38,23.07,23.07,0,0,0,3.19-.48,5.78,5.78,0,0,0,2.61-1.33c.37-.35.91-.85.81-1.36s-1.14-.89-1.67-1c-1.26-.33-1.76,0-4.39.11a7.07,7.07,0,0,0-2.36.25c-.91.37-.88.74-2,1.28s-1.55.39-1.91.92A1.46,1.46,0,0,0,620.79,159.36Z"/><path class="cls-8" d="M613.34,156.81a7.1,7.1,0,0,0,3.56-.31,15.18,15.18,0,0,0,2-.69c1.26-.53,1.4-.78,1.45-.95.16-.54-.35-1.25-.92-1.61s-1.09-.11-3.55.11c-1.59.15-2.18.09-2.67.61a2.79,2.79,0,0,0-.58,1.23,1.45,1.45,0,0,0,0,1.19A1.06,1.06,0,0,0,613.34,156.81Z"/><path class="cls-8" d="M600.34,155.08c.53.32,1.32.47,3.06.31a15.63,15.63,0,0,0,2.72-.47,4.91,4.91,0,0,0,1.39-.56,2.13,2.13,0,0,0,1.16-1.25,1.88,1.88,0,0,0-.52-1.55,3.33,3.33,0,0,0-2.28-.78,20.14,20.14,0,0,0-3.22.11c-1.45.06-1.83,0-2.2.36s-.38.76-.55,1.72c-.24,1.31,0,1.7.14,1.86A1,1,0,0,0,600.34,155.08Z"/><path class="cls-8" d="M586.62,153.72a5.9,5.9,0,0,0,2.53,1.06,15.82,15.82,0,0,0,2.94.44c1.46.08,1.85-.1,2.11-.27a2.21,2.21,0,0,0,.84-1.28,2.56,2.56,0,0,0-.39-1.67,4,4,0,0,0-1.5-1.64c-.38-.21-.71-.31-3.34-.3a7.61,7.61,0,0,0-3.41.44c-.92.42-1,.8-1.09.95-.12.52.29,1.07.61,1.52A3.77,3.77,0,0,0,586.62,153.72Z"/><path class="cls-8" d="M571.12,153.78c.3-.65,1.32-.74,2.89-.86a14.34,14.34,0,0,1,3,.08,6.15,6.15,0,0,1,2.78.72,3.07,3.07,0,0,1,1.5,1.95,2.08,2.08,0,0,1-.3,1.58,2.7,2.7,0,0,1-1.95.81,7.54,7.54,0,0,1-2.55-.11,12.08,12.08,0,0,1-3.12-1.06,4.12,4.12,0,0,1-2-1.5C571.29,155.12,570.84,154.37,571.12,153.78Z"/><path class="cls-9" d="M204,155.64c-.56.37-3.93,3.18-7.34,2.44-.59-.12-1-.31-1.44-.11-1.75.78-1.62,6-.11,9.67,1.77,4.32,5.51,6.6,7.55,7.78C216.7,183.57,228,186.2,228,186.2c14.32,3.34,22.74,5.3,36.11,6.55,15.68,1.46,27.27.92,39.66.33,18.3-.86,28-2.67,33.67-3.88a86.39,86.39,0,0,0,23.89-8.89c9.32-5.19,11.69-8.9,12.78-11.56a21,21,0,0,0-.11-14.22C362.21,123.72,210.25,151.45,204,155.64Z"/><path class="cls-10" d="M213.39,176.08c9.46,4.58,19,7.28,32,9.34,16.3,2.57,28.69,2.64,42.33,2.66,22.7,0,36.08-1.77,40-2.33a132.07,132.07,0,0,0,29-7.67c13.77-5.35,16.67-9.15,18-12.33a18,18,0,0,0-1.66-16.67,16.52,16.52,0,0,0-6-5,99,99,0,0,0-26.34-9.66c-24.42-4.31-36.63-6.47-39.66-6.67-11.42-.76-22.28,0-44,1.67a191,191,0,0,0-37,6c-8,2.14-16.07,4.93-21.67,12.33-1.81,2.39-4.73,6.24-4.33,11C194.75,166.91,205,172,213.39,176.08Z"/><path class="cls-11" d="M205.31,152.17a4.84,4.84,0,0,0,4,.33c.6-.2,2.07-.79,2-1.33s-2.42-.88-3.84-.84c-.33,0-2.86.09-3,.84C204.4,151.56,205,152,205.31,152.17Z"/><path class="cls-11" d="M214,150.17c.1-.9,1.32-1.43,2.67-2a12,12,0,0,1,3.5-1,35.29,35.29,0,0,1,4,.08c1.54,0,2,0,2.08.17.11.4-2.13,1.4-3.66,2.08-2.53,1.12-3.49,1.31-3.67,2.08-.24,1,1.19,1.81.83,2.5s-1.75.73-2.66.17c-.7-.43-.42-.92-1.34-1.75-.62-.56-1.05-.62-1.42-1.26A1.86,1.86,0,0,1,214,150.17Z"/><path class="cls-11" d="M220.06,140.5c-.3.46.27,1.54,1.08,2.08a3.38,3.38,0,0,0,2.92.17c.23-.07,2-.64,2-1.58,0-.59-.71-1.07-1.17-1.25a3.2,3.2,0,0,0-1.58-.09c-.67.06-.72.13-1.92.34C220.34,140.35,220.17,140.32,220.06,140.5Z"/><path class="cls-11" d="M234.06,141.92c.7,1.13,3,1,4.16.83a7.52,7.52,0,0,0,3.25-1.5c1-.73,1.56-1.11,1.59-1.67.06-1.47-3.54-2.64-3.42-2.91s1.52.22,1.5.41-1.67-.17-3.92.42c-.29.08-1.06.41-2.58,1.08-.74.33-1.23.56-1.33,1,0,.13,0,.29.25,1.09A7.5,7.5,0,0,0,234.06,141.92Z"/><path class="cls-11" d="M244.47,136.75c-.12-.23.8-1.17,2-1.67a8.76,8.76,0,0,1,2.84-.41,22.23,22.23,0,0,1,2.5,0c1.86.09,2.79.14,3,.58.37.81-1.3,2.31-1.42,2.42-.59.52-.74.43-1.75,1.16-1.32,1-1.23,1.24-1.83,1.42a2.91,2.91,0,0,1-3.09-1.17c-.29-.54-.1-.9-.58-1.5a2.08,2.08,0,0,0-1.08-.75C244.7,136.75,244.52,136.84,244.47,136.75Z"/><path class="cls-11" d="M248.89,152.5a2.83,2.83,0,0,1,.92-2.42c.43-.4.66-.36,3.5-.91a5.94,5.94,0,0,1,2.66-.25c.1,0,1.7.39,1.75,1.08s-1.56,1.44-3,2.08-1.73.53-2.41,1.09c-1.08.87-1.18,1.78-1.75,1.75s-1.15-1.16-1.42-1.75A2.57,2.57,0,0,1,248.89,152.5Z"/><path class="cls-11" d="M242.31,158.17c-.93-.45-1.7-1.53-1.42-2.09.18-.35.9-.38,2.33-.41,1.64,0,2.46-.06,2.67.33.31.58-.45,1.81-1.5,2.25A2.57,2.57,0,0,1,242.31,158.17Z"/><path class="cls-11" d="M233.14,150.42c.64.78,2.65.05,4.17-.5,1.23-.45,2.79-1,2.75-1.67s-1.91-1.05-2.09-1.08c-1.48-.28-3.93-.1-4.75,1.5C233,149.11,232.76,150,233.14,150.42Z"/><path class="cls-11" d="M210.06,167.17c2.74-.17,3.16-1.58,5.66-1.67a19.5,19.5,0,0,1,2.59.08c1.17.14,1.51.32,1.91.09.78-.46,1-2,.5-3.09a3.86,3.86,0,0,0-2.91-1.83,7.31,7.31,0,0,0-4.67,1c-.7.35-.21.2-2.75,1.83a7.24,7.24,0,0,0-2.08,1.84c-.32.44-.65.89-.5,1.25C208.06,167.29,209.61,167.2,210.06,167.17Z"/><path class="cls-11" d="M225.81,174.92h0s4.45-.18,5.25-2.09a2,2,0,0,0-.5-2.16c-.83-.72-2.38-.41-3.25.33C227.31,171,226.71,171.51,225.81,174.92Z"/><path class="cls-11" d="M243.72,181.42c1.84.24,2.21,1.28,3.84,1.75.95.28,2.88.51,3.58-.5a2.46,2.46,0,0,0-.58-2.92c-1.16-1-3.16-.36-4-.08s-.75.38-2,.83-2.1.6-2.09.75S243.08,181.33,243.72,181.42Z"/><path class="cls-11" d="M265,181.92c.73.72,2.08.54,4.75.16a17.27,17.27,0,0,0,4.17-1c2.08-.83,2.68-1.63,2.92-2a2.37,2.37,0,0,0,.5-1.91c-.21-.55-.76-.76-3-1.42-3.34-1-3.69-1-4-1a10.35,10.35,0,0,0-3.42.83c-1.59.56-2.39.85-2.75,1.59a3.56,3.56,0,0,0,0,2.25C264.36,180.73,264.47,181.42,265,181.92Z"/><path class="cls-11" d="M293.14,179a14.59,14.59,0,0,0,4.83,2,21.81,21.81,0,0,0,5,1,7.54,7.54,0,0,0,4.09-.83,3.39,3.39,0,0,0,1.83-2.09,2.51,2.51,0,0,0-3-3.08c-.9.19-1.1.76-1.92,1.33a6.08,6.08,0,0,1-4.5.75c-.71-.16-.45-.26-2.83-1.33-1.88-.84-2.42-.95-3-.83-.83.16-1.8.77-1.83,1.5C291.79,177.82,292.05,178.26,293.14,179Z"/><path class="cls-11" d="M314.14,172.75a8.65,8.65,0,0,0,3.75,1.42c2,.3,3,.46,3.5-.17a2,2,0,0,0,.17-1.92c-.54-1.29-2.26-1.58-3.25-1.75a6.86,6.86,0,0,0-3.09.25c-.5.17-1.81.6-1.83,1.25C313.38,172.1,313.58,172.36,314.14,172.75Z"/><path class="cls-11" d="M304.47,163.92c.6.76,1.7,1,3.92,1.5,1.74.38,2.07.27,2.25.08a1.88,1.88,0,0,0-.42-2.33c-.64-.57-1.18-.09-2.91-.67-.67-.22-1.56-.62-1.67-.67-1.11-.49-1.37-.71-1.58-.58C303.64,161.51,303.73,163,304.47,163.92Z"/><path class="cls-11" d="M276.06,159.67c.72,1.46,2.1,2.07,4.25,3a17.79,17.79,0,0,0,5,1.41,6.91,6.91,0,0,0,3.75-.33c.54-.23,1.49-.64,1.58-1.33.12-1-1.54-1.89-2.33-2.34-1.48-.82-2-.68-4.25-1.41-2.72-.9-3.05-1.47-4.92-1.67-.87-.09-2.77-.29-3.33.67C275.4,158.36,275.88,159.32,276.06,159.67Z"/><path class="cls-11" d="M241.06,163.75a14.35,14.35,0,0,1,6.91.75,19.65,19.65,0,0,0,2.34.92,10.68,10.68,0,0,0,3.16.41,19.47,19.47,0,0,0,3.5-.5c1.41-.27,1.77-.41,2.17-.16a2.47,2.47,0,0,1,.58,2.75c-.5,1.43-2.14,2-3.25,2.33a10.19,10.19,0,0,1-4.25.33,35.63,35.63,0,0,1-8.33-2.25,8,8,0,0,1-2.67-2c-.3-.36-1.27-1.51-.91-2.16A1,1,0,0,1,241.06,163.75Z"/><path class="cls-11" d="M257.47,172.58a1.67,1.67,0,0,0,2.17-.08,1.45,1.45,0,0,0,.33-1.67c-.46-.78-1.8-.46-2-.41a1.14,1.14,0,0,0-.5,2.16Z"/><path class="cls-11" d="M265.22,153.33a1.89,1.89,0,0,0,2.5,1,1.16,1.16,0,0,0,.42-1.25c-.23-.65-1.18-.83-1.83-.66C265.85,152.53,265.21,152.91,265.22,153.33Z"/><path class="cls-11" d="M262,144.92c.45.94,2.17.59,6.42.83,2,.11,2.78.26,4.83.25,3.37,0,3.84-.41,4-.75.37-.75-.35-2-1.16-2.58a3.49,3.49,0,0,0-2.42-.59c-1.49.13-1.77,1-3.42,1.5a8.48,8.48,0,0,1-3.58.25c-2.58-.17-3.75-1-4.42-.33A1.35,1.35,0,0,0,262,144.92Z"/><path class="cls-11" d="M263.72,138.58a7,7,0,0,0,3.75,1.42,4.6,4.6,0,0,0,2.84-.5c.27-.16,1.41-.84,1.33-1.67s-1.36-1.39-2.33-1.41a4,4,0,0,0-1.25.25,12.24,12.24,0,0,1-4,.66c-.88-.08-1.39-.35-1.5-.16S263.18,138.16,263.72,138.58Z"/><path class="cls-11" d="M262.22,133.58c.48.63,1.83-.49,4.75-.66a3.72,3.72,0,0,0,2.09-.59c.19-.13.83-.59.75-1-.13-.6-1.75-.83-2.92-.75a10.34,10.34,0,0,0-2.25.59c-1.83.58-2.16.91-2.33,1.25C262.27,132.49,261.92,133.19,262.22,133.58Z"/><path class="cls-11" d="M273,131.35c0,.54,2.28.66,2.5.67.86,0,1-.11,1-.17.17-.31-.39-1.07-1.08-1.33C274.32,130.12,272.94,130.91,273,131.35Z"/><path class="cls-11" d="M285.52,129.19c-1.28.14-2.44.27-2.59.84-.1.41.34,1,.84,1.16s1-.22,2-.41c1.54-.28,2.11.51,3.16,0,.52-.25,1.1-.79,1-1.17C289.71,128.76,286.16,129.13,285.52,129.19Z"/><path class="cls-11" d="M280.72,136.33c-.49-.15-.71,0-1-.16a1.67,1.67,0,0,1-.5-1.75c.33-1,1.93-1.38,4.25-1.84,2.57-.5,2.24,0,5.42-.5,1.44-.21,2.21-.41,2.92.09a2,2,0,0,1,.83,2.25c-.4.8-1.57.34-3.58,1-2.52.82-2.69,2.19-4.67,2.25a3.66,3.66,0,0,1-2.58-.59A2.84,2.84,0,0,0,280.72,136.33Z"/><path class="cls-11" d="M279.39,139.08c.2.65,1.59.76,2.5.59.47-.09,1.48-.38,1.5-.84s-1-.84-1.25-.91a2.37,2.37,0,0,0-2.25.08C279.62,138.23,279.27,138.69,279.39,139.08Z"/><path class="cls-11" d="M280.06,144.67c-.12-.37,1-1.24,2.33-1.5a5.52,5.52,0,0,1,2.17.08c1,.17,1.51.25,1.75.67a1.61,1.61,0,0,1-.5,1.83c-.25.2-.35.15-1.5.42s-1.38.41-1.67.25-.25-.65-.67-1.09C281.29,144.61,280.16,145,280.06,144.67Z"/><path class="cls-11" d="M291.22,151.25c0-.81,2.39-1.3,2.92-1.42,1.18-.24,2.34-.49,3,.17a2.22,2.22,0,0,1,.5,1.25,2.53,2.53,0,0,1-.25,1.83c-.26.39-.43.29-1.58,1-.92.57-1.06.79-1.42.75s-.7-.36-1.16-.92-.49-.83-1-1.49C291.57,151.58,291.21,151.56,291.22,151.25Z"/><path class="cls-11" d="M297.06,142.83c-.67.27-1.18.43-1.42.5-3.92,1.19-4.31,1.13-4.58.92-.69-.53-.54-1.88-.34-2.58.68-2.37,3.61-3.15,4-3.25,1.23-.31,2.35-.1,4.59.33a13.53,13.53,0,0,1,4.75,1.67c1.06.65,2,1.27,2.08,2.25a2.22,2.22,0,0,1-1.25,2c-1.25.59-2.95-.32-4.08-.92s-2.28-1.51-3.17-1.17C297.53,142.62,297.42,142.69,297.06,142.83Z"/><path class="cls-11" d="M308.89,135.42c1.58.86,2.34,1.05,3.25,1.5,1.77.86,1.94,1.64,3,1.58.71,0,1.46-.42,1.5-.83s-.42-.47-.83-1.34a1.54,1.54,0,0,1-.25-.83c0-.61.61-.75.66-1.17.09-.7-1.32-1.83-2.83-1.91-.5,0-.56.08-3.17,1.08-1.51.58-2.16.8-2.16,1.17S308.38,135.14,308.89,135.42Z"/><path class="cls-11" d="M294.81,133.5a4.8,4.8,0,0,0,4.08.25c.51-.16,1.85-.57,1.83-1.08,0-.88-4-1.29-4.41-1.34-1.32-.13-2.51-.25-2.75.25S294.08,133,294.81,133.5Z"/><path class="cls-11" d="M300.72,130.47c0,.63,2,1.5,3.75,1,.27-.08,1.15-.35,1.17-.75,0-.62-1.91-1.52-3.58-1.09C301.94,129.66,300.73,130,300.72,130.47Z"/><path class="cls-11" d="M322.39,141.33c.94,1.25,2.62,1.33,5.42,1.42s4.49.13,6.08-1.08c.31-.24,1.78-1.35,1.5-2.42a2.1,2.1,0,0,0-1.92-1.25c-.9-.05-1.15.51-2.66,1.08a7.54,7.54,0,0,1-2.75.59c-1,0-1.14-.24-3.17-.67-2.49-.53-2.8-.29-2.92-.17C321.51,139.33,321.79,140.55,322.39,141.33Z"/><path class="cls-11" d="M308,150.92c1.89.39,2.19-.09,3.59.25s1.71,1.06,3.08,1.08c.42,0,1.44,0,1.83-.58.51-.77-.19-2.22-1.08-3a4.83,4.83,0,0,0-5-.5,18.83,18.83,0,0,1-2.08,1.25c-1.25.51-2.16.49-2.17.75S307.8,150.88,308,150.92Z"/><path class="cls-11" d="M344.56,157.17a2.65,2.65,0,0,1-.5-3,3.79,3.79,0,0,1,2.16-1.92c.48-.22,1.79-.76,5.92-.42a19.53,19.53,0,0,1,5.75,1.09,11.54,11.54,0,0,1,2.92,1.58c.81.62,2.23,1.68,2,2.42s-2.78.76-3,.75a11.82,11.82,0,0,1-3.5-1c-2.41-.8-4.53-1.51-6.5-.75a15.84,15.84,0,0,1-2.84,1.25C346,157.41,345.18,157.61,344.56,157.17Z"/><path class="cls-11" d="M335.56,162.08a6.88,6.88,0,0,0,3.5,1c1.55.13,2.54.21,2.75-.25s-.22-1.05-.75-1.41c-1.05-.7-1.95.29-4.42.08-.91-.07-1.67-.28-1.75-.08S335.38,162,335.56,162.08Z"/><path class="cls-11" d="M336.72,147.33c-.05.27,1.72,1.08,3.67,1.09,1.28,0,2.59-.35,2.58-.59s-1.81-.39-3.41-.5C337.74,147.21,336.76,147.15,336.72,147.33Z"/><path class="cls-11" d="M338.22,172.75c.12-.66,1.33-.93,2.42-1.17,1.28-.27,2.75-.6,3.92.25a2,2,0,0,1,.91,1.34c0,1.1-1.58,2.14-3,2.25a4.33,4.33,0,0,1-2.75-.92C339.17,174.14,338.1,173.43,338.22,172.75Z"/><path class="cls-11" d="M356.39,166.33a2.07,2.07,0,0,0,2.17,1.17,1.67,1.67,0,0,0,1.33-1.25c.13-.88-.76-1.66-1.58-1.83a1.84,1.84,0,0,0-2.09.91A1.37,1.37,0,0,0,356.39,166.33Z"/><path class="cls-11" d="M361.22,148.08a3.46,3.46,0,0,0,1.67,0c.76-.13,1.8-.32,1.92-.83.14-.67-1.4-1.48-1.75-1.67-.88-.46-1.64-.85-2.34-.5a1.82,1.82,0,0,0-.8,2.26A1.87,1.87,0,0,0,361.22,148.08Z"/><path class="cls-11" d="M327,135c-.06.55,2,1.2,3.22,1.44,1.07.22,3.05.42,3.22-.11s-1-1.37-2.22-1.77C329.26,133.89,327,134.44,327,135Z"/><path class="cls-9" d="M350.52,158.17c-.56.37-3.92,3.18-7.33,2.45-.59-.13-1-.32-1.45-.11-1.74.78-1.61,6-.11,9.66,1.78,4.33,5.52,6.6,7.56,7.78,14.08,8.15,25.33,10.78,25.33,10.78,14.33,3.34,22.74,5.31,36.11,6.55,15.69,1.47,27.28.92,39.67.34,18.3-.86,28-2.67,33.66-3.89a85.94,85.94,0,0,0,23.89-8.89c9.32-5.19,11.69-8.9,12.78-11.56a21,21,0,0,0-.11-14.22C508.78,126.25,356.82,154,350.52,158.17Z"/><path class="cls-10" d="M360,178.62c9.47,4.58,19,7.28,32,9.33,16.31,2.57,28.7,2.65,42.34,2.67,22.69,0,36.07-1.77,40-2.34a132.1,132.1,0,0,0,29-7.66c13.77-5.35,16.66-9.16,18-12.34a18,18,0,0,0-1.67-16.66,16.24,16.24,0,0,0-6-5A99.22,99.22,0,0,0,487.3,137c-24.43-4.31-36.64-6.46-39.67-6.67-11.42-.76-22.28.05-44,1.67a191.07,191.07,0,0,0-37,6c-7.95,2.15-16.06,4.94-21.67,12.33-1.8,2.39-4.72,6.24-4.32,11C341.32,169.44,351.52,174.53,360,178.62Z"/><path class="cls-11" d="M351.88,154.7a4.8,4.8,0,0,0,4,.33c.6-.19,2.07-.79,2-1.33s-2.42-.87-3.83-.83c-.33,0-2.87.08-3,.83C351,154.09,351.59,154.51,351.88,154.7Z"/><path class="cls-11" d="M360.55,152.7c.09-.9,1.32-1.43,2.66-2a12,12,0,0,1,3.5-1,38.23,38.23,0,0,1,4,.08c1.54,0,2,0,2.09.17.11.41-2.14,1.4-3.67,2.08-2.53,1.13-3.48,1.31-3.67,2.09-.24,1,1.19,1.81.84,2.5s-1.75.72-2.67.16c-.7-.42-.41-.91-1.33-1.75-.63-.56-1.05-.61-1.43-1.26A1.77,1.77,0,0,1,360.55,152.7Z"/><path class="cls-11" d="M366.63,143c-.3.47.27,1.55,1.08,2.09a3.4,3.4,0,0,0,2.92.16c.24-.07,2-.64,2-1.58,0-.59-.71-1.06-1.17-1.25a3.35,3.35,0,0,0-1.58-.08c-.66,0-.71.13-1.92.33C366.91,142.88,366.74,142.86,366.63,143Z"/><path class="cls-11" d="M380.63,144.45c.7,1.14,3,1,4.17.83a7.46,7.46,0,0,0,3.25-1.5c1-.72,1.56-1.11,1.58-1.66.06-1.47-3.53-2.65-3.42-2.92s1.53.22,1.5.42-1.66-.17-3.91.41c-.3.08-1.06.42-2.59,1.09-.74.32-1.22.55-1.33,1,0,.12,0,.29.25,1.08A8.55,8.55,0,0,0,380.63,144.45Z"/><path class="cls-11" d="M391.05,139.28c-.12-.22.8-1.16,2-1.66a8.37,8.37,0,0,1,2.83-.42,22.26,22.26,0,0,1,2.5,0c1.87.1,2.8.15,3,.58.37.81-1.3,2.32-1.42,2.42-.58.52-.73.43-1.75,1.17-1.32,1-1.23,1.24-1.83,1.41a2.87,2.87,0,0,1-3.08-1.16c-.3-.54-.11-.91-.59-1.5a1.93,1.93,0,0,0-1.08-.75C391.28,139.29,391.1,139.38,391.05,139.28Z"/><path class="cls-11" d="M395.46,155a2.81,2.81,0,0,1,.92-2.41c.43-.4.67-.36,3.5-.92a6.13,6.13,0,0,1,2.67-.25c.09,0,1.69.39,1.75,1.08s-1.57,1.45-3,2.09-1.73.53-2.42,1.08c-1.07.87-1.18,1.79-1.75,1.75s-1.14-1.16-1.42-1.75A3.59,3.59,0,0,1,395.46,155Z"/><path class="cls-11" d="M388.88,160.7c-.92-.45-1.69-1.53-1.42-2.08.18-.36.9-.38,2.34-.42,1.64,0,2.46-.06,2.66.33.31.58-.45,1.81-1.5,2.25A2.58,2.58,0,0,1,388.88,160.7Z"/><path class="cls-11" d="M379.71,153c.65.79,2.65.06,4.17-.5,1.24-.45,2.79-1,2.75-1.67s-1.9-1.05-2.08-1.08c-1.48-.27-3.94-.1-4.75,1.5C379.57,151.65,379.33,152.48,379.71,153Z"/><path class="cls-11" d="M356.63,169.7c2.75-.17,3.17-1.58,5.67-1.67a20.22,20.22,0,0,1,2.58.09c1.18.14,1.52.32,1.92.08.77-.45,1-2,.5-3.08a3.9,3.9,0,0,0-2.92-1.84,7.33,7.33,0,0,0-4.67,1c-.7.35-.21.21-2.75,1.84a7.16,7.16,0,0,0-2.08,1.83c-.32.44-.65.9-.5,1.25C354.64,169.83,356.18,169.73,356.63,169.7Z"/><path class="cls-11" d="M372.38,177.45h0s4.46-.18,5.25-2.08a2,2,0,0,0-.5-2.17c-.83-.72-2.38-.41-3.25.33C373.88,173.53,373.28,174.05,372.38,177.45Z"/><path class="cls-11" d="M390.3,184c1.84.24,2.21,1.28,3.83,1.75,1,.28,2.89.52,3.58-.5a2.44,2.44,0,0,0-.58-2.92c-1.16-1-3.16-.35-4-.08s-.74.39-2,.83-2.1.61-2.08.75S389.66,183.87,390.3,184Z"/><path class="cls-11" d="M411.55,184.45c.73.72,2.08.55,4.75.17a18.07,18.07,0,0,0,4.16-1c2.09-.84,2.69-1.64,2.92-2a2.33,2.33,0,0,0,.5-1.92c-.2-.55-.76-.75-3-1.42-3.33-1-3.68-1-4-1a10.47,10.47,0,0,0-3.42.84c-1.58.55-2.38.84-2.75,1.58a3.71,3.71,0,0,0,0,2.25C410.93,183.26,411.05,184,411.55,184.45Z"/><path class="cls-11" d="M439.71,181.53a14.32,14.32,0,0,0,4.84,2,21.18,21.18,0,0,0,5,1,7.48,7.48,0,0,0,4.08-.83,3.34,3.34,0,0,0,1.83-2.08,2.68,2.68,0,0,0-1.08-2.75,2.65,2.65,0,0,0-1.92-.34c-.89.2-1.09.76-1.91,1.34a6.14,6.14,0,0,1-4.5.75,25.83,25.83,0,0,1-2.84-1.34c-1.88-.84-2.42-.94-3-.83-.82.16-1.79.77-1.83,1.5C438.36,180.35,438.63,180.8,439.71,181.53Z"/><path class="cls-11" d="M460.71,175.28a8.74,8.74,0,0,0,3.75,1.42c2,.31,3,.46,3.5-.17a1.93,1.93,0,0,0,.17-1.91c-.53-1.3-2.26-1.59-3.25-1.75a6.52,6.52,0,0,0-3.08.25c-.51.16-1.81.59-1.84,1.25C460,174.64,460.16,174.89,460.71,175.28Z"/><path class="cls-11" d="M451.05,166.45c.59.77,1.7,1,3.91,1.5,1.75.39,2.07.28,2.25.08a1.87,1.87,0,0,0-.41-2.33c-.65-.57-1.18-.08-2.92-.67-.66-.22-1.56-.61-1.67-.66-1.11-.5-1.37-.72-1.58-.59C450.21,164,450.3,165.48,451.05,166.45Z"/><path class="cls-11" d="M422.63,162.2c.73,1.46,2.11,2.08,4.25,3a18.33,18.33,0,0,0,5,1.42,6.77,6.77,0,0,0,3.75-.34c.54-.23,1.5-.64,1.58-1.33.13-1-1.53-1.89-2.33-2.33-1.48-.82-2-.68-4.25-1.42-2.71-.89-3-1.47-4.92-1.67-.86-.09-2.77-.29-3.33.67C422,160.89,422.46,161.86,422.63,162.2Z"/><path class="cls-11" d="M387.63,166.28a14.4,14.4,0,0,1,6.92.75,18,18,0,0,0,2.33.92,11,11,0,0,0,3.17.42,20.69,20.69,0,0,0,3.5-.5c1.4-.27,1.76-.42,2.16-.17a2.47,2.47,0,0,1,.59,2.75c-.51,1.43-2.15,2-3.25,2.33a10.07,10.07,0,0,1-4.25.34,36.91,36.91,0,0,1-8.34-2.25,8,8,0,0,1-2.66-2c-.31-.37-1.28-1.52-.92-2.17A1.09,1.09,0,0,1,387.63,166.28Z"/><path class="cls-11" d="M404.05,175.12a1.65,1.65,0,0,0,2.16-.09,1.44,1.44,0,0,0,.34-1.66c-.47-.78-1.81-.46-2-.42a1.4,1.4,0,0,0-1,.58A1.41,1.41,0,0,0,404.05,175.12Z"/><path class="cls-11" d="M411.8,155.87c0,.68,1.67,1.59,2.5,1a1.16,1.16,0,0,0,.41-1.25c-.22-.65-1.18-.83-1.83-.67C412.42,155.07,411.79,155.44,411.8,155.87Z"/><path class="cls-11" d="M408.55,147.45c.45,1,2.17.59,6.41.83,2,.12,2.79.26,4.84.25,3.37,0,3.83-.41,4-.75.37-.74-.35-2-1.17-2.58a3.47,3.47,0,0,0-2.42-.58c-1.49.13-1.76.95-3.41,1.5a8.7,8.7,0,0,1-3.59.25c-2.57-.18-3.75-1-4.41-.34A1.34,1.34,0,0,0,408.55,147.45Z"/><path class="cls-11" d="M410.3,141.12a7,7,0,0,0,3.75,1.41,4.56,4.56,0,0,0,2.83-.5c.28-.16,1.42-.84,1.33-1.66s-1.35-1.39-2.33-1.42a4.37,4.37,0,0,0-1.25.25,12.33,12.33,0,0,1-4,.67c-.88-.09-1.39-.36-1.5-.17S409.76,140.7,410.3,141.12Z"/><path class="cls-11" d="M408.8,136.12c.47.63,1.83-.49,4.75-.67a3.75,3.75,0,0,0,2.08-.58c.2-.14.83-.59.75-1-.12-.6-1.75-.84-2.92-.75a10.76,10.76,0,0,0-2.25.58c-1.82.58-2.15.91-2.33,1.25C408.84,135,408.5,135.72,408.8,136.12Z"/><path class="cls-11" d="M419.55,133.88c0,.54,2.27.66,2.5.67.85,0,1-.1,1-.17.16-.31-.39-1.07-1.09-1.33C420.89,132.65,419.51,133.45,419.55,133.88Z"/><path class="cls-11" d="M432.09,131.73c-1.27.13-2.44.26-2.58.83-.1.41.33,1,.83,1.17s1-.23,2-.42c1.55-.28,2.12.51,3.17,0,.51-.25,1.1-.78,1-1.16C436.29,131.29,432.74,131.66,432.09,131.73Z"/><path class="cls-11" d="M427.3,138.87c-.5-.15-.71,0-1-.17a1.65,1.65,0,0,1-.5-1.75c.32-1,1.93-1.38,4.25-1.83,2.57-.5,2.23,0,5.41-.5,1.44-.22,2.21-.42,2.92.08a2,2,0,0,1,.83,2.25c-.39.8-1.56.34-3.58,1-2.51.82-2.68,2.19-4.67,2.25a3.68,3.68,0,0,1-2.58-.58A2.69,2.69,0,0,0,427.3,138.87Z"/><path class="cls-11" d="M426,141.62c.21.65,1.59.75,2.5.58.47-.09,1.48-.37,1.5-.83s-1-.84-1.25-.92a2.37,2.37,0,0,0-2.25.08C426.19,140.76,425.84,141.22,426,141.62Z"/><path class="cls-11" d="M426.63,147.2c-.11-.37,1.05-1.24,2.33-1.5a5.7,5.7,0,0,1,2.17.08c1,.17,1.52.26,1.75.67a1.61,1.61,0,0,1-.5,1.83c-.24.21-.35.15-1.5.42s-1.38.41-1.67.25-.25-.64-.66-1.08C427.86,147.14,426.74,147.55,426.63,147.2Z"/><path class="cls-11" d="M437.8,153.78c0-.8,2.38-1.3,2.91-1.41,1.19-.25,2.35-.49,3,.16a2.11,2.11,0,0,1,.5,1.25,2.5,2.5,0,0,1-.25,1.84c-.26.38-.42.28-1.58,1-.92.57-1.05.78-1.42.75s-.69-.37-1.16-.92-.48-.84-1-1.5C438.14,154.12,437.79,154.1,437.8,153.78Z"/><path class="cls-11" d="M443.63,145.37c-.66.27-1.17.42-1.42.5-3.91,1.19-4.3,1.13-4.58.91-.69-.52-.53-1.88-.33-2.58.68-2.37,3.6-3.15,4-3.25,1.22-.31,2.34-.09,4.58.33a13.36,13.36,0,0,1,4.75,1.67c1.06.66,2,1.27,2.08,2.25a2.22,2.22,0,0,1-1.25,2c-1.25.59-2.94-.31-4.08-.92s-2.27-1.5-3.17-1.16Z"/><path class="cls-11" d="M455.46,138c1.58.87,2.34,1.05,3.25,1.5,1.77.87,1.94,1.64,3,1.58.71,0,1.46-.42,1.5-.83s-.41-.47-.83-1.33a1.64,1.64,0,0,1-.25-.84c0-.61.61-.74.67-1.16.09-.71-1.33-1.83-2.84-1.92-.49,0-.55.08-3.16,1.08-1.51.58-2.16.8-2.17,1.17S455,137.67,455.46,138Z"/><path class="cls-11" d="M441.38,136a4.8,4.8,0,0,0,4.08.25c.52-.15,1.85-.56,1.84-1.08,0-.88-4-1.29-4.42-1.33-1.31-.14-2.51-.26-2.75.25S440.66,135.55,441.38,136Z"/><path class="cls-11" d="M447.3,133c0,.64,2,1.51,3.75,1,.27-.08,1.15-.34,1.16-.75,0-.62-1.91-1.52-3.58-1.08C448.52,132.2,447.31,132.51,447.3,133Z"/><path class="cls-11" d="M469,143.87c1,1.24,2.63,1.32,5.42,1.41s4.49.13,6.08-1.08c.31-.23,1.78-1.35,1.5-2.42a2.11,2.11,0,0,0-1.91-1.25c-.91,0-1.15.51-2.67,1.09a7.53,7.53,0,0,1-2.75.58c-1,0-1.13-.24-3.17-.67-2.49-.52-2.8-.29-2.91-.16C468.09,141.86,468.37,143.08,469,143.87Z"/><path class="cls-11" d="M454.55,153.45c1.89.4,2.18-.08,3.58.25s1.71,1.07,3.08,1.08c.43,0,1.44,0,1.84-.58.5-.77-.19-2.22-1.09-3a4.87,4.87,0,0,0-5-.5,18.83,18.83,0,0,1-2.08,1.25c-1.25.51-2.15.49-2.17.75S454.38,153.42,454.55,153.45Z"/><path class="cls-11" d="M491.13,159.7c-.83-.59-.89-2-.5-3a3.84,3.84,0,0,1,2.17-1.92c.47-.21,1.78-.75,5.91-.41a19.46,19.46,0,0,1,5.75,1.08,11.38,11.38,0,0,1,2.92,1.58c.82.62,2.24,1.69,2,2.42-.28.88-2.78.76-3,.75a12,12,0,0,1-3.5-1c-2.41-.8-4.52-1.5-6.5-.75a15.32,15.32,0,0,1-2.83,1.25C492.57,160,491.75,160.14,491.13,159.7Z"/><path class="cls-11" d="M482.13,164.62a7,7,0,0,0,3.5,1c1.56.12,2.54.2,2.75-.25s-.21-1.06-.75-1.42c-1-.7-1.95.29-4.42.08-.9-.07-1.67-.28-1.75-.08S482,164.5,482.13,164.62Z"/><path class="cls-11" d="M483.3,149.87c-.06.26,1.71,1.08,3.66,1.08,1.29,0,2.6-.35,2.59-.58s-1.82-.39-3.42-.5C484.31,149.75,483.34,149.68,483.3,149.87Z"/><path class="cls-11" d="M484.8,175.28c.12-.66,1.33-.93,2.41-1.16,1.28-.28,2.76-.6,3.92.25a2,2,0,0,1,.92,1.33c0,1.1-1.58,2.14-3,2.25a4.22,4.22,0,0,1-2.75-.92C485.75,176.67,484.68,176,484.8,175.28Z"/><path class="cls-11" d="M503,168.87a2.09,2.09,0,0,0,2.17,1.16,1.67,1.67,0,0,0,1.33-1.25c.14-.87-.76-1.66-1.58-1.83a1.84,1.84,0,0,0-2.08.92A1.39,1.39,0,0,0,503,168.87Z"/><path class="cls-11" d="M507.8,150.62a3.69,3.69,0,0,0,1.66,0c.77-.14,1.81-.32,1.92-.84s-1.4-1.48-1.75-1.66c-.88-.46-1.63-.86-2.33-.5a1.81,1.81,0,0,0-.8,2.25A1.9,1.9,0,0,0,507.8,150.62Z"/><path class="cls-11" d="M473.52,137.53c-.06.56,2,1.21,3.22,1.45,1.07.21,3.05.41,3.22-.11s-1-1.37-2.22-1.78C475.84,136.43,473.58,137,473.52,137.53Z"/><path class="cls-9" d="M511.75,156.53c-.56.38-3.92,3.18-7.33,2.45-.59-.13-1-.32-1.45-.11-1.74.78-1.61,6-.11,9.66,1.78,4.33,5.52,6.6,7.56,7.78,14.08,8.15,25.33,10.78,25.33,10.78,14.33,3.35,22.75,5.31,36.11,6.56,15.69,1.46,27.28.91,39.67.33,18.3-.86,28-2.67,33.67-3.89a86,86,0,0,0,23.89-8.89c9.31-5.19,11.68-8.9,12.77-11.55a20.93,20.93,0,0,0-.11-14.23C670,124.61,518.05,152.35,511.75,156.53Z"/><path class="cls-10" d="M521.2,177c9.46,4.58,19,7.28,32,9.33,16.3,2.57,28.69,2.65,42.33,2.67,22.7,0,36.07-1.77,40-2.33a132.83,132.83,0,0,0,29-7.67c13.77-5.35,16.67-9.16,18-12.33A18,18,0,0,0,680.86,150a16.24,16.24,0,0,0-6-5,99.09,99.09,0,0,0-26.33-9.67c-24.42-4.31-36.63-6.46-39.67-6.66-11.42-.77-22.28,0-44,1.66a191.86,191.86,0,0,0-37,6c-8,2.15-16.06,4.94-21.66,12.34-1.81,2.38-4.73,6.23-4.33,10.95C502.56,167.8,512.76,172.9,521.2,177Z"/><path class="cls-11" d="M513.11,153.06a4.81,4.81,0,0,0,4,.34c.6-.2,2.07-.79,2-1.34s-2.42-.87-3.83-.83c-.33,0-2.86.08-3,.83C512.21,152.46,512.82,152.87,513.11,153.06Z"/><path class="cls-11" d="M521.78,151.06c.1-.9,1.32-1.43,2.67-2a11.86,11.86,0,0,1,3.5-1,39.9,39.9,0,0,1,4,.09c1.53,0,2,0,2.08.16.11.41-2.14,1.41-3.67,2.09-2.52,1.12-3.48,1.3-3.66,2.08-.24,1,1.18,1.81.83,2.5s-1.75.73-2.67.17c-.7-.43-.41-.92-1.33-1.75-.62-.57-1-.62-1.43-1.27A1.81,1.81,0,0,1,521.78,151.06Z"/><path class="cls-11" d="M527.86,141.4c-.29.46.27,1.54,1.09,2.08a3.43,3.43,0,0,0,2.91.17c.24-.08,2-.65,2-1.59,0-.59-.71-1.06-1.16-1.25a3.39,3.39,0,0,0-1.59-.08c-.66.05-.71.13-1.91.33S528,141.22,527.86,141.4Z"/><path class="cls-11" d="M541.86,142.81c.7,1.14,3,1,4.17.84a7.69,7.69,0,0,0,3.25-1.5c1-.73,1.56-1.11,1.58-1.67.07-1.47-3.53-2.64-3.41-2.92s1.52.22,1.5.42-1.67-.17-3.92.42a27.48,27.48,0,0,0-2.58,1.08c-.74.33-1.23.55-1.34,1,0,.13,0,.29.25,1.08A8.55,8.55,0,0,0,541.86,142.81Z"/><path class="cls-11" d="M552.28,137.65c-.12-.23.8-1.17,2-1.67a8.37,8.37,0,0,1,2.83-.42,22.29,22.29,0,0,1,2.5,0c1.87.1,2.8.15,3,.59.38.8-1.29,2.31-1.41,2.41-.59.52-.74.43-1.75,1.17-1.32,1-1.24,1.24-1.84,1.42a2.89,2.89,0,0,1-3.08-1.17c-.29-.54-.11-.91-.58-1.5a2,2,0,0,0-1.09-.75C552.51,137.65,552.33,137.74,552.28,137.65Z"/><path class="cls-11" d="M556.7,153.4a2.81,2.81,0,0,1,.91-2.42c.43-.4.67-.36,3.5-.92a6.14,6.14,0,0,1,2.67-.25c.1,0,1.69.39,1.75,1.09s-1.57,1.44-3,2.08-1.73.53-2.42,1.08c-1.07.87-1.17,1.79-1.75,1.75s-1.14-1.16-1.41-1.75A2.66,2.66,0,0,1,556.7,153.4Z"/><path class="cls-11" d="M550.11,159.06c-.92-.45-1.69-1.53-1.41-2.08.17-.36.89-.38,2.33-.42,1.64,0,2.46-.06,2.67.34.3.57-.45,1.8-1.5,2.25A2.63,2.63,0,0,1,550.11,159.06Z"/><path class="cls-11" d="M541,151.31c.64.79,2.65.06,4.16-.5,1.24-.45,2.8-1,2.75-1.66s-1.9-1.05-2.08-1.09c-1.48-.27-3.94-.1-4.75,1.5C540.8,150,540.56,150.84,541,151.31Z"/><path class="cls-11" d="M517.86,168.06c2.75-.17,3.17-1.58,5.67-1.66a19.28,19.28,0,0,1,2.58.08c1.18.14,1.52.32,1.92.08.78-.45,1-2,.5-3.08a3.84,3.84,0,0,0-2.92-1.83,7.17,7.17,0,0,0-4.66,1c-.71.34-.21.2-2.75,1.83a7.05,7.05,0,0,0-2.09,1.83c-.32.44-.64.9-.5,1.25C515.87,168.19,517.41,168.09,517.86,168.06Z"/><path class="cls-11" d="M533.61,175.81h0s4.46-.17,5.25-2.08a2,2,0,0,0-.5-2.17c-.82-.72-2.38-.4-3.25.34C535.11,171.9,534.51,172.41,533.61,175.81Z"/><path class="cls-11" d="M551.53,182.31c1.84.24,2.21,1.28,3.83,1.75,1,.28,2.89.52,3.59-.5a2.45,2.45,0,0,0-.59-2.91c-1.16-1-3.15-.36-4-.09s-.74.39-2,.84-2.1.6-2.08.75S550.89,182.23,551.53,182.31Z"/><path class="cls-11" d="M572.78,182.81c.73.72,2.08.55,4.75.17a17.82,17.82,0,0,0,4.17-1c2.08-.84,2.68-1.64,2.91-2a2.33,2.33,0,0,0,.5-1.92c-.2-.55-.75-.75-3-1.41-3.33-1-3.68-1-4-1a10.11,10.11,0,0,0-3.41.83c-1.59.55-2.39.84-2.75,1.58a3.56,3.56,0,0,0,0,2.25C572.16,181.62,572.28,182.32,572.78,182.81Z"/><path class="cls-11" d="M601,179.9a14.59,14.59,0,0,0,4.83,2,22.28,22.28,0,0,0,5,1,7.44,7.44,0,0,0,4.08-.84A3.38,3.38,0,0,0,616.7,180a2.7,2.7,0,0,0-1.09-2.75,2.55,2.55,0,0,0-1.91-.33c-.9.19-1.1.75-1.92,1.33a6.14,6.14,0,0,1-4.5.75,27.24,27.24,0,0,1-2.83-1.33c-1.89-.85-2.42-1-3-.84-.83.16-1.8.77-1.84,1.5C599.59,178.72,599.86,179.16,601,179.9Z"/><path class="cls-11" d="M622,173.65a8.61,8.61,0,0,0,3.75,1.41c2,.31,3,.46,3.5-.16a2,2,0,0,0,.16-1.92c-.53-1.3-2.25-1.59-3.25-1.75a6.66,6.66,0,0,0-3.08.25c-.51.17-1.81.59-1.83,1.25C621.19,173,621.39,173.26,622,173.65Z"/><path class="cls-11" d="M612.28,164.81c.59.77,1.7,1,3.92,1.5,1.74.39,2.06.28,2.25.09a1.9,1.9,0,0,0-.42-2.34c-.64-.57-1.18-.08-2.92-.66-.66-.23-1.56-.62-1.66-.67-1.12-.5-1.38-.71-1.59-.58C611.44,162.4,611.53,163.85,612.28,164.81Z"/><path class="cls-11" d="M583.86,160.56c.73,1.46,2.11,2.08,4.25,3a18,18,0,0,0,5,1.42,6.88,6.88,0,0,0,3.75-.33c.55-.24,1.5-.65,1.59-1.34.12-1-1.54-1.89-2.34-2.33-1.47-.82-2-.68-4.25-1.42-2.71-.89-3-1.47-4.91-1.66-.87-.1-2.78-.3-3.34.66C583.21,159.25,583.69,160.22,583.86,160.56Z"/><path class="cls-11" d="M548.86,164.65a14.24,14.24,0,0,1,6.92.75,19.37,19.37,0,0,0,2.33.91,11,11,0,0,0,3.17.42,20.55,20.55,0,0,0,3.5-.5c1.4-.27,1.76-.42,2.17-.17a2.49,2.49,0,0,1,.58,2.75c-.51,1.44-2.14,2-3.25,2.34a10.2,10.2,0,0,1-4.25.33,21.05,21.05,0,0,1-3.42-.67,20.84,20.84,0,0,1-4.91-1.58,7.91,7.91,0,0,1-2.67-2c-.31-.36-1.28-1.52-.92-2.17A1,1,0,0,1,548.86,164.65Z"/><path class="cls-11" d="M565.28,173.48a1.67,1.67,0,0,0,2.17-.08,1.47,1.47,0,0,0,.33-1.67c-.46-.78-1.81-.46-2-.42a1.38,1.38,0,0,0-1,.59A1.42,1.42,0,0,0,565.28,173.48Z"/><path class="cls-11" d="M573,154.23c0,.68,1.67,1.59,2.5,1A1.17,1.17,0,0,0,576,154c-.23-.65-1.18-.83-1.84-.67C573.65,153.43,573,153.8,573,154.23Z"/><path class="cls-11" d="M569.78,145.81c.45.95,2.17.59,6.42.84,2,.11,2.78.25,4.83.25,3.37,0,3.83-.42,4-.75.37-.75-.35-2-1.17-2.59a3.45,3.45,0,0,0-2.41-.58c-1.5.13-1.77,1-3.42,1.5a8.66,8.66,0,0,1-3.58.25c-2.58-.18-3.76-1-4.42-.33A1.32,1.32,0,0,0,569.78,145.81Z"/><path class="cls-11" d="M571.53,139.48a7.1,7.1,0,0,0,3.75,1.42,4.71,4.71,0,0,0,2.83-.5c.28-.17,1.42-.85,1.34-1.67s-1.36-1.39-2.34-1.42a4.43,4.43,0,0,0-1.25.25,12.25,12.25,0,0,1-4,.67c-.88-.09-1.39-.36-1.5-.17S571,139.06,571.53,139.48Z"/><path class="cls-11" d="M570,134.48c.48.63,1.83-.49,4.75-.67a3.65,3.65,0,0,0,2.08-.58c.2-.14.84-.59.75-1-.12-.6-1.74-.84-2.91-.75a10.47,10.47,0,0,0-2.25.58c-1.83.58-2.16.91-2.34,1.25C570.08,133.38,569.73,134.08,570,134.48Z"/><path class="cls-11" d="M580.78,132.24c.05.55,2.27.66,2.5.67.86,0,1-.1,1-.17.16-.31-.39-1.07-1.08-1.33C582.13,131,580.74,131.81,580.78,132.24Z"/><path class="cls-11" d="M593.32,130.09c-1.27.13-2.43.26-2.58.83-.1.41.33,1,.83,1.17s1-.23,2-.42c1.55-.28,2.12.51,3.17,0,.51-.24,1.1-.78,1-1.16C597.52,129.65,594,130,593.32,130.09Z"/><path class="cls-11" d="M588.53,137.23c-.5-.15-.71,0-1-.17a1.65,1.65,0,0,1-.5-1.75c.32-1.05,1.93-1.38,4.25-1.83,2.57-.5,2.23,0,5.42-.5,1.43-.21,2.21-.42,2.91.08a2,2,0,0,1,.84,2.25c-.4.8-1.57.34-3.59,1-2.51.83-2.68,2.19-4.66,2.25a3.64,3.64,0,0,1-2.59-.58A2.69,2.69,0,0,0,588.53,137.23Z"/><path class="cls-11" d="M587.2,140c.2.65,1.58.75,2.5.58.46-.09,1.48-.37,1.5-.83s-1-.84-1.25-.92a2.35,2.35,0,0,0-2.25.09C587.43,139.12,587.07,139.59,587.2,140Z"/><path class="cls-11" d="M587.86,145.56c-.11-.37,1-1.24,2.34-1.5a5.47,5.47,0,0,1,2.16.09c1,.16,1.52.25,1.75.66a1.62,1.62,0,0,1-.5,1.84c-.24.2-.34.14-1.5.41s-1.38.41-1.66.25-.25-.64-.67-1.08C589.09,145.5,588,145.91,587.86,145.56Z"/><path class="cls-11" d="M599,152.15c0-.81,2.38-1.31,2.92-1.42,1.18-.25,2.34-.49,3,.17a2.19,2.19,0,0,1,.5,1.25,2.53,2.53,0,0,1-.25,1.83c-.26.38-.43.28-1.59,1-.91.57-1.05.78-1.41.75s-.7-.37-1.17-.92-.48-.84-1-1.5C599.37,152.48,599,152.46,599,152.15Z"/><path class="cls-11" d="M604.86,143.73a14.68,14.68,0,0,1-1.41.5c-3.92,1.19-4.31,1.13-4.59.92-.68-.53-.53-1.89-.33-2.59.68-2.36,3.6-3.15,4-3.25,1.23-.31,2.34-.09,4.58.34a13.42,13.42,0,0,1,4.75,1.66c1.06.66,2,1.27,2.09,2.25a2.23,2.23,0,0,1-1.25,2c-1.25.59-3-.31-4.09-.91s-2.27-1.51-3.16-1.17Z"/><path class="cls-11" d="M616.7,136.31a35.26,35.26,0,0,0,3.25,1.5c1.76.87,1.93,1.64,3,1.59.7,0,1.45-.43,1.5-.84s-.42-.47-.84-1.33a1.63,1.63,0,0,1-.25-.83c0-.62.62-.75.67-1.17.09-.7-1.33-1.83-2.83-1.92-.5,0-.56.09-3.17,1.09-1.51.57-2.16.79-2.17,1.16S616.19,136,616.7,136.31Z"/><path class="cls-11" d="M602.61,134.4a4.85,4.85,0,0,0,4.09.25c.51-.16,1.85-.57,1.83-1.09,0-.88-4-1.29-4.42-1.33-1.31-.14-2.5-.26-2.75.25S601.89,133.91,602.61,134.4Z"/><path class="cls-11" d="M608.53,131.36c0,.64,2,1.51,3.75,1,.27-.08,1.15-.34,1.17-.75,0-.62-1.92-1.52-3.59-1.08C609.75,130.56,608.54,130.87,608.53,131.36Z"/><path class="cls-11" d="M630.2,142.23c.94,1.24,2.62,1.32,5.41,1.42s4.5.12,6.09-1.09c.3-.23,1.77-1.35,1.5-2.41a2.1,2.1,0,0,0-1.92-1.25c-.91-.05-1.15.5-2.67,1.08a7.48,7.48,0,0,1-2.75.58c-1,0-1.13-.23-3.16-.66-2.5-.53-2.8-.3-2.92-.17C629.32,140.22,629.6,141.44,630.2,142.23Z"/><path class="cls-11" d="M615.78,151.81c1.89.4,2.19-.08,3.58.25s1.71,1.07,3.09,1.09c.42,0,1.43,0,1.83-.59.5-.76-.19-2.22-1.08-3a4.87,4.87,0,0,0-5-.5,20.12,20.12,0,0,1-2.09,1.25c-1.24.51-2.15.49-2.16.75S615.61,151.78,615.78,151.81Z"/><path class="cls-11" d="M652.36,158.06a2.68,2.68,0,0,1-.5-3,3.81,3.81,0,0,1,2.17-1.91c.47-.22,1.79-.76,5.92-.42a19.57,19.57,0,0,1,5.75,1.08,11.47,11.47,0,0,1,2.91,1.59c.82.61,2.24,1.68,2,2.41-.28.88-2.78.76-3,.75a11.4,11.4,0,0,1-3.5-1c-2.41-.8-4.52-1.5-6.5-.75a14.73,14.73,0,0,1-2.83,1.25C653.8,158.31,653,158.5,652.36,158.06Z"/><path class="cls-11" d="M643.36,163a7,7,0,0,0,3.5,1c1.56.12,2.54.2,2.75-.25s-.21-1.06-.75-1.42c-1-.7-2,.29-4.41.09-.91-.08-1.68-.29-1.75-.09S643.18,162.86,643.36,163Z"/><path class="cls-11" d="M644.53,148.23c0,.26,1.72,1.08,3.67,1.08,1.28,0,2.59-.35,2.58-.58s-1.82-.39-3.42-.5C645.55,148.11,644.57,148,644.53,148.23Z"/><path class="cls-11" d="M646,173.65c.12-.67,1.33-.93,2.42-1.17,1.27-.28,2.75-.6,3.91.25a1.94,1.94,0,0,1,.92,1.33c0,1.1-1.58,2.14-3,2.25a4.28,4.28,0,0,1-2.75-.91C647,175,645.91,174.32,646,173.65Z"/><path class="cls-11" d="M664.2,167.23a2.09,2.09,0,0,0,2.16,1.17,1.68,1.68,0,0,0,1.34-1.25c.13-.88-.76-1.67-1.59-1.84a1.84,1.84,0,0,0-2.08.92A1.34,1.34,0,0,0,664.2,167.23Z"/><path class="cls-11" d="M669,149a3.73,3.73,0,0,0,1.67,0c.76-.14,1.8-.32,1.91-.83.15-.68-1.39-1.49-1.75-1.67-.88-.46-1.63-.86-2.33-.5a1.81,1.81,0,0,0-.8,2.25A1.9,1.9,0,0,0,669,149Z"/><path class="cls-11" d="M634.75,135.89c-.06.56,2,1.21,3.22,1.45,1.07.21,3,.41,3.23-.11s-1.05-1.37-2.23-1.78C637.07,134.79,634.81,135.33,634.75,135.89Z"/><path class="cls-12" d="M10.31,170.45C9.56,168,16.65,163.8,23.06,160c4.33-2.55,9.13-4.9,18.56-9.5a126,126,0,0,0,18.31-10.67c4.85-3.43,7.14-5.63,7-8.12-.07-.92-.52-2.61-6-6.49a54.38,54.38,0,0,0-10.67-6c-10-3.83-5.26-3.1-23.41-10.66-7.73-3.22-14.59-8.28-22.27-11.6-.76-.33-3-1.3-3-2.55,0-.71.76-1.76,5.33-3.25a42.72,42.72,0,0,1,13.45-2.31,124.54,124.54,0,0,1,26,4.17c11.91,3.31,21,6.19,28.52,8.58,26.33,8.38,23.07,7.59,29.68,9.51,13.6,3.94,19.25,5,28.06,8.58,11,4.5,9.49,5.92,17.16,8.34,1.43.46,3.88,1.17,3.94,2.32.09,1.58-4.32,2.92-7.88,4.18-8.11,2.85-4.11,2.54-18.32,8.34-12.11,5-17.79,6.32-35.94,12.76-18.87,6.69-20.94,8.13-31.54,10.9-2.69.7.07-.08-22.26,4.4a79.75,79.75,0,0,1-20.4,1.39C12,172,10.59,171.35,10.31,170.45Z"/><path class="cls-12" d="M294,119.84c-.14-.89-.32-.63-11.31-10.26-3.86-3.38-7.15-6.32-12.52-8.35a32.27,32.27,0,0,0-3.3-1c1.33-.25,3.12-.63,5.21-1.22a63.54,63.54,0,0,0,11.48-4.52c6.14-3.07,9.32-4.67,12.52-7.83a30.49,30.49,0,0,0,8-14.26,37.92,37.92,0,0,1,5,1.22,41.51,41.51,0,0,1,13.21,7.13c12.46,9.4,17.81,6.71,28.18,16.17,3.75,3.43,7,6.43,9.39,11.31,9.15,19-5.33,46.44-19.3,54.08-1.32.72-4.62,2.35-9.92,5.39-2.75,1.58-4.16,2.46-14.08,8.7-9.53,6-13.75,8.64-20,12.35l-3,1.74c-1.3-.95-3.27-2.43-5.57-4.35a111,111,0,0,1-9.56-9A152.81,152.81,0,0,0,261,161.58a58.35,58.35,0,0,0,4.53-4.7,65.73,65.73,0,0,0,9-14.08C282.45,128,295.07,126.62,294,119.84Z"/><path class="cls-12" d="M473.26,91.61a17.89,17.89,0,0,1,5.8-4.64c2.62-1.29,5.05-1.6,5.68-3.48.42-1.24-.25-2.28.46-2.9s1.52.2,3-.11A4.5,4.5,0,0,0,491.7,77c.1-1.2-.71-2-.35-2.32.5-.51,2.06,1.11,3.59.58a3.25,3.25,0,0,0,1.86-2.67c.2-1.79-1.26-2.93-.82-3.47s1.83.64,3.83.34c1.48-.22,3.21-1.23,3.6-2.66.43-1.6-1-2.92-.47-3.48s1.42.45,3.25.46a6.65,6.65,0,0,0,4.64-2.08A4,4,0,0,0,512,59.61c.36-2.42-2.51-4.31-2.08-4.87.3-.4,1.68.59,4.29.93,1.56.2,2.74.35,3.82-.35a4.15,4.15,0,0,0,1.74-3.6c-.08-1.44-1-2.26-.81-2.43.34-.31,3.33,2.49,5.22,4.17,2.52,2.25,5.26,4.25,7.88,6.38,11,9,40.12,18.47,42,30.38,1.47,9.44-14,21.53-27.94,26.08C510.93,127.8,476.11,94.42,473.26,91.61Z"/><path class="cls-12" d="M563.35,171.72c-4.91,4.33-6.72,6.27-11,8.93-5.41,3.35-10.05,6.22-16.23,7.42-3.44.67-6.6,2.4-10,3.36-.91.26-2.66.74-2.9,1.86s1.19,2.5,1.74,3c1.37,1.29,2.25,1.2,2.78,2.32a3,3,0,0,1,.12,2.32c-.63,1.39-2.27.95-3.83,2.43a6.73,6.73,0,0,0-1.74,3.71,7.09,7.09,0,0,0,.24,4.76c1.33,2.58,4.81,3,6.72,3.24a12.6,12.6,0,0,0,7.88-1.5c1.93-1.14,2.76-2.41,4.06-3.94,3.25-3.85,5.95-5.21,9.16-7.66,5.43-4.14,9.94-9.61,15.3-16.11,9.2-11.15,22.09-29.31,20.18-31C584.11,153.41,570.34,165.55,563.35,171.72Z"/><path class="cls-12" d="M163.58,123c-.58-.91-2.2-3.85-5.44-5-1-.35-1.8-.4-7.89.35-4.77.59-7.86,1.06-11.48-.12-.8-.26-1.87-.61-1.85-1,0-.87,4.38-.91,11.48-2.2,7.25-1.32,8.58-2.34,11.24-1.28,1.38.55,2.81,1.72,5.68,4.06,3.63,3,3.35,3.36,4.76,3.94,3.38,1.39,6.92-.17,10.2-1.62,1.94-.86,4.05-1.79,4.06-3.13,0-1.52-2.66-2.63-3-2.78-.65-.28-2.36-.88-6.49-.24-4.39.69-5.46,1.85-8,1.28-1.67-.38-3.46-1.38-3.36-2.09s2-.77,6.84-1.5c6.5-1,6.34-1.39,8.93-1.4a24.13,24.13,0,0,1,8.11,1.28c.82.29,2.8,1.31,6.73,3.36s4.94,2.62,6.84,2.78c.46,0,4.41.34,5.1-1.39.44-1.11-.61-2.73-1.74-3.59-.6-.46-1.57-1-6.84-1-3.16,0-3.48.13-4.87-.12-2.56-.46-5.34-1.76-5.22-2.55.09-.58,1.69-.55,7-1.16,6.15-.71,6.72-1.07,8.69-.7s3.35,1.1,6.15,2.55,3.75,2.39,6.61,3.48,4.05,1,5,.7c1.49-.5,2.9-1.8,2.67-2.55s-2.12-.25-5.57-1.16c-.59-.16-.5-.17-5.21-2.09-3.12-1.27-3.73-1.5-3.71-1.85,0-.83,3.52-1.28,5.21-1.39a15,15,0,0,1,6.27.57c.84.29,1,.45,5.21,3a47.29,47.29,0,0,0,5.22,3,16.51,16.51,0,0,0,5.1,1.63,16.1,16.1,0,0,0,7.31-1c2.56-.81,4.52-1.43,4.63-2.55.15-1.46-3-2.85-3.82-3.24a17,17,0,0,0-6.73-1.28c-3.64-.09-4.41.58-7.88.23-1.65-.16-4.49-.44-4.76-1.62-.22-1,1.45-2.12,1.74-2.32,1.91-1.31,4.4-1.62,9.51-.81a80.93,80.93,0,0,1,8.46,2c6.41,1.63,6.63,1.35,10.09,2.32,7,2,10.5,2.93,12.41,5.22,6.4,7.66-4,30.18-12.06,30-5.07-.09-5.58-9.11-14-12.4-6.16-2.4-10.75.51-19.59,2.9C196.76,137.06,169.18,131.74,163.58,123Z"/><path class="cls-12" d="M241.38,142.27c0,.56-3.68,2.46-11,6.26-6.07,3.15-8.07,3.92-10.32,4.53-2.6.69-1.33,0-8.47,1.27-2.39.42-4.77.88-7.3-.23-.31-.14-1.7-.75-1.62-1.28.13-.85,3.9,0,7.76-2.08a9.18,9.18,0,0,0,3.83-3.6c.69-1.23,1.53-3.53.7-4.29-.5-.45-1.45-.23-4.18.93-3.55,1.52-5.15,2.52-7.19,3.48a39.84,39.84,0,0,1-7.88,2.67,25.82,25.82,0,0,1-7.77.92c-.73,0-3.17-.14-3.24-.69,0-.29.58-.61,3.47-1.74,4.15-1.62,4.78-1.7,5.8-2.55s2.8-2.86,2.2-4.29a2.8,2.8,0,0,0-2.55-1.39c-1.33,0-1.78.9-3.94,2.2a19.86,19.86,0,0,1-4.17,1.85,24.11,24.11,0,0,1-4.76,1,59.56,59.56,0,0,1-10.78.35c-.27,0-3.82-.09-3.82-.35s4.72.12,8.69-2.67c.76-.53,2.81-2,2.55-3.48-.17-1-1.31-1.69-2.2-2-2.13-.65-4,.79-7.31,2.67a67,67,0,0,1-9.16,4.17,45.9,45.9,0,0,1-8.92,2.09c-3.84.61-7.54,1.21-8,.12-.34-.81,1.18-2.32,2.43-3.13,2.57-1.68,4.08-.49,7.19-1.86.51-.22,4.09-1.85,4.75-4.87.35-1.57-.33-2.43-.23-3C157,127.39,241.63,134.9,241.38,142.27Z"/><path class="cls-13" d="M95.18,132.65c.06,1.61,15.3,1.92,42.67,3.71,12.42.82,23.76,1.56,36.17,2.78,6.78.67,29.92,3.07,60.29,8.81,18.31,3.47,18.57,4.24,38.95,8.35,26.74,5.39,47.37,8.32,57.51,9.74,37.79,5.3,66.86,7.07,88.58,8.35,29.4,1.73,50.49,2,79.77,2.32,32.68.38,49.46.54,71.41-.93A435.47,435.47,0,0,0,629,169.29c19.42-3.57,22.38-5.58,24.11-7,22.82-18.19,14.38-71.86,14.38-71.88h0S627.13,88,595.11,87.2c-36.74-.89-57.16-1.38-86.26-.93-38.77.61-68.56,2.52-79.3,3.25-62.7,4.28-64.78,8.59-138.2,14.38-30.47,2.4-40.29,2.46-61.22,6-23.86,4.06-32.77,7.68-58.43,10.2-8.85.87-16.53,1.3-30.14,3.25-4.79.68-14.17,2.46-32.93,6C97.52,131.51,95.16,132,95.18,132.65Z"/><path class="cls-14" d="M106,128.36c.07,1.55,14.82,2.25,22.26,2.61,12.53.6,20,0,31.65-.17,9.78-.19,17.83,0,33.91.52,30.92.9,29.11,2.2,46.44,2.26,22.52.08,23.11-2.12,50.09-2.44,13.94-.16,14.84.42,39.47.87,12.15.23,19.73.23,50.26.18,43.34-.08,65-.12,67.13-.18,15.69-.41,10-.59,74.44-4,16-.84,32-2.87,48-3.13,22.81-.36,36.68,1.05,50.44-7.48,4.53-2.8,6.51-5.09,15.3-10.43,8.55-5.19,15.57-9.39,25.39-12,7.29-1.94,12.72-2.11,12.7-3,0-1-7.71-1.65-14.27-2-14.32-.82-33.84-1.83-57-2.65-29.37-1-58.69-2.51-92.18-1.57-42.21,1.19-73.58,3.77-109.56,6.79-48.31,4-85.11,8.34-96.87,9.73-60.82,7.23-60.36,9.28-117.21,15.83C140.32,123.4,105.91,126,106,128.36Z"/><path class="cls-14" d="M530.19,121.93c-.07,1.58,4.14,2.77,12.69,5.56,13.85,4.52,11.4,4.19,17.57,5.91,8.44,2.37,13.18,3.7,20,4.18,6.65.47,11.44.75,16.87-1.57,1-.44.14-.15,10.61-7.3,3.88-2.66,7.38-5.84,11.13-8.7,2.2-1.68,3.48-2.62,3.3-3.65-.1-.57-.8-2-9.39-3a78.41,78.41,0,0,0-13.91-.52c-4.82.39-11.73.55-25.57.87-12.62.3-18.78-.21-26.43,1.39-3.3.69-5.91,1.68-11.13,3.66C530.87,120.71,530.21,121.32,530.19,121.93Z"/><path class="cls-15" d="M653.08,162.33c-.42-.13-3.49-1.14-7-2.32-6.94-2.35-8-2.81-8.81-3.24a26.35,26.35,0,0,1-7.89-5.8,25.48,25.48,0,0,1-5.79-11.13,30,30,0,0,1-.47-12.52,42.11,42.11,0,0,1,2.78-8.58c1.76-4.47,2.63-6.7,4.64-9.28a26.11,26.11,0,0,1,6.49-5.79c2.53-1.71,5.78-3.46,14.5-6.09a113,113,0,0,1,15.13-3.83,91.09,91.09,0,0,1,25.4-.43c22.19,2.36,41.5,6,45.54,6.77,27,5,40.78,6.82,45.18,6.87,4.79.05,7.68.56,13.44,1.58,15.15,2.66,16.43,6,16.7,6.95.68,2.55-1.31,5.11-1.4,5.22-1.66,2.09-4,2.2-7,3.13-4.36,1.39-6.15,3.42-9.39,5.56-6.62,4.37-13.92,5.65-19.83,7-19.91,4.43-39.14,11.54-58.78,17C716.62,153.4,668,167,653.08,162.33Z"/><path class="cls-16" d="M668.39,154a40.06,40.06,0,0,1-7-5.56c-2.44-2.45-3.79-3.81-4.64-6-1.42-3.75-.38-7.27.7-10.9a28.33,28.33,0,0,1,5.33-10,27.46,27.46,0,0,1,7-6c2.1-1.24,4-1.83,7.65-3a71.71,71.71,0,0,1,12.29-2.79c1.89-.25,3.48-.38,4.64-.46"/><path class="cls-16" d="M718.71,139.61a16.15,16.15,0,0,1-6.5,6,16.58,16.58,0,0,1-10.9,1.16c-3-.64-5.24-2.06-9.5-4.87-5.91-3.91-5.07-4.55-9.51-7.19-4.93-2.93-7-2.79-11.13-6-2.13-1.69-4.29-2.6-4.64-4.64-.23-1.33.29-2.61,1.05-4.49a20.69,20.69,0,0,1,2.2-4.09"/><path class="cls-16" d="M809.37,117.58a22.88,22.88,0,0,0-6.14-.35,30.66,30.66,0,0,0-7.89,2,70.58,70.58,0,0,0-7.3,3.13c-5.6,2.69-7.8,3.92-11.36,5.68-4.36,2.16-7.55,3.52-12.06,5.45-5.12,2.19-8.9,3.8-14.15,5.57-2.74.92-5.06,1.61-6.72,2.08"/><path class="cls-16" d="M793,115a65.12,65.12,0,0,0-8.34,5.68c-2.33,1.87-3.66,3.21-6.26,4.17a19.25,19.25,0,0,1-6,.93,100,100,0,0,0-11.37,2c-5.84,1.18-9.39,1.9-13.91,3.6A109.54,109.54,0,0,0,736.79,136a38.19,38.19,0,0,1-9.27,3.83,11.4,11.4,0,0,1-6.15.11c-1.07-.31-3.44-1-3.94-2.78-.58-2.07,1.75-4.22,2.32-4.75,1.75-1.62,3.33-1.83,6.38-2.9.82-.29-.14,0,7.3-3.25,5.39-2.36,8.08-3.55,10.32-4.4,3.07-1.18,5.5-2,7.3-2.55,3.32-1.08,5.25-1.7,7.89-2.32a53.36,53.36,0,0,1,8.34-1.39,41.08,41.08,0,0,1,11.48.46,38.54,38.54,0,0,1,8,2.44"/><path class="cls-17" d="M710.94,120.13c1,2.67,5.37,3.37,9.74,4.06a38.28,38.28,0,0,0,11.36.11c3.63-.51,6-.87,8.11-2.78a8.81,8.81,0,0,0,2.9-4.75c.84-4-1.66-7.1-2.2-7.77a11.7,11.7,0,0,0-5.22-3.6c-1.61-.62-3.25-.93-10.2-.57-9,.45-10.15,1.15-10.9,1.73a11,11,0,0,0-3.94,6.61,19.19,19.19,0,0,0-.12,3.6A13,13,0,0,0,710.94,120.13Z"/><path class="cls-18" d="M719.63,114.91c-.2,1.32,2.81,2.85,4.53,3.48a13.78,13.78,0,0,0,6.26.7c2.29-.21,3.86-.35,4.87-1.63a4,4,0,0,0,.58-3.82c-.5-1.28-1.6-1.84-2.79-2.44a9,9,0,0,0-4.75-.93,12.64,12.64,0,0,0-3.83,1.28,21.3,21.3,0,0,0-3.71,2.2C719.76,114.51,719.66,114.72,719.63,114.91Z"/><path class="cls-16" d="M699.81,110.51a44.72,44.72,0,0,1,6.26-4.06,37.83,37.83,0,0,1,9.27-3.71c3.38-.82,6.12-.82,11.6-.81a61,61,0,0,1,11.36.81c3.52.61,3,.89,5.91,1.27a45.35,45.35,0,0,0,11.25,0c1.63-.17,3-.4,3.94-.58"/><path class="cls-16" d="M771.69,111.2c.93,1,2.84.88,3.25.12s-.33-1.84-1.28-2.32c-.76-.39-2-.46-2.43.23A1.76,1.76,0,0,0,771.69,111.2Z"/><path class="cls-2" d="M253.76,101.17c4.41,9.48,27.16,13.53,37.33,2.83,7.54-7.93,5.83-21.52,4.5-21.83-1-.24-2.36,7.15-5.67,7.33-2.27.12-3.27-3.28-9.33-9.83-2.86-3.1-4.33-4.66-6.26-5.46-4.29-1.78-9.43-.59-12.91,1.62-6.34,4-7.42,11.74-8,15.84C252.88,95.5,252.47,98.41,253.76,101.17Z"/><path class="cls-2" d="M402.16,80.57c-6.17,8.44,1.28,30.32,15.56,34.06,10.59,2.77,21.66-5.3,21.29-6.61-.28-1-7.41,1.39-9.16-1.42-1.2-1.93,1.29-4.45,4.1-12.92,1.33-4,2-6,1.76-8.12-.52-4.62-4-8.55-7.66-10.52-6.61-3.59-13.86-.83-17.73.65C406.71,77.07,404,78.11,402.16,80.57Z"/><path class="cls-2" d="M509.17,88.31c-.43,10.44,17.94,24.47,31.88,19.62,10.34-3.59,15-16.46,14-17.34-.79-.68-5.37,5.28-8.39,3.92-2.08-.94-1.41-4.42-3.79-13-1.13-4.06-1.72-6.12-3.06-7.72-3-3.54-8.12-4.85-12.22-4.47-7.49.69-12,7-14.37,10.41C511,82.87,509.29,85.27,509.17,88.31Z"/><path class="cls-1" d="M258.42,140.67c6.77,4.89,29.62,5.24,35.34,5.33,13.07.21,10.46-1.31,23.33-1,12.08.29,16.22,1.67,25,0,6.69-1.27,5.72-2.35,15.67-5,6.86-1.83,14.92-4,25-3.67,7.1.22,7.06,1.41,17.33,2.34,9.39.85,14.11.28,20.67.33,11.66.09,13.25,2.34,31.33,4.67,32.2,4.14,43.44,3,53.33-2.67a42.87,42.87,0,0,0,7.65-5.62l4.89-1.64c5,1.77,12.25,4.24,21.13,6.93,8.6,2.6,13.68,4.12,19.33,5.33,11.74,2.52,20.46,2.49,37.34,2.33,13.19-.12,22.92-.91,32-1.66,17.9-1.49,27.08-2.31,38.66-5.67a127.9,127.9,0,0,0,20-7.67c1.05,0,6.66-.36,9-4.33a6.81,6.81,0,0,0,1-4.33c-.76-8.88-7-18-7-18-3.46-5.06-6.34-9.28-11.33-13.34C670.24,87,662,84.9,652.76,83c-17.72-3.63-31.25-5.07-45.67-6.67-23-2.53-9-1.13-41.33-4.66-14.31-1.56-26.07-2.82-34-3.67q-1,32.75-4.34,33-2.82.21-7.33-22.33A16,16,0,0,0,518.42,74c-.66-1.21-3.17-5.81-7.45-6.66-2.27-.45-2.42.67-6.55,1-3.41.28-4.44-.4-8.66-.66-3.75-.23-4.77.18-9,.33a79.43,79.43,0,0,1-12.67-.67c-7.38-.73-26.58-2.64-46,3a86.69,86.69,0,0,0-11.67,4.34,20.16,20.16,0,0,1-2.72,9.8c-1.13,1.92-2.89,4.91-4.94,4.86-2.48,0-4.93-4.51-6-11A12.25,12.25,0,0,0,401.09,73c-.93-1.54-2.63-3.54-6.67-5.33a31,31,0,0,0-14.66-2.34c-10.31.91-20.69.83-31,1.67-15,1.22-13.95,0-30.67,1.33-18.65,1.53-23.89,3.4-28,7.34-3.37,3.22-5.61,7.48-8.33,12.66-4.74,9-5.94,15.5-9.34,15.67-1.68.09-3.3-1.41-4-2.67-.85-1.52-.63-3.18.34-6.66a95.61,95.61,0,0,1,4-11.34c.75-1.83,1.92-4.71,3.33-8.33a76,76,0,0,0-13-4.67c-1.09-.28-2.85-.7-10-2-7.43-1.34-11.15-2-13.67-2.33a79.56,79.56,0,0,0-20-.33c-9.72,1.18-16.62,4.28-22.66,7-7.07,3.17-13.39,6-20,12-7.67,6.94-7.07,10.26-14.34,14.66-2.07,1.26-5.31,2.92-7.33,6.67a14.57,14.57,0,0,0-1.67,7.33c.08,2,.72,7.11,8.34,14,3,2.68,9.4,7.84,24.33,12.34a125.9,125.9,0,0,0,30,5c6.39.42,26.84,1.78,32.67-3.34a8.12,8.12,0,0,1,5-2.33A7.65,7.65,0,0,1,258.42,140.67Z"/><path class="cls-19" d="M432,5.43a93.19,93.19,0,0,0-2.67,14.89,108.86,108.86,0,0,0-.22,16c.43,9.48,1.41,14.63,2,20a117.63,117.63,0,0,1-.67,29.77l3.56.45,2.44-.45a11.63,11.63,0,0,0,1.78-.22,12,12,0,0,0,1.39-.37c-.22-2.72-.55-6.66-.95-11.41-.89-10.66-1.34-16-1.55-18-1.28-11.8-2-11.93-2.22-18.66-.25-7,.48-8.25.22-14.23A70.17,70.17,0,0,0,432,5.43Z"/><path class="cls-20" d="M439.06,21.43a26.92,26.92,0,0,0-14,2c-3.55,1.62-7.28,3.32-8.89,7.33-1.91,4.74.05,10.45,3.55,13.78,5.24,5,12.56,3.31,14.45,2.89A19.7,19.7,0,0,0,442.61,43c2.27-1.88,5.48-4.55,6.45-9.11.13-.62,1.4-7-2.45-10.44C444.82,21.84,442.81,21.7,439.06,21.43Z"/><path class="cls-21" d="M439.5,30.09c-.24.29-3,3.48-1.55,5.56a3.18,3.18,0,0,0,3.55,1.11c1.9-.72,2-3.44,2-4.22,0-1.41-.36-3.73-1.55-4C441,28.33,440.06,29.45,439.5,30.09Z"/><path class="cls-20" d="M422.64,86.09s6.34.23,7,.45a46.5,46.5,0,0,0,5.56,0l6.22-1.78,4.22-.89"/></g></g></svg>