<svg xmlns="http://www.w3.org/2000/svg" viewBox="0 0 546.04 149.89"><defs><style>.cls-1{fill:#d7bb98;}.cls-1,.cls-2,.cls-3,.cls-4,.cls-5{stroke:#000;stroke-miterlimit:10;stroke-width:3px;}.cls-2{fill:#d5a86d;}.cls-3{fill:#7a644a;}.cls-4{fill:#679e05;}.cls-5{fill:#da5406;}</style></defs><g id="Layer_2" data-name="Layer 2"><g id="Producten"><path class="cls-1" d="M101.84,101.17c4.41,9.48,27.17,13.53,37.34,2.83,7.54-7.93,5.83-21.52,4.5-21.83-1-.24-2.36,7.15-5.67,7.33-2.27.12-3.28-3.28-9.33-9.83-2.86-3.1-4.33-4.66-6.26-5.46-4.3-1.78-9.44-.59-12.91,1.62-6.34,4-7.42,11.74-8,15.84C101,95.5,100.56,98.41,101.84,101.17Z"/><path class="cls-1" d="M250.25,80.57c-6.17,8.44,1.28,30.32,15.56,34.06,10.59,2.77,21.65-5.3,21.29-6.61-.29-1-7.41,1.39-9.16-1.42-1.21-1.93,1.28-4.45,4.1-12.92,1.33-4,2-6,1.75-8.12-.52-4.62-4-8.55-7.65-10.52-6.61-3.59-13.87-.83-17.73.65C254.79,77.07,252.05,78.11,250.25,80.57Z"/><path class="cls-1" d="M357.25,88.31c-.42,10.44,17.95,24.47,31.89,19.62,10.34-3.59,15-16.46,14-17.34-.79-.68-5.37,5.28-8.4,3.92-2.07-.94-1.41-4.42-3.79-13-1.12-4.06-1.71-6.12-3.06-7.72-3-3.54-8.11-4.85-12.22-4.47-7.49.69-12,7-14.36,10.41C359.07,82.87,357.38,85.27,357.25,88.31Z"/><path class="cls-2" d="M106.51,140.67c6.77,4.89,29.62,5.24,35.33,5.33,13.07.21,10.47-1.31,23.34-1,12.08.29,16.22,1.67,25,0,6.69-1.27,5.72-2.35,15.66-5,6.87-1.83,14.92-4,25-3.67,7.11.22,7.07,1.41,17.34,2.34,9.39.85,14.11.28,20.66.33,11.67.09,13.26,2.34,31.34,4.67,32.19,4.14,43.43,3,53.33-2.67a43.25,43.25,0,0,0,7.65-5.62l4.88-1.64c5,1.77,12.26,4.24,21.14,6.93,8.6,2.6,13.68,4.12,19.33,5.33,11.73,2.52,20.46,2.49,37.33,2.33,13.2-.12,22.93-.91,32-1.66,17.9-1.49,27.09-2.31,38.67-5.67a128.31,128.31,0,0,0,20-7.67c1,0,6.66-.36,9-4.33a6.87,6.87,0,0,0,1-4.33c-.76-8.88-7-18-7-18-3.46-5.06-6.34-9.28-11.33-13.34-7.85-6.38-16-8.43-25.34-10.33-17.72-3.63-31.25-5.07-45.66-6.67-22.95-2.53-9-1.13-41.34-4.66-14.3-1.56-26.07-2.82-34-3.67q-1,32.75-4.33,33-2.82.21-7.33-22.33A16,16,0,0,0,366.51,74c-.66-1.21-3.17-5.81-7.46-6.66-2.26-.45-2.42.67-6.54,1-3.42.28-4.44-.4-8.67-.66-3.74-.23-4.76.18-9,.33a79.37,79.37,0,0,1-12.66-.67c-7.38-.73-26.58-2.64-46,3a86.17,86.17,0,0,0-11.67,4.34,20.16,20.16,0,0,1-2.72,9.8c-1.13,1.92-2.89,4.91-5,4.86-2.48,0-4.92-4.51-6-11A12.21,12.21,0,0,0,249.18,73c-.93-1.54-2.64-3.54-6.67-5.33a31,31,0,0,0-14.67-2.34c-10.31.91-20.68.83-31,1.67-15,1.22-13.94,0-30.66,1.33-18.65,1.53-23.89,3.4-28,7.34-3.37,3.22-5.61,7.48-8.34,12.66-4.73,9-5.93,15.5-9.33,15.67-1.69.09-3.3-1.41-4-2.67-.85-1.52-.64-3.18.33-6.66a97.49,97.49,0,0,1,4-11.34c.76-1.83,1.93-4.71,3.34-8.33a76,76,0,0,0-13-4.67c-1.1-.28-2.85-.7-10-2C93.74,67,90,66.32,87.51,66a79.56,79.56,0,0,0-20-.33c-9.72,1.18-16.63,4.28-22.67,7-7.06,3.17-13.38,6-20,12-7.66,6.94-7.07,10.26-14.33,14.66-2.08,1.26-5.31,2.92-7.33,6.67a14.47,14.47,0,0,0-1.67,7.33c.07,2,.71,7.11,8.33,14,3,2.68,9.41,7.84,24.34,12.34a125.9,125.9,0,0,0,30,5c6.39.42,26.84,1.78,32.66-3.34a8.15,8.15,0,0,1,5-2.33A7.65,7.65,0,0,1,106.51,140.67Z"/><path class="cls-3" d="M280.07,5.43a93.19,93.19,0,0,0-2.67,14.89,108.86,108.86,0,0,0-.22,16c.43,9.48,1.41,14.63,2,20a117.63,117.63,0,0,1-.67,29.77l3.56.45,2.44-.45a11.63,11.63,0,0,0,1.78-.22,12.59,12.59,0,0,0,1.39-.37c-.22-2.72-.55-6.66-.95-11.41-.89-10.66-1.34-16-1.55-18-1.28-11.8-2-11.93-2.23-18.66-.25-7,.48-8.25.23-14.23A70.17,70.17,0,0,0,280.07,5.43Z"/><path class="cls-4" d="M287.14,21.43a26.94,26.94,0,0,0-14,2c-3.54,1.62-7.27,3.32-8.88,7.33-1.91,4.74,0,10.45,3.55,13.78,5.24,5,12.56,3.31,14.45,2.89A19.7,19.7,0,0,0,290.7,43c2.27-1.88,5.48-4.55,6.44-9.11.14-.62,1.41-7-2.44-10.44C292.91,21.84,290.89,21.7,287.14,21.43Z"/><path class="cls-5" d="M287.59,30.09c-.25.29-3,3.48-1.56,5.56a3.2,3.2,0,0,0,3.56,1.11c1.9-.72,2-3.44,2-4.22,0-1.41-.36-3.73-1.56-4C289.11,28.33,288.14,29.45,287.59,30.09Z"/><path class="cls-4" d="M270.73,86.09s6.34.23,7,.45a46.5,46.5,0,0,0,5.56,0l6.22-1.78,4.22-.89"/></g></g></svg>