<svg xmlns="http://www.w3.org/2000/svg" viewBox="0 0 271.51 90.5"><defs><style>.cls-1{fill:#ffdc64;stroke:#000;stroke-miterlimit:10;stroke-width:3px;}</style></defs><g id="Layer_2" data-name="Layer 2"><g id="Producten"><path class="cls-1" d="M202.12,23.58c-4.52.88-8.3,1.38-11,1.67-9,1-13.05.2-14.94-.22a16.72,16.72,0,0,1-7.78-3.67c-1.31-1.16-3.16-2.79-2.89-4.89s2.6-3.35,3-3.55L136.12,1.58,4.62,44.92,14,48.25a50.42,50.42,0,0,1,12.67-.5,20.83,20.83,0,0,1,5,1.33,9,9,0,0,1,2.85,1.67,7.64,7.64,0,0,1,1.82,2.67,19.19,19.19,0,0,1,6.43.26c1.89.41,2.52.86,2.9,1.4a4.14,4.14,0,0,1,.2,3.57l90.63,30.27q12.77-4.24,25.67-8.67,13.55-4.64,26.83-9.33c-2.42-1.06-3.88-2.56-3.66-3.67s2.42-1.69,3.83-2c.67-.15,3.27-.66,8.67.5,1.83.4,3.32.84,4.33,1.17l64.67-22ZM80.65,48.22c-.34.52-.92.68-3.22.89a17.21,17.21,0,0,1-4.81.06c-1.79-.31-2.12-.77-2.25-1a2,2,0,0,1,.23-2c.14-.2.59-.76,3.33-1.12a10.7,10.7,0,0,1,3.94,0c1.06.23,2.51.54,2.92,1.64A1.78,1.78,0,0,1,80.65,48.22ZM101,32.58c-3-.3-4.89-.67-6.16-2.2-.19-.22-1.36-1.64-1-3,.31-1.09,1.52-1.78,4.46-2.59a40,40,0,0,1,8.87-1.41,37.15,37.15,0,0,1,11.42,1.54,6.39,6.39,0,0,1,1.75.91c.38.29,2.17,1.59,2,2.92a2.16,2.16,0,0,1-1,1.29,16.85,16.85,0,0,1-7.13,2.54A63.05,63.05,0,0,1,101,32.58ZM136,63a8.83,8.83,0,0,1-2.73,1.22,18.34,18.34,0,0,1-4.33.72,32,32,0,0,1-5.22-.5A7.46,7.46,0,0,1,120,63.25a2.17,2.17,0,0,1-.89-1.11,2.24,2.24,0,0,1,.73-2.17c.25-.22.58-.4,2.55-.66,1-.13,1.44-.19,2.06-.23a35,35,0,0,1,7.77.28,15.71,15.71,0,0,1,3.67,1.22c.76.36,1.24.64,1.28,1.06S136.56,62.62,136,63Zm14.11-17.11a7.72,7.72,0,0,1-4.89-.5c-.2-.1-2.16-1.06-2-1.84.08-.36.68-.54,1.89-.88a10.58,10.58,0,0,1,3.66-.56,5.23,5.23,0,0,1,2.17.39c.83.37,2.09,1.27,1.95,2S151.08,45.72,150.07,45.92Zm59.33,2.72a22.75,22.75,0,0,1-5.22,1.06,33.45,33.45,0,0,1-7.39-.34c-2.49-.29-3.62-.59-4.67-1.44-.39-.32-1.55-1.28-1.39-2.28s1.79-1.66,3.45-2.28a13.74,13.74,0,0,1,2.14-.61,25,25,0,0,1,5.86-.39,28.64,28.64,0,0,1,6.55.56c3,.71,3.66,1.55,3.89,2.16a2.32,2.32,0,0,1,0,1.62C212.27,47.59,211.34,48.07,209.4,48.64Z"/></g></g></svg>