<svg xmlns="http://www.w3.org/2000/svg" viewBox="0 0 621.01 96.78"><defs><style>.cls-1{fill:#ffdc64;stroke:#000;stroke-miterlimit:10;stroke-width:3px;}</style></defs><g id="Layer_2" data-name="Layer 2"><g id="Lagen"><path class="cls-1" d="M202.12,26.7c-4.52.88-8.3,1.38-11,1.67-9,1-13.05.2-14.94-.22a16.72,16.72,0,0,1-7.78-3.67c-1.31-1.16-3.16-2.79-2.89-4.89s2.6-3.35,3-3.55L136.12,4.7,4.62,48,14,51.37a50.42,50.42,0,0,1,12.67-.5,20.33,20.33,0,0,1,5,1.33,8.8,8.8,0,0,1,2.85,1.67,7.46,7.46,0,0,1,1.82,2.67,19.19,19.19,0,0,1,6.43.26c1.89.41,2.52.86,2.9,1.4a4.14,4.14,0,0,1,.2,3.57L136.45,92q12.77-4.25,25.67-8.67Q175.67,78.74,189,74c-2.42-1.06-3.88-2.56-3.66-3.67s2.42-1.69,3.83-2c.67-.15,3.27-.66,8.67.5A42.24,42.24,0,0,1,202.12,70l64.67-22ZM80.65,51.34c-.34.52-.92.67-3.22.89a17.21,17.21,0,0,1-4.81.06c-1.79-.31-2.12-.77-2.25-1a2,2,0,0,1,.23-2c.14-.19.59-.75,3.33-1.11a10.49,10.49,0,0,1,3.94-.05c1.06.22,2.51.54,2.92,1.64A1.78,1.78,0,0,1,80.65,51.34ZM101,35.7c-3-.3-4.89-.67-6.16-2.21-.19-.21-1.36-1.63-1-3,.31-1.08,1.52-1.77,4.46-2.58a41,41,0,0,1,8.87-1.42A37.32,37.32,0,0,1,118.64,28a6.39,6.39,0,0,1,1.75.91c.38.28,2.17,1.59,2,2.92a2.16,2.16,0,0,1-1,1.29,16.85,16.85,0,0,1-7.13,2.54A63.05,63.05,0,0,1,101,35.7Zm35,30.45a8.83,8.83,0,0,1-2.73,1.22,18.34,18.34,0,0,1-4.33.72,32,32,0,0,1-5.22-.5A7.46,7.46,0,0,1,120,66.37a2.21,2.21,0,0,1-.89-1.11,2.24,2.24,0,0,1,.73-2.17c.25-.22.58-.4,2.55-.67,1-.12,1.44-.19,2.06-.22a34.45,34.45,0,0,1,7.77.28,15.71,15.71,0,0,1,3.67,1.22c.76.35,1.24.64,1.28,1.06S136.56,65.74,136,66.15ZM150.07,49a7.72,7.72,0,0,1-4.89-.5c-.2-.1-2.16-1.07-2-1.84.08-.36.68-.54,1.89-.89a10.84,10.84,0,0,1,3.66-.55,5.23,5.23,0,0,1,2.17.39c.83.37,2.09,1.26,1.95,2.05S151.08,48.84,150.07,49Zm59.33,2.72a22.26,22.26,0,0,1-5.22,1.05,32.82,32.82,0,0,1-7.39-.33c-2.49-.29-3.62-.59-4.67-1.44-.39-.33-1.55-1.28-1.39-2.28s1.79-1.67,3.45-2.28a13.74,13.74,0,0,1,2.14-.61,24.44,24.44,0,0,1,5.86-.39,28.64,28.64,0,0,1,6.55.56c3,.7,3.66,1.55,3.89,2.16a2.3,2.3,0,0,1,0,1.61C212.27,50.71,211.34,51.19,209.4,51.76Z"/><path class="cls-1" d="M361.36,28.53c-4.53.88-8.31,1.38-11,1.67-9,1-13.05.2-14.95-.22a16.77,16.77,0,0,1-7.78-3.67c-1.3-1.15-3.15-2.79-2.88-4.89s2.59-3.35,3-3.55L295.36,6.53,163.86,49.87l9.33,3.33a50.42,50.42,0,0,1,12.67-.5,20.83,20.83,0,0,1,5,1.33,9,9,0,0,1,2.85,1.67,7.58,7.58,0,0,1,1.81,2.67,19.25,19.25,0,0,1,6.44.26c1.89.41,2.51.86,2.9,1.4a4.14,4.14,0,0,1,.2,3.57l90.63,30.27q12.75-4.25,25.67-8.67,13.54-4.64,26.83-9.33c-2.42-1.06-3.89-2.55-3.67-3.67s2.43-1.69,3.84-2c.67-.15,3.26-.66,8.66.5a44.55,44.55,0,0,1,4.34,1.17l64.66-22ZM239.89,53.17c-.34.53-.92.68-3.22.89a17.19,17.19,0,0,1-4.81.06c-1.79-.31-2.12-.77-2.25-1a2,2,0,0,1,.22-2c.14-.2.6-.76,3.34-1.12a10.7,10.7,0,0,1,3.94-.05c1.06.23,2.51.54,2.92,1.64A1.78,1.78,0,0,1,239.89,53.17Zm20.36-15.64c-3-.3-4.89-.67-6.17-2.2-.18-.22-1.35-1.64-1-3,.31-1.09,1.52-1.78,4.45-2.59a40.17,40.17,0,0,1,8.88-1.41,37.15,37.15,0,0,1,11.42,1.54,6.54,6.54,0,0,1,1.75.91c.38.29,2.17,1.59,1.95,2.92a2.11,2.11,0,0,1-.95,1.29,16.85,16.85,0,0,1-7.13,2.54A62.39,62.39,0,0,1,260.25,37.53ZM295.19,68a8.81,8.81,0,0,1-2.72,1.22,18.34,18.34,0,0,1-4.33.72,30.84,30.84,0,0,1-5.22-.5,7.46,7.46,0,0,1-3.67-1.22,2.12,2.12,0,0,1-.89-1.11,2.26,2.26,0,0,1,.72-2.17c.25-.22.59-.4,2.56-.66,1-.13,1.43-.19,2.05-.23a35.14,35.14,0,0,1,7.78.28,15.71,15.71,0,0,1,3.67,1.22c.76.36,1.24.65,1.28,1.06S295.8,67.57,295.19,68Zm14.12-17.11a7.72,7.72,0,0,1-4.89-.5c-.2-.1-2.16-1.06-2-1.84.07-.36.68-.54,1.89-.88a10.55,10.55,0,0,1,3.66-.56,5.26,5.26,0,0,1,2.17.39c.83.37,2.08,1.27,1.94,2.05S310.32,50.67,309.31,50.87Zm59.33,2.72a22.75,22.75,0,0,1-5.22,1.06,32.83,32.83,0,0,1-7.39-.34c-2.49-.29-3.63-.58-4.67-1.44-.39-.32-1.55-1.28-1.39-2.28s1.79-1.66,3.45-2.28a13.74,13.74,0,0,1,2.13-.61,25.1,25.1,0,0,1,5.87-.39,29.89,29.89,0,0,1,6.55.56c3,.71,3.66,1.55,3.89,2.16a2.39,2.39,0,0,1,0,1.62C371.51,52.54,370.58,53,368.64,53.59Z"/><path class="cls-1" d="M434.87,29.87c-4.53.88-8.31,1.37-11,1.67-9,1-13.05.2-14.95-.23a16.65,16.65,0,0,1-7.78-3.66c-1.3-1.16-3.15-2.8-2.88-4.89s2.59-3.36,3-3.56L368.87,7.87,237.37,51.2l9.33,3.34a49.93,49.93,0,0,1,12.67-.5,20.33,20.33,0,0,1,5,1.33A8.62,8.62,0,0,1,267.22,57,7.48,7.48,0,0,1,269,59.7a19.2,19.2,0,0,1,6.44.27c1.89.41,2.51.86,2.9,1.4a4.14,4.14,0,0,1,.2,3.57L369.2,95.2Q382,91,394.87,86.54q13.54-4.65,26.83-9.34c-2.42-1-3.89-2.55-3.67-3.66s2.43-1.69,3.84-2c.67-.15,3.26-.66,8.66.5a42.25,42.25,0,0,1,4.34,1.16l64.66-22ZM313.4,54.51c-.34.52-.92.67-3.22.89a17,17,0,0,1-4.81.05c-1.79-.31-2.12-.76-2.25-1a2,2,0,0,1,.22-2c.14-.2.6-.76,3.34-1.11a10.72,10.72,0,0,1,3.94-.06c1.06.23,2.51.54,2.92,1.64A1.8,1.8,0,0,1,313.4,54.51Zm20.36-15.64c-3-.3-4.89-.67-6.17-2.21-.18-.22-1.35-1.63-1-3,.32-1.09,1.52-1.78,4.46-2.58A40.48,40.48,0,0,1,340,29.66a37.42,37.42,0,0,1,11.41,1.54,6.73,6.73,0,0,1,1.75.92c.39.28,2.18,1.59,2,2.92a2.09,2.09,0,0,1-1,1.29A16.78,16.78,0,0,1,347,38.87,63.05,63.05,0,0,1,333.76,38.87ZM368.7,69.31A9.18,9.18,0,0,1,366,70.54a18.88,18.88,0,0,1-4.33.72,31.87,31.87,0,0,1-5.22-.5,7.46,7.46,0,0,1-3.67-1.22,2.16,2.16,0,0,1-.89-1.11,2.26,2.26,0,0,1,.72-2.17c.25-.22.59-.41,2.56-.67,1-.12,1.43-.19,2.05-.22a34.53,34.53,0,0,1,7.78.28,15.71,15.71,0,0,1,3.67,1.22c.76.35,1.24.64,1.28,1.06S369.31,68.91,368.7,69.31ZM382.82,52.2a7.65,7.65,0,0,1-4.89-.5c-.2-.09-2.16-1.06-2-1.83.07-.37.68-.55,1.89-.89a10.8,10.8,0,0,1,3.66-.55,5.26,5.26,0,0,1,2.17.38c.83.38,2.08,1.27,1.94,2.06S383.83,52,382.82,52.2Zm59.33,2.73a23.33,23.33,0,0,1-5.22,1,33.39,33.39,0,0,1-7.39-.33c-2.49-.29-3.63-.59-4.67-1.45-.39-.32-1.56-1.28-1.39-2.27s1.79-1.67,3.45-2.28a15.69,15.69,0,0,1,2.13-.62,25.16,25.16,0,0,1,5.87-.38,29.38,29.38,0,0,1,6.55.55c3,.71,3.66,1.56,3.89,2.17a2.36,2.36,0,0,1,0,1.61C445,53.87,444.09,54.36,442.15,54.93Z"/><path class="cls-1" d="M551.62,23.58c-4.52.88-8.3,1.38-11,1.67-9,1-13,.2-14.94-.22a16.77,16.77,0,0,1-7.78-3.67c-1.31-1.16-3.16-2.79-2.89-4.89s2.6-3.35,3-3.55L485.62,1.58,354.12,44.92l9.33,3.33a50.42,50.42,0,0,1,12.67-.5,20.71,20.71,0,0,1,5,1.33A9,9,0,0,1,384,50.75a7.64,7.64,0,0,1,1.82,2.67,19.25,19.25,0,0,1,6.44.26c1.88.41,2.51.86,2.89,1.4a4.14,4.14,0,0,1,.2,3.57L486,88.92q12.76-4.24,25.67-8.67,13.54-4.64,26.83-9.33c-2.41-1.06-3.88-2.56-3.66-3.67s2.42-1.69,3.83-2c.68-.15,3.27-.66,8.67.5,1.83.4,3.32.84,4.33,1.17l64.67-22ZM430.15,48.22c-.33.52-.92.68-3.22.89a17.12,17.12,0,0,1-4.8.06c-1.79-.31-2.13-.77-2.25-1a2,2,0,0,1,.22-2c.14-.2.59-.76,3.33-1.12a10.76,10.76,0,0,1,3.95,0c1.05.23,2.5.54,2.91,1.64A1.78,1.78,0,0,1,430.15,48.22Zm20.36-15.64c-3-.3-4.88-.67-6.16-2.2-.18-.22-1.36-1.64-1-3,.32-1.09,1.52-1.78,4.46-2.59a40,40,0,0,1,8.87-1.41,37.15,37.15,0,0,1,11.42,1.54,6.39,6.39,0,0,1,1.75.91c.39.29,2.17,1.59,2,2.92a2.12,2.12,0,0,1-1,1.29,16.85,16.85,0,0,1-7.13,2.54A63.05,63.05,0,0,1,450.51,32.58ZM485.46,63a8.91,8.91,0,0,1-2.72,1.22,18.54,18.54,0,0,1-4.34.72,32,32,0,0,1-5.22-.5,7.46,7.46,0,0,1-3.67-1.22,2.1,2.1,0,0,1-.88-1.11,2.21,2.21,0,0,1,.72-2.17c.25-.22.58-.4,2.55-.66,1-.13,1.44-.19,2.06-.23a35.15,35.15,0,0,1,7.78.28,15.73,15.73,0,0,1,3.66,1.22c.77.36,1.24.64,1.28,1.06S486.06,62.62,485.46,63Zm14.11-17.11a7.73,7.73,0,0,1-4.89-.5c-.2-.1-2.16-1.06-2-1.84.08-.36.68-.54,1.89-.88a10.6,10.6,0,0,1,3.67-.56,5.22,5.22,0,0,1,2.16.39c.83.37,2.09,1.27,2,2S500.58,45.72,499.57,45.92Zm59.33,2.72a22.63,22.63,0,0,1-5.22,1.06,33.45,33.45,0,0,1-7.39-.34c-2.49-.29-3.62-.59-4.66-1.44-.4-.32-1.56-1.28-1.39-2.28S542,44,543.68,43.36a13.74,13.74,0,0,1,2.14-.61,25,25,0,0,1,5.86-.39,28.74,28.74,0,0,1,6.56.56c3,.71,3.65,1.55,3.89,2.16a2.46,2.46,0,0,1,0,1.62C561.78,47.59,560.85,48.07,558.9,48.64Z"/></g></g></svg>