<svg xmlns="http://www.w3.org/2000/svg" viewBox="0 0 780.8 162.01"><defs><style>.cls-1{fill:#696969;}.cls-1,.cls-2,.cls-3,.cls-4,.cls-5,.cls-6,.cls-7{stroke:#000;stroke-miterlimit:10;stroke-width:3px;}.cls-2{fill:#dfdfdf;}.cls-3{fill:#909090;}.cls-4{fill:#ccc;}.cls-5{fill:none;}.cls-6{fill:#fff;}</style></defs><g id="Layer_2" data-name="Layer 2"><g id="Producten"><path class="cls-1" d="M9.94,117.63c-.71-2.3,6.08-6.37,12.23-10,4.14-2.44,8.74-4.7,17.77-9.11A119.15,119.15,0,0,0,57.5,88.3c4.64-3.29,6.84-5.39,6.67-7.78-.07-.88-.5-2.5-5.78-6.22a53.13,53.13,0,0,0-10.22-5.78c-9.56-3.67-5.05-3-22.45-10.22-7.4-3.08-14-7.93-21.33-11.11C3.66,46.87,1.48,46,1.5,44.74c0-.68.73-1.68,5.11-3.11A41.26,41.26,0,0,1,19.5,39.41a119.5,119.5,0,0,1,24.89,4c11.41,3.17,20.13,5.93,27.33,8.22,25.24,8,22.11,7.27,28.45,9.11,13,3.79,18.44,4.76,26.89,8.23,10.5,4.31,9.09,5.67,16.44,8,1.37.43,3.72,1.11,3.78,2.22.08,1.51-4.15,2.8-7.56,4-7.77,2.74-3.94,2.43-17.55,8-11.61,4.74-17.06,6-34.45,12.22-18.08,6.42-20.07,7.79-30.22,10.45-2.58.67.06-.08-21.33,4.22a76.88,76.88,0,0,1-19.56,1.33C11.53,119.1,10.21,118.5,9.94,117.63Z"/><path class="cls-1" d="M281.83,69.13c-.13-.84-.3-.6-10.83-9.83-3.7-3.24-6.86-6.06-12-8a29.25,29.25,0,0,0-3.17-1c1.28-.24,3-.6,5-1.17a61.22,61.22,0,0,0,11-4.33c5.88-2.94,8.93-4.47,12-7.5a29.26,29.26,0,0,0,7.67-13.67,38,38,0,0,1,4.83,1.17A40,40,0,0,1,309,31.63c11.93,9,17.07,6.44,27,15.5,3.6,3.29,6.74,6.16,9,10.84,8.77,18.17-5.11,44.5-18.5,51.83-1.26.69-4.42,2.25-9.5,5.17-2.64,1.51-4,2.35-13.5,8.33-9.13,5.74-13.17,8.28-19.17,11.83-1.18.71-2.17,1.28-2.83,1.67-1.25-.91-3.13-2.33-5.33-4.17A104.49,104.49,0,0,1,267,124a147.86,147.86,0,0,0-16.83-14.84,53.44,53.44,0,0,0,4.33-4.5,62.56,62.56,0,0,0,8.67-13.5C270.75,77,282.84,75.64,281.83,69.13Z"/><path class="cls-1" d="M453.61,42.08a17.2,17.2,0,0,1,5.56-4.45c2.51-1.23,4.84-1.53,5.44-3.33.4-1.19-.23-2.19.45-2.78s1.45.19,2.88-.11a4.29,4.29,0,0,0,3.34-3.33c.1-1.15-.67-1.88-.34-2.22.49-.5,2,1.06,3.45.55a3.14,3.14,0,0,0,1.78-2.55c.19-1.73-1.2-2.82-.78-3.34s1.75.62,3.67.34c1.41-.21,3.07-1.19,3.44-2.56.42-1.53-1-2.79-.44-3.33s1.36.43,3.11.44a6.34,6.34,0,0,0,4.44-2,3.79,3.79,0,0,0,1.11-2c.34-2.31-2.41-4.12-2-4.67.29-.38,1.62.57,4.11.89,1.5.2,2.63.35,3.67-.33a4,4,0,0,0,1.67-3.44c-.08-1.39-1-2.18-.78-2.34s3.19,2.39,5,4c2.42,2.16,5,4.07,7.55,6.11,10.56,8.58,38.45,17.71,40.23,29.11,1.4,9-13.44,20.64-26.78,25C489.71,76.77,456.34,44.77,453.61,42.08Z"/><path class="cls-1" d="M539.94,118.86c-4.69,4.14-6.44,6-10.55,8.55-5.19,3.21-9.64,6-15.56,7.11-3.3.64-6.32,2.3-9.55,3.22-.88.25-2.55.72-2.78,1.78s1.14,2.4,1.67,2.89c1.31,1.24,2.15,1.15,2.66,2.22a2.89,2.89,0,0,1,.11,2.23c-.59,1.33-2.17.9-3.66,2.33a6.38,6.38,0,0,0-1.67,3.55,6.8,6.8,0,0,0,.22,4.56c1.29,2.47,4.62,2.88,6.45,3.11a12.17,12.17,0,0,0,7.55-1.44,14.18,14.18,0,0,0,3.89-3.78c3.12-3.68,5.71-5,8.78-7.33,5.2-4,9.52-9.22,14.67-15.45,8.81-10.68,21.16-28.08,19.33-29.67C559.84,101.31,546.65,112.94,539.94,118.86Z"/><path class="cls-1" d="M156.83,72.19c-.56-.87-2.11-3.69-5.22-4.78-1-.34-1.72-.38-7.55.33-4.58.57-7.53,1-11-.11-.77-.25-1.79-.58-1.78-1,0-.83,4.2-.87,11-2.11s8.22-2.24,10.78-1.22c1.31.53,2.69,1.65,5.44,3.89C162,70,161.71,70.41,163.06,71c3.24,1.33,6.63-.17,9.77-1.56,1.87-.82,3.88-1.71,3.89-3,0-1.46-2.54-2.52-2.89-2.67-.63-.26-2.26-.84-6.22-.22-4.2.66-5.23,1.77-7.67,1.22-1.6-.36-3.31-1.32-3.22-2s1.95-.74,6.56-1.44c6.23-.95,6.08-1.33,8.55-1.33a22.76,22.76,0,0,1,7.78,1.22c.79.27,2.68,1.26,6.45,3.22s4.73,2.51,6.55,2.67c.45,0,4.23.32,4.89-1.34.43-1.07-.59-2.61-1.67-3.44-.57-.44-1.5-.93-6.55-1-3,0-3.33.13-4.67-.11-2.45-.45-5.12-1.69-5-2.45.09-.55,1.61-.52,6.67-1.11,5.89-.68,6.44-1,8.33-.66s3.21,1.05,5.89,2.44,3.59,2.29,6.33,3.33,3.88,1,4.78.67c1.42-.47,2.78-1.72,2.56-2.44s-2-.24-5.34-1.11c-.56-.15-.48-.16-5-2-3-1.22-3.57-1.44-3.55-1.78,0-.79,3.38-1.22,5-1.34a14.36,14.36,0,0,1,6,.56c.81.27,1,.42,5,2.89a46.18,46.18,0,0,0,5,2.89,15.77,15.77,0,0,0,4.89,1.55,15.38,15.38,0,0,0,7-1c2.46-.77,4.33-1.37,4.44-2.44.14-1.4-2.83-2.74-3.67-3.11a16.09,16.09,0,0,0-6.44-1.22c-3.49-.09-4.23.55-7.56.22-1.58-.16-4.3-.43-4.55-1.56-.21-.93,1.38-2,1.67-2.22,1.83-1.25,4.21-1.55,9.11-.78a77.59,77.59,0,0,1,8.11,1.89c6.13,1.56,6.35,1.3,9.66,2.22,6.71,1.88,10.06,2.81,11.89,5C262,67,252,88.56,244.28,88.41c-4.86-.09-5.35-8.74-13.45-11.89-5.91-2.3-10.3.49-18.77,2.78C188.62,85.63,162.2,80.54,156.83,72.19Z"/><path class="cls-1" d="M231.39,90.63c0,.53-3.53,2.36-10.56,6-5.81,3-7.73,3.76-9.89,4.34-2.49.66-1.27,0-8.11,1.22-2.29.4-4.57.84-7-.22-.29-.13-1.63-.72-1.55-1.23.12-.82,3.73,0,7.44-2a8.81,8.81,0,0,0,3.67-3.44c.66-1.19,1.47-3.38.67-4.11-.48-.43-1.39-.22-4,.89-3.41,1.45-4.94,2.41-6.89,3.33A38.32,38.32,0,0,1,187.61,98a25,25,0,0,1-7.44.89c-.7,0-3-.14-3.11-.67,0-.28.56-.59,3.33-1.67,4-1.54,4.58-1.63,5.55-2.44s2.69-2.74,2.12-4.11a2.72,2.72,0,0,0-2.45-1.34c-1.27,0-1.71.87-3.78,2.11a18.19,18.19,0,0,1-4,1.78,22.53,22.53,0,0,1-4.55,1,56.68,56.68,0,0,1-10.34.34c-.25,0-3.65-.09-3.66-.34s4.52.12,8.33-2.55c.73-.51,2.7-1.9,2.45-3.34-.17-.95-1.26-1.62-2.12-1.89-2-.62-3.78.76-7,2.56a64.55,64.55,0,0,1-8.77,4,44,44,0,0,1-8.56,2c-3.68.59-7.22,1.16-7.67.11-.32-.77,1.14-2.22,2.34-3,2.46-1.6,3.91-.47,6.89-1.78.49-.21,3.92-1.77,4.55-4.66.33-1.51-.32-2.33-.22-2.89C150.52,76.37,231.63,83.57,231.39,90.63Z"/><path class="cls-2" d="M91.28,81.41c0,1.54,14.66,1.84,40.89,3.56,11.9.78,22.77,1.49,34.66,2.66,6.5.64,28.68,2.94,57.78,8.45,17.55,3.32,17.8,4.06,37.33,8,25.62,5.16,45.4,8,55.12,9.33,36.21,5.08,64.07,6.78,84.88,8,28.18,1.66,48.39,1.9,76.45,2.22,31.32.37,47.41.52,68.44-.89a414.28,414.28,0,0,0,56-6.22c18.62-3.41,21.45-5.34,23.11-6.66C647.81,92.42,639.72,41,639.72,41h0s-38.65-2.37-69.33-3.11C535.17,37,515.6,36.53,487.72,37c-37.16.58-65.7,2.41-76,3.11-60.09,4.09-62.08,8.22-132.44,13.78-29.2,2.3-38.62,2.36-58.67,5.77-22.87,3.9-31.41,7.36-56,9.78-8.48.84-15.84,1.25-28.89,3.11-4.59.66-13.58,2.37-31.55,5.78C93.52,80.32,91.26,80.8,91.28,81.41Z"/><path class="cls-3" d="M101.67,77.3c.06,1.49,14.2,2.16,21.33,2.5,12,.57,19.17,0,30.33-.17,9.38-.17,17.09.05,32.5.5,29.63.87,27.9,2.11,44.5,2.17,21.59.08,22.15-2,48-2.33,13.37-.16,14.23.39,37.84.83,11.64.22,18.9.22,48.16.17,41.54-.08,62.3-.12,64.34-.17,15-.4,9.58-.57,71.33-3.83,15.34-.81,30.64-2.76,46-3,21.86-.35,35.15,1,48.33-7.17,4.34-2.69,6.25-4.88,14.67-10,8.19-5,14.92-9,24.33-11.5,7-1.86,12.19-2,12.17-2.83,0-1-7.39-1.59-13.68-2-13.71-.79-32.43-1.75-54.65-2.54-28.14-1-56.24-2.4-88.34-1.5-40.45,1.13-70.51,3.61-105,6.5-46.29,3.88-81.56,8-92.83,9.33-58.29,6.92-57.85,8.89-112.33,15.17C134.54,72.55,101.56,75,101.67,77.3Z"/><path class="cls-3" d="M508.17,71.13c-.07,1.52,4,2.66,12.16,5.34,13.28,4.33,10.92,4,16.84,5.66,8.09,2.27,12.63,3.54,19.16,4,6.38.45,11,.72,16.17-1.5,1-.43.14-.14,10.17-7,3.72-2.54,7.07-5.6,10.66-8.33,2.12-1.61,3.34-2.52,3.17-3.5-.1-.55-.77-1.87-9-2.83a75.21,75.21,0,0,0-13.33-.5c-4.62.37-11.25.52-24.5.83-12.1.28-18-.2-25.34,1.33a69.6,69.6,0,0,0-10.66,3.5C508.82,70,508.19,70.55,508.17,71.13Z"/><path class="cls-4" d="M625.94,109.86c-.4-.13-3.34-1.1-6.66-2.23-6.66-2.25-7.62-2.69-8.45-3.11A25.21,25.21,0,0,1,603.28,99a24.52,24.52,0,0,1-5.56-10.67,28.77,28.77,0,0,1-.44-12,40.66,40.66,0,0,1,2.66-8.22c1.69-4.28,2.53-6.42,4.45-8.89a25.08,25.08,0,0,1,6.22-5.56C613,52,616.15,50.32,624.5,47.8A108.12,108.12,0,0,1,639,44.13a87.26,87.26,0,0,1,24.34-.41C684.61,46,703.11,49.48,707,50.21c25.91,4.84,39.08,6.53,43.29,6.58a69.6,69.6,0,0,1,12.89,1.51c14.52,2.55,15.74,5.72,16,6.67.65,2.44-1.25,4.89-1.34,5-1.59,2-3.86,2.1-6.66,3-4.18,1.33-5.89,3.28-9,5.33-6.34,4.18-13.34,5.41-19,6.67-19.09,4.24-37.51,11-56.34,16.33C686.83,101.3,640.21,114.36,625.94,109.86Z"/><path class="cls-5" d="M640.61,101.86a38.25,38.25,0,0,1-6.67-5.34c-2.34-2.35-3.63-3.65-4.44-5.78-1.36-3.59-.37-7,.67-10.44a27.14,27.14,0,0,1,5.11-9.56A26,26,0,0,1,641.94,65a33.18,33.18,0,0,1,7.34-2.89,68.65,68.65,0,0,1,11.78-2.67c1.8-.24,3.33-.37,4.44-.44"/><path class="cls-5" d="M688.83,88.08a15.3,15.3,0,0,1-6.22,5.78A15.92,15.92,0,0,1,672.17,95c-2.93-.61-5-2-9.11-4.67-5.66-3.74-4.86-4.36-9.12-6.89-4.72-2.81-6.75-2.67-10.66-5.78-2-1.62-4.11-2.48-4.45-4.44-.22-1.28.28-2.5,1-4.31A20.53,20.53,0,0,1,641.94,65"/><path class="cls-5" d="M775.72,67a21.92,21.92,0,0,0-5.89-.34,29.49,29.49,0,0,0-7.55,1.89,67,67,0,0,0-7,3c-5.36,2.58-7.47,3.76-10.89,5.45-4.17,2.06-7.23,3.37-11.56,5.22-4.9,2.1-8.52,3.64-13.55,5.33-2.63.89-4.85,1.55-6.45,2"/><path class="cls-5" d="M760.06,64.52a61.67,61.67,0,0,0-8,5.45c-2.23,1.79-3.51,3.08-6,4a18.88,18.88,0,0,1-5.78.89,94.36,94.36,0,0,0-10.89,1.88,80.58,80.58,0,0,0-13.33,3.45,104.89,104.89,0,0,0-9.89,4.44,36.87,36.87,0,0,1-8.89,3.67,10.94,10.94,0,0,1-5.89.11c-1-.3-3.3-1-3.78-2.67-.56-2,1.68-4,2.22-4.55,1.68-1.55,3.2-1.76,6.11-2.78.79-.27-.12,0,7-3.11,5.17-2.27,7.75-3.4,9.89-4.22,2.95-1.13,5.27-1.88,7-2.45,3.18-1,5-1.63,7.56-2.22a51.68,51.68,0,0,1,8-1.33,39.44,39.44,0,0,1,11,.44,37.09,37.09,0,0,1,7.67,2.34"/><path class="cls-6" d="M681.39,69.41c1,2.56,5.15,3.23,9.33,3.89a36.81,36.81,0,0,0,10.89.11c3.48-.49,5.72-.83,7.78-2.67a8.45,8.45,0,0,0,2.78-4.55c.8-3.79-1.6-6.8-2.11-7.45a11.3,11.3,0,0,0-5-3.44c-1.55-.6-3.12-.89-9.78-.56-8.6.44-9.73,1.11-10.45,1.67a10.48,10.48,0,0,0-3.77,6.33,17.64,17.64,0,0,0-.12,3.45A12.39,12.39,0,0,0,681.39,69.41Z"/><path class="cls-7" d="M689.72,64.41c-.19,1.26,2.69,2.73,4.34,3.33a13.12,13.12,0,0,0,6,.67c2.19-.19,3.7-.33,4.66-1.55a3.87,3.87,0,0,0,.56-3.67,4.7,4.7,0,0,0-2.67-2.33,8.5,8.5,0,0,0-4.55-.89,11.74,11.74,0,0,0-3.67,1.22,19.76,19.76,0,0,0-3.56,2.11C689.84,64,689.75,64.23,689.72,64.41Z"/><path class="cls-5" d="M670.72,60.19a44,44,0,0,1,6-3.89,36.77,36.77,0,0,1,8.89-3.56c3.23-.78,5.86-.78,11.11-.77a59,59,0,0,1,10.89.77c3.37.59,2.91.86,5.67,1.23a44.1,44.1,0,0,0,10.78,0c1.56-.17,2.85-.39,3.77-.56"/><path class="cls-5" d="M739.61,60.86c.89.91,2.72.84,3.11.11s-.32-1.77-1.22-2.23c-.73-.37-1.91-.44-2.33.23A1.7,1.7,0,0,0,739.61,60.86Z"/></g></g></svg>