<svg xmlns="http://www.w3.org/2000/svg" viewBox="0 0 782.67 357.89"><defs><style>.cls-1{fill:#fff;}</style></defs><g id="Layer_2" data-name="Layer 2"><g id="Broodje"><path class="cls-1" d="M0,165c19.65,5.3,48,13.57,81.39,25.64,26,9.38,44.68,17.32,131.56,58,113.63,53.17,151.84,72.44,184,89.19,15.85,8.27,28.94,15.25,37.91,20.07,6.2-4.5,15.57-11.41,26.75-20.07,55.64-43.09,73.7-65.82,111.5-98.11,29.27-25,57-43.07,112.6-79.16,38.2-24.82,71.51-44.57,97-59.09Q701.87,80.12,621,59.09,506.26,29.24,391.34,0C346.63,25.24,308,44.87,278.73,59.09c-49.66,24.12-112.87,54.55-198.46,82.5C47.2,152.4,19.34,160,0,165Z"/></g></g></svg>