<svg xmlns="http://www.w3.org/2000/svg" viewBox="0 0 492.94 71.76"><defs><style>.cls-1{fill:#9f3e2a;}.cls-1,.cls-2{stroke:#000;stroke-miterlimit:10;stroke-width:3px;}.cls-2{fill:#ea6365;}.cls-3{fill:#f19590;}</style></defs><g id="Layer_2" data-name="Layer 2"><g id="Lagen"><path class="cls-1" d="M11.55,29.68c-.56.37-3.92,3.18-7.33,2.44-.59-.12-1-.31-1.45-.11-1.74.78-1.61,6-.11,9.67,1.78,4.32,5.52,6.6,7.56,7.78C24.3,57.61,35.55,60.23,35.55,60.23c14.33,3.35,22.75,5.31,36.11,6.56,15.69,1.46,27.28.92,39.67.33,18.3-.86,28-2.67,33.67-3.89a85.93,85.93,0,0,0,23.89-8.88c9.31-5.19,11.68-8.91,12.77-11.56a21,21,0,0,0-.11-14.22C169.81-2.24,17.85,25.49,11.55,29.68Z"/><path class="cls-2" d="M21,50.12c9.46,4.58,19,7.28,32,9.34C69.3,62,81.69,62.1,95.33,62.12c22.7,0,36.07-1.77,40-2.33a132.22,132.22,0,0,0,29-7.67c13.77-5.35,16.67-9.16,18-12.33a18,18,0,0,0-1.67-16.67,16.44,16.44,0,0,0-6-5,98.83,98.83,0,0,0-26.33-9.66C123.91,4.15,111.7,2,108.66,1.79c-11.42-.76-22.28.05-44,1.67a191.07,191.07,0,0,0-37,6C19.71,11.6,11.6,14.39,6,21.79c-1.81,2.38-4.73,6.24-4.33,11C2.36,40.94,12.56,46,21,50.12Z"/><path class="cls-3" d="M12.91,26.21a4.84,4.84,0,0,0,4,.33c.6-.2,2.07-.79,2-1.33s-2.42-.88-3.83-.84c-.33,0-2.86.09-3,.84C12,25.6,12.62,26,12.91,26.21Z"/><path class="cls-3" d="M21.58,24.21c.1-.9,1.32-1.43,2.67-2a11.86,11.86,0,0,1,3.5-1,35.29,35.29,0,0,1,4,.08c1.53,0,2,0,2.08.17.11.4-2.14,1.4-3.67,2.08-2.52,1.12-3.48,1.31-3.66,2.08-.24,1,1.18,1.81.83,2.5s-1.75.73-2.67.17c-.7-.43-.41-.92-1.33-1.75-.62-.57-1-.62-1.43-1.26A1.79,1.79,0,0,1,21.58,24.21Z"/><path class="cls-3" d="M27.66,14.54c-.29.46.27,1.54,1.09,2.08a3.39,3.39,0,0,0,2.91.17c.24-.08,2-.64,2-1.58,0-.59-.71-1.07-1.16-1.25a3.24,3.24,0,0,0-1.59-.09c-.66.06-.71.13-1.91.34S27.78,14.36,27.66,14.54Z"/><path class="cls-3" d="M41.66,16c.7,1.13,3,1,4.17.83a7.58,7.58,0,0,0,3.25-1.5c1-.73,1.56-1.11,1.58-1.67.07-1.47-3.53-2.64-3.41-2.91s1.52.22,1.5.41-1.67-.17-3.92.42c-.3.08-1.06.41-2.58,1.08-.74.33-1.23.56-1.34,1,0,.13,0,.29.25,1.09A8.55,8.55,0,0,0,41.66,16Z"/><path class="cls-3" d="M52.08,10.79c-.12-.23.8-1.17,2-1.67a8.42,8.42,0,0,1,2.83-.41,22.29,22.29,0,0,1,2.5,0c1.87.09,2.8.14,3,.58.38.81-1.29,2.31-1.41,2.42-.59.52-.74.42-1.75,1.16-1.32,1-1.24,1.24-1.84,1.42a2.89,2.89,0,0,1-3.08-1.17c-.29-.54-.11-.91-.58-1.5a2.11,2.11,0,0,0-1.09-.75C52.31,10.79,52.13,10.88,52.08,10.79Z"/><path class="cls-3" d="M56.5,26.54a2.8,2.8,0,0,1,.91-2.42c.43-.4.67-.36,3.5-.91A6,6,0,0,1,63.58,23c.1,0,1.69.39,1.75,1.08s-1.57,1.44-3,2.08-1.73.53-2.42,1.09c-1.07.87-1.18,1.78-1.75,1.75S57,27.8,56.75,27.21A2.57,2.57,0,0,1,56.5,26.54Z"/><path class="cls-3" d="M49.91,32.21c-.92-.46-1.69-1.53-1.41-2.09.17-.35.89-.38,2.33-.41,1.64,0,2.46-.06,2.67.33.3.58-.46,1.81-1.5,2.25A2.65,2.65,0,0,1,49.91,32.21Z"/><path class="cls-3" d="M40.75,24.46c.64.78,2.65.05,4.16-.5,1.24-.45,2.8-1,2.75-1.67s-1.9-1.05-2.08-1.08c-1.48-.28-3.94-.1-4.75,1.5C40.6,23.15,40.36,24,40.75,24.46Z"/><path class="cls-3" d="M17.66,41.21c2.75-.18,3.17-1.59,5.67-1.67a19.28,19.28,0,0,1,2.58.08c1.18.14,1.52.32,1.92.09.78-.46,1-2,.5-3.09a3.84,3.84,0,0,0-2.92-1.83,7.3,7.3,0,0,0-4.66,1c-.71.35-.22.2-2.75,1.83a7.26,7.26,0,0,0-2.09,1.84c-.32.44-.64.89-.5,1.25C15.67,41.33,17.21,41.23,17.66,41.21Z"/><path class="cls-3" d="M33.41,49h0s4.46-.18,5.25-2.09a2,2,0,0,0-.5-2.16c-.82-.73-2.38-.41-3.25.33C34.91,45,34.31,45.55,33.41,49Z"/><path class="cls-3" d="M51.33,55.46c1.84.24,2.21,1.27,3.83,1.75,1,.28,2.89.51,3.59-.5a2.46,2.46,0,0,0-.59-2.92c-1.16-1-3.15-.36-4-.08s-.74.38-2,.83-2.1.6-2.08.75S50.69,55.37,51.33,55.46Z"/><path class="cls-3" d="M72.58,56c.73.72,2.08.54,4.75.16a17.27,17.27,0,0,0,4.17-1c2.08-.83,2.68-1.64,2.91-2a2.3,2.3,0,0,0,.5-1.91c-.2-.55-.75-.76-3-1.42-3.33-1-3.68-1-4-1a10.36,10.36,0,0,0-3.41.83c-1.59.56-2.39.85-2.75,1.59a3.56,3.56,0,0,0,0,2.25C72,54.77,72.08,55.46,72.58,56Z"/><path class="cls-3" d="M100.75,53a14.59,14.59,0,0,0,4.83,2,21.71,21.71,0,0,0,5,1,7.48,7.48,0,0,0,4.08-.83,3.38,3.38,0,0,0,1.84-2.09,2.7,2.7,0,0,0-1.09-2.75A2.55,2.55,0,0,0,113.5,50c-.9.19-1.1.76-1.92,1.33a6.14,6.14,0,0,1-4.5.75c-.71-.16-.45-.27-2.83-1.33-1.89-.84-2.42-.95-3-.83-.83.16-1.8.77-1.84,1.5C99.39,51.86,99.66,52.3,100.75,53Z"/><path class="cls-3" d="M121.75,46.79a8.78,8.78,0,0,0,3.75,1.42c2,.3,3,.46,3.5-.17a2,2,0,0,0,.16-1.92c-.53-1.29-2.26-1.58-3.25-1.75a6.66,6.66,0,0,0-3.08.25c-.51.17-1.81.6-1.83,1.25C121,46.14,121.19,46.4,121.75,46.79Z"/><path class="cls-3" d="M112.08,38c.59.76,1.7,1,3.92,1.5,1.74.38,2.06.27,2.25.08a1.89,1.89,0,0,0-.42-2.33c-.64-.57-1.18-.09-2.92-.67-.66-.22-1.56-.62-1.66-.67-1.12-.49-1.38-.71-1.59-.58C111.24,35.55,111.33,37,112.08,38Z"/><path class="cls-3" d="M83.66,33.71c.73,1.46,2.11,2.07,4.25,3a17.79,17.79,0,0,0,5,1.41,6.88,6.88,0,0,0,3.75-.33c.54-.23,1.5-.64,1.59-1.33.12-1-1.54-1.9-2.34-2.34-1.48-.82-2-.68-4.25-1.41-2.71-.9-3-1.47-4.91-1.67-.87-.09-2.78-.29-3.34.67C83,32.4,83.49,33.36,83.66,33.71Z"/><path class="cls-3" d="M48.66,37.79a14.38,14.38,0,0,1,6.92.75,19.56,19.56,0,0,0,2.33.92,10.76,10.76,0,0,0,3.17.41,19.59,19.59,0,0,0,3.5-.5c1.4-.27,1.76-.41,2.17-.16A2.49,2.49,0,0,1,67.33,42c-.51,1.43-2.14,2-3.25,2.33a10.2,10.2,0,0,1-4.25.33A20.83,20.83,0,0,1,56.41,44a20.8,20.8,0,0,1-4.91-1.59,7.91,7.91,0,0,1-2.67-2c-.31-.36-1.28-1.51-.92-2.16A1.05,1.05,0,0,1,48.66,37.79Z"/><path class="cls-3" d="M65.08,46.62a1.67,1.67,0,0,0,2.17-.08,1.47,1.47,0,0,0,.33-1.67c-.47-.78-1.81-.46-2-.41a1.33,1.33,0,0,0-1,.58A1.42,1.42,0,0,0,65.08,46.62Z"/><path class="cls-3" d="M72.83,27.37c0,.69,1.67,1.59,2.5,1a1.17,1.17,0,0,0,.42-1.25c-.23-.65-1.18-.83-1.84-.66C73.45,26.57,72.82,26.94,72.83,27.37Z"/><path class="cls-3" d="M69.58,19c.45.94,2.17.59,6.42.83,2,.11,2.78.26,4.83.25,3.37,0,3.83-.41,4-.75.37-.75-.35-2-1.17-2.58a3.47,3.47,0,0,0-2.41-.59c-1.5.13-1.77,1-3.42,1.5a8.66,8.66,0,0,1-3.58.25c-2.58-.18-3.76-1-4.42-.33A1.33,1.33,0,0,0,69.58,19Z"/><path class="cls-3" d="M71.33,12.62A7,7,0,0,0,75.08,14a4.56,4.56,0,0,0,2.83-.5c.28-.17,1.42-.84,1.34-1.67s-1.36-1.39-2.34-1.41a4.08,4.08,0,0,0-1.25.25,12.17,12.17,0,0,1-4,.66c-.88-.09-1.39-.35-1.5-.16S70.79,12.2,71.33,12.62Z"/><path class="cls-3" d="M69.83,7.62c.48.63,1.83-.49,4.75-.66a3.67,3.67,0,0,0,2.08-.59c.2-.13.84-.59.75-1-.12-.6-1.74-.83-2.91-.75a10.06,10.06,0,0,0-2.25.59c-1.83.58-2.16.9-2.34,1.25C69.88,6.53,69.53,7.23,69.83,7.62Z"/><path class="cls-3" d="M80.58,5.39c0,.54,2.27.65,2.5.67.86,0,1-.11,1-.17.16-.32-.39-1.07-1.08-1.33C81.93,4.15,80.54,5,80.58,5.39Z"/><path class="cls-3" d="M93.12,3.23c-1.27.14-2.43.27-2.58.84-.1.4.33,1,.83,1.16s1-.22,2-.41c1.55-.28,2.12.51,3.17,0,.51-.25,1.1-.79,1-1.17C97.32,2.8,93.77,3.17,93.12,3.23Z"/><path class="cls-3" d="M88.33,10.37c-.5-.15-.71,0-1-.16a1.65,1.65,0,0,1-.5-1.75c.32-1.05,1.93-1.38,4.25-1.84,2.57-.5,2.23,0,5.42-.5,1.43-.21,2.21-.41,2.91.09a2,2,0,0,1,.84,2.25c-.4.8-1.57.34-3.59,1-2.51.82-2.68,2.19-4.66,2.25a3.7,3.7,0,0,1-2.59-.59A2.79,2.79,0,0,0,88.33,10.37Z"/><path class="cls-3" d="M87,13.12c.2.65,1.58.76,2.5.59.46-.09,1.48-.38,1.5-.84S90,12,89.75,12A2.35,2.35,0,0,0,87.5,12C87.23,12.26,86.87,12.73,87,13.12Z"/><path class="cls-3" d="M87.66,18.71c-.11-.37,1-1.24,2.34-1.5a5.29,5.29,0,0,1,2.16.08c1,.17,1.52.25,1.75.67a1.61,1.61,0,0,1-.5,1.83c-.24.2-.35.15-1.5.42s-1.38.4-1.66.25-.25-.65-.67-1.09C88.89,18.65,87.77,19.05,87.66,18.71Z"/><path class="cls-3" d="M98.83,25.29c0-.81,2.38-1.31,2.92-1.42,1.18-.25,2.34-.49,3,.17a2.19,2.19,0,0,1,.5,1.25,2.53,2.53,0,0,1-.25,1.83c-.26.39-.43.29-1.59,1-.92.57-1,.79-1.41.75s-.7-.37-1.17-.92-.48-.83-1-1.49C99.17,25.62,98.82,25.6,98.83,25.29Z"/><path class="cls-3" d="M104.66,16.87a14.68,14.68,0,0,1-1.41.5c-3.92,1.19-4.31,1.13-4.59.92-.68-.53-.53-1.88-.33-2.58.68-2.37,3.6-3.15,4-3.25,1.23-.31,2.34-.1,4.58.33a13.15,13.15,0,0,1,4.75,1.67c1.06.65,2,1.27,2.09,2.25a2.26,2.26,0,0,1-1.25,2c-1.25.59-3-.32-4.09-.92s-2.27-1.51-3.16-1.17C105.14,16.66,105,16.73,104.66,16.87Z"/><path class="cls-3" d="M116.5,9.46c1.57.86,2.33,1,3.25,1.5,1.76.86,1.93,1.63,3,1.58.7,0,1.45-.42,1.5-.83s-.42-.48-.84-1.34a1.63,1.63,0,0,1-.25-.83c0-.62.62-.75.67-1.17.09-.7-1.33-1.83-2.83-1.91-.5,0-.56.08-3.17,1.08-1.51.58-2.16.8-2.17,1.17S116,9.18,116.5,9.46Z"/><path class="cls-3" d="M102.41,7.54a4.85,4.85,0,0,0,4.09.25c.51-.16,1.84-.57,1.83-1.08,0-.88-4-1.29-4.42-1.34-1.31-.13-2.5-.26-2.75.25S101.69,7.05,102.41,7.54Z"/><path class="cls-3" d="M108.33,4.5c0,.64,2,1.51,3.75,1,.27-.07,1.15-.34,1.17-.75,0-.61-1.92-1.51-3.59-1.08C109.55,3.7,108.34,4,108.33,4.5Z"/><path class="cls-3" d="M130,15.37c.94,1.24,2.62,1.33,5.41,1.42s4.49.13,6.09-1.08c.3-.24,1.77-1.35,1.5-2.42A2.1,2.1,0,0,0,141.08,12c-.91,0-1.15.51-2.67,1.08a7.44,7.44,0,0,1-2.75.59c-1,0-1.13-.24-3.16-.67-2.5-.53-2.8-.29-2.92-.17C129.12,13.37,129.4,14.59,130,15.37Z"/><path class="cls-3" d="M115.58,25c1.89.39,2.19-.09,3.58.25s1.71,1.06,3.09,1.08c.42,0,1.43,0,1.83-.58.5-.77-.19-2.22-1.08-3a4.83,4.83,0,0,0-5-.5,20.12,20.12,0,0,1-2.09,1.25c-1.24.51-2.15.49-2.16.75S115.41,24.92,115.58,25Z"/><path class="cls-3" d="M152.16,31.21a2.69,2.69,0,0,1-.5-3,3.81,3.81,0,0,1,2.17-1.92c.47-.22,1.79-.76,5.92-.42A19.59,19.59,0,0,1,165.5,27a11.36,11.36,0,0,1,2.91,1.58c.82.61,2.24,1.68,2,2.42s-2.78.76-3,.75a12,12,0,0,1-3.5-1c-2.41-.8-4.52-1.51-6.5-.75a15.38,15.38,0,0,1-2.83,1.25C153.6,31.45,152.78,31.65,152.16,31.21Z"/><path class="cls-3" d="M143.16,36.12a6.91,6.91,0,0,0,3.5,1c1.56.13,2.54.21,2.75-.25s-.21-1-.75-1.41c-1-.7-1.95.29-4.41.08-.91-.08-1.68-.28-1.75-.08S143,36,143.16,36.12Z"/><path class="cls-3" d="M144.33,21.37c-.06.27,1.72,1.08,3.67,1.09,1.28,0,2.59-.35,2.58-.59s-1.82-.39-3.42-.5C145.35,21.25,144.37,21.19,144.33,21.37Z"/><path class="cls-3" d="M145.83,46.79c.12-.67,1.33-.93,2.42-1.17,1.27-.28,2.75-.6,3.91.25a1.94,1.94,0,0,1,.92,1.34c0,1.09-1.58,2.14-3,2.25a4.33,4.33,0,0,1-2.75-.92C146.78,48.18,145.71,47.47,145.83,46.79Z"/><path class="cls-3" d="M164,40.37a2.06,2.06,0,0,0,2.16,1.17,1.68,1.68,0,0,0,1.34-1.25c.13-.88-.76-1.66-1.59-1.83a1.82,1.82,0,0,0-2.08.91A1.32,1.32,0,0,0,164,40.37Z"/><path class="cls-3" d="M168.83,22.12a3.59,3.59,0,0,0,1.67,0c.76-.13,1.8-.32,1.91-.83.15-.67-1.39-1.48-1.75-1.67-.88-.46-1.63-.85-2.33-.5a1.82,1.82,0,0,0-.8,2.26A1.89,1.89,0,0,0,168.83,22.12Z"/><path class="cls-3" d="M134.55,9c-.06.55,2,1.2,3.22,1.44,1.07.21,3,.42,3.23-.11S140,9,138.77,8.59C136.87,7.93,134.61,8.48,134.55,9Z"/><path class="cls-1" d="M158.13,32.21c-.56.37-3.92,3.18-7.34,2.45-.59-.13-1-.32-1.44-.11-1.75.78-1.62,6-.11,9.66,1.77,4.33,5.52,6.6,7.55,7.78,14.09,8.15,25.34,10.78,25.34,10.78,14.33,3.34,22.74,5.31,36.11,6.55,15.69,1.47,27.28.92,39.66.34,18.3-.86,28-2.67,33.67-3.89a85.94,85.94,0,0,0,23.89-8.89c9.32-5.19,11.69-8.9,12.78-11.56a21,21,0,0,0-.11-14.22C316.39.29,164.43,28,158.13,32.21Z"/><path class="cls-2" d="M167.57,52.66c9.46,4.57,19,7.28,32,9.33,16.3,2.57,28.69,2.64,42.33,2.67,22.7,0,36.08-1.77,40-2.34a131.82,131.82,0,0,0,29-7.66c13.77-5.36,16.67-9.16,18-12.34a18,18,0,0,0-1.66-16.66,16.24,16.24,0,0,0-6-5A99.21,99.21,0,0,0,294.9,11c-24.42-4.31-36.63-6.46-39.66-6.67-11.42-.76-22.28,0-44,1.67a191,191,0,0,0-37,6c-8,2.15-16.07,4.94-21.67,12.33-1.81,2.39-4.72,6.24-4.33,11C148.93,43.48,159.13,48.57,167.57,52.66Z"/><path class="cls-3" d="M159.49,28.74a4.8,4.8,0,0,0,4,.33c.6-.19,2.07-.79,2-1.33s-2.42-.87-3.84-.83c-.32,0-2.86.08-3,.83C158.58,28.13,159.2,28.55,159.49,28.74Z"/><path class="cls-3" d="M168.15,26.74c.1-.9,1.32-1.43,2.67-2a12,12,0,0,1,3.5-1,38.23,38.23,0,0,1,4,.08c1.54,0,2,0,2.08.17.11.41-2.13,1.4-3.66,2.08-2.53,1.13-3.49,1.31-3.67,2.09-.24,1,1.19,1.81.83,2.5s-1.74.72-2.66.16c-.7-.42-.42-.91-1.34-1.75-.62-.56-1-.61-1.42-1.26A1.84,1.84,0,0,1,168.15,26.74Z"/><path class="cls-3" d="M174.24,17.07c-.3.47.27,1.55,1.08,2.09a3.4,3.4,0,0,0,2.92.16c.23-.07,2-.64,2-1.58,0-.59-.71-1.06-1.17-1.25a3.35,3.35,0,0,0-1.58-.08c-.67.05-.72.13-1.92.33C174.52,16.92,174.35,16.9,174.24,17.07Z"/><path class="cls-3" d="M188.24,18.49c.7,1.13,3,1,4.16.83a7.35,7.35,0,0,0,3.25-1.5c1-.72,1.56-1.11,1.59-1.66.06-1.47-3.54-2.65-3.42-2.92s1.53.22,1.5.42-1.66-.17-3.92.41c-.29.08-1.05.42-2.58,1.09-.74.32-1.22.55-1.33,1,0,.12,0,.28.25,1.08A7.5,7.5,0,0,0,188.24,18.49Z"/><path class="cls-3" d="M198.65,13.32c-.12-.22.8-1.17,2-1.66a8.44,8.44,0,0,1,2.84-.42,22.26,22.26,0,0,1,2.5,0c1.86.1,2.8.15,3,.58.37.81-1.3,2.31-1.42,2.42-.59.52-.74.43-1.75,1.17-1.32,1-1.23,1.24-1.83,1.41a2.89,2.89,0,0,1-3.09-1.16c-.29-.54-.1-.91-.58-1.5a1.93,1.93,0,0,0-1.08-.75C198.88,13.33,198.7,13.42,198.65,13.32Z"/><path class="cls-3" d="M203.07,29.07a2.81,2.81,0,0,1,.92-2.41c.43-.4.67-.36,3.5-.92a6.09,6.09,0,0,1,2.66-.25c.1,0,1.7.39,1.75,1.08s-1.56,1.45-3,2.09-1.73.53-2.41,1.08c-1.08.87-1.18,1.79-1.75,1.75s-1.14-1.16-1.42-1.75A2.57,2.57,0,0,1,203.07,29.07Z"/><path class="cls-3" d="M196.49,34.74c-.93-.45-1.69-1.53-1.42-2.08.18-.36.9-.38,2.33-.42,1.64,0,2.46-.06,2.67.33.31.58-.45,1.81-1.5,2.25A2.57,2.57,0,0,1,196.49,34.74Z"/><path class="cls-3" d="M187.32,27c.64.79,2.65.05,4.17-.5,1.23-.45,2.79-1,2.75-1.67s-1.91-1.05-2.09-1.08c-1.48-.27-3.93-.1-4.75,1.5C187.18,25.69,186.94,26.52,187.32,27Z"/><path class="cls-3" d="M164.24,43.74c2.74-.17,3.16-1.58,5.66-1.67a18.43,18.43,0,0,1,2.59.09c1.18.14,1.51.32,1.91.08.78-.45,1-2,.5-3.08A3.87,3.87,0,0,0,172,37.32a7.31,7.31,0,0,0-4.67,1c-.7.35-.21.2-2.75,1.84A7,7,0,0,0,162.49,42c-.32.44-.65.89-.5,1.25C162.24,43.87,163.79,43.77,164.24,43.74Z"/><path class="cls-3" d="M180,51.49h0s4.45-.18,5.25-2.08a2,2,0,0,0-.5-2.17c-.83-.72-2.38-.41-3.25.33C181.49,47.57,180.89,48.08,180,51.49Z"/><path class="cls-3" d="M197.9,58c1.84.24,2.22,1.28,3.84,1.75,1,.28,2.88.52,3.58-.5a2.46,2.46,0,0,0-.58-2.92c-1.16-1-3.16-.35-4-.08s-.75.39-2,.83-2.1.61-2.09.75S197.27,57.91,197.9,58Z"/><path class="cls-3" d="M219.15,58.49c.73.72,2.08.55,4.75.17a18.23,18.23,0,0,0,4.17-1,5.71,5.71,0,0,0,2.92-2,2.37,2.37,0,0,0,.5-1.92c-.21-.55-.76-.75-3-1.42-3.34-1-3.69-1-4-1a10.41,10.41,0,0,0-3.42.84c-1.59.55-2.39.84-2.75,1.58a3.56,3.56,0,0,0,0,2.25C218.54,57.3,218.65,58,219.15,58.49Z"/><path class="cls-3" d="M247.32,55.57a14.27,14.27,0,0,0,4.83,2,21.36,21.36,0,0,0,5,1,7.54,7.54,0,0,0,4.09-.83,3.37,3.37,0,0,0,1.83-2.08A2.7,2.7,0,0,0,262,52.91a2.65,2.65,0,0,0-1.92-.34c-.9.2-1.1.76-1.92,1.34a6.14,6.14,0,0,1-4.5.75c-.71-.17-.45-.27-2.83-1.34-1.88-.84-2.42-.94-3-.83-.83.16-1.8.77-1.83,1.5C246,54.39,246.24,54.84,247.32,55.57Z"/><path class="cls-3" d="M268.32,49.32a8.65,8.65,0,0,0,3.75,1.42c2,.31,3,.46,3.5-.17a2,2,0,0,0,.17-1.91c-.53-1.3-2.26-1.59-3.25-1.75a6.56,6.56,0,0,0-3.09.25c-.5.16-1.8.59-1.83,1.25C267.56,48.67,267.77,48.93,268.32,49.32Z"/><path class="cls-3" d="M258.65,40.49c.6.77,1.71,1,3.92,1.5,1.74.38,2.07.28,2.25.08a1.88,1.88,0,0,0-.42-2.33c-.64-.57-1.18-.09-2.91-.67-.67-.22-1.56-.62-1.67-.66-1.11-.5-1.37-.72-1.58-.59C257.82,38.08,257.91,39.52,258.65,40.49Z"/><path class="cls-3" d="M230.24,36.24c.72,1.46,2.1,2.08,4.25,3a18.33,18.33,0,0,0,5,1.42,6.87,6.87,0,0,0,3.75-.34c.54-.23,1.49-.64,1.58-1.33.12-1-1.54-1.89-2.33-2.33-1.48-.82-2-.68-4.25-1.42-2.72-.89-3.05-1.47-4.92-1.67-.87-.09-2.77-.29-3.33.67C229.59,34.93,230.07,35.89,230.24,36.24Z"/><path class="cls-3" d="M195.24,40.32a14.35,14.35,0,0,1,6.91.75,18.66,18.66,0,0,0,2.34.92,10.93,10.93,0,0,0,3.16.42,21.46,21.46,0,0,0,3.5-.5c1.41-.28,1.77-.42,2.17-.17a2.45,2.45,0,0,1,.58,2.75c-.5,1.43-2.14,2-3.25,2.33a10.05,10.05,0,0,1-4.25.34,22.12,22.12,0,0,1-3.41-.67,21.09,21.09,0,0,1-4.92-1.58,8.12,8.12,0,0,1-2.67-2c-.3-.37-1.27-1.52-.91-2.17A1.05,1.05,0,0,1,195.24,40.32Z"/><path class="cls-3" d="M211.65,49.16a1.66,1.66,0,0,0,2.17-.09,1.44,1.44,0,0,0,.33-1.66c-.46-.78-1.8-.47-2-.42a1.14,1.14,0,0,0-.5,2.17Z"/><path class="cls-3" d="M219.4,29.91a1.91,1.91,0,0,0,2.5,1,1.16,1.16,0,0,0,.42-1.25c-.23-.65-1.18-.84-1.83-.67C220,29.11,219.4,29.48,219.4,29.91Z"/><path class="cls-3" d="M216.15,21.49c.45.94,2.17.59,6.42.83,2,.12,2.78.26,4.83.25,3.37,0,3.84-.41,4-.75.37-.74-.35-2-1.16-2.58a3.47,3.47,0,0,0-2.42-.58c-1.49.13-1.76.95-3.42,1.5a8.64,8.64,0,0,1-3.58.25c-2.58-.18-3.75-1-4.42-.34A1.36,1.36,0,0,0,216.15,21.49Z"/><path class="cls-3" d="M217.9,15.16a7,7,0,0,0,3.75,1.41,4.59,4.59,0,0,0,2.84-.5c.27-.16,1.41-.84,1.33-1.66S224.46,13,223.49,13a4.37,4.37,0,0,0-1.25.25,12.62,12.62,0,0,1-4,.67c-.88-.09-1.39-.36-1.5-.17S217.36,14.74,217.9,15.16Z"/><path class="cls-3" d="M216.4,10.16c.48.63,1.83-.49,4.75-.67a3.78,3.78,0,0,0,2.09-.58c.19-.14.83-.59.75-1-.12-.61-1.75-.84-2.92-.75a10.76,10.76,0,0,0-2.25.58c-1.83.58-2.16.91-2.33,1.25C216.45,9.06,216.1,9.76,216.4,10.16Z"/><path class="cls-3" d="M227.15,7.92c0,.54,2.28.66,2.5.67.86,0,1-.11,1-.17.17-.31-.39-1.07-1.08-1.33C228.5,6.69,227.12,7.49,227.15,7.92Z"/><path class="cls-3" d="M239.7,5.77c-1.27.13-2.44.26-2.58.83-.11.41.33,1,.83,1.17s1-.23,2-.42c1.55-.28,2.11.51,3.17,0,.51-.25,1.1-.78,1-1.17C243.89,5.33,240.35,5.7,239.7,5.77Z"/><path class="cls-3" d="M234.9,12.91c-.49-.16-.7,0-1-.17a1.67,1.67,0,0,1-.5-1.75c.33-1.05,1.93-1.38,4.25-1.83,2.57-.5,2.24,0,5.42-.5,1.44-.22,2.21-.42,2.92.08a2,2,0,0,1,.83,2.25c-.4.8-1.56.34-3.58,1-2.52.82-2.68,2.19-4.67,2.25a3.72,3.72,0,0,1-2.58-.58A2.66,2.66,0,0,0,234.9,12.91Z"/><path class="cls-3" d="M233.57,15.66c.2.65,1.59.75,2.5.58.47-.09,1.48-.37,1.5-.83s-1-.84-1.25-.92a2.37,2.37,0,0,0-2.25.08C233.8,14.8,233.45,15.26,233.57,15.66Z"/><path class="cls-3" d="M234.24,21.24c-.11-.37,1-1.24,2.33-1.5a5.71,5.71,0,0,1,2.17.08c1,.17,1.51.26,1.75.67a1.61,1.61,0,0,1-.5,1.83c-.25.21-.35.15-1.5.42s-1.38.41-1.67.25-.25-.64-.67-1.08C235.47,21.18,234.34,21.59,234.24,21.24Z"/><path class="cls-3" d="M245.4,27.82c0-.81,2.39-1.3,2.92-1.41,1.18-.25,2.35-.49,3,.16a2.25,2.25,0,0,1,.5,1.25,2.5,2.5,0,0,1-.25,1.84c-.26.38-.43.28-1.58,1-.92.57-1.06.78-1.42.75s-.7-.37-1.16-.92-.49-.84-1-1.5C245.75,28.16,245.4,28.14,245.4,27.82Z"/><path class="cls-3" d="M251.24,19.41c-.66.27-1.18.42-1.42.5-3.92,1.19-4.31,1.13-4.58.91-.69-.52-.54-1.88-.34-2.58.68-2.37,3.61-3.15,4-3.25,1.23-.31,2.35-.09,4.59.33A13.44,13.44,0,0,1,258.24,17c1.06.66,2,1.27,2.08,2.25a2.22,2.22,0,0,1-1.25,2c-1.25.59-2.95-.31-4.08-.92s-2.28-1.5-3.17-1.16Z"/><path class="cls-3" d="M263.07,12c1.58.87,2.34,1,3.25,1.5,1.77.86,1.94,1.64,3,1.58.71,0,1.46-.42,1.5-.83s-.41-.47-.83-1.33a1.57,1.57,0,0,1-.25-.84c0-.61.61-.74.66-1.16.09-.71-1.32-1.83-2.83-1.92-.5,0-.56.08-3.17,1.08-1.51.58-2.16.8-2.16,1.17S262.57,11.71,263.07,12Z"/><path class="cls-3" d="M249,10.07a4.8,4.8,0,0,0,4.08.25c.51-.15,1.85-.57,1.83-1.08,0-.88-4-1.29-4.41-1.33-1.32-.14-2.51-.26-2.75.25S248.27,9.59,249,10.07Z"/><path class="cls-3" d="M254.9,7c0,.64,2,1.5,3.75,1,.27-.08,1.15-.34,1.17-.75,0-.62-1.91-1.52-3.58-1.08C256.13,6.23,254.91,6.55,254.9,7Z"/><path class="cls-3" d="M276.57,17.91c.95,1.24,2.62,1.32,5.42,1.41s4.49.13,6.08-1.08c.31-.23,1.78-1.35,1.5-2.42a2.13,2.13,0,0,0-1.92-1.25c-.9,0-1.15.51-2.66,1.09a7.8,7.8,0,0,1-2.75.58c-1,0-1.14-.24-3.17-.67-2.49-.52-2.8-.29-2.92-.16C275.69,15.9,276,17.12,276.57,17.91Z"/><path class="cls-3" d="M262.15,27.49c1.89.4,2.19-.08,3.59.25s1.71,1.07,3.08,1.08c.43,0,1.44,0,1.83-.58.51-.77-.19-2.22-1.08-3a4.83,4.83,0,0,0-5-.5A18.83,18.83,0,0,1,262.49,26c-1.25.51-2.15.49-2.17.75S262,27.45,262.15,27.49Z"/><path class="cls-3" d="M298.74,33.74a2.65,2.65,0,0,1-.5-3,3.86,3.86,0,0,1,2.16-1.92c.48-.21,1.79-.75,5.92-.41a19.2,19.2,0,0,1,5.75,1.08A11.38,11.38,0,0,1,315,31.07c.81.62,2.23,1.69,2,2.42s-2.78.76-3,.75a11.82,11.82,0,0,1-3.5-1c-2.41-.8-4.53-1.5-6.5-.75a15.16,15.16,0,0,1-2.84,1.25C300.18,34,299.36,34.18,298.74,33.74Z"/><path class="cls-3" d="M289.74,38.66a7,7,0,0,0,3.5,1c1.55.12,2.54.2,2.75-.25s-.22-1.06-.75-1.42c-1.05-.7-1.95.29-4.42.08-.91-.07-1.67-.28-1.75-.08S289.56,38.54,289.74,38.66Z"/><path class="cls-3" d="M290.9,23.91c0,.26,1.72,1.08,3.67,1.08,1.29,0,2.59-.35,2.58-.58s-1.81-.4-3.41-.5C291.92,23.78,290.94,23.72,290.9,23.91Z"/><path class="cls-3" d="M292.4,49.32c.12-.66,1.34-.93,2.42-1.16,1.28-.28,2.75-.6,3.92.25a1.93,1.93,0,0,1,.91,1.33c0,1.1-1.58,2.14-3,2.25a4.22,4.22,0,0,1-2.75-.92C293.36,50.71,292.28,50,292.4,49.32Z"/><path class="cls-3" d="M310.57,42.91a2.07,2.07,0,0,0,2.17,1.16,1.67,1.67,0,0,0,1.33-1.25c.13-.88-.76-1.66-1.58-1.83a1.85,1.85,0,0,0-2.09.92A1.39,1.39,0,0,0,310.57,42.91Z"/><path class="cls-3" d="M315.4,24.66a3.73,3.73,0,0,0,1.67,0c.76-.14,1.81-.32,1.92-.84.14-.67-1.4-1.48-1.75-1.66-.88-.46-1.64-.86-2.34-.5a1.81,1.81,0,0,0-.8,2.25A1.92,1.92,0,0,0,315.4,24.66Z"/><path class="cls-3" d="M281.13,11.57c-.06.56,2,1.21,3.22,1.45,1.07.21,3,.41,3.22-.11s-1-1.37-2.22-1.78C283.44,10.47,281.19,11,281.13,11.57Z"/><path class="cls-1" d="M319.36,30.57c-.56.37-3.92,3.18-7.33,2.45-.59-.13-1-.32-1.45-.11-1.74.78-1.61,6-.11,9.66,1.78,4.33,5.52,6.6,7.56,7.78,14.08,8.15,25.33,10.78,25.33,10.78,14.33,3.34,22.74,5.31,36.11,6.55,15.69,1.47,27.28.92,39.67.34,18.3-.86,28-2.67,33.66-3.89a85.94,85.94,0,0,0,23.89-8.89c9.32-5.19,11.69-8.9,12.78-11.56a21,21,0,0,0-.11-14.22C477.62-1.35,325.66,26.39,319.36,30.57Z"/><path class="cls-2" d="M328.8,51c9.46,4.58,19,7.28,32,9.33C377.11,62.92,389.5,63,403.14,63c22.69,0,36.07-1.77,40-2.34a132.1,132.1,0,0,0,29-7.66c13.76-5.35,16.66-9.16,18-12.34A18,18,0,0,0,488.47,24a16.24,16.24,0,0,0-6-5,99.22,99.22,0,0,0-26.33-9.67C431.71,5,419.5,2.89,416.47,2.68c-11.42-.76-22.28,0-44,1.67a191.07,191.07,0,0,0-37,6c-8,2.15-16.06,4.94-21.67,12.33-1.8,2.39-4.72,6.24-4.33,11C310.16,41.84,320.36,46.93,328.8,51Z"/><path class="cls-3" d="M320.72,27.1a4.8,4.8,0,0,0,4,.33c.6-.19,2.07-.79,2-1.33s-2.42-.87-3.83-.83c-.33,0-2.87.08-3,.83C319.81,26.49,320.43,26.91,320.72,27.1Z"/><path class="cls-3" d="M329.39,25.1c.09-.9,1.32-1.43,2.66-2a12,12,0,0,1,3.5-1,38.23,38.23,0,0,1,4,.08c1.54,0,2,0,2.09.17.11.41-2.14,1.4-3.67,2.08-2.53,1.13-3.49,1.31-3.67,2.09-.24,1,1.19,1.81.84,2.5s-1.75.73-2.67.16c-.7-.42-.41-.91-1.33-1.75-.63-.56-1.05-.61-1.43-1.26A1.77,1.77,0,0,1,329.39,25.1Z"/><path class="cls-3" d="M335.47,15.43c-.3.47.27,1.55,1.08,2.09a3.4,3.4,0,0,0,2.92.16c.23-.07,2-.64,2-1.58,0-.59-.71-1.06-1.17-1.25a3.35,3.35,0,0,0-1.58-.08c-.66.05-.71.13-1.92.33C335.75,15.28,335.58,15.26,335.47,15.43Z"/><path class="cls-3" d="M349.47,16.85c.7,1.14,3,1,4.17.83a7.46,7.46,0,0,0,3.25-1.5c1-.72,1.56-1.11,1.58-1.66.06-1.47-3.53-2.65-3.42-2.92s1.53.22,1.5.42-1.66-.17-3.91.41c-.3.08-1.06.42-2.59,1.09-.74.32-1.22.55-1.33,1,0,.12,0,.29.25,1.08A8.55,8.55,0,0,0,349.47,16.85Z"/><path class="cls-3" d="M359.89,11.68c-.12-.22.8-1.16,2-1.66a8.37,8.37,0,0,1,2.83-.42,22.26,22.26,0,0,1,2.5,0c1.86.1,2.8.15,3,.58.37.81-1.3,2.32-1.42,2.42-.58.52-.73.43-1.75,1.17-1.32,1-1.23,1.24-1.83,1.41A2.86,2.86,0,0,1,362.14,14c-.3-.54-.11-.91-.59-1.5a1.93,1.93,0,0,0-1.08-.75C360.12,11.69,359.94,11.78,359.89,11.68Z"/><path class="cls-3" d="M364.3,27.43a2.81,2.81,0,0,1,.92-2.41c.43-.4.67-.36,3.5-.92a6.13,6.13,0,0,1,2.67-.25c.09,0,1.69.39,1.75,1.08s-1.57,1.45-3,2.09-1.73.53-2.42,1.08c-1.08.87-1.18,1.79-1.75,1.75s-1.14-1.16-1.42-1.75A2.57,2.57,0,0,1,364.3,27.43Z"/><path class="cls-3" d="M357.72,33.1c-.92-.45-1.69-1.53-1.42-2.08.18-.36.9-.38,2.34-.42,1.63,0,2.45-.06,2.66.33.31.58-.45,1.81-1.5,2.25A2.58,2.58,0,0,1,357.72,33.1Z"/><path class="cls-3" d="M348.55,25.35c.65.79,2.65.06,4.17-.5,1.24-.45,2.79-1,2.75-1.67s-1.91-1.05-2.08-1.08c-1.48-.27-3.94-.1-4.75,1.5C348.41,24.05,348.17,24.88,348.55,25.35Z"/><path class="cls-3" d="M325.47,42.1c2.74-.17,3.17-1.58,5.67-1.67a20.22,20.22,0,0,1,2.58.09c1.18.14,1.51.32,1.92.08.77-.45,1-2,.5-3.08a3.9,3.9,0,0,0-2.92-1.84,7.33,7.33,0,0,0-4.67,1c-.7.35-.21.21-2.75,1.84a7,7,0,0,0-2.08,1.83c-.32.44-.65.9-.5,1.25C323.48,42.23,325,42.13,325.47,42.1Z"/><path class="cls-3" d="M341.22,49.85h0s4.46-.18,5.25-2.08a2,2,0,0,0-.5-2.17c-.83-.72-2.38-.4-3.25.33C342.72,45.93,342.12,46.45,341.22,49.85Z"/><path class="cls-3" d="M359.14,56.35c1.84.24,2.21,1.28,3.83,1.75,1,.28,2.89.52,3.58-.5a2.44,2.44,0,0,0-.58-2.92c-1.16-1-3.16-.35-4-.08s-.74.39-2,.83-2.1.61-2.08.75S358.5,56.27,359.14,56.35Z"/><path class="cls-3" d="M380.39,56.85c.73.72,2.08.55,4.75.17a18.07,18.07,0,0,0,4.16-1c2.09-.84,2.69-1.64,2.92-2a2.33,2.33,0,0,0,.5-1.92c-.2-.55-.76-.75-3-1.42-3.33-1-3.68-1-4-1a10.47,10.47,0,0,0-3.42.84c-1.58.55-2.39.84-2.75,1.58-.28.57-.18,1.13,0,2.25C379.77,55.66,379.89,56.36,380.39,56.85Z"/><path class="cls-3" d="M408.55,53.93a14.32,14.32,0,0,0,4.84,2,21.18,21.18,0,0,0,5,1,7.48,7.48,0,0,0,4.08-.83A3.37,3.37,0,0,0,424.3,54a2.69,2.69,0,0,0-1.08-2.75,2.65,2.65,0,0,0-1.92-.34c-.89.2-1.09.76-1.91,1.34a6.14,6.14,0,0,1-4.5.75,25.83,25.83,0,0,1-2.84-1.34c-1.88-.84-2.42-.94-3-.83-.82.16-1.8.77-1.83,1.5C407.2,52.75,407.47,53.2,408.55,53.93Z"/><path class="cls-3" d="M429.55,47.68a8.65,8.65,0,0,0,3.75,1.42c2,.31,3,.46,3.5-.17A1.93,1.93,0,0,0,437,47c-.53-1.3-2.26-1.59-3.25-1.75a6.52,6.52,0,0,0-3.08.25c-.51.16-1.81.59-1.84,1.25C428.79,47,429,47.29,429.55,47.68Z"/><path class="cls-3" d="M419.89,38.85c.59.77,1.7,1,3.91,1.5,1.75.39,2.07.28,2.25.08a1.89,1.89,0,0,0-.41-2.33c-.65-.57-1.19-.08-2.92-.67-.66-.22-1.56-.61-1.67-.66-1.11-.5-1.37-.72-1.58-.59C419.05,36.44,419.14,37.88,419.89,38.85Z"/><path class="cls-3" d="M391.47,34.6c.73,1.46,2.11,2.08,4.25,3a18.33,18.33,0,0,0,5,1.42,6.77,6.77,0,0,0,3.75-.34c.54-.23,1.5-.64,1.58-1.33.13-1-1.53-1.89-2.33-2.33-1.48-.82-2-.68-4.25-1.42-2.71-.89-3-1.47-4.92-1.67-.87-.09-2.77-.29-3.33.67C390.82,33.29,391.3,34.26,391.47,34.6Z"/><path class="cls-3" d="M356.47,38.68a14.4,14.4,0,0,1,6.92.75,18,18,0,0,0,2.33.92,11,11,0,0,0,3.17.42,20.69,20.69,0,0,0,3.5-.5c1.4-.27,1.76-.42,2.16-.17a2.47,2.47,0,0,1,.59,2.75c-.51,1.43-2.15,2-3.25,2.33a10.07,10.07,0,0,1-4.25.34,21.05,21.05,0,0,1-3.42-.67,21.09,21.09,0,0,1-4.92-1.58,8,8,0,0,1-2.66-2c-.31-.37-1.28-1.52-.92-2.17A1.09,1.09,0,0,1,356.47,38.68Z"/><path class="cls-3" d="M372.89,47.52a1.65,1.65,0,0,0,2.16-.09,1.46,1.46,0,0,0,.34-1.66c-.47-.78-1.81-.46-2-.42a1.4,1.4,0,0,0-1,.58A1.41,1.41,0,0,0,372.89,47.52Z"/><path class="cls-3" d="M380.64,28.27c0,.68,1.67,1.59,2.5,1a1.15,1.15,0,0,0,.41-1.25c-.22-.65-1.18-.83-1.83-.67C381.26,27.47,380.63,27.84,380.64,28.27Z"/><path class="cls-3" d="M377.39,19.85c.45.95,2.16.59,6.41.83,2,.12,2.78.26,4.84.25,3.37,0,3.83-.41,4-.75.37-.74-.35-2-1.17-2.58a3.47,3.47,0,0,0-2.42-.58c-1.49.13-1.76.95-3.41,1.5a8.7,8.7,0,0,1-3.59.25c-2.57-.18-3.75-1-4.41-.34A1.32,1.32,0,0,0,377.39,19.85Z"/><path class="cls-3" d="M379.14,13.52a6.94,6.94,0,0,0,3.75,1.41,4.57,4.57,0,0,0,2.83-.5c.28-.16,1.41-.84,1.33-1.66s-1.35-1.39-2.33-1.42a4.37,4.37,0,0,0-1.25.25,12.33,12.33,0,0,1-4,.67c-.88-.09-1.39-.36-1.5-.17S378.6,13.1,379.14,13.52Z"/><path class="cls-3" d="M377.64,8.52c.47.63,1.83-.49,4.75-.67a3.77,3.77,0,0,0,2.08-.58c.19-.14.83-.59.75-1-.12-.6-1.75-.84-2.92-.75a10.76,10.76,0,0,0-2.25.58c-1.82.58-2.16.91-2.33,1.25C377.68,7.42,377.34,8.12,377.64,8.52Z"/><path class="cls-3" d="M388.39,6.28c0,.54,2.27.66,2.5.67.85,0,1-.1,1-.17.16-.31-.39-1.07-1.09-1.33C389.73,5.05,388.35,5.85,388.39,6.28Z"/><path class="cls-3" d="M400.93,4.13c-1.27.13-2.44.26-2.58.83-.11.41.33,1,.83,1.17s1-.23,2-.42c1.55-.28,2.12.51,3.17,0,.51-.25,1.1-.78,1-1.16C405.13,3.69,401.58,4.06,400.93,4.13Z"/><path class="cls-3" d="M396.14,11.27c-.5-.15-.71,0-1-.17a1.63,1.63,0,0,1-.5-1.75c.32-1,1.93-1.38,4.25-1.83,2.56-.5,2.23,0,5.41-.5,1.44-.22,2.21-.42,2.92.08a2,2,0,0,1,.83,2.25c-.39.8-1.56.34-3.58,1-2.52.82-2.68,2.19-4.67,2.25a3.67,3.67,0,0,1-2.58-.58A2.69,2.69,0,0,0,396.14,11.27Z"/><path class="cls-3" d="M394.8,14c.2.65,1.59.75,2.5.58.47-.09,1.48-.37,1.5-.83s-1-.84-1.25-.92a2.37,2.37,0,0,0-2.25.08C395,13.16,394.68,13.62,394.8,14Z"/><path class="cls-3" d="M395.47,19.6c-.11-.37,1-1.24,2.33-1.5a5.7,5.7,0,0,1,2.17.08c1,.17,1.52.26,1.75.67a1.61,1.61,0,0,1-.5,1.83c-.24.21-.35.15-1.5.42s-1.38.41-1.67.25-.25-.64-.66-1.08C396.7,19.54,395.58,20,395.47,19.6Z"/><path class="cls-3" d="M406.64,26.18c0-.8,2.38-1.3,2.91-1.41,1.19-.25,2.35-.49,3,.16a2.11,2.11,0,0,1,.5,1.25A2.5,2.5,0,0,1,412.8,28c-.26.38-.43.28-1.58,1-.92.57-1.05.78-1.42.75s-.69-.37-1.16-.92-.48-.84-1-1.5C407,26.52,406.63,26.5,406.64,26.18Z"/><path class="cls-3" d="M412.47,17.77c-.66.27-1.18.42-1.42.5-3.91,1.19-4.3,1.13-4.58.91-.69-.52-.53-1.88-.33-2.58.68-2.37,3.6-3.15,4-3.25,1.22-.31,2.34-.09,4.58.33a13.36,13.36,0,0,1,4.75,1.67c1.06.66,2,1.27,2.08,2.25a2.22,2.22,0,0,1-1.25,2c-1.25.59-2.94-.31-4.08-.92s-2.27-1.5-3.17-1.16Z"/><path class="cls-3" d="M424.3,10.35c1.58.87,2.34,1.05,3.25,1.5,1.77.87,1.94,1.64,3,1.58.71,0,1.46-.42,1.5-.83s-.41-.47-.83-1.33a1.55,1.55,0,0,1-.25-.84c0-.61.61-.74.67-1.16.09-.71-1.33-1.83-2.84-1.92-.49,0-.56.08-3.16,1.08-1.51.58-2.16.8-2.17,1.17S423.8,10.07,424.3,10.35Z"/><path class="cls-3" d="M410.22,8.43a4.76,4.76,0,0,0,4.08.25c.52-.15,1.85-.56,1.84-1.08,0-.88-4-1.29-4.42-1.33-1.31-.14-2.51-.26-2.75.25S409.5,8,410.22,8.43Z"/><path class="cls-3" d="M416.14,5.4c0,.64,2,1.51,3.75,1,.26-.08,1.15-.34,1.16-.75,0-.62-1.91-1.52-3.58-1.08C417.36,4.6,416.14,4.91,416.14,5.4Z"/><path class="cls-3" d="M437.8,16.27c.95,1.24,2.62,1.32,5.42,1.41s4.49.13,6.08-1.08c.31-.23,1.78-1.35,1.5-2.42a2.13,2.13,0,0,0-1.91-1.25c-.91,0-1.16.51-2.67,1.09a7.58,7.58,0,0,1-2.75.58c-1,0-1.14-.23-3.17-.67-2.49-.52-2.8-.29-2.91-.16C436.93,14.26,437.2,15.48,437.8,16.27Z"/><path class="cls-3" d="M423.39,25.85c1.88.4,2.18-.08,3.58.25s1.71,1.07,3.08,1.08c.43,0,1.44,0,1.84-.58.5-.77-.2-2.22-1.09-3a4.87,4.87,0,0,0-5-.5,18.83,18.83,0,0,1-2.08,1.25c-1.25.51-2.15.49-2.17.75S423.22,25.82,423.39,25.85Z"/><path class="cls-3" d="M460,32.1c-.83-.59-.89-2-.5-3a3.84,3.84,0,0,1,2.17-1.92c.47-.21,1.78-.75,5.91-.41a19.51,19.51,0,0,1,5.75,1.08,11.71,11.71,0,0,1,2.92,1.58c.82.62,2.24,1.69,2,2.42s-2.78.76-3,.75a11.52,11.52,0,0,1-3.5-1c-2.41-.8-4.52-1.5-6.5-.75a15.32,15.32,0,0,1-2.83,1.25C461.41,32.35,460.59,32.54,460,32.1Z"/><path class="cls-3" d="M451,37a7,7,0,0,0,3.5,1c1.56.12,2.54.2,2.75-.25s-.21-1.06-.75-1.42c-1-.7-2,.29-4.42.08-.9-.07-1.67-.28-1.75-.08S450.79,36.9,451,37Z"/><path class="cls-3" d="M452.14,22.27c-.06.26,1.71,1.08,3.66,1.08,1.29,0,2.6-.35,2.59-.58s-1.82-.39-3.42-.5C453.15,22.15,452.18,22.08,452.14,22.27Z"/><path class="cls-3" d="M453.64,47.68c.12-.66,1.33-.92,2.41-1.16,1.28-.28,2.75-.6,3.92.25a2,2,0,0,1,.92,1.33c0,1.1-1.58,2.14-3,2.25a4.2,4.2,0,0,1-2.75-.92C454.59,49.07,453.51,48.36,453.64,47.68Z"/><path class="cls-3" d="M471.8,41.27A2.08,2.08,0,0,0,474,42.43a1.67,1.67,0,0,0,1.33-1.25c.13-.87-.76-1.66-1.58-1.83a1.83,1.83,0,0,0-2.08.92A1.34,1.34,0,0,0,471.8,41.27Z"/><path class="cls-3" d="M476.64,23a3.69,3.69,0,0,0,1.66,0c.77-.14,1.81-.32,1.92-.84s-1.4-1.48-1.75-1.66c-.88-.46-1.63-.86-2.33-.5a1.81,1.81,0,0,0-.8,2.25A1.9,1.9,0,0,0,476.64,23Z"/><path class="cls-3" d="M442.36,9.93c-.06.56,2,1.21,3.22,1.45,1.07.21,3.05.41,3.22-.11s-1-1.37-2.22-1.78C444.67,8.83,442.42,9.37,442.36,9.93Z"/></g></g></svg>