<svg xmlns="http://www.w3.org/2000/svg" viewBox="0 0 185.14 69.23"><defs><style>.cls-1{fill:#9f3e2a;}.cls-1,.cls-2{stroke:#000;stroke-miterlimit:10;stroke-width:3px;}.cls-2{fill:#ea6365;}.cls-3{fill:#f19590;}</style></defs><g id="Layer_2" data-name="Layer 2"><g id="Producten"><path class="cls-1" d="M11.55,29.68c-.56.37-3.92,3.18-7.33,2.44-.59-.12-1-.31-1.45-.11-1.74.78-1.61,6-.11,9.67,1.78,4.32,5.52,6.6,7.56,7.78C24.3,57.61,35.55,60.23,35.55,60.23c14.33,3.35,22.75,5.31,36.11,6.56,15.69,1.46,27.28.92,39.67.33,18.3-.86,28-2.67,33.67-3.89a85.93,85.93,0,0,0,23.89-8.88c9.31-5.19,11.68-8.91,12.77-11.56a21,21,0,0,0-.11-14.22C169.81-2.24,17.85,25.49,11.55,29.68Z"/><path class="cls-2" d="M21,50.12c9.46,4.58,19,7.28,32,9.34C69.3,62,81.69,62.1,95.33,62.12c22.7,0,36.07-1.77,40-2.33a132.22,132.22,0,0,0,29-7.67c13.77-5.35,16.67-9.16,18-12.33a18,18,0,0,0-1.67-16.67,16.44,16.44,0,0,0-6-5,98.83,98.83,0,0,0-26.33-9.66C123.91,4.15,111.7,2,108.66,1.79c-11.42-.76-22.28.05-44,1.67a191.07,191.07,0,0,0-37,6C19.71,11.6,11.6,14.39,6,21.79c-1.81,2.38-4.73,6.24-4.33,11C2.36,40.94,12.56,46,21,50.12Z"/><path class="cls-3" d="M12.91,26.21a4.84,4.84,0,0,0,4,.33c.6-.2,2.07-.79,2-1.33s-2.42-.88-3.83-.84c-.33,0-2.86.09-3,.84C12,25.6,12.62,26,12.91,26.21Z"/><path class="cls-3" d="M21.58,24.21c.1-.9,1.32-1.43,2.67-2a11.86,11.86,0,0,1,3.5-1,35.29,35.29,0,0,1,4,.08c1.53,0,2,0,2.08.17.11.4-2.14,1.4-3.67,2.08-2.52,1.12-3.48,1.31-3.66,2.08-.24,1,1.18,1.81.83,2.5s-1.75.73-2.67.17c-.7-.43-.41-.92-1.33-1.75-.62-.57-1-.62-1.43-1.26A1.79,1.79,0,0,1,21.58,24.21Z"/><path class="cls-3" d="M27.66,14.54c-.29.46.27,1.54,1.09,2.08a3.39,3.39,0,0,0,2.91.17c.24-.08,2-.64,2-1.58,0-.59-.71-1.07-1.16-1.25a3.24,3.24,0,0,0-1.59-.09c-.66.06-.71.13-1.91.34S27.78,14.36,27.66,14.54Z"/><path class="cls-3" d="M41.66,16c.7,1.13,3,1,4.17.83a7.58,7.58,0,0,0,3.25-1.5c1-.73,1.56-1.11,1.58-1.67.07-1.47-3.53-2.64-3.41-2.91s1.52.22,1.5.41-1.67-.17-3.92.42c-.3.08-1.06.41-2.58,1.08-.74.33-1.23.56-1.34,1,0,.13,0,.29.25,1.09A8.55,8.55,0,0,0,41.66,16Z"/><path class="cls-3" d="M52.08,10.79c-.12-.23.8-1.17,2-1.67a8.42,8.42,0,0,1,2.83-.41,22.29,22.29,0,0,1,2.5,0c1.87.09,2.8.14,3,.58.38.81-1.29,2.31-1.41,2.42-.59.52-.74.42-1.75,1.16-1.32,1-1.24,1.24-1.84,1.42a2.89,2.89,0,0,1-3.08-1.17c-.29-.54-.11-.91-.58-1.5a2.11,2.11,0,0,0-1.09-.75C52.31,10.79,52.13,10.88,52.08,10.79Z"/><path class="cls-3" d="M56.5,26.54a2.8,2.8,0,0,1,.91-2.42c.43-.4.67-.36,3.5-.91A6,6,0,0,1,63.58,23c.1,0,1.69.39,1.75,1.08s-1.57,1.44-3,2.08-1.73.53-2.42,1.09c-1.07.87-1.18,1.78-1.75,1.75S57,27.8,56.75,27.21A2.57,2.57,0,0,1,56.5,26.54Z"/><path class="cls-3" d="M49.91,32.21c-.92-.46-1.69-1.53-1.41-2.09.17-.35.89-.38,2.33-.41,1.64,0,2.46-.06,2.67.33.3.58-.46,1.81-1.5,2.25A2.65,2.65,0,0,1,49.91,32.21Z"/><path class="cls-3" d="M40.75,24.46c.64.78,2.65.05,4.16-.5,1.24-.45,2.8-1,2.75-1.67s-1.9-1.05-2.08-1.08c-1.48-.28-3.94-.1-4.75,1.5C40.6,23.15,40.36,24,40.75,24.46Z"/><path class="cls-3" d="M17.66,41.21c2.75-.18,3.17-1.59,5.67-1.67a19.28,19.28,0,0,1,2.58.08c1.18.14,1.52.32,1.92.09.78-.46,1-2,.5-3.09a3.84,3.84,0,0,0-2.92-1.83,7.3,7.3,0,0,0-4.66,1c-.71.35-.22.2-2.75,1.83a7.26,7.26,0,0,0-2.09,1.84c-.32.44-.64.89-.5,1.25C15.67,41.33,17.21,41.23,17.66,41.21Z"/><path class="cls-3" d="M33.41,49h0s4.46-.18,5.25-2.09a2,2,0,0,0-.5-2.16c-.82-.73-2.38-.41-3.25.33C34.91,45,34.31,45.55,33.41,49Z"/><path class="cls-3" d="M51.33,55.46c1.84.24,2.21,1.27,3.83,1.75,1,.28,2.89.51,3.59-.5a2.46,2.46,0,0,0-.59-2.92c-1.16-1-3.15-.36-4-.08s-.74.38-2,.83-2.1.6-2.08.75S50.69,55.37,51.33,55.46Z"/><path class="cls-3" d="M72.58,56c.73.72,2.08.54,4.75.16a17.27,17.27,0,0,0,4.17-1c2.08-.83,2.68-1.64,2.91-2a2.3,2.3,0,0,0,.5-1.91c-.2-.55-.75-.76-3-1.42-3.33-1-3.68-1-4-1a10.36,10.36,0,0,0-3.41.83c-1.59.56-2.39.85-2.75,1.59a3.56,3.56,0,0,0,0,2.25C72,54.77,72.08,55.46,72.58,56Z"/><path class="cls-3" d="M100.75,53a14.59,14.59,0,0,0,4.83,2,21.71,21.71,0,0,0,5,1,7.48,7.48,0,0,0,4.08-.83,3.38,3.38,0,0,0,1.84-2.09,2.7,2.7,0,0,0-1.09-2.75A2.55,2.55,0,0,0,113.5,50c-.9.19-1.1.76-1.92,1.33a6.14,6.14,0,0,1-4.5.75c-.71-.16-.45-.27-2.83-1.33-1.89-.84-2.42-.95-3-.83-.83.16-1.8.77-1.84,1.5C99.39,51.86,99.66,52.3,100.75,53Z"/><path class="cls-3" d="M121.75,46.79a8.78,8.78,0,0,0,3.75,1.42c2,.3,3,.46,3.5-.17a2,2,0,0,0,.16-1.92c-.53-1.29-2.26-1.58-3.25-1.75a6.66,6.66,0,0,0-3.08.25c-.51.17-1.81.6-1.83,1.25C121,46.14,121.19,46.4,121.75,46.79Z"/><path class="cls-3" d="M112.08,38c.59.76,1.7,1,3.92,1.5,1.74.38,2.06.27,2.25.08a1.89,1.89,0,0,0-.42-2.33c-.64-.57-1.18-.09-2.92-.67-.66-.22-1.56-.62-1.66-.67-1.12-.49-1.38-.71-1.59-.58C111.24,35.55,111.33,37,112.08,38Z"/><path class="cls-3" d="M83.66,33.71c.73,1.46,2.11,2.07,4.25,3a17.79,17.79,0,0,0,5,1.41,6.88,6.88,0,0,0,3.75-.33c.54-.23,1.5-.64,1.59-1.33.12-1-1.54-1.9-2.34-2.34-1.48-.82-2-.68-4.25-1.41-2.71-.9-3-1.47-4.91-1.67-.87-.09-2.78-.29-3.34.67C83,32.4,83.49,33.36,83.66,33.71Z"/><path class="cls-3" d="M48.66,37.79a14.38,14.38,0,0,1,6.92.75,19.56,19.56,0,0,0,2.33.92,10.76,10.76,0,0,0,3.17.41,19.59,19.59,0,0,0,3.5-.5c1.4-.27,1.76-.41,2.17-.16A2.49,2.49,0,0,1,67.33,42c-.51,1.43-2.14,2-3.25,2.33a10.2,10.2,0,0,1-4.25.33A20.83,20.83,0,0,1,56.41,44a20.8,20.8,0,0,1-4.91-1.59,7.91,7.91,0,0,1-2.67-2c-.31-.36-1.28-1.51-.92-2.16A1.05,1.05,0,0,1,48.66,37.79Z"/><path class="cls-3" d="M65.08,46.62a1.67,1.67,0,0,0,2.17-.08,1.47,1.47,0,0,0,.33-1.67c-.47-.78-1.81-.46-2-.41a1.33,1.33,0,0,0-1,.58A1.42,1.42,0,0,0,65.08,46.62Z"/><path class="cls-3" d="M72.83,27.37c0,.69,1.67,1.59,2.5,1a1.17,1.17,0,0,0,.42-1.25c-.23-.65-1.18-.83-1.84-.66C73.45,26.57,72.82,26.94,72.83,27.37Z"/><path class="cls-3" d="M69.58,19c.45.94,2.17.59,6.42.83,2,.11,2.78.26,4.83.25,3.37,0,3.83-.41,4-.75.37-.75-.35-2-1.17-2.58a3.47,3.47,0,0,0-2.41-.59c-1.5.13-1.77,1-3.42,1.5a8.66,8.66,0,0,1-3.58.25c-2.58-.18-3.76-1-4.42-.33A1.33,1.33,0,0,0,69.58,19Z"/><path class="cls-3" d="M71.33,12.62A7,7,0,0,0,75.08,14a4.56,4.56,0,0,0,2.83-.5c.28-.17,1.42-.84,1.34-1.67s-1.36-1.39-2.34-1.41a4.08,4.08,0,0,0-1.25.25,12.17,12.17,0,0,1-4,.66c-.88-.09-1.39-.35-1.5-.16S70.79,12.2,71.33,12.62Z"/><path class="cls-3" d="M69.83,7.62c.48.63,1.83-.49,4.75-.66a3.67,3.67,0,0,0,2.08-.59c.2-.13.84-.59.75-1-.12-.6-1.74-.83-2.91-.75a10.06,10.06,0,0,0-2.25.59c-1.83.58-2.16.9-2.34,1.25C69.88,6.53,69.53,7.23,69.83,7.62Z"/><path class="cls-3" d="M80.58,5.39c0,.54,2.27.65,2.5.67.86,0,1-.11,1-.17.16-.32-.39-1.07-1.08-1.33C81.93,4.15,80.54,5,80.58,5.39Z"/><path class="cls-3" d="M93.12,3.23c-1.27.14-2.43.27-2.58.84-.1.4.33,1,.83,1.16s1-.22,2-.41c1.55-.28,2.12.51,3.17,0,.51-.25,1.1-.79,1-1.17C97.32,2.8,93.77,3.17,93.12,3.23Z"/><path class="cls-3" d="M88.33,10.37c-.5-.15-.71,0-1-.16a1.65,1.65,0,0,1-.5-1.75c.32-1.05,1.93-1.38,4.25-1.84,2.57-.5,2.23,0,5.42-.5,1.43-.21,2.21-.41,2.91.09a2,2,0,0,1,.84,2.25c-.4.8-1.57.34-3.59,1-2.51.82-2.68,2.19-4.66,2.25a3.7,3.7,0,0,1-2.59-.59A2.79,2.79,0,0,0,88.33,10.37Z"/><path class="cls-3" d="M87,13.12c.2.65,1.58.76,2.5.59.46-.09,1.48-.38,1.5-.84S90,12,89.75,12A2.35,2.35,0,0,0,87.5,12C87.23,12.26,86.87,12.73,87,13.12Z"/><path class="cls-3" d="M87.66,18.71c-.11-.37,1-1.24,2.34-1.5a5.29,5.29,0,0,1,2.16.08c1,.17,1.52.25,1.75.67a1.61,1.61,0,0,1-.5,1.83c-.24.2-.35.15-1.5.42s-1.38.4-1.66.25-.25-.65-.67-1.09C88.89,18.65,87.77,19.05,87.66,18.71Z"/><path class="cls-3" d="M98.83,25.29c0-.81,2.38-1.31,2.92-1.42,1.18-.25,2.34-.49,3,.17a2.19,2.19,0,0,1,.5,1.25,2.53,2.53,0,0,1-.25,1.83c-.26.39-.43.29-1.59,1-.92.57-1,.79-1.41.75s-.7-.37-1.17-.92-.48-.83-1-1.49C99.17,25.62,98.82,25.6,98.83,25.29Z"/><path class="cls-3" d="M104.66,16.87a14.68,14.68,0,0,1-1.41.5c-3.92,1.19-4.31,1.13-4.59.92-.68-.53-.53-1.88-.33-2.58.68-2.37,3.6-3.15,4-3.25,1.23-.31,2.34-.1,4.58.33a13.15,13.15,0,0,1,4.75,1.67c1.06.65,2,1.27,2.09,2.25a2.26,2.26,0,0,1-1.25,2c-1.25.59-3-.32-4.09-.92s-2.27-1.51-3.16-1.17C105.14,16.66,105,16.73,104.66,16.87Z"/><path class="cls-3" d="M116.5,9.46c1.57.86,2.33,1,3.25,1.5,1.76.86,1.93,1.63,3,1.58.7,0,1.45-.42,1.5-.83s-.42-.48-.84-1.34a1.63,1.63,0,0,1-.25-.83c0-.62.62-.75.67-1.17.09-.7-1.33-1.83-2.83-1.91-.5,0-.56.08-3.17,1.08-1.51.58-2.16.8-2.17,1.17S116,9.18,116.5,9.46Z"/><path class="cls-3" d="M102.41,7.54a4.85,4.85,0,0,0,4.09.25c.51-.16,1.84-.57,1.83-1.08,0-.88-4-1.29-4.42-1.34-1.31-.13-2.5-.26-2.75.25S101.69,7.05,102.41,7.54Z"/><path class="cls-3" d="M108.33,4.5c0,.64,2,1.51,3.75,1,.27-.07,1.15-.34,1.17-.75,0-.61-1.92-1.51-3.59-1.08C109.55,3.7,108.34,4,108.33,4.5Z"/><path class="cls-3" d="M130,15.37c.94,1.24,2.62,1.33,5.41,1.42s4.49.13,6.09-1.08c.3-.24,1.77-1.35,1.5-2.42A2.1,2.1,0,0,0,141.08,12c-.91,0-1.15.51-2.67,1.08a7.44,7.44,0,0,1-2.75.59c-1,0-1.13-.24-3.16-.67-2.5-.53-2.8-.29-2.92-.17C129.12,13.37,129.4,14.59,130,15.37Z"/><path class="cls-3" d="M115.58,25c1.89.39,2.19-.09,3.58.25s1.71,1.06,3.09,1.08c.42,0,1.43,0,1.83-.58.5-.77-.19-2.22-1.08-3a4.83,4.83,0,0,0-5-.5,20.12,20.12,0,0,1-2.09,1.25c-1.24.51-2.15.49-2.16.75S115.41,24.92,115.58,25Z"/><path class="cls-3" d="M152.16,31.21a2.69,2.69,0,0,1-.5-3,3.81,3.81,0,0,1,2.17-1.92c.47-.22,1.79-.76,5.92-.42A19.59,19.59,0,0,1,165.5,27a11.36,11.36,0,0,1,2.91,1.58c.82.61,2.24,1.68,2,2.42s-2.78.76-3,.75a12,12,0,0,1-3.5-1c-2.41-.8-4.52-1.51-6.5-.75a15.38,15.38,0,0,1-2.83,1.25C153.6,31.45,152.78,31.65,152.16,31.21Z"/><path class="cls-3" d="M143.16,36.12a6.91,6.91,0,0,0,3.5,1c1.56.13,2.54.21,2.75-.25s-.21-1-.75-1.41c-1-.7-1.95.29-4.41.08-.91-.08-1.68-.28-1.75-.08S143,36,143.16,36.12Z"/><path class="cls-3" d="M144.33,21.37c-.06.27,1.72,1.08,3.67,1.09,1.28,0,2.59-.35,2.58-.59s-1.82-.39-3.42-.5C145.35,21.25,144.37,21.19,144.33,21.37Z"/><path class="cls-3" d="M145.83,46.79c.12-.67,1.33-.93,2.42-1.17,1.27-.28,2.75-.6,3.91.25a1.94,1.94,0,0,1,.92,1.34c0,1.09-1.58,2.14-3,2.25a4.33,4.33,0,0,1-2.75-.92C146.78,48.18,145.71,47.47,145.83,46.79Z"/><path class="cls-3" d="M164,40.37a2.06,2.06,0,0,0,2.16,1.17,1.68,1.68,0,0,0,1.34-1.25c.13-.88-.76-1.66-1.59-1.83a1.82,1.82,0,0,0-2.08.91A1.32,1.32,0,0,0,164,40.37Z"/><path class="cls-3" d="M168.83,22.12a3.59,3.59,0,0,0,1.67,0c.76-.13,1.8-.32,1.91-.83.15-.67-1.39-1.48-1.75-1.67-.88-.46-1.63-.85-2.33-.5a1.82,1.82,0,0,0-.8,2.26A1.89,1.89,0,0,0,168.83,22.12Z"/><path class="cls-3" d="M134.55,9c-.06.55,2,1.2,3.22,1.44,1.07.21,3,.42,3.23-.11S140,9,138.77,8.59C136.87,7.93,134.61,8.48,134.55,9Z"/></g></g></svg>