<svg xmlns="http://www.w3.org/2000/svg" viewBox="0 0 750.32 577.62"><defs><style>.cls-1{fill:#f1f2f2;}.cls-2{fill:#e6e7e8;}.cls-3{fill:#e0af9a;}.cls-10,.cls-11,.cls-12,.cls-13,.cls-3,.cls-4,.cls-5,.cls-6,.cls-7,.cls-8{stroke:#231f20;stroke-miterlimit:10;}.cls-4{fill:#606161;}.cls-5{fill:none;}.cls-6{fill:#2e2c74;}.cls-7{fill:#fff;}.cls-8{fill:#47382b;}.cls-9{fill:#ba9a90;}.cls-10{fill:#59371e;}.cls-11{fill:#231f20;}.cls-12{fill:#e19898;}.cls-13{fill:#d87178;}</style></defs><g id="Layer_2" data-name="Layer 2"><g id="Onderhempt"><path class="cls-1" d="M160.76,577.12a192.77,192.77,0,0,1,13-66.83c8.07-20.64,20.17-51.62,49.28-67.15,17-9.05,32.71-9.12,51.06-8.93,96.21,1,144.55,1.74,156.26,15.57,33.38,39.43-5.91,120.73-9.19,127.34Z"/><path class="cls-2" d="M196.51,577.12c2.89-9.87,5.69-18.07,7.91-24.19,5.81-16,8.11-19.11,10.47-21.45,5.49-5.42,9.26-4.58,21.7-9.7,9.39-3.86,8.88-5,30.13-17.1,23.49-13.38,25.06-12.52,26.81-16.09,8.83-18-20.24-62.13-48-60-11.42.88-19,9.3-29.11,20.43-20.41,22.56-27.12,47.48-31.66,65.1a224.28,224.28,0,0,0-6.89,63Z"/></g><g id="Nek"><path class="cls-3" d="M248.34,349.44a84.71,84.71,0,0,0-8.43,26.81,72.14,72.14,0,0,0-.29,12.82c.11,1.7.26,2.95.29,3.26,1.84,16.43-4.2,59.53,10.21,75.58,6.7,7.46,14,4.78,66.9,4.6,52.76-.19,51.25,2.46,60.51-.77,47.56-16.58,65.63-78.77,61-91.92a31.46,31.46,0,0,1-2.3-13.53c.23-3.5,1-5,2.3-11.23.19-.91,2.21-10.55,2-12.77C439.3,324.63,266.12,315.9,248.34,349.44Z"/></g><g id="Jas"><path class="cls-4" d="M.68,577.12A124.72,124.72,0,0,1,6,562.89c2.94-6.56,5.45-12.18,10-17.62,3.65-4.41,8.05-7.28,16.85-13a191.57,191.57,0,0,1,24-13.53c8.62-4.08,10.2-4,17.87-8.17,7.39-4,7.76-5,13.28-7.41,6.9-3,8-2.07,16.85-5.61,3.52-1.41,6.43-2.82,12.25-5.62,6.87-3.31,8.36-4.26,11.24-5.62,9.63-4.53,13.18-3.35,22.47-6.38,7.51-2.45,5.17-3.22,23.74-13C187.44,460.08,197,455.4,197,455.4A140.65,140.65,0,0,0,211.57,447c4.58-3,5.91-4.28,6.89-5.36,3.94-4.3,3.44-6.84,6.9-12.25,2.85-4.47,6-9.4,10.72-9.71,5.52-.35,11.72,5.72,11.49,11-.18,4.18-4.38,7.35-10.21,11.75-2.49,1.87-2.71,1.67-4.34,3.06-4.45,3.8-6.35,8.36-7.92,12.26-5.38,13.35-5.85,15.71-8.93,23s-3.87,7.8-5.88,13.53c-1.88,5.38-1.61,6.06-4.08,14.3-2.62,8.71-3.12,8.6-5.36,16.34-1.94,6.69-1.76,7.47-3.83,14.55-1.82,6.2-3,9.15-4.09,12.51a107.52,107.52,0,0,0-4.85,25.21Z"/><path class="cls-4" d="M123.32,577.12C139,560.91,140.63,551.43,139,545.7c-.36-1.22-.74-1.86-3.75-10.22-4-11-4.88-12.8-4.42-15.32,1-5.72,7.44-8.88,11.91-11.23,0,0,1.33-.7,33.36-21.45,16.19-10.48,30.79-19.94,38.47-36.76a120.28,120.28,0,0,1,13.62-24.17c7.57-10.31,10.13-10.05,10.89-9.87,4.27,1,7.18,12.44,3.4,20.76-2.43,5.37-5.8,5.38-11.23,10.89-5.8,5.89-6.5,10.48-13.19,27.74-6.14,15.83-5.72,12.42-10.3,24.69a351.83,351.83,0,0,0-11.91,39.15c-2.51,9.88-5.36,22.45-7.83,37.21Z"/><path class="cls-5" d="M140.34,544.33c3.32-4,8.53-10,15.32-17,10.2-10.55,11.74-10.69,19.74-19.4,9.29-10.12,9.8-12.74,16.68-17.7,7.4-5.34,13.44-7.1,19.07-6.47a20.53,20.53,0,0,1,3.4.68"/></g><g id="Das"><path class="cls-6" d="M263.91,480.33c.88,1,2.66-.58,8.51,0a15.7,15.7,0,0,1,7.83,2.73c1.17.83,2.73,2.28,5.79,10.55,2.17,5.87,4.38,11.82,5.11,19.07l.68,7.48,1.7.73a15.4,15.4,0,0,1,.32,2.39,23.11,23.11,0,0,1-.19,3.54c-.26,3.08,0,3-.26,4.15a10.76,10.76,0,0,1-1.79,4c-1.66,2.53-3,6.5-5.61,14.43-2,6.09-1.45,5.72-2.68,8.42-1.71,3.72-3.13,5.09-5.75,9.19a81.29,81.29,0,0,0-5.49,10.15h62.68a73.83,73.83,0,0,0-.51-9.25,84.66,84.66,0,0,0-2.42-12.26,145.34,145.34,0,0,0-4.47-13.91c-1.24-3.43-2.36-6.26-3.19-8.3a13.93,13.93,0,0,0,.89-4.21,14.75,14.75,0,0,0-.77-5.37c-.3-1-.71-4.36-1.53-11.1-.89-7.38-1.43-11.75-.76-17.11a42.53,42.53,0,0,1,3.36-12l3.91-1.11c5.29-1.49,8-2.17,9.07-2.55,10.21-3.49,12.49-1.72,14.17-4.21,2.65-3.95-.34-12.45-5.75-15.07-1.95-.94-3.7-.87-8.68-.12-14.14,2.1-19.5,4.38-28.85,4.72a79.91,79.91,0,0,1-8.42-.26c-16.36-1-19-4-24.64-2.17C266.89,465.85,262,478.09,263.91,480.33Z"/><path class="cls-5" d="M294,530.38a21.81,21.81,0,0,1,5.62-5.28,23.34,23.34,0,0,1,6.63-2.89,29.54,29.54,0,0,1,6.94-1.14"/><path class="cls-5" d="M292.34,519.65c3,.09,5.61.07,7.66,0,4.62-.13,6-.43,8.51,0a21.17,21.17,0,0,1,7,2.56,24.18,24.18,0,0,1,8.34,7.83"/><path class="cls-5" d="M295.57,551.48a24.57,24.57,0,0,0,3.06-8.68c.57-3.87-.11-6.13.35-12.08.18-2.41.47-4.37.68-5.62"/><path class="cls-5" d="M278.81,475a21.53,21.53,0,0,0,2.05,8.58"/><path class="cls-5" d="M325.36,483.57a14.82,14.82,0,0,0,2.47-4.43,16.19,16.19,0,0,0-.6-11.4"/></g><g id="Hals"><path class="cls-7" d="M215.57,532.42c-.91.14-2.82-4.06-3.4-8.85-.52-4.23.22-7.11,1.36-12.6,2.24-10.78,1.39-9.28,2.72-14.64,2.7-10.87,4.55-10.44,7.49-21.1,2.89-10.45,1.27-11.44,4.43-18.72,2.38-5.51,4-6.65,5.44-11.92,1.12-4.21.79-6.24,1-14,.26-8.45.92-14.75,1.37-19.06a186.31,186.31,0,0,1,3.06-18.72c1.06-5.42,1.55-7.17,2-7.15.89,0,.78,5.87,2.05,13.95,1.13,7.26,2.66,16.52,8.25,25.13.83,1.29,3.38,4.07,8.43,9.6,9.74,10.65,14.61,16,17.7,18.38,4.52,3.51,11.79,9,22.47,10.89a34,34,0,0,0,11.57.34c6.94-1.05,11.64-4.18,18.72-9.19,9.85-7,16.89-12.31,20.43-15,10.43-7.84,16.36-12.3,24.51-17.36,12-7.48,12.23-5.89,23.15-12.93s17.66-11.4,23.83-19.41c7-9.05,7.72-15.51,10.89-15.32,5.23.32,8.16,18.19,9.19,24.51,2.37,14.48,1.24,21.18,1.71,34.39,1.09,31.06,8.71,32.94,4.42,45.61-5,14.68-20.13,26.83-35.4,28.26-10.76,1-20.2-3.43-30.3-8.17-4.56-2.14-9.62-5.29-19.74-11.58-14.65-9.09-14.93-10.17-21.45-13.27A92.58,92.58,0,0,0,318,467.06c-9-1.6-15.58-2.77-23.83-.68-8.47,2.14-14.07,6.55-18.72,10.21-7.16,5.63-7,7.74-18.05,19.06-8,8.25-12.06,12.37-16.68,15.32-6.15,3.94-11.88,8.6-18.38,11.92a11.29,11.29,0,0,0-5.11,4.42C215.8,530,216.25,532.32,215.57,532.42Z"/></g><g id="Jas_rechts" data-name="Jas rechts"><path class="cls-4" d="M642.29,455.91c-5.11-.51-9.65-1-13.78-1.28-9.48-.72-11.23-.3-23.49-.76-11.3-.43-16.95-.65-20.6-1.45-5.47-1.19-6-2.08-21.27-7.74-14-5.22-12-3.9-16.34-5.88-13.26-6-14.81-10.3-24.26-11.74a90.76,90.76,0,0,1-10-1.53A83.67,83.67,0,0,1,501.36,422c-5.86-2.18-8.79-3.28-14.3-5.62-12.31-5.22-29.69-6.09-34-5.36-17.87,3.07-27.64,72.12-22,166.15H749.78c-.12-1.58-.29-3.85-.51-6.57-1.14-14.56-1.34-16.28-1.53-17.62-.35-2.54-.59-3.39-3.57-15.32-4.77-19-4.7-19-5.36-20.93-2.88-8.27-4.95-14.21-10.22-19.92a39,39,0,0,0-15.83-10.21c-.84-.8-2.15-2-3.83-3.32,0,0-2.88-2.3-6.12-4.34-6.44-4-18.89-9-28.86-13.53-12-5.44-13.6-7.12-19.91-8.17C652.46,456.92,649.07,456.58,642.29,455.91Z"/><path class="cls-4" d="M353.53,577.12c3-7.81,7.54-19.62,12.76-34.15,8.41-23.38,8.82-26.38,14.81-42.12,6.85-18,11.53-30.26,19.92-46,7.89-14.77,18.13-31.92,18.13-31.92a132.18,132.18,0,0,0,13.53-28.85c1.87-5.87,1.94-12.22,2-18.38a15.93,15.93,0,0,1,.51-3.58c.47-1.84,1-4.12,2.1-4.38,1.7-.42,3.49,4.6,7.6,10.26,3.07,4.22,3.75,3.6,11.49,11.74,8.05,8.46,6.4,7.84,10.47,11.49,7.14,6.41,10.72,9.62,13.79,11.75a12.62,12.62,0,0,1,4.08,4.34,11.78,11.78,0,0,1,1.28,3.57c1.56,8,4.34,26.3,4.34,26.3.22,1.44,1.06,6.85,2.81,13.79a136.63,136.63,0,0,0,5.62,18.12c1.53,3.89,2.74,7.89,4.34,11.75,1.67,4,2.63,5.89,1.78,7.66-1,2.06-3.4,1.86-8.42,3.57-2.54.87-5.86,2.71-12.51,6.39-7.51,4.15-5.58,3.67-10,5.87s-6.74,2.91-6.89,4.59c-.13,1.42,1.43,2.45,4.08,4.6,3.14,2.54,5.9,5.51,8.94,8.17,7,6.1,5.43,6.14,9.95,9.7,6.06,4.77,8.89,4.75,13.54,10,2.53,2.83,3.61,5,3.32,7.15-.33,2.34-2.18,3.84-3.07,4.59-2.92,2.5-6.76,6.64-11,14Z"/><path class="cls-5" d="M401.78,453.1a75.74,75.74,0,0,1,7.83,7.83c4.75,5.49,5.64,8.1,9.2,12.6,4.53,5.72,6.35,5.61,14.29,12.93,6.54,6,7.18,7.83,14.3,15.32a213,213,0,0,0,19.06,17.7"/></g><g id="Linker_oor" data-name="Linker oor"><path class="cls-3" d="M198.55,210.55c-.76.77-1.17,1.64-2.81,9.44-1,4.72-1.61,8.06-2,10.22-1.57,7.89-2.07,7.69-3.07,13a66.19,66.19,0,0,0-1.27,17.36c.38,5.54.62,9,2.81,13a21.23,21.23,0,0,0,10.46,9.7c2.59,1,6.58,2,9.2,1.28,14.29-3.83,19.84-65.42,1-74.55C209.11,208.23,201.83,207.22,198.55,210.55Z"/><path class="cls-5" d="M204.42,248.59a9.75,9.75,0,0,0-8.17,9.19"/><path class="cls-5" d="M200.34,246.8c-1.45-1.24-3.16-3.15-3.32-5.61-.14-2,.86-3.2,1.53-5.37a15.43,15.43,0,0,0-.26-9.19"/></g><g id="Haar"><path class="cls-8" d="M204.07,142.4c-.88,1.42-1.1,3.68-3.34,5.11-1.15.74-3.2,1.49-4.22.67-1.35-1.09.4-3.9-1.33-6-.64-.78-1.72-1.41-2.22-1.11-.88.51.85,3.21-.45,5.11-.87,1.28-2.32,1-2.89,2.44-.36.93-.17,2.1.23,2.23s1.19-.91,1.55-1.78c1-2.43-.31-5.76-1.33-5.78-1.5,0-2,7.09-4,7.11-.94,0-2.23-1.58-2.82-2.75-.32-.64-.38-1-.52-1-.34,0-.95,2.62.23,4.45a6.81,6.81,0,0,0,2.44,2c1.31.77,1.67.61,2,1.11.61.91,0,2.27-1.11,4.67-1,2.19-1.53,3.29-2.67,4.22-1.51,1.22-2.26.73-3.11,1.78s-.69,2-.44,5.55c.15,2.08.31,4.15.44,6.22.32,4.93.08,5.34.67,6.89.72,1.92,1.76,3.07,1.33,3.56s-1.15.07-2.66-.45c-2-.68-3-1-3.34-1.77-.48-1.16.94-1.91,1.11-3.78.26-2.83-2.56-5.9-3.77-5.56-.69.2-1.11,1.57-.89,2.67.39,2,2.74,2.34,2.66,3.55s-2.1,2-3.55,2.23-2-.2-5.34-.67a21.74,21.74,0,0,0-5.55-.22c-.7.07-3.31.34-3.33.89,0,.78,5.32,1.69,7.11,2,3.17.54,4.76.81,6,.89,2.12.13,2.9,0,3.77.66,1.43,1.1,1.14,2.87,2.45,3.34a2.41,2.41,0,0,0,2.22-.45c-.05-.23-4.54-.39-6.44,2-1,1.2-1.2,3-.67,3.33s1.45-.76,4-2c1.82-.87,3.18-1.53,4.89-1.33a6,6,0,0,1,3.55,1.78,4.89,4.89,0,0,1,1.56,3.33c0,.6-.15,1.44-1.56,3.34s-1.91,2-4,4.22c-2.42,2.64-2.09,3-3.77,4.44a8.15,8.15,0,0,0-1.56,1.78c-.53.83-1.23,1.9-.89,2.44.73,1.19,6.08-.42,6.89-.66,1.61-.48,2.34-.86,2.89-.45s.41,1.37.22,4.23c-.24,3.8,0,3.3-.22,4.66-.56,3.54-1.79,4.51-1.11,5.56.89,1.38,3.88,1,4.44.89,1.24-.18,1.17-.49,4.45-1.56,1.5-.49,1.78-.51,2.22-.89.69-.59,1.05-1.44,1.33-4,.43-3.85,0-5.22.89-7.55.21-.52.82-2.08,1.34-2,.71.1.29,3.24,1.33,8.66.37,2,1.11,5.11,1.11,5.11s3.09,1.25,4.22,1.56c3.52,1,7.32-1.76,8.89-2.89,4.1-2.94,14.33-15.4,16.67-54.67,1.25-20.93-1.2-25-4-27.33C219.67,137.17,206.92,137.77,204.07,142.4Z"/></g><g id="Hoofd"><path class="cls-3" d="M208,278.72a116.14,116.14,0,0,0-.26,13.79c.08,1.84.26,5.4,1,11.48,1.08,8.61,2,16.25,4.85,25.79A127.83,127.83,0,0,0,220,346.63a150.06,150.06,0,0,0,13.53,23c5.4,7.74,11.26,16.12,20.93,25.28,8.6,8.14,16.8,13.17,33.2,23.23a84.45,84.45,0,0,0,17.4,8.59,66.89,66.89,0,0,0,15.28,3.67c12.82,1.41,23-1.88,32.68-5.11a139.78,139.78,0,0,0,19.4-8.42c8.93-4.44,16.49-8.19,24.51-14.3,9.19-7,14.33-13.55,22.73-24.26,7-8.94,13.94-17.9,19.4-31.15.94-2.27,2.16-5.77,4.6-12.76,3.82-11,6-17.42,7.91-25,1.16-4.75,1.8-8.43,3.32-18.9,1.48-10.19,3.74-25.83,4.85-36.51,1.23-11.82,5.81-55.81,2-85.53-1-7.91-11.32-80.95-67.91-111.57-74.48-40.31-174.68,22.33-176.94,49.27-.18,2.18-.27,10.68-1.53,24.77-.93,10.46-2.05,18.87-2.81,24.51-1.33,9.95-2.61,17.78-4.08,26.81-2.74,16.76-3.29,18.28-4.09,25.53a178.62,178.62,0,0,0-1.27,22.72C203.45,253.79,209.11,262.61,208,278.72Z"/></g><g id="Rechter_oor" data-name="Rechter oor"><path class="cls-3" d="M453.87,301.44a18.8,18.8,0,0,0,4.08,1.79,15.78,15.78,0,0,0,6.39.76c2.2-.3,3.66-1.32,8.42-5.61,5-4.47,7.42-6.72,7.92-7.41,3.63-5,4.37-10.14,5.1-15.32.26-1.79.35-5.72.51-13.53.21-9.43.1-10.63.52-13.79.94-7.16,2.42-8.14,2.8-12,1.06-10.56-7.92-24.68-16.08-24-6.13.52-12.17,9.42-13.53,21.45"/><path class="cls-5" d="M474.55,233a39.79,39.79,0,0,1,7.15,13.53c4.07,13.63-.62,25.37-2.3,29.1"/><path class="cls-5" d="M481.19,230.46a36.63,36.63,0,0,1,2,14.56"/><path class="cls-5" d="M460,275.91a21.42,21.42,0,0,0,5.61-2.81,21.83,21.83,0,0,0,5.37-5.36"/><path class="cls-5" d="M465.36,243.74a11.3,11.3,0,0,1,3.06,4.34c1.12,2.87.63,5.38,0,8.43a33.49,33.49,0,0,1-5.87,12.76,41.39,41.39,0,0,1-3.06,3.83"/><path class="cls-5" d="M473,242l-5.11-4.08a4.19,4.19,0,0,0,3.58-1.54,4.14,4.14,0,0,0,.51-3.82"/></g><g id="Gesichts_onzin" data-name="Gesichts onzin"><path class="cls-9" d="M215.23,142.35c2.75,3.46,8.73,4.73,13.45,5.73,8.22,1.74,15.46.59,21.78-.85,16.09-3.66,18.06-10.15,30.81-14.81,5.22-1.91,8.13-2,50.22,1,29.45,2.12,31,2.38,34,3.24,10.26,2.88,26.05,7.32,41,19.74,6,5,10.33,10,18,10.72,6.56.63,13.63-2,17-5.44,11.51-11.71-.41-52.11-22.46-75.24C374.58,39.73,275,48.43,235.32,93.1,223.8,106.07,207.74,132.86,215.23,142.35Z"/><path class="cls-9" d="M254.47,394.29A22,22,0,0,1,247,384.18c-2.49-7.15-1.13-16.43,2.22-17.33,3-.81,7.83,5,11.89,13.66a59.75,59.75,0,0,0,11.66,15.67c9.58,9.16,20.78,11.8,28.67,13.67,14.06,3.31,25.32,2,33.67,1,12.62-1.56,21.6-5.1,32.66-9.34A199.94,199.94,0,0,0,392.51,390c7.92-4.37,13-7.19,18.89-12.45a134.27,134.27,0,0,0,11.23-11.69c3.26-3.66,7.05-7.91,10.1-12.09,10.08-13.79,12.74-27.65,13-27.55s-2,7.32-5.44,16.17c-1.77,4.55-3.26,7.79-3.68,8.69,0,0-1.25,2.7-2.56,5.24-5.19,10-15.48,22.62-15.48,22.62-9.84,12-15.07,18.43-24.34,25A139.18,139.18,0,0,1,382,411.46,186.33,186.33,0,0,1,363,420.85c-7.18,3-12,5.07-19,6.77-5.56,1.35-11.79,2.87-20.11,2.5A63.22,63.22,0,0,1,301.79,425a109.81,109.81,0,0,1-12.61-6.56c-3.25-1.84-6.31-3.78-12.45-7.67-11.12-7-14.31-9.4-17.5-12.11C257.17,396.86,255.54,395.33,254.47,394.29Z"/></g><g id="Haar_rechts" data-name="Haar rechts"><path class="cls-8" d="M466.57,169.91c1.59,5.71,2.21,7.69,3.89,10.05a53.68,53.68,0,0,1,4.05,5.55c1.58,2.65,1.42,3.16,2.72,4.89a16.26,16.26,0,0,0,5.5,4.67,15.64,15.64,0,0,0,6,1.55c2,.17,6.18.53,9.78-1.77,1.29-.83,2.36-1.9,4.67-3.34,1.13-.7.9-.46,2.66-1.51,1.09-.65,1.51-.94,1.66-.81s-.49,1.58-1.21,2.54c-1.17,1.58-2.21,2.08-2.06,2.45s2.37,0,2.84-.06a28.61,28.61,0,0,0,4.44-1.55c2.9-1.09,3.29-1,3.39-.89s-.41,1-.83,1.39c-1,1-2.06,1.21-4.84,1.83s-4.32,1-5.33,1.72c-.8.59-.7.77-1.44,1.23-1.31.8-2.55.8-4.67.83-5.07.07-3.17.14-5.78.11-1.28,0-3,0-5.05-.11a27.19,27.19,0,0,0,2.83,3.39c2.23,2.26,3.25,2.49,3.61,2.55.65.11.75,0,2.67-.33,2.27-.34,1.93-.1,4.72-.44a18.11,18.11,0,0,1,4.22,0c.2,0,.55.07.56.16s-1.66.43-2.95.61a17.1,17.1,0,0,0-4.55.89c-.77.32-1.43.6-1.45,1,0,.91,3.14,1.7,3.89,1.89,2.45.62,5.13,1.29,8,.28a31,31,0,0,0,5-2.28c.33-.19,1.52-.91,1.66-.72s-1,1.08-.77,1.5,2.15,0,2.61-.11c1.59-.41,1.8-.81,3.16-1.11s2.84-.32,3,0c0,.15-.17.29-1,1-1.7,1.42-1.84,1.7-1.83,1.94,0,.55.8.93,1.28,1.17a12,12,0,0,0,3.66.83c.28,0,.62.06.67.22s-.82.79-1.22,1a13.65,13.65,0,0,1-3.11,1.17c-1.08.27-1.66.32-1.67.5s.43.29,2,.94c.74.31.88.38.89.5,0,.32-.93.53-2.61,1.17a10.85,10.85,0,0,0-2.78,1.28,9.41,9.41,0,0,0-1.89,2.67c-1.07,1.82-1,2.16-.89,2.33.27.5,1.15.5,2.06.5,2.13,0,2.84-.64,4.72-.78a5.5,5.5,0,0,1,3.22.45c0,.22-3.4-.43-4.77,1.33-.43.54-.73,1.41-.45,1.72s1.34,0,1.33-.05a8,8,0,0,0-4.11,1.33c-.27.19-1.58,1.1-1.39,1.83.14.49.88.68,1.06.72,1.16.3,1.74-.38,4.56-1.38a16.86,16.86,0,0,1,3.11-.56c.34,0,.7-.08.83.11.33.47-.95,1.89-1.06,2-1.24,1.37-2.28,1.51-3,2.89-.26.51-.22.68-.16.78.24.39,1.3,0,2.83.39.28.07.47.14.5.27.09.34-.73.88-1.39,1.17-1.74.78-2.7-.05-3.94.78a2,2,0,0,0-1,1.33c-.06.52.24.81,1.11,2.34.71,1.25.81,1.59.67,1.83s-.61.31-1.06.33c-1.16.07-1.69-.44-2.06-.16s.08,1.07-.27,1.44c-.67.7-3.47-.91-4.11-1.28-2.47-1.41-3.46-2.61-4.17-2.22-.42.23-.53.9-.67,1.78-.21,1.35.13,1.92-.16,2.16-.46.38-1.79-.55-3.67-1.88-4.44-3.16-4.58-3.3-5.33-3.67a10.93,10.93,0,0,0-5.39-1.5c-1.71,0-2.36.6-3.28.11-1.27-.68-1-2.22-2-3.89C486,231,484,230.36,482,229.73a13.76,13.76,0,0,0-9.61.34,12.61,12.61,0,0,0-6.28,5.61,14.67,14.67,0,0,0-1.16,3.67c-.89,3.81-.09,4.32-.89,6.88-.62,2-1,1.45-3.06,5.62-1.21,2.48-1.6,3.75-2.22,3.72-.82,0-1.33-2.31-1.56-3.34a23.9,23.9,0,0,1-.05-9.27c.57-3.48.94-3.27,1.78-7.56a69.23,69.23,0,0,0,1.05-7.67,48,48,0,0,0,.11-8.22c0-.56-.1-1.15-.89-6-.82-5.16-1.25-7.78-1.72-10a40.94,40.94,0,0,0-1.83-6.94,33,33,0,0,0-5-7.89c-2.91-3.79-3.74-3.65-5.22-6.28a27.3,27.3,0,0,1-2.39-6.72c-1.18-4.29-.68-4.16-2-9.83-.78-3.33-1.18-4.35-1-6.34a8.67,8.67,0,0,1,2.05-5.33A8,8,0,0,1,446,152c.9-.28,10.36-3.11,15.55,1.89C462.86,155.14,462.6,155.66,466.57,169.91Z"/></g><g id="znor"><path class="cls-8" d="M261.87,332.93c2.47-1.58-.48-6.67,2-12.94a16.71,16.71,0,0,1,5.79-7.14c1.4-1,4-2.36,13.62-2.73s9.52.92,13.95,0c2-.41,9.62-2,13.62-8.51.6-1,4.08-6.64,1.7-11.23-1.74-3.36-5.69-4.36-8.85-5.11-7.76-1.84-10.6.84-22.81,1.7-9.34.66-10.83-.69-15.32,1.36-5.27,2.41-8.32,6.6-10.21,9.2a30,30,0,0,0-5.79,13.61,27.31,27.31,0,0,0,0,7.83c.45,3,1.49,9.92,6.81,12.94C257.36,332.44,260.15,334,261.87,332.93Z"/><path class="cls-8" d="M322.12,308.76c-2.47-2.8-4.81-5.49-6.12-9.53-.75-2.29-1.21-3.73-.68-5.45.8-2.61,3.34-4,6.46-5.79,2.5-1.4,3.75-2.1,5.45-2.38,4.21-.69,7.78,1.54,12.26,4.43,6.36,4.1,5.36,5.33,9.53,7.15,3,1.31,6.09,1.66,12.25,2.38,5.82.67,6.07.2,8.17,1,3.09,1.2,3.2,2.46,8.85,7.15,5.32,4.41,6.57,4.4,7.15,6.47,1,3.66-1.69,7.8-3.06,9.87-1.94,2.94-3.05,3-4.43,5.79-1.84,3.76-1.34,6.74-2,6.81-1,.09-1.27-5.75-5.1-12.26-1.65-2.8-2.92-4.95-5.45-6.47-3.47-2.08-5.67-.78-12.94-1.36s-6.32-2-12.93-2.38-9.53,1-13.28-1.36C325.17,312.2,324.16,311.05,322.12,308.76Z"/></g><g id="Ogen"><path class="cls-5" d="M233.61,200.85a18.1,18.1,0,0,1,5.11-8.17c3-2.74,6.2-3.59,9.36-4.43a35.6,35.6,0,0,1,13.62-.85c4.74.58,7.1,1.75,14,4.25,4,1.46,9.79,3.48,17,5.62"/><path class="cls-5" d="M290.81,192.68c-4.37-5.23-8.19-6.57-10.9-6.81-1.87-.17-3,.2-9.87,1-2.86.34-5.22.58-6.82.73"/><path class="cls-5" d="M240.59,195.4a26.92,26.92,0,0,0,7.32,2.72c4.43.94,8.09.52,13.62-.17,4.85-.6,5.46-1.09,10-1.53a74.92,74.92,0,0,1,8.51-.34"/><path class="cls-7" d="M244.51,191.14a5.6,5.6,0,0,0,0,4.09c.92,2,3.18,2.69,4.72,3.13,1.26.37,2.71.57,6.86.19,3.53-.33,3.86-.61,7.82-1.11,4.79-.61,5.95-.4,8.51-1.36,1.28-.48,4.5-1.69,4.43-3.06,0-.79-1.14-1.37-4.28-2.51-4.47-1.63-6.71-2.45-9.35-2.89-4-.66-2.74.21-11.93-.05-1.48,0-3.55-.12-5.17,1.22A5.55,5.55,0,0,0,244.51,191.14Z"/><path class="cls-10" d="M249.27,190.29a15,15,0,0,0,.34,5.28,7.17,7.17,0,0,0,3.07,2.55c.68.29,1.6.52,4.61.3a60.46,60.46,0,0,0,6.62-1c4.23-.72,5-.81,5.7-1.65a4.82,4.82,0,0,0,.77-4,5,5,0,0,0-4.26-3.57,42.11,42.11,0,0,0-8.68-1.14,43.69,43.69,0,0,0-7.58.48A13.77,13.77,0,0,0,249.27,190.29Z"/><path class="cls-11" d="M255.07,189.51c-.11,1.2,1,2.11,1.5,2.5a5.59,5.59,0,0,0,3.5,1.17,4.14,4.14,0,0,0,2.83-.67,3.44,3.44,0,0,0,1.33-2.83,2.82,2.82,0,0,0-1-2c-.47-.36-.89-.38-3-.33-3.19.07-3.77.16-4.33.66A2.41,2.41,0,0,0,255.07,189.51Z"/><path class="cls-5" d="M356.4,196c1.19-.72,2.94-1.71,5.11-2.78,2.84-1.4,4.29-2.1,5.89-2.33,2.16-.32,3.34.26,7.22,1.44,0,0,4.1,1.24,11,2.78,5.28,1.17,4.86.65,9.23,1.66a55.15,55.15,0,0,1,11.88,4c4.13,2,6.8,3.31,8.89,6.34a15.1,15.1,0,0,1,2.45,6.22"/><path class="cls-5" d="M359.51,202.07c1-.65,2.44-1.59,4.22-2.67a39.94,39.94,0,0,1,5.89-3.22,18.59,18.59,0,0,1,8.34-.89c2.41.17,5.16,1,10.55,2.78,4.65,1.5,7,2.25,10.11,3.55,2.65,1.11,2.37,1.14,7.89,3.56,3.37,1.48,6.28,2.7,7,3l1.34.55"/><path class="cls-7" d="M365.81,198.16a12.74,12.74,0,0,0,3.81,4.91c1.82,1.39,3.48,1.82,6.45,2.55a42,42,0,0,0,10.22,1.11c3.66,0,5.53,0,7.56-1a12.19,12.19,0,0,0,4.77-4.11c-2.85-1.23-5.32-2.13-7.22-2.77-1.53-.52-3.31-1-6.87-2a41.61,41.61,0,0,0-5.36-1.37,19.32,19.32,0,0,0-6.16-.1,17.72,17.72,0,0,0-4.57,1.37A17.23,17.23,0,0,0,365.81,198.16Z"/><path class="cls-5" d="M367,202.62a51,51,0,0,0,12,3.59c4.95.81,7.88.52,17.62,1,3.95.18,7.17.4,9.23.55"/><path class="cls-10" d="M370,198.51a7.27,7.27,0,0,0,1.52,3.5,8,8,0,0,0,3.34,2.25,16.21,16.21,0,0,0,6.75,1.34,14.48,14.48,0,0,0,5.91-1.25,8.23,8.23,0,0,0,2.84-1.92,7.53,7.53,0,0,0,1.75-3.33c-.81-.23-2.05-.58-3.56-1-4.8-1.45-5.75-2-8.4-2.47a41.81,41.81,0,0,0-5.15-.41c-2.64-.13-3.57,0-4.24.62A3.49,3.49,0,0,0,370,198.51Z"/><path class="cls-11" d="M374.07,196c-.49.83.27,2,.33,2.11.16.24.66.93,3.11,1.66a10,10,0,0,0,4.22.67c.9-.09,2.8-.28,3.23-1.44a2,2,0,0,0-.23-1.56c-.35-.62-1-.93-3.68-1.59a14.21,14.21,0,0,0-5-.62C374.59,195.33,374.23,195.68,374.07,196Z"/></g><g id="Wenkies"><path class="cls-8" d="M226.07,183c1.5.74,3.43-2.69,7.33-4.5,2.24-1,3.2-.65,11.33-.5,7.63.14,6.88-.2,14.5,0,5.22.14,7.83.21,10.5.5,3.81.42,6.52,1,12.17,1.5,6.08.57,7.5.35,8.33-.66,1.18-1.43.75-3.87.17-7.17-.46-2.6-.82-2.42-1.17-4.67-.61-4,.52-5.08-.5-7.66-.9-2.31-2.74-3.9-3.16-3.67s.4,1.3,0,2.5c-.49,1.45-2.34,2-4.5,2.67-5.05,1.44-7.58,2.16-9,2.16-4,0-4.58-1.41-10.5-3-3.51-.94-7.38-2-12-1.5s-7.7,2.23-12.34,4.84c-4.36,2.45-7.93,4.51-10.33,8.66a13.46,13.46,0,0,0-1.84,7.16C225.11,181,225.17,182.57,226.07,183Z"/><path class="cls-8" d="M349.23,176.35c-.26-2.13,1.72-4,3.5-5.67a12.16,12.16,0,0,1,6.17-3.5c1.16-.21,2-.15,8.17,1.17,4.39.93,3.89.89,5.33,1.16,5.14,1,8.42,1.62,12.33.84,3-.61,2.81-1.33,5.5-1.67,1.91-.24,4.25-.16,9.17,1.5a68.6,68.6,0,0,1,12,5.5,79.55,79.55,0,0,1,10.17,6.83c5.67,4.47,6.49,6.35,6.5,8a6,6,0,0,1-2,4.34c-1.54,1.32-3.54,1.48-5.67,1.33-5.3-.39-7.38-2.44-13.67-4.83a63.72,63.72,0,0,0-13.66-3.5c-2.59-.39-4.64-.55-8.5-.84-6.35-.47-6.84-.21-11.34-.66a55,55,0,0,1-10.5-1.84,37.5,37.5,0,0,1-6.83-2.66C352.07,179.88,349.51,178.56,349.23,176.35Z"/><path class="cls-10" d="M290.9,159.18a20.4,20.4,0,0,1,.33,4.5c-.07,1.87-.35,2.24-.16,3.5.26,1.82,1,2.29,1.66,4.17a10.92,10.92,0,0,1,.5,4.5"/><path class="cls-10" d="M293.57,161a16,16,0,0,0,0,3.67c.28,2.42.91,2.92,1.5,6.33a20,20,0,0,1,.33,3.67,18.26,18.26,0,0,1-.17,2.33"/><path class="cls-10" d="M296.73,165a32.74,32.74,0,0,0,1,11.67"/><path class="cls-10" d="M345.73,162.68a19.34,19.34,0,0,1,1.34,6.67,19.56,19.56,0,0,1-.34,4"/><path class="cls-10" d="M354.57,161.35c-1,1.4-2,3-3,4.66q-1.32,2.25-2.34,4.34"/></g><g id="Neus"><path class="cls-11" d="M292.51,276.76c1.35.15,2.06-1.61,4.08-1.7s3.58,1.6,4.43,2.38c3.58,3.3,9.2,3.11,20.42,2.72a59.59,59.59,0,0,0,12.26-1.7c5.23-1.1,6.86-1.94,7.49-3.4.8-1.87-.07-4.63-1.7-6.13-4.2-3.85-11.29,2.57-23.15,3.4-15.18,1.07-24.57-7.94-27.24-4.42C287.29,270.3,290.09,276.49,292.51,276.76Z"/><path class="cls-3" d="M285.7,257.36a12.77,12.77,0,0,0-3.07,5.78A14.24,14.24,0,0,0,283,270c.77,3.47,1.34,6.05,3.4,6.81a4.32,4.32,0,0,0,4.77-1.36c1.24-1.92-1-4,.34-6.47.71-1.3,2.24-2.32,3.4-2s1.66,1.75,2,2.72a71.11,71.11,0,0,0,4.77,8.51c1.52,2.48,5.85,4.8,18.72,3.41a10.85,10.85,0,0,1,2-4.77c1.82-2.34,3.49-2.27,10.9-5.45,3.69-1.58,5-2.35,5.79-1.7,1.08.93-.82,3.29,0,6.81.48,2.1,2,4.89,4.42,5.45,2.1.48,4-.91,5.11-1.71,3.93-2.85,6.1-8,6.13-12.93,0-3.73-1.19-6.3-3.41-10.9a65.48,65.48,0,0,0-8.85-13.61"/><path class="cls-5" d="M294.07,224.51c1.89-3.29,3.79-6.73,5.66-10.33q2.31-4.43,4.34-8.67"/><path class="cls-5" d="M294.4,208.18a16.84,16.84,0,0,0,7-5.33,14.46,14.46,0,0,0,2.67-5.34,14.69,14.69,0,0,0-1.34-10.33,14.31,14.31,0,0,0-8.66-6.67"/><path class="cls-5" d="M345.07,189.85a9.17,9.17,0,0,0-4.67,4.33c-1.52,3.32-.1,6.77,1,9.33,2.21,5.15,5,6.8,8,10.67a36.15,36.15,0,0,1,6.67,14.33"/><path class="cls-5" d="M344.07,228.18a97.27,97.27,0,0,0-7.34-20.67c-2.38-4.84-4.45-8-4-12.66.59-6.13,5-10.4,5.67-11a18.48,18.48,0,0,1,6.67-4"/><path class="cls-5" d="M364.4,223.85a60,60,0,0,0,12.67,9.33,59.27,59.27,0,0,0,6.33,3"/><path class="cls-5" d="M258.4,291.18c2-3.57,4.25-7.25,6.67-11,4.1-6.36,8.26-12.13,12.33-17.33"/><path class="cls-5" d="M361.4,268.51a85.88,85.88,0,0,1,14,32"/><path class="cls-5" d="M372.73,222.18a85.72,85.72,0,0,0,38.67,8"/><path class="cls-5" d="M228.73,227.18a40.72,40.72,0,0,1,13.67-7.67c4.88-1.57,7.89-1.47,15.33-2.66a152.07,152.07,0,0,0,16.67-3.67"/><path class="cls-5" d="M232.4,203.51l-.87-.16a36.76,36.76,0,0,0-13.13.16"/><path class="cls-5" d="M233.73,198.85a19.17,19.17,0,0,1-11-1"/><path class="cls-5" d="M232.07,205.51l-7.67,2.67"/><path class="cls-5" d="M420.07,212.85a59.72,59.72,0,0,1,9.66,0c1.9.15,3.69.38,5.34.66"/><path class="cls-5" d="M422.4,218.18l5,1"/><path class="cls-5" d="M413.07,222.51a10.8,10.8,0,0,1,6.33,3.34,10.33,10.33,0,0,1,2,3.33"/></g><g id="Mond"><path class="cls-11" d="M269.7,329.36a8.9,8.9,0,0,1,2-4.83c2.2-2.65,5.5-3.23,7.06-3.51,14-2.56,13.39-4.93,23-5.28,7.06-.26,6.24,1.07,22.81,2.89,12.07,1.33,12.21.6,17.36,1.88,9.77,2.42,21.16,8,20.59,12.25-.16,1.24-1.29,2-2.38,2.72-11.36,7.5-17,11.34-18.38,11.75-14.44,4.26-26.58,3-35.41,2-3.76-.42-10.78-2.7-24.85-7.15-2.54-.8-7.28-2.37-10-6.59A9.77,9.77,0,0,1,269.7,329.36Z"/><path class="cls-7" d="M282.55,331.31a11.86,11.86,0,0,1,1.66-1.66c1.14-.93,1.71-1.4,2.42-1.4,1.17,0,2.15,1.14,2.81,1.91s1,1.59,1.41,1.54.31-1.12,1-1.66,2-.15,4.59.64a12,12,0,0,0,2.69.63,10.25,10.25,0,0,0,1.78,0c3-.16,3-.47,4.22-.38,1.93.15,2,1,3.57.89,1.39-.07,1.39-.71,3.06-1a8,8,0,0,1,4.47.51c1.34.6,1.32,1.11,2.3,1.28,1.31.23,1.72-.62,3.57-1.15,2.26-.64,2.73.31,5.75-.25,1.4-.27,1.25-.46,2.94-.77,1.86-.34,3.3-.59,4.59.13,1,.56.73,1.05,1.66,1.53.77.4,1.54.37,5.23-.38,2.36-.48,2.92-.65,3.45-.26.29.21.54.57.89,2.94a26.86,26.86,0,0,1,.39,3.44,22,22,0,0,1-3.83,11.11c-3.14,3.92-9.38,3.75-34.85-.38-17.94-2.91-26.67-4.75-27.58-9.19C280.39,337.53,281,333.35,282.55,331.31Z"/><path class="cls-7" d="M281.78,325.7c.09.7,1.48,1.38,2.56,1.4,2,0,3.24-2.28,4.47-1.79.27.12.21.24,1.14,1.54a12,12,0,0,0,1.66,2c.42.32.78.45,3.58.76,3.14.36,3.76.33,4.21-.12.62-.63.52-1.67.77-1.66s.17,1,.76,1.78a3.63,3.63,0,0,0,2.56,1c5.2.73,5.27,1.28,6.89.89a6.25,6.25,0,0,0,3.19-1.79l.23-.29c.51-.71.54-1.24.66-1.24s0,1.27.64,2.17c.49.72,1.32,1,2.81,1.28a34.13,34.13,0,0,0,5.24.63c3.57.13,5.37.18,6-.38,1.68-1.5.82-4.82,1.27-4.85s.94,1.76,1.15,3.45c.12,1,0,1.19.26,1.53.42.6,1.26.68,4.34.51,3.92-.21,4.44-.45,4.85-.89s.65-1.32.89-2.81a16.18,16.18,0,0,0,.13-3.83c-.22-1.86-6.13-8.52-16.72-9.58a32.43,32.43,0,0,0-10.17.78C302.31,318.78,281.45,322.86,281.78,325.7Z"/><path class="cls-5" d="M298.81,331.54c-.12,2.89-.23,5.78-.35,8.68"/><path class="cls-5" d="M309,332v9.71"/><path class="cls-5" d="M318.78,332.67q.35,5,.68,10"/><path class="cls-5" d="M327.57,333q.35,2.89.68,5.79"/><path class="cls-5" d="M338.12,332.36v8"/><path class="cls-5" d="M330.55,327.34c.06-3.81.11-7.61.17-11.41"/><path class="cls-5" d="M314.43,328.68v-8.52"/><path class="cls-5" d="M300.32,328.92a27.47,27.47,0,0,1-.85-4.6,27.82,27.82,0,0,1,.17-7"/><path class="cls-5" d="M288.58,325.4l-.85-9.36"/><path class="cls-12" d="M270,330.21a31.31,31.31,0,0,0,4.08,10.89,27.28,27.28,0,0,0,8.86,9.36c4.7,3,9.13,3.54,13.27,4.09s4.17,0,12.43.17c9.36.16,9.74.82,15.32.51,2.41-.14,5.75-.66,12.42-1.7,10.29-1.61,11.86-2.24,12.94-2.73a29.65,29.65,0,0,0,9.7-7.32,30.48,30.48,0,0,0,5.45-8.85,4.62,4.62,0,0,0-1.88-3.23,4.42,4.42,0,0,0-2.72-.68c-1.88.07-3.17,1.12-4.42,2a56.55,56.55,0,0,1-6.47,3.92,25.64,25.64,0,0,1-8,2.55c-.94.14-3.7.09-9.19,0-4.22-.08-6-.15-8.34.34-.55.11-2.07.45-3.75.85-2.06.49-2.84.72-3.4.85-2.73.63-4.23-.13-8.51-.68s-3.91.09-8.51-.51a28.94,28.94,0,0,1-7.49-1.7,24.62,24.62,0,0,1-5.11-2.73,24.35,24.35,0,0,1-6.47-6.8,12.52,12.52,0,0,0-4.08-.52A12.82,12.82,0,0,0,270,330.21Z"/><path class="cls-13" d="M271.06,325.61a23.06,23.06,0,0,1,4.43-4.42c.64-.49,2.95-2.09,9.36-4.43a49.86,49.86,0,0,1,9.53-2.72,34.57,34.57,0,0,1,12.25-.34c4.55.77,5.26,2,8.86,1.87s4.09-1.39,7.66-2c4.08-.76,7.28.15,13.1,1.87a73.09,73.09,0,0,1,12.09,4.76,71.56,71.56,0,0,1,9.7,6.13c2.39,1.77,3.45,2.78,3.23,3.24-.14.3-.86.37-4.59-.34a54.89,54.89,0,0,1-6.81-1.54c-5.34-1.74-5.49-3.41-9.7-4.93a23.6,23.6,0,0,0-11.07-1,66,66,0,0,0-11.74,2.55,8.2,8.2,0,0,1-2.9.51,10.2,10.2,0,0,1-5.27-1.87c-2.66-1.55-5-2-8.68-2.73-3.1-.6-7.47-1.45-11.92.35-2,.82-2.25,1.46-6.47,3.4-2.74,1.26-3.75,1.79-5.1,2A13,13,0,0,1,271.06,325.61Z"/></g><g id="Detaill"><path class="cls-5" d="M315.85,153.07a19.68,19.68,0,0,1,5.11-5.56,22.62,22.62,0,0,1,11.77-4,28.32,28.32,0,0,1,5.34,0"/><path class="cls-5" d="M294.07,134.4a48.28,48.28,0,0,1,16.22-.89c6.91.84,10.2,2.87,17.11,2.89a36.94,36.94,0,0,0,12-2"/><path class="cls-5" d="M274.07,123.73c20.49-4.75,32.15-2.51,39.11.67,3.48,1.59,9.88,5.29,18.22,4.45,4.27-.44,5.5-1.7,10.67-1.78,1.83,0,4.38.09,14,2.44,3.11.76,7.37,1.86,12.44,3.34"/><path class="cls-5" d="M261.62,112.62c19.52-3.8,33.85-1.92,43.56.67,9.09,2.43,14.45,5.57,25.33,5.56,8.87,0,11.15-2.1,23.56-1.78,6.95.18,14.59,1,17.11,1.33,4.62.53,8.49,1.1,11.33,1.56"/><path class="cls-5" d="M256.73,372.18c.82,1.36,2,3.41,3.45,5.94,2.47,4.41,2.7,5.15,3.89,7.11a48,48,0,0,0,7.44,9.39,51.86,51.86,0,0,0,8.95,7.23c5.49,3.44,10.12,4.72,17.94,6.88a74.65,74.65,0,0,0,13.43,2.86c5.25.55,9.05.29,15.63-.19a141.37,141.37,0,0,0,17.66-2.22c7.69-1.49,13.27-2.62,19.34-6.17,1.49-.87,3.14-2.08,5.84-4,3.75-2.64,7-5,9.55-7.07,1.83-1.43,3.35-2.66,4.44-3.56"/><path class="cls-5" d="M358.4,208.68a54.57,54.57,0,0,0,11.83,6.67c5.65,2.29,10.36,3.07,17,4.16,5.09.84,9.35,1.27,12.34,1.5"/><path class="cls-5" d="M240.07,214.18a23.15,23.15,0,0,0-10.5,5.17,22.31,22.31,0,0,0-3.84,4.33"/><path class="cls-5" d="M234.07,210.85a22.82,22.82,0,0,0-6.84,2.66,23.31,23.31,0,0,0-4,3"/><path class="cls-5" d="M238.4,204a23.55,23.55,0,0,0,12.33,5.5c5.52.63,10.37-1,16-3a61.86,61.86,0,0,0,6.17-2.5"/><path class="cls-5" d="M374.07,207a40.37,40.37,0,0,0,14,7.67,43.54,43.54,0,0,0,15.5,1.67,52.66,52.66,0,0,0,9.5-1.34"/><path class="cls-5" d="M408.07,220.85a86.48,86.48,0,0,0,8.83-2.34c1.33-.43,2.61-.87,3.83-1.33"/><path class="cls-5" d="M283.73,359.51c8.6,4.62,15,4.81,19.34,4,4.68-.87,7.88-3,14-2.5,4.15.37,5.1,1.59,9.16,2.34,3.56.65,8.89.82,16-1.84"/></g><g id="Petke"><path class="cls-6" d="M212.85,105.87c-1.07-1.08-.59-3.38,4.76-16,5.92-14,8.87-20.92,12.26-26.9,10-17.7,12.85-15.18,16.68-25.53.93-2.5,2.81-8.2,8.17-12.59a24.92,24.92,0,0,1,6.47-3.75c11.18-4.92,11.85-8.89,21.79-14,6-3,14.89-7.59,25.53-6.46,4.16.43,7.74,1.65,16,2,2.31.11,4.86.07,9.87,0,14.51-.22,14.78-.71,19.74-.34,4.58.34,8.27,1.13,15.66,2.72a140.93,140.93,0,0,1,14.64,3.75c5.85,1.88,8.31,3.25,15.66,6.46,17.13,7.5,17,5.9,24.85,10.22,5,2.77,11.43,6.34,17.7,12.93,4.43,4.65,3.88,5.63,12.6,18.39,9.65,14.12,10.36,13,12.94,18.72,4,9,1.79,10.61,6.81,21.45,2.38,5.14,4,7.23,5.78,12.93a51.41,51.41,0,0,1,2.39,12.94c.33,7.36-1.49,8.48-3.07,19.06-1.89,12.7.53,12.5-1.7,23.15-1,4.61-2.15,8.12-2,14,.1,6,2.05,9.51,1.36,9.87-1.93,1-17.36-24.85-17.36-24.85-12.4-20.79-43.85-60.51-90.56-78-37.16-13.88-92.84-17-129.36,6.47C233.67,96.93,216.35,109.37,212.85,105.87Z"/><path class="cls-11" d="M215.23,140.93c-2.1.48-4.75,1.07-7.83,1.7-6.06,1.25-7.44,1.38-9.19,1-1-.2-4.74-1-6.77-4-2.45-3.66-.89-8.38,0-11,1.77-5.38,5-9.14,10.55-14.3a152.85,152.85,0,0,1,17.37-14,170.09,170.09,0,0,1,23.83-14,162.84,162.84,0,0,1,31.31-11.23,158.88,158.88,0,0,1,24.86-4.09,145.38,145.38,0,0,1,35.06,1.37c14.76,2.5,25.13,6.81,35.74,11.23a216.12,216.12,0,0,1,31.32,16,205,205,0,0,1,25.88,19.4c6.62,5.73,3.37,3.58,17.7,17,11.29,10.6,16.79,16.27,20.08,23.49.95,2.08,1.91,4.73,3.83,10,2.45,6.77,5.65,16.32,5,16.59s-2.62-7.19-9.57-14.55c-.72-.77-2-2.06-8.81-7.41s-11.49-8.72-13.41-10.15c-8.22-6.12-12.53-11-19.23-17.67A313.55,313.55,0,0,0,392.59,110C368,91.71,342.12,86.68,331.66,84.76c-11.65-2.14-25.51-4.69-43.58-1.7-25.86,4.27-41.46,16.75-57.53,29.62-7.9,6.32-15.12,13.54-15.66,23.14A21,21,0,0,0,215.23,140.93Z"/><path class="cls-6" d="M201.27,143.31c.93-1.24-2.47-3.47-3.06-7.83-.51-3.75,1.29-7.37,6.47-13.61a98.49,98.49,0,0,1,16.34-16c6.55-4.71,15.66-10.3,30.64-16.34C264.8,84.22,275.22,80,290.12,78c19.89-2.75,35.43,0,44.26,1.7a149.64,149.64,0,0,1,42.21,14.64c12.23,6.5,19.79,12.78,32.68,23.49,20.8,17.28,31.2,25.92,37.11,35.75a42.27,42.27,0,0,0,10.21,11.23c.61.46,8.94,6.76,11.24,4.77.31-.28,1.41-1.49-1-7.49-3.83-9.46-10.07-15.17-15.49-20.26-15.13-14.18-11.14-11.52-19.41-18.72a265,265,0,0,0-22.64-17.87c-13.45-9.43-31.22-21.91-57.53-29.28a158.36,158.36,0,0,0-31.32-5.45,154.32,154.32,0,0,0-44.25,3.07C259.24,77.32,247.4,83.14,238,87.82c-11.87,5.94-19,11.31-26.21,16.69a88.85,88.85,0,0,0-18.51,19.84,17,17,0,0,0-3,8.43,10.56,10.56,0,0,0,1.42,6.79C194.36,143.45,200.21,144.73,201.27,143.31Z"/><path class="cls-5" d="M253.7,82.38a129,129,0,0,1,2-17.62,102.5,102.5,0,0,1,6.38-22.47,89,89,0,0,1,14.05-23A82.75,82.75,0,0,1,293.78,4"/><path class="cls-5" d="M408.17,99c1.31-4.86,2.66-10.6,3.83-17.1.31-1.73,1-6.79,2.29-16.85,1.24-9.42,1.84-14.21,1-18.13a30.18,30.18,0,0,0-4.09-10"/><path class="cls-5" d="M372.17,9.1c2.56,1.82,6.55,4.76,11.23,8.68,8.2,6.87,9.57,9.26,15.83,13.53,5.88,4,10.81,7.28,17.36,6.9a20.12,20.12,0,0,0,8.94-2.81"/><path class="cls-5" d="M387.74,12.93c.2,3.06.4,6.11.61,9.17"/></g><g id="Text_op_petje" data-name="Text op petje"><path class="cls-7" d="M270.55,46.63h0c.05,0,3.55-1.58,5.53-2.21a51.86,51.86,0,0,1,10-1.62c4.92-.44,7.37-.66,8.34-.51,1.56.24,3.59.76,4.43-.25a2.91,2.91,0,0,0,.43-1.88,6.73,6.73,0,0,0-.86-2.29,10.65,10.65,0,0,1-.85-2.13c0-.75.47-1,1.88-2.72s1.17-1.8,2.12-2.81c1.27-1.34,2-1.58,2.05-2.39a2.39,2.39,0,0,0-1-1.78c-1.14-.9-2.47-.63-5.19-.43-3.23.24-2.47-.07-5.19.17a55.74,55.74,0,0,0-7.49,1.28s-1.85.4-5.95,1.79c-.62.2-2.45.83-2.39,1.36.05.35.93.28,1.36.93.32.48.12.93-.17,2.39-.14.75-.49,2.52-.59,3.83a6.2,6.2,0,0,1-.44,2,1,1,0,0,1-.07.17c-.57,1.23-2.17,1.46-3.58,2.64a6,6,0,0,0-1.17,1.32A8.36,8.36,0,0,0,270.55,46.63Z"/><path class="cls-7" d="M296.34,37.19c-1.25-.06-2.9-.09-4.85,0a45.32,45.32,0,0,0-6.64.68,42.48,42.48,0,0,0-6.47,1.7"/><path class="cls-7" d="M283.49,32.59a28,28,0,0,0-1.28,2.72c-.35.88-.63,1.71-.85,2.47"/><path class="cls-7" d="M288.85,31.91a11.56,11.56,0,0,0-1.45,2.89,11.14,11.14,0,0,0-.42,1.71"/><path class="cls-7" d="M294.81,31.48a6.8,6.8,0,0,0-1.28,2.64,6.71,6.71,0,0,0-.17,1.62"/><path class="cls-7" d="M280.34,31.06a49.93,49.93,0,0,1,5.44-1.53,57.88,57.88,0,0,1,9.11-1.2c1.92-.12,3.51-.16,4.6-.17"/><path class="cls-7" d="M313.53,24.76a43.25,43.25,0,0,0-1.79,4.51c-.22.67-.42,1.32-.59,2h2.55c.25-.63.51-1.25.76-1.87l2.39,2.21h2.47c.59-2.07,1.19-4.14,1.78-6.21l-2.64-.51-.76,2.29Z"/><path class="cls-7" d="M323.49,25.41l-2.81,5.65,8.08.42s3-5.53,2.64-5.53S323.49,25.41,323.49,25.41Z"/><line class="cls-7" x1="326.81" y1="27.4" x2="330.86" y2="27.4"/><line class="cls-7" x1="326.05" y1="29.19" x2="329.61" y2="29.19"/><path class="cls-7" d="M330.12,31.91h7.07a3.89,3.89,0,0,0,1.79-.85,3.42,3.42,0,0,0,1.27-2.81,3.29,3.29,0,0,0-3.4-2.38h-4.51Z"/><polygon class="cls-7" points="340.28 32.11 342.61 25.87 350.53 26.49 348.58 32.88 340.28 32.11"/><line class="cls-7" x1="345.07" y1="30.48" x2="349.15" y2="31.01"/><line class="cls-7" x1="345.87" y1="28.45" x2="349.8" y2="28.89"/><path class="cls-7" d="M351.77,26.49c-.06.1-2.16,6.58-2,6.58s3.44.22,3.44.22V31.57l3.35,2h2.2c0-.83,0-1.66,0-2.49a1.81,1.81,0,0,0,.86-.38A2.22,2.22,0,0,0,358.57,27Z"/><polygon class="cls-7" points="361.92 27.32 360.31 33.61 366.65 34.6 367.89 32.62 364.86 31.76 365.02 27.99 361.92 27.32"/><path class="cls-7" d="M368.11,34.35l7-6h1.72l4.22,7.6-3,.16a14.57,14.57,0,0,0-2-1.82c-.19.06-4,.73-4,.73Z"/><polygon class="cls-7" points="381.61 29.59 381.01 35.91 383.5 36.64 384.04 33.12 387.52 37.79 390.01 37.79 390.26 30.96 388 30.77 387.07 33.29 382.35 28.31 381.61 29.59"/><path class="cls-7" d="M392.88,31.63c-.41.86-.81,1.74-1.22,2.64s-.78,1.79-1.14,2.66l4.63,2.14a8,8,0,0,0,4.88-.35c.85-.38,1.12-.73,1.24-1,.35-.81,0-1.91-1-2.88Z"/><path class="cls-7" d="M309,35.43l1-1.82h2.07v2.84l3-2.84h2l1.28,3.19,2.35-3.19h4.06l-5.42,6.67-2.21.13a16.39,16.39,0,0,0-1.3-2.49c-.16.06-2.69,2.49-2.69,2.49h-3Z"/><path class="cls-7" d="M325.48,33.61s-2.75,4-2.75,4.15,1.37,2.65,1.37,2.65h7l2-5.84-.73-1Z"/><line class="cls-7" x1="328.57" y1="35.59" x2="332.72" y2="35.59"/><line class="cls-7" x1="327.83" y1="38.21" x2="331.82" y2="38.21"/><polygon class="cls-7" points="333.39 35.08 334.86 33.9 340.76 34.15 342.26 35.59 342.09 36.87 341.62 40.25 332.27 40.25 333.39 35.08"/><line class="cls-7" x1="337.92" y1="36.71" x2="342.26" y2="36.71"/><line class="cls-7" x1="337.92" y1="38.21" x2="341.9" y2="38.21"/><path class="cls-7" d="M343.16,34.47l-1.38,5.78,2.72.16.91-1.66,2,2.17,3.31.1c-.24-.7-.48-1.39-.73-2.08a2.32,2.32,0,0,0,.83-1.43,2.49,2.49,0,0,0-.79-2.08,3.59,3.59,0,0,0-2.24-.77A36.63,36.63,0,0,0,343.16,34.47Z"/><polygon class="cls-7" points="356.46 37.07 359.66 43.31 362.38 43.31 366.76 38.84 366.76 37.07 365.4 36.07 362.3 38.51 361.02 38.24 359.49 35.59 357.4 35.59 356.46 37.07"/><path class="cls-7" d="M368.11,37.4c-.23,1.09-.47,2.18-.7,3.28s-.43,2-.65,3.06l3.7.38.26-1.44L373,45h2.72l-.34-1.71a3.31,3.31,0,0,0,.85-1.19,3.24,3.24,0,0,0,0-2.76,3.29,3.29,0,0,0-2.47-1.66Z"/><polygon class="cls-7" points="378.76 39.02 377.32 45.02 379.91 45.53 382.21 39.45 381.01 38.42 378.76 39.02"/><path class="cls-7" d="M385.78,43.48l.68-3.23,1.28-.38,1.45,1.34c-.16,1.1-.31,2.2-.47,3.3a3.06,3.06,0,0,1-.38,1.4,3.29,3.29,0,0,1-2,1.45,4.49,4.49,0,0,1-4.21-1,4.58,4.58,0,0,1-1.11-1.53l1.11-1.1a2.48,2.48,0,0,0,1.49.72A2.6,2.6,0,0,0,385.78,43.48Z"/><polygon class="cls-5" points="334.12 28.45 333.68 29.37 336.17 29.65 336.87 28.45 334.12 28.45"/><polygon class="cls-7" points="354.42 29.19 356.72 30.05 356.72 28.89 354.42 29.19"/><polygon class="cls-7" points="374.08 32.19 376.19 32.19 375.42 30.48 374.08 32.19"/><polygon class="cls-7" points="395.15 34.6 394 35.59 395.96 36.93 397.95 36.71 397.95 35.46 395.15 34.6"/><polygon class="cls-7" points="345.87 36.29 346.3 37.4 347.83 37.07 345.87 36.29"/><polygon class="cls-7" points="371.66 39.45 371.66 40.7 373.83 40.7 373.83 39.87 371.66 39.45"/></g></g></svg>