<svg xmlns="http://www.w3.org/2000/svg" viewBox="0 0 150.66 67.55"><defs><style>.cls-1{fill:#d72104;}.cls-1,.cls-2{stroke:#000;stroke-miterlimit:10;stroke-width:3px;}.cls-2{fill:#fb7857;}.cls-3{fill:#d64321;}.cls-4{fill:#f2876c;}.cls-5{fill:#ffa95b;}</style></defs><g id="Layer_2" data-name="Layer 2"><g id="Producten"><path class="cls-1" d="M3.26,41.39a41.55,41.55,0,0,0,4.45,8.23c5.43,7.47,25.38,11.75,26.44,12A179.57,179.57,0,0,0,68.6,65.84c8.82.29,18.45.57,31.11-1.34,4.87-.73,12.06-2.71,26.44-6.66C136.5,55,141.5,53.35,145.26,48.5c1-1.32,4.58-5.88,3.78-10.66-1.49-9-17.35-13.12-23.55-14.67-31.63-7.89-49.72,5.08-91.34,5.11-2.57,0-13.11-3.13-26.89-1.78-2.25.23-4,.5-5.09.67a22.92,22.92,0,0,0-.24,9.92A26.44,26.44,0,0,0,3.26,41.39Z"/><path class="cls-2" d="M2.39,25.48C1.11,31,5.13,36.2,7.17,38.76,9.74,42,16.76,49.61,39.56,55.22a156.87,156.87,0,0,0,34.52,4.25c12.5.21,21.08-1.1,38.23-3.72s22.39-5,27.08-9c2.26-2,9.85-8.56,9-16.44-.83-7.58-9-12.24-18-17.33a78.87,78.87,0,0,0-18.89-7.56C106.89,4.15,97.91,2.05,81,1.59,55.07.87,38.2,4.75,33.72,5.84A81.86,81.86,0,0,0,10.15,16.73C5.79,19.64,3.19,22,2.39,25.48Z"/><path class="cls-3" d="M14.65,32.39a31.63,31.63,0,0,1,1.17-6.16,10.12,10.12,0,0,1,1.5-3.84,8.61,8.61,0,0,1,2.5-2.33c1.4-.86,2.85-1.18,6.33-1.33,2.87-.13,3.74,0,6.84,0,5.29,0,5.12-.4,7.66-.17a39.92,39.92,0,0,1,7.84,1.83,43.59,43.59,0,0,1,7.83,3,26.63,26.63,0,0,1,2.33,1.34c2.66,1.69,4.63,2.93,4.84,4.66.06.52,0,1.12-1.5,3.34a40.52,40.52,0,0,1-4.5,5.66c-2.52,2.57-3.89,4-6.17,5.34a22.49,22.49,0,0,1-7,2.66,31.66,31.66,0,0,1-14.83-.5c-4.55-1-7.17-1.65-9.84-4C19,41.29,14.77,37.6,14.65,32.39Z"/><path class="cls-3" d="M41.82,11.73c0-1.12,1.82-2,3.67-2.67a49,49,0,0,1,13.5-3c6.89-.62,10.34-.93,13.83-1,6.48-.13,11.35.22,12.83.33,3.87.3,7.14.82,13.67,1.84a55.41,55.41,0,0,1,12.5,3.16c4.62,1.82,5.18,2.86,5.17,3.5,0,1.11-1.79,2-4.17,2.84-5.8,2.14-9.54,2.32-15.5,3.33-5.68,1-6.72,1.55-13.33,2.5-2.59.37-3.89.56-5.67.67a53.43,53.43,0,0,1-12.83-1c-4.21-.8-9.42-3-19.84-7.5C44.17,14.09,41.78,13,41.82,11.73Z"/><path class="cls-3" d="M56.32,49.56c-.6-1.56,1-3.61,4.17-7.67,2.52-3.2,3.78-4.81,5.83-6.16a18.77,18.77,0,0,1,9-3c2.22-.18,4.48.27,9,1.16,2.29.46,5.19,1,9,2.17,3.14.93,5.93,2.07,11.5,4.33,6.52,2.66,8,3.48,8.17,4.84.17,1.65-1.76,3.14-2.67,3.83-2.11,1.62-4.37,2-7.67,2.33-5.94.62-9.46.64-9.46.64s-7.56,0-16.2.36a71.48,71.48,0,0,1-14.34-.33C58.24,51.44,56.77,50.72,56.32,49.56Z"/><path class="cls-3" d="M87,30.89c5,1.48,9.75,3.66,14.83,4.67,12.51,2.49,11.18,3.91,17.5,4.17,4.6.19,11.22.46,14.5-3.84a9.26,9.26,0,0,0,1.67-6.83c-.81-4.24-4.94-6.36-6.5-7.17-4.22-2.17-8.11-1.83-14.67-1.16-9.91,1-8.58,2.93-17,3.5a38.07,38.07,0,0,0-11,3c-.9.38-2.36,1-2.33,1.83C84,30,86.2,30.66,87,30.89Z"/><path class="cls-4" d="M58.49,30.56c1.42-.12,1.75,1.36,3.83,2.67,2.94,1.84,6.5,1.54,9,1.33a19.83,19.83,0,0,0,2.33-.33,3.22,3.22,0,0,1-.16,2c-.5,1.1-2,.68-3.67,2-.35.28-1.15.92-1,1.33.06.17.32.4,3.5.33,2,0,2.51-.14,3.33.17,1,.38.86.75,1.84,1.17a6.87,6.87,0,0,0,4.33,0c1.58-.37,1.44-.7,2.67-.84,1.45-.16,2,.25,3.16-.16.41-.15,1.5-.53,1.67-1.34s-.87-1.75-1.17-2c-.86-.71-1.42-.6-3.33-1.33-1.43-.55-2.5-1-2.5-1.5S83.81,33,84,32.89c1.49-.48,2.19.1,3-.5s.39-1,1-1.5c.84-.65,2-.06,3.66.17s1.73-.25,4.67-.33c3.67-.11,4.91.62,5.5-.17s0-2.56-1-3.5c-1.32-1.23-3.28-1-5.17-.83a41.19,41.19,0,0,0-5,1.16c-3.16.77-3.79.85-4.5.5-1.29-.62-.75-1.64-2.33-2.83-1-.75-1.54-.6-4.17-2-1-.54-1.37-.8-1.33-1s1-.21,2.5-.33a15.1,15.1,0,0,0,4.83-1.17,4.92,4.92,0,0,0,2.67-2c.4-.74.71-2,.17-2.5-.11-.11-.39-.33-1.84-.17-2.06.24-2.35.79-3.5.67a9.07,9.07,0,0,1-2.33-1c-1.8-.9-1.76-1.06-2.5-1.33-1.28-.47-1.52,0-4-.17s-3.25-.63-4,0-.36,1.11-1,1.5-1.36,0-3-.33a16.74,16.74,0,0,0-3.67-.17c-2,0-3,.06-3.33.67a1.69,1.69,0,0,0,.5,1.66c.58.62,1.16.44,3,1,1.58.49,1.89.85,2,1a2.15,2.15,0,0,1,.33,2c-.3.76-1,.73-2.5,1.67s-1.42,1.34-2.5,1.83a7.76,7.76,0,0,1-3.16.5c-3.06.22-3,.59-5,.67a31.84,31.84,0,0,1-5.67-.67c-3.68-.59-5.09-1-5.83-.16a1.76,1.76,0,0,0-.34,1.66c.38,1.08,2.13,1.46,3.17,1.5,1.26.05,2.07-.38,2.33,0s-.28.73-.16,1.5c0,.3.17.63,1,1.5a8.75,8.75,0,0,0,1.83,1.67,5.94,5.94,0,0,0,4.17,1,10.82,10.82,0,0,0,3-1.67C57.67,31,57.82,30.62,58.49,30.56Z"/><path class="cls-5" d="M25.93,23c1.6.49,2.48.16,4.11.28s1.86.58,4.45.84c1.59.15,2.18,0,2.44-.34s0-1.27-.22-1.72c-.76-1.27-2.41-1.54-4.56-1.89A20.69,20.69,0,0,0,28.32,20c-3.42,0-3.81.46-3.94.72a1.6,1.6,0,0,0,.22,1.45A2.24,2.24,0,0,0,25.93,23Z"/><path class="cls-5" d="M20.93,26.17c.62-.5,1.78-.48,4.06-.44,1.25,0,1.92.08,2.16.11a8.15,8.15,0,0,1,3.06.72c.5.26,1.32.68,1.28,1.11s-1.56.85-2.39,1a16.3,16.3,0,0,1-4.39.11c-1.44-.1-1.31-.19-2.39-.22-1.42,0-2,.12-2.22-.22S20.18,26.77,20.93,26.17Z"/><path class="cls-5" d="M18.88,32.73c.75-.7,1.64-.48,4.61-.34,1.85.09,2.45.06,4.44.23,2.59.21,3.08.4,3.17.72.14.49-.72,1.19-1.39,1.55-1,.52-1.54.33-3.56.39a34.27,34.27,0,0,0-4.94.34,2.91,2.91,0,0,1-2.11-.12,1.83,1.83,0,0,1-.89-1.33A1.89,1.89,0,0,1,18.88,32.73Z"/><path class="cls-5" d="M24,38.34a16,16,0,0,1,3.89-1.22A21.37,21.37,0,0,1,32,36.39a9.62,9.62,0,0,1,3.11.56c.94.29,1.53.48,1.61.89.17.78-1.65,1.74-1.83,1.83-1,.54-1.61.48-4.39.89a29,29,0,0,1-3.22.44A7.81,7.81,0,0,1,24,40.62c-.54-.2-1.48-.55-1.5-1.06C22.53,39.35,22.67,39,24,38.34Z"/><path class="cls-5" d="M34,43.12c.21-1.17,1.75-1.74,3.94-2.56a18,18,0,0,1,2.56-.72c1.82-.38,3.29-.68,3.72-.06s-.28,1.67-.61,2.22a6.43,6.43,0,0,1-2.78,2.39,9,9,0,0,1-3,.84c-1.51.21-2.37.33-3.06-.23A2.08,2.08,0,0,1,34,43.12Z"/><path class="cls-5" d="M61,46.89a2.84,2.84,0,0,1,.72-2.11,3.44,3.44,0,0,1,2.12-.66,11.07,11.07,0,0,1,2.16,0A9.13,9.13,0,0,1,69,44.5c.24.13,1.61.89,1.66,2.17a2.88,2.88,0,0,1-1.22,2.17c-.81.67-1.75.81-3.61,1-1.58.21-2.38.31-3,0A3.48,3.48,0,0,1,61,46.89Z"/><path class="cls-5" d="M77.76,45.73c-.61.64-1.57,1.64-1.38,2.61s1.57,1.51,2.83,1.94a5.43,5.43,0,0,0,4.22.17c.37-.18,1.35-.65,1.5-1.5.1-.56-.35-1.22-1.28-2.5a5.74,5.74,0,0,0-1.55-1.78,3.63,3.63,0,0,0-2.95,0A4.11,4.11,0,0,0,77.76,45.73Z"/><path class="cls-5" d="M88.38,44.84c.25.78.74,1.26,2.05,2.33a8.35,8.35,0,0,0,2.28,1.61,5,5,0,0,0,2.39-.22c.85-.2,1.28-.31,1.5-.67.45-.75-.33-1.91-.39-2-.49-.7-1.28-1-2.83-1.61a11.35,11.35,0,0,0-2.95-.78c-.81-.07-1.78-.16-2.09.35A1.22,1.22,0,0,0,88.38,44.84Z"/><path class="cls-5" d="M100.1,45.78a5.82,5.82,0,0,0,2.39,1.45c2.37.89,2.4,1,3.05,1.05a3.45,3.45,0,0,0,2.11-.33c.65-.37,1.51-1.21,1.34-2s-1.19-1.08-2-1.33a10.81,10.81,0,0,0-3.78-.17,20.53,20.53,0,0,0-2.39.39c-.36,0-.86.11-.94.39S100,45.64,100.1,45.78Z"/><path class="cls-5" d="M110.82,33.67c0,.33.77.63,3.61,1.61,2.4.83,3.61,1.25,3.95,1.34a19.5,19.5,0,0,0,5.38.61c1.92-.06,2.55-.38,2.95-.84a2,2,0,0,0,.5-1.89c-.43-1-2.3-1.1-5.33-1.22-3.19-.12-2.91.27-4.78,0a13.09,13.09,0,0,0-4.39-.33C112.32,33,110.85,33.23,110.82,33.67Z"/><path class="cls-5" d="M120.1,31.28a28.94,28.94,0,0,1,6.33.67,4.77,4.77,0,0,0,1.5.11c.55-.05,1.79-.16,2.11-.94a1.74,1.74,0,0,0-.66-1.89c-.61-.44-1.25-.22-3.5.16a23.88,23.88,0,0,1-3.23.45c-1.41,0-1.93-.35-3.89-.34-1.53,0-1.78.23-1.83.39s.41.74.72.95A3.9,3.9,0,0,0,120.1,31.28Z"/><path class="cls-5" d="M118.32,27.56c-.21-.45.29-1.14.67-1.5.54-.52,1.15-.66,2.72-.89a22.83,22.83,0,0,1,3.61-.39,11.49,11.49,0,0,1,3.44.95c1.06.4,1.23.57,1.23.72,0,.44-1.46.75-2.34.94a28,28,0,0,1-3.94.45,28.33,28.33,0,0,1-3.06.16C118.78,28,118.44,27.8,118.32,27.56Z"/><path class="cls-5" d="M110.21,23.12h0a19.17,19.17,0,0,1,5.28-1.89c1.19-.22.8,0,3.39-.23a26.57,26.57,0,0,1,4.33-.33c1.11.06,2.81.15,3,.83s-.85,1.42-1.56,1.84c-1.08.64-1.83.54-5.39.61L114.1,24c-.84,0-1.67-.21-2.5-.16a3.24,3.24,0,0,1-1.11-.22.43.43,0,0,1-.21-.15A.63.63,0,0,1,110.21,23.12Z"/><path class="cls-5" d="M98.07,16c.12.18.46.56,2.61.48a29.61,29.61,0,0,0,3.25-.39,23.92,23.92,0,0,0,3.2-.47,5.94,5.94,0,0,0,2.61-1.34c.37-.35.91-.85.8-1.36s-1.13-.89-1.66-1c-1.26-.33-1.77,0-4.39.11a7.07,7.07,0,0,0-2.36.25c-.91.37-.89.75-2,1.28s-1.55.39-1.92.92A1.48,1.48,0,0,0,98.07,16Z"/><path class="cls-5" d="M90.63,13.45a6.94,6.94,0,0,0,3.55-.31,15.13,15.13,0,0,0,2-.69c1.25-.53,1.39-.78,1.44-.95.16-.54-.34-1.25-.91-1.61s-1.09-.11-3.56.11c-1.58.15-2.18.09-2.67.62a2.83,2.83,0,0,0-.58,1.22,1.49,1.49,0,0,0,0,1.19A1.11,1.11,0,0,0,90.63,13.45Z"/><path class="cls-5" d="M77.63,11.73c.53.31,1.31.46,3.05.3a14.46,14.46,0,0,0,2.72-.47A4.91,4.91,0,0,0,84.79,11,2.18,2.18,0,0,0,86,9.75a1.88,1.88,0,0,0-.53-1.55,3.32,3.32,0,0,0-2.28-.78,21.53,21.53,0,0,0-3.22.11c-1.45.06-1.83,0-2.19.36s-.38.76-.56,1.73c-.24,1.31,0,1.69.14,1.86A1.07,1.07,0,0,0,77.63,11.73Z"/><path class="cls-5" d="M63.9,10.37a6.18,6.18,0,0,0,2.53,1.05,15.79,15.79,0,0,0,2.95.45c1.45.08,1.85-.1,2.11-.28a2.12,2.12,0,0,0,.83-1.28,2.45,2.45,0,0,0-.39-1.67A4,4,0,0,0,70.43,7c-.37-.21-.71-.31-3.33-.3a7.63,7.63,0,0,0-3.42.44c-.92.42-1,.81-1.08,1-.12.52.28,1.07.61,1.53A5.2,5.2,0,0,0,63.9,10.37Z"/><path class="cls-5" d="M48.4,10.42c.31-.65,1.32-.73,2.89-.86a15.18,15.18,0,0,1,3.06.08,6,6,0,0,1,2.78.73,3,3,0,0,1,1.5,1.94,2.09,2.09,0,0,1-.31,1.58,2.68,2.68,0,0,1-1.94.81,7.6,7.6,0,0,1-2.56-.11,11.18,11.18,0,0,1-3.11-1.06,4.12,4.12,0,0,1-2-1.5C48.58,11.76,48.13,11,48.4,10.42Z"/></g></g></svg>