<svg xmlns="http://www.w3.org/2000/svg" viewBox="0 0 507.74 68.82"><defs><style>.cls-1{fill:#d72104;}.cls-1,.cls-2{stroke:#000;stroke-miterlimit:10;stroke-width:3px;}.cls-2{fill:#fb7857;}.cls-3{fill:#d64321;}.cls-4{fill:#f2876c;}.cls-5{fill:#ffa95b;}</style></defs><g id="Layer_2" data-name="Layer 2"><g id="Lagen"><path class="cls-1" d="M3.26,41.39a41.55,41.55,0,0,0,4.45,8.23c5.43,7.47,25.38,11.75,26.44,12A179.57,179.57,0,0,0,68.6,65.84c8.82.29,18.45.57,31.11-1.34,4.87-.73,12.06-2.71,26.44-6.66C136.5,55,141.5,53.35,145.26,48.5c1-1.32,4.58-5.88,3.78-10.66-1.49-9-17.35-13.12-23.55-14.67-31.63-7.89-49.72,5.08-91.34,5.11-2.57,0-13.11-3.13-26.89-1.78-2.25.23-4,.5-5.09.67a22.92,22.92,0,0,0-.24,9.92A26.44,26.44,0,0,0,3.26,41.39Z"/><path class="cls-2" d="M2.39,25.48C1.11,31,5.13,36.2,7.17,38.76,9.74,42,16.76,49.61,39.56,55.22a156.87,156.87,0,0,0,34.52,4.25c12.5.21,21.08-1.1,38.23-3.72s22.39-5,27.08-9c2.26-2,9.85-8.56,9-16.44-.83-7.58-9-12.24-18-17.33a78.87,78.87,0,0,0-18.89-7.56C106.89,4.15,97.91,2.05,81,1.59,55.07.87,38.2,4.75,33.72,5.84A81.86,81.86,0,0,0,10.15,16.73C5.79,19.64,3.19,22,2.39,25.48Z"/><path class="cls-3" d="M14.65,32.39a31.63,31.63,0,0,1,1.17-6.16,10.12,10.12,0,0,1,1.5-3.84,8.61,8.61,0,0,1,2.5-2.33c1.4-.86,2.85-1.18,6.33-1.33,2.87-.13,3.74,0,6.84,0,5.29,0,5.12-.4,7.66-.17a39.92,39.92,0,0,1,7.84,1.83,43.59,43.59,0,0,1,7.83,3,26.63,26.63,0,0,1,2.33,1.34c2.66,1.69,4.63,2.93,4.84,4.66.06.52,0,1.12-1.5,3.34a40.52,40.52,0,0,1-4.5,5.66c-2.52,2.57-3.89,4-6.17,5.34a22.49,22.49,0,0,1-7,2.66,31.66,31.66,0,0,1-14.83-.5c-4.55-1-7.17-1.65-9.84-4C19,41.29,14.77,37.6,14.65,32.39Z"/><path class="cls-3" d="M41.82,11.73c0-1.12,1.82-2,3.67-2.67a49,49,0,0,1,13.5-3c6.89-.62,10.34-.93,13.83-1,6.48-.13,11.35.22,12.83.33,3.87.3,7.14.82,13.67,1.84a55.41,55.41,0,0,1,12.5,3.16c4.62,1.82,5.18,2.86,5.17,3.5,0,1.11-1.79,2-4.17,2.84-5.8,2.14-9.54,2.32-15.5,3.33-5.68,1-6.72,1.55-13.33,2.5-2.59.37-3.89.56-5.67.67a53.43,53.43,0,0,1-12.83-1c-4.21-.8-9.42-3-19.84-7.5C44.17,14.09,41.78,13,41.82,11.73Z"/><path class="cls-3" d="M56.32,49.56c-.6-1.56,1-3.61,4.17-7.67,2.52-3.2,3.78-4.81,5.83-6.16a18.77,18.77,0,0,1,9-3c2.22-.18,4.48.27,9,1.16,2.29.46,5.19,1,9,2.17,3.14.93,5.93,2.07,11.5,4.33,6.52,2.66,8,3.48,8.17,4.84.17,1.65-1.76,3.14-2.67,3.83-2.11,1.62-4.37,2-7.67,2.33-5.94.62-9.46.64-9.46.64s-7.56,0-16.2.36a71.48,71.48,0,0,1-14.34-.33C58.24,51.44,56.77,50.72,56.32,49.56Z"/><path class="cls-3" d="M87,30.89c5,1.48,9.75,3.66,14.83,4.67,12.51,2.49,11.18,3.91,17.5,4.17,4.6.19,11.22.46,14.5-3.84a9.26,9.26,0,0,0,1.67-6.83c-.81-4.24-4.94-6.36-6.5-7.17-4.22-2.17-8.11-1.83-14.67-1.16-9.91,1-8.58,2.93-17,3.5a38.07,38.07,0,0,0-11,3c-.9.38-2.36,1-2.33,1.83C84,30,86.2,30.66,87,30.89Z"/><path class="cls-4" d="M58.49,30.56c1.42-.12,1.75,1.36,3.83,2.67,2.94,1.84,6.5,1.54,9,1.33a19.83,19.83,0,0,0,2.33-.33,3.22,3.22,0,0,1-.16,2c-.5,1.1-2,.68-3.67,2-.35.28-1.15.92-1,1.33.06.17.32.4,3.5.33,2,0,2.51-.14,3.33.17,1,.38.86.75,1.84,1.17a6.87,6.87,0,0,0,4.33,0c1.58-.37,1.44-.7,2.67-.84,1.45-.16,2,.25,3.16-.16.41-.15,1.5-.53,1.67-1.34s-.87-1.75-1.17-2c-.86-.71-1.42-.6-3.33-1.33-1.43-.55-2.5-1-2.5-1.5S83.81,33,84,32.89c1.49-.48,2.19.1,3-.5s.39-1,1-1.5c.84-.65,2-.06,3.66.17s1.73-.25,4.67-.33c3.67-.11,4.91.62,5.5-.17s0-2.56-1-3.5c-1.32-1.23-3.28-1-5.17-.83a41.19,41.19,0,0,0-5,1.16c-3.16.77-3.79.85-4.5.5-1.29-.62-.75-1.64-2.33-2.83-1-.75-1.54-.6-4.17-2-1-.54-1.37-.8-1.33-1s1-.21,2.5-.33a15.1,15.1,0,0,0,4.83-1.17,4.92,4.92,0,0,0,2.67-2c.4-.74.71-2,.17-2.5-.11-.11-.39-.33-1.84-.17-2.06.24-2.35.79-3.5.67a9.07,9.07,0,0,1-2.33-1c-1.8-.9-1.76-1.06-2.5-1.33-1.28-.47-1.52,0-4-.17s-3.25-.63-4,0-.36,1.11-1,1.5-1.36,0-3-.33a16.74,16.74,0,0,0-3.67-.17c-2,0-3,.06-3.33.67a1.69,1.69,0,0,0,.5,1.66c.58.62,1.16.44,3,1,1.58.49,1.89.85,2,1a2.15,2.15,0,0,1,.33,2c-.3.76-1,.73-2.5,1.67s-1.42,1.34-2.5,1.83a7.76,7.76,0,0,1-3.16.5c-3.06.22-3,.59-5,.67a31.84,31.84,0,0,1-5.67-.67c-3.68-.59-5.09-1-5.83-.16a1.76,1.76,0,0,0-.34,1.66c.38,1.08,2.13,1.46,3.17,1.5,1.26.05,2.07-.38,2.33,0s-.28.73-.16,1.5c0,.3.17.63,1,1.5a8.75,8.75,0,0,0,1.83,1.67,5.94,5.94,0,0,0,4.17,1,10.82,10.82,0,0,0,3-1.67C57.67,31,57.82,30.62,58.49,30.56Z"/><path class="cls-5" d="M25.93,23c1.6.49,2.48.16,4.11.28s1.86.58,4.45.84c1.59.15,2.18,0,2.44-.34s0-1.27-.22-1.72c-.76-1.27-2.41-1.54-4.56-1.89A20.69,20.69,0,0,0,28.32,20c-3.42,0-3.81.46-3.94.72a1.6,1.6,0,0,0,.22,1.45A2.24,2.24,0,0,0,25.93,23Z"/><path class="cls-5" d="M20.93,26.17c.62-.5,1.78-.48,4.06-.44,1.25,0,1.92.08,2.16.11a8.15,8.15,0,0,1,3.06.72c.5.26,1.32.68,1.28,1.11s-1.56.85-2.39,1a16.3,16.3,0,0,1-4.39.11c-1.44-.1-1.31-.19-2.39-.22-1.42,0-2,.12-2.22-.22S20.18,26.77,20.93,26.17Z"/><path class="cls-5" d="M18.88,32.73c.75-.7,1.64-.48,4.61-.34,1.85.09,2.45.06,4.44.23,2.59.21,3.08.4,3.17.72.14.49-.72,1.19-1.39,1.55-1,.52-1.54.33-3.56.39a34.27,34.27,0,0,0-4.94.34,2.91,2.91,0,0,1-2.11-.12,1.83,1.83,0,0,1-.89-1.33A1.89,1.89,0,0,1,18.88,32.73Z"/><path class="cls-5" d="M24,38.34a16,16,0,0,1,3.89-1.22A21.37,21.37,0,0,1,32,36.39a9.62,9.62,0,0,1,3.11.56c.94.29,1.53.48,1.61.89.17.78-1.65,1.74-1.83,1.83-1,.54-1.61.48-4.39.89a29,29,0,0,1-3.22.44A7.81,7.81,0,0,1,24,40.62c-.54-.2-1.48-.55-1.5-1.06C22.53,39.35,22.67,39,24,38.34Z"/><path class="cls-5" d="M34,43.12c.21-1.17,1.75-1.74,3.94-2.56a18,18,0,0,1,2.56-.72c1.82-.38,3.29-.68,3.72-.06s-.28,1.67-.61,2.22a6.43,6.43,0,0,1-2.78,2.39,9,9,0,0,1-3,.84c-1.51.21-2.37.33-3.06-.23A2.08,2.08,0,0,1,34,43.12Z"/><path class="cls-5" d="M61,46.89a2.84,2.84,0,0,1,.72-2.11,3.44,3.44,0,0,1,2.12-.66,11.07,11.07,0,0,1,2.16,0A9.13,9.13,0,0,1,69,44.5c.24.13,1.61.89,1.66,2.17a2.88,2.88,0,0,1-1.22,2.17c-.81.67-1.75.81-3.61,1-1.58.21-2.38.31-3,0A3.48,3.48,0,0,1,61,46.89Z"/><path class="cls-5" d="M77.76,45.73c-.61.64-1.57,1.64-1.38,2.61s1.57,1.51,2.83,1.94a5.43,5.43,0,0,0,4.22.17c.37-.18,1.35-.65,1.5-1.5.1-.56-.35-1.22-1.28-2.5a5.74,5.74,0,0,0-1.55-1.78,3.63,3.63,0,0,0-2.95,0A4.11,4.11,0,0,0,77.76,45.73Z"/><path class="cls-5" d="M88.38,44.84c.25.78.74,1.26,2.05,2.33a8.35,8.35,0,0,0,2.28,1.61,5,5,0,0,0,2.39-.22c.85-.2,1.28-.31,1.5-.67.45-.75-.33-1.91-.39-2-.49-.7-1.28-1-2.83-1.61a11.35,11.35,0,0,0-2.95-.78c-.81-.07-1.78-.16-2.09.35A1.22,1.22,0,0,0,88.38,44.84Z"/><path class="cls-5" d="M100.1,45.78a5.82,5.82,0,0,0,2.39,1.45c2.37.89,2.4,1,3.05,1.05a3.45,3.45,0,0,0,2.11-.33c.65-.37,1.51-1.21,1.34-2s-1.19-1.08-2-1.33a10.81,10.81,0,0,0-3.78-.17,20.53,20.53,0,0,0-2.39.39c-.36,0-.86.11-.94.39S100,45.64,100.1,45.78Z"/><path class="cls-5" d="M110.82,33.67c0,.33.77.63,3.61,1.61,2.4.83,3.61,1.25,3.95,1.34a19.5,19.5,0,0,0,5.38.61c1.92-.06,2.55-.38,2.95-.84a2,2,0,0,0,.5-1.89c-.43-1-2.3-1.1-5.33-1.22-3.19-.12-2.91.27-4.78,0a13.09,13.09,0,0,0-4.39-.33C112.32,33,110.85,33.23,110.82,33.67Z"/><path class="cls-5" d="M120.1,31.28a28.94,28.94,0,0,1,6.33.67,4.77,4.77,0,0,0,1.5.11c.55-.05,1.79-.16,2.11-.94a1.74,1.74,0,0,0-.66-1.89c-.61-.44-1.25-.22-3.5.16a23.88,23.88,0,0,1-3.23.45c-1.41,0-1.93-.35-3.89-.34-1.53,0-1.78.23-1.83.39s.41.74.72.95A3.9,3.9,0,0,0,120.1,31.28Z"/><path class="cls-5" d="M118.32,27.56c-.21-.45.29-1.14.67-1.5.54-.52,1.15-.66,2.72-.89a22.83,22.83,0,0,1,3.61-.39,11.49,11.49,0,0,1,3.44.95c1.06.4,1.23.57,1.23.72,0,.44-1.46.75-2.34.94a28,28,0,0,1-3.94.45,28.33,28.33,0,0,1-3.06.16C118.78,28,118.44,27.8,118.32,27.56Z"/><path class="cls-5" d="M110.21,23.12h0a19.17,19.17,0,0,1,5.28-1.89c1.19-.22.8,0,3.39-.23a26.57,26.57,0,0,1,4.33-.33c1.11.06,2.81.15,3,.83s-.85,1.42-1.56,1.84c-1.08.64-1.83.54-5.39.61L114.1,24c-.84,0-1.67-.21-2.5-.16a3.24,3.24,0,0,1-1.11-.22.43.43,0,0,1-.21-.15A.63.63,0,0,1,110.21,23.12Z"/><path class="cls-5" d="M98.07,16c.12.18.46.56,2.61.48a29.61,29.61,0,0,0,3.25-.39,23.92,23.92,0,0,0,3.2-.47,5.94,5.94,0,0,0,2.61-1.34c.37-.35.91-.85.8-1.36s-1.13-.89-1.66-1c-1.26-.33-1.77,0-4.39.11a7.07,7.07,0,0,0-2.36.25c-.91.37-.89.75-2,1.28s-1.55.39-1.92.92A1.48,1.48,0,0,0,98.07,16Z"/><path class="cls-5" d="M90.63,13.45a6.94,6.94,0,0,0,3.55-.31,15.13,15.13,0,0,0,2-.69c1.25-.53,1.39-.78,1.44-.95.16-.54-.34-1.25-.91-1.61s-1.09-.11-3.56.11c-1.58.15-2.18.09-2.67.62a2.83,2.83,0,0,0-.58,1.22,1.49,1.49,0,0,0,0,1.19A1.11,1.11,0,0,0,90.63,13.45Z"/><path class="cls-5" d="M77.63,11.73c.53.31,1.31.46,3.05.3a14.46,14.46,0,0,0,2.72-.47A4.91,4.91,0,0,0,84.79,11,2.18,2.18,0,0,0,86,9.75a1.88,1.88,0,0,0-.53-1.55,3.32,3.32,0,0,0-2.28-.78,21.53,21.53,0,0,0-3.22.11c-1.45.06-1.83,0-2.19.36s-.38.76-.56,1.73c-.24,1.31,0,1.69.14,1.86A1.07,1.07,0,0,0,77.63,11.73Z"/><path class="cls-5" d="M63.9,10.37a6.18,6.18,0,0,0,2.53,1.05,15.79,15.79,0,0,0,2.95.45c1.45.08,1.85-.1,2.11-.28a2.12,2.12,0,0,0,.83-1.28,2.45,2.45,0,0,0-.39-1.67A4,4,0,0,0,70.43,7c-.37-.21-.71-.31-3.33-.3a7.63,7.63,0,0,0-3.42.44c-.92.42-1,.81-1.08,1-.12.52.28,1.07.61,1.53A5.2,5.2,0,0,0,63.9,10.37Z"/><path class="cls-5" d="M48.4,10.42c.31-.65,1.32-.73,2.89-.86a15.18,15.18,0,0,1,3.06.08,6,6,0,0,1,2.78.73,3,3,0,0,1,1.5,1.94,2.09,2.09,0,0,1-.31,1.58,2.68,2.68,0,0,1-1.94.81,7.6,7.6,0,0,1-2.56-.11,11.18,11.18,0,0,1-3.11-1.06,4.12,4.12,0,0,1-2-1.5C48.58,11.76,48.13,11,48.4,10.42Z"/><path class="cls-1" d="M107.24,41.8A41,41,0,0,0,111.68,50c5.43,7.48,25.38,11.76,26.45,12a177.6,177.6,0,0,0,34.44,4.22c8.83.3,18.45.57,31.11-1.33,4.87-.73,12.06-2.71,26.45-6.67,10.34-2.84,15.34-4.48,19.11-9.33,1-1.32,4.57-5.88,3.77-10.67-1.49-9-17.35-13.12-23.55-14.66-31.63-7.89-49.72,5.08-91.33,5.11-2.58,0-13.12-3.14-26.89-1.78-2.26.22-4.06.5-5.1.67a22.68,22.68,0,0,0-.23,9.91A24.74,24.74,0,0,0,107.24,41.8Z"/><path class="cls-2" d="M106.36,25.89c-1.27,5.52,2.74,10.71,4.78,13.27,2.58,3.24,9.59,10.85,32.39,16.47a156.56,156.56,0,0,0,34.52,4.24c12.5.21,21.08-1.1,38.23-3.71s22.39-4.95,27.08-9c2.26-2,9.85-8.56,9-16.44-.83-7.59-9-12.25-18-17.34A79.35,79.35,0,0,0,215.46,5.8C210.86,4.56,201.88,2.46,185,2,159,1.28,142.17,5.15,137.69,6.24a82.08,82.08,0,0,0-23.56,10.89C109.76,20.05,107.16,22.43,106.36,25.89Z"/><path class="cls-3" d="M118.63,32.8c0-1.14.37-2.82,1.16-6.17a10.13,10.13,0,0,1,1.5-3.83,8.76,8.76,0,0,1,2.5-2.33c1.4-.87,2.85-1.18,6.34-1.34,2.86-.13,3.73,0,6.83,0,5.29,0,5.13-.39,7.67-.16a38.45,38.45,0,0,1,7.83,1.83,42.82,42.82,0,0,1,7.83,3c.49.25,1.32.69,2.34,1.33,2.65,1.69,4.62,2.94,4.83,4.67.06.52,0,1.11-1.5,3.33a41.67,41.67,0,0,1-4.5,5.67c-2.52,2.57-3.89,4-6.17,5.33a22.74,22.74,0,0,1-7,2.67,31.66,31.66,0,0,1-14.83-.5c-4.54-1-7.16-1.65-9.83-4C122.93,41.69,118.74,38,118.63,32.8Z"/><path class="cls-3" d="M145.79,12.13c0-1.12,1.83-2,3.67-2.66a48.63,48.63,0,0,1,13.5-3c6.89-.62,10.34-.93,13.83-1,6.48-.14,11.35.21,12.84.33,3.87.3,7.13.81,13.66,1.83a55,55,0,0,1,12.5,3.17c4.62,1.82,5.19,2.85,5.17,3.5,0,1.1-1.79,1.95-4.17,2.83-5.8,2.14-9.54,2.33-15.5,3.34-5.67,1-6.72,1.54-13.33,2.5-2.59.37-3.89.56-5.67.66a52.86,52.86,0,0,1-12.83-1c-4.21-.79-9.42-3-19.83-7.5C148.14,14.5,145.75,13.44,145.79,12.13Z"/><path class="cls-3" d="M160.29,50c-.6-1.56,1-3.62,4.17-7.67,2.52-3.21,3.78-4.81,5.83-6.17a18.88,18.88,0,0,1,9-3c2.22-.17,4.48.28,9,1.17a88.66,88.66,0,0,1,9,2.17c3.14.93,5.93,2.06,11.5,4.33,6.52,2.65,8,3.48,8.17,4.83.17,1.65-1.76,3.14-2.67,3.84-2.11,1.62-4.37,2-7.66,2.33-5.95.62-9.47.63-9.47.63s-7.56,0-16.2.37a71.37,71.37,0,0,1-14.33-.33C162.21,51.84,160.74,51.13,160.29,50Z"/><path class="cls-3" d="M191,31.3c5,1.47,9.75,3.65,14.83,4.67,12.51,2.49,11.18,3.9,17.5,4.16,4.6.19,11.22.47,14.5-3.83a9.28,9.28,0,0,0,1.67-6.83c-.81-4.24-4.93-6.36-6.5-7.17-4.22-2.17-8.11-1.83-14.67-1.17-9.91,1-8.58,2.93-17,3.5a38.07,38.07,0,0,0-11,3c-.9.38-2.36,1-2.33,1.84C188,30.42,190.17,31.07,191,31.3Z"/><path class="cls-4" d="M162.46,31c1.42-.12,1.75,1.35,3.83,2.66,2.94,1.85,6.5,1.55,9,1.34a22.44,22.44,0,0,0,2.34-.34,3.31,3.31,0,0,1-.17,2c-.49,1.11-2,.69-3.67,2-.35.28-1.15.93-1,1.34.06.16.32.39,3.5.33,2,0,2.51-.15,3.34.17,1,.38.85.74,1.83,1.16a6.8,6.8,0,0,0,4.33,0c1.59-.37,1.44-.69,2.67-.83,1.45-.17,2,.24,3.17-.17.4-.14,1.5-.52,1.66-1.33s-.87-1.76-1.16-2c-.87-.71-1.43-.61-3.34-1.33-1.43-.55-2.5-1-2.5-1.5s1.49-1.11,1.67-1.17c1.49-.48,2.19.1,3-.5.66-.49.39-1,1-1.5.84-.65,2-.07,3.67.17s1.72-.25,4.66-.34c3.67-.11,4.91.63,5.5-.16s0-2.56-1-3.5c-1.32-1.24-3.28-1-5.16-.84a43.87,43.87,0,0,0-5,1.17c-3.17.77-3.8.84-4.5.5-1.3-.63-.76-1.64-2.34-2.83-1-.76-1.54-.6-4.16-2-1-.55-1.38-.81-1.34-1s1.05-.21,2.5-.34A15.71,15.71,0,0,0,189.63,21a4.94,4.94,0,0,0,2.66-2c.41-.75.71-2,.17-2.5-.11-.11-.39-.34-1.83-.17-2.07.23-2.36.79-3.5.67a9.92,9.92,0,0,1-2.34-1c-1.8-.9-1.76-1.07-2.5-1.34-1.28-.46-1.52,0-4-.16s-3.25-.64-4,0-.36,1.1-1,1.5-1.36,0-3-.34a16.77,16.77,0,0,0-3.66-.16c-2,0-3,.06-3.34.66a1.73,1.73,0,0,0,.5,1.67c.58.62,1.17.43,3,1,1.58.49,1.89.85,2,1a2.17,2.17,0,0,1,.34,2c-.31.75-1,.72-2.5,1.67s-1.43,1.33-2.5,1.83a8,8,0,0,1-3.17.5c-3.06.21-3,.59-5,.67a32.84,32.84,0,0,1-5.67-.67c-3.68-.59-5.08-1-5.83-.17a1.76,1.76,0,0,0-.33,1.67c.38,1.08,2.12,1.46,3.16,1.5,1.26.05,2.07-.39,2.34,0s-.29.73-.17,1.5c0,.29.17.63,1,1.5a9.35,9.35,0,0,0,1.83,1.67,6,6,0,0,0,4.17,1,11.11,11.11,0,0,0,3-1.67C161.65,31.36,161.79,31,162.46,31Z"/><path class="cls-5" d="M129.9,23.41c1.6.49,2.48.16,4.11.28s1.86.58,4.45.83c1.59.16,2.18.05,2.44-.33s0-1.27-.22-1.72c-.76-1.27-2.41-1.54-4.55-1.89a21.71,21.71,0,0,0-3.84-.23c-3.41,0-3.81.46-3.94.73a1.64,1.64,0,0,0,.22,1.44A2.26,2.26,0,0,0,129.9,23.41Z"/><path class="cls-5" d="M124.9,26.58c.63-.5,1.78-.49,4.06-.45,1.25,0,1.92.09,2.17.11a8.19,8.19,0,0,1,3.05.73c.5.25,1.32.67,1.28,1.11s-1.56.84-2.39,1a16.72,16.72,0,0,1-4.39.11c-1.44-.1-1.31-.2-2.39-.22-1.42,0-2,.12-2.22-.23S124.15,27.18,124.9,26.58Z"/><path class="cls-5" d="M122.85,33.13c.75-.69,1.64-.48,4.61-.33,1.85.09,2.45.05,4.44.22,2.59.22,3.08.41,3.17.72.14.5-.72,1.2-1.39,1.56-1,.51-1.54.32-3.55.39a36.55,36.55,0,0,0-4.95.33,2.91,2.91,0,0,1-2.11-.11,1.85,1.85,0,0,1-.89-1.33A1.94,1.94,0,0,1,122.85,33.13Z"/><path class="cls-5" d="M128,38.74a16,16,0,0,1,3.89-1.22A21.8,21.8,0,0,1,136,36.8a9.76,9.76,0,0,1,3.12.55c.93.29,1.52.49,1.61.89.16.78-1.66,1.74-1.84,1.84-1,.54-1.61.47-4.39.89a31.69,31.69,0,0,1-3.22.44A8,8,0,0,1,128,41c-.54-.2-1.47-.54-1.5-1.05C126.51,39.76,126.64,39.41,128,38.74Z"/><path class="cls-5" d="M138,43.52c.21-1.16,1.75-1.74,3.94-2.55a17.42,17.42,0,0,1,2.56-.73c1.82-.37,3.29-.68,3.72-.05s-.27,1.67-.61,2.22a6.5,6.5,0,0,1-2.78,2.39,8.91,8.91,0,0,1-3,.83c-1.51.21-2.37.34-3-.22A2.11,2.11,0,0,1,138,43.52Z"/><path class="cls-5" d="M165,47.3a2.8,2.8,0,0,1,.73-2.11,3.39,3.39,0,0,1,2.11-.67,12.1,12.1,0,0,1,2.16,0,8.75,8.75,0,0,1,3,.39,3,3,0,0,1,1.67,2.17,2.84,2.84,0,0,1-1.23,2.16c-.8.67-1.75.81-3.61,1.06-1.58.21-2.38.31-3,0A3.52,3.52,0,0,1,165,47.3Z"/><path class="cls-5" d="M181.74,46.13c-.62.64-1.58,1.64-1.39,2.61s1.58,1.51,2.83,1.95a5.44,5.44,0,0,0,4.22.16c.37-.17,1.35-.64,1.5-1.5.11-.56-.35-1.21-1.27-2.5a5.91,5.91,0,0,0-1.56-1.77,3.6,3.6,0,0,0-2.94,0A4.12,4.12,0,0,0,181.74,46.13Z"/><path class="cls-5" d="M192.35,45.24c.25.78.75,1.26,2.05,2.34a8.61,8.61,0,0,0,2.28,1.61,5.22,5.22,0,0,0,2.39-.22c.85-.2,1.28-.31,1.5-.67.45-.75-.33-1.92-.39-2-.49-.7-1.27-1-2.83-1.61a10.85,10.85,0,0,0-2.95-.78c-.8-.08-1.77-.16-2.09.35A1.2,1.2,0,0,0,192.35,45.24Z"/><path class="cls-5" d="M204.07,46.19a6,6,0,0,0,2.39,1.44c2.37.89,2.4,1,3,1.06a3.5,3.5,0,0,0,2.12-.34c.64-.36,1.5-1.2,1.33-2s-1.19-1.07-2-1.33a11.06,11.06,0,0,0-3.78-.17c-1.15.06-.17.09-2.39.39-.36,0-.85.12-.94.39S204,46.05,204.07,46.19Z"/><path class="cls-5" d="M214.79,34.08c0,.33.77.62,3.61,1.61,2.4.83,3.61,1.25,3.95,1.33a19.59,19.59,0,0,0,5.39.61c1.91-.05,2.54-.37,2.94-.83a2,2,0,0,0,.5-1.89c-.43-1-2.3-1.11-5.33-1.22-3.19-.12-2.91.26-4.78,0a13.08,13.08,0,0,0-4.39-.34C216.29,33.41,214.83,33.63,214.79,34.08Z"/><path class="cls-5" d="M224.07,31.69a29.93,29.93,0,0,1,6.33.66,4.67,4.67,0,0,0,1.5.12c.55,0,1.79-.16,2.11-.95a1.74,1.74,0,0,0-.66-1.89c-.61-.43-1.25-.21-3.5.17a23.33,23.33,0,0,1-3.22.44c-1.42,0-1.94-.35-3.89-.33-1.54,0-1.79.23-1.84.39s.41.74.73.94A3.87,3.87,0,0,0,224.07,31.69Z"/><path class="cls-5" d="M222.29,28c-.21-.45.29-1.14.67-1.5.54-.52,1.15-.67,2.72-.89a21.61,21.61,0,0,1,3.61-.39,11.21,11.21,0,0,1,3.45.94c1,.4,1.22.57,1.22.72,0,.44-1.46.76-2.33.95a28.71,28.71,0,0,1-3.95.44c-1,.09-1.85.17-3.05.17C222.75,28.41,222.41,28.21,222.29,28Z"/><path class="cls-5" d="M214.18,23.52h0a19.17,19.17,0,0,1,5.28-1.89c1.19-.21.8,0,3.39-.22a26.65,26.65,0,0,1,4.33-.33c1.11.05,2.81.14,3,.83s-.85,1.42-1.55,1.83c-1.09.64-1.84.55-5.39.61-1.39,0-2.65,0-5.17.06-.84,0-1.67-.22-2.5-.17a3,3,0,0,1-1.11-.22.36.36,0,0,1-.21-.14A.67.67,0,0,1,214.18,23.52Z"/><path class="cls-5" d="M202,16.41c.12.18.46.55,2.61.47a29.61,29.61,0,0,0,3.25-.39,22.29,22.29,0,0,0,3.2-.47,5.83,5.83,0,0,0,2.61-1.33c.37-.35.91-.85.8-1.36s-1.13-.89-1.66-1c-1.26-.33-1.77,0-4.39.11a7.07,7.07,0,0,0-2.36.25c-.91.36-.89.74-2,1.28s-1.55.38-1.92.91A1.5,1.5,0,0,0,202,16.41Z"/><path class="cls-5" d="M194.6,13.85a6.9,6.9,0,0,0,3.55-.3,15.78,15.78,0,0,0,2-.7c1.25-.52,1.4-.77,1.45-.94.15-.54-.35-1.25-.92-1.61s-1.09-.11-3.56.11c-1.58.14-2.18.09-2.66.61a3,3,0,0,0-.59,1.22,1.56,1.56,0,0,0,0,1.2A1.09,1.09,0,0,0,194.6,13.85Z"/><path class="cls-5" d="M181.6,12.13c.53.32,1.31.46,3.05.31a16.57,16.57,0,0,0,2.73-.47,4.83,4.83,0,0,0,1.38-.56,2.15,2.15,0,0,0,1.17-1.25,1.92,1.92,0,0,0-.53-1.56,3.3,3.3,0,0,0-2.27-.77,20.27,20.27,0,0,0-3.23.11c-1.45,0-1.83,0-2.19.36s-.38.76-.56,1.72c-.24,1.31,0,1.7.14,1.86A1.07,1.07,0,0,0,181.6,12.13Z"/><path class="cls-5" d="M167.88,10.77a5.82,5.82,0,0,0,2.52,1.06,16.11,16.11,0,0,0,2.95.44c1.45.08,1.85-.1,2.11-.28a2.13,2.13,0,0,0,.83-1.27,2.45,2.45,0,0,0-.39-1.67,3.91,3.91,0,0,0-1.5-1.64c-.37-.21-.71-.31-3.33-.31a7.6,7.6,0,0,0-3.42.45c-.92.42-1.05.8-1.08.94-.12.52.28,1.08.61,1.53A3.77,3.77,0,0,0,167.88,10.77Z"/><path class="cls-5" d="M152.38,10.83c.3-.65,1.31-.74,2.88-.86a14.44,14.44,0,0,1,3.06.08,6.19,6.19,0,0,1,2.78.72,3,3,0,0,1,1.5,2,2.1,2.1,0,0,1-.31,1.58,2.63,2.63,0,0,1-1.94.8,7.35,7.35,0,0,1-2.56-.11,11.5,11.5,0,0,1-3.11-1.05,4.12,4.12,0,0,1-2-1.5C152.55,12.17,152.1,11.42,152.38,10.83Z"/><path class="cls-1" d="M230.26,42.67a41,41,0,0,0,4.44,8.22c5.43,7.48,25.38,11.75,26.44,12a179.57,179.57,0,0,0,34.45,4.22c8.82.3,18.45.57,31.11-1.33,4.87-.73,12.06-2.71,26.44-6.67,10.35-2.84,15.35-4.49,19.12-9.33,1-1.33,4.57-5.88,3.77-10.67-1.49-9-17.35-13.12-23.55-14.67-31.63-7.88-49.72,5.09-91.34,5.12-2.57,0-13.11-3.14-26.88-1.78-2.26.22-4.06.49-5.1.67a22.68,22.68,0,0,0-.23,9.91A24.74,24.74,0,0,0,230.26,42.67Z"/><path class="cls-2" d="M229.38,26.76c-1.27,5.51,2.74,10.71,4.78,13.27,2.57,3.24,9.59,10.85,32.39,16.46a157,157,0,0,0,34.52,4.25c12.5.21,21.08-1.1,38.23-3.72s22.39-5,27.08-9c2.26-2,9.85-8.56,9-16.44-.83-7.59-9-12.25-18-17.34a78.93,78.93,0,0,0-18.89-7.55C333.88,5.42,324.9,3.33,308,2.86,282.06,2.15,265.19,6,260.71,7.11A82.2,82.2,0,0,0,237.14,18C232.78,20.92,230.18,23.29,229.38,26.76Z"/><path class="cls-3" d="M241.64,33.67c0-1.15.38-2.82,1.17-6.17a10,10,0,0,1,1.5-3.83,8.73,8.73,0,0,1,2.5-2.34c1.4-.86,2.85-1.18,6.33-1.33,2.87-.13,3.74,0,6.84,0,5.29,0,5.12-.39,7.66-.17a39.21,39.21,0,0,1,7.84,1.84,42.82,42.82,0,0,1,7.83,3c.49.25,1.32.69,2.33,1.33,2.66,1.69,4.63,2.93,4.84,4.67.06.52,0,1.11-1.5,3.33a41.67,41.67,0,0,1-4.5,5.67c-2.52,2.57-3.89,4-6.17,5.33a22.74,22.74,0,0,1-7,2.67,31.93,31.93,0,0,1-14.83-.5c-4.54-1.05-7.16-1.66-9.84-4C246,42.56,241.76,38.87,241.64,33.67Z"/><path class="cls-3" d="M268.81,13c0-1.12,1.82-2,3.67-2.67a49.39,49.39,0,0,1,13.5-3c6.89-.62,10.34-.92,13.83-1,6.48-.13,11.35.22,12.83.34,3.87.3,7.14.81,13.67,1.83a55,55,0,0,1,12.5,3.17c4.62,1.81,5.19,2.85,5.17,3.5,0,1.1-1.79,2-4.17,2.83-5.8,2.14-9.54,2.32-15.5,3.33-5.67,1-6.72,1.55-13.33,2.5-2.59.38-3.89.56-5.67.67a52.86,52.86,0,0,1-12.83-1c-4.21-.8-9.42-3-19.84-7.5C271.16,15.36,268.77,14.31,268.81,13Z"/><path class="cls-3" d="M283.31,50.83c-.6-1.55,1-3.61,4.17-7.66C290,40,291.26,38.36,293.31,37a18.77,18.77,0,0,1,9-3c2.22-.17,4.48.27,9,1.17a91.59,91.59,0,0,1,9,2.16c3.14.94,5.93,2.07,11.5,4.34,6.52,2.65,8,3.47,8.17,4.83.17,1.65-1.76,3.14-2.67,3.83-2.11,1.62-4.37,2-7.67,2.34-5.94.62-9.46.63-9.46.63s-7.56,0-16.2.37a71.53,71.53,0,0,1-14.34-.34C285.23,52.71,283.76,52,283.31,50.83Z"/><path class="cls-3" d="M314,32.17c5,1.47,9.75,3.65,14.83,4.66,12.51,2.5,11.18,3.91,17.5,4.17,4.6.19,11.22.46,14.5-3.83a9.31,9.31,0,0,0,1.67-6.84c-.81-4.23-4.93-6.36-6.5-7.16-4.22-2.17-8.11-1.83-14.67-1.17-9.91,1-8.58,2.93-17,3.5a38.07,38.07,0,0,0-11,3c-.9.38-2.36,1-2.33,1.83C311,31.29,313.19,31.93,314,32.17Z"/><path class="cls-4" d="M285.48,31.83c1.42-.11,1.75,1.36,3.83,2.67,2.94,1.85,6.5,1.55,9,1.33a19.83,19.83,0,0,0,2.33-.33,3.22,3.22,0,0,1-.16,2c-.49,1.11-2,.69-3.67,2-.35.28-1.15.93-1,1.33.06.17.32.4,3.5.34,2,0,2.51-.15,3.33.16,1,.38.86.75,1.84,1.17a6.8,6.8,0,0,0,4.33,0c1.58-.37,1.44-.69,2.67-.83,1.45-.17,2,.24,3.16-.17.41-.14,1.5-.52,1.67-1.33s-.87-1.76-1.17-2c-.86-.71-1.42-.61-3.33-1.34-1.43-.54-2.5-1-2.5-1.5s1.49-1.1,1.67-1.16c1.49-.49,2.19.1,3-.5.66-.5.39-1,1-1.5.84-.65,2-.07,3.66.16s1.73-.24,4.67-.33c3.67-.11,4.91.62,5.5-.17s0-2.55-1-3.5c-1.32-1.23-3.28-1-5.17-.83a42.45,42.45,0,0,0-5,1.17c-3.16.76-3.79.84-4.5.5-1.29-.63-.75-1.65-2.33-2.84-1-.75-1.54-.59-4.17-2-1-.54-1.37-.8-1.33-1s1.05-.2,2.5-.33a15.1,15.1,0,0,0,4.83-1.17,4.88,4.88,0,0,0,2.67-2c.41-.74.71-1.95.17-2.5-.11-.11-.39-.33-1.84-.16-2.06.23-2.35.78-3.5.66a9.07,9.07,0,0,1-2.33-1c-1.8-.9-1.76-1.06-2.5-1.33-1.28-.47-1.52,0-4-.17s-3.25-.63-4,0-.36,1.11-1,1.5-1.36,0-3-.33a16.74,16.74,0,0,0-3.67-.17c-2,0-3,.07-3.33.67a1.7,1.7,0,0,0,.5,1.67c.58.61,1.16.43,3,1,1.58.48,1.89.84,2,1a2.14,2.14,0,0,1,.33,2c-.3.75-1,.72-2.5,1.66s-1.42,1.34-2.5,1.84a8.11,8.11,0,0,1-3.16.5c-3.06.21-3,.58-5,.66a32.51,32.51,0,0,1-5.67-.66c-3.68-.6-5.08-1-5.83-.17a1.79,1.79,0,0,0-.34,1.67c.39,1.07,2.13,1.46,3.17,1.5,1.26,0,2.07-.39,2.33,0s-.28.72-.16,1.5c0,.29.17.62,1,1.5a8.94,8.94,0,0,0,1.83,1.66,5.94,5.94,0,0,0,4.17,1,10.69,10.69,0,0,0,3-1.66C284.67,32.23,284.81,31.89,285.48,31.83Z"/><path class="cls-5" d="M252.92,24.28c1.6.48,2.48.16,4.11.28s1.86.57,4.45.83c1.59.16,2.18.05,2.44-.33a1.8,1.8,0,0,0-.22-1.73c-.76-1.26-2.41-1.53-4.56-1.89a22.59,22.59,0,0,0-3.83-.22c-3.41,0-3.81.46-3.94.72a1.62,1.62,0,0,0,.22,1.45A2.26,2.26,0,0,0,252.92,24.28Z"/><path class="cls-5" d="M247.92,27.44C248.54,27,249.7,27,252,27c1.25,0,1.92.09,2.16.11a8.37,8.37,0,0,1,3.06.72c.5.26,1.32.68,1.28,1.11s-1.56.85-2.39,1a16.74,16.74,0,0,1-4.39.12c-1.44-.1-1.31-.2-2.39-.23-1.42,0-2,.12-2.22-.22S247.17,28,247.92,27.44Z"/><path class="cls-5" d="M245.87,34c.75-.69,1.64-.48,4.61-.33,1.85.09,2.45,0,4.44.22,2.59.22,3.08.4,3.17.72.14.49-.72,1.2-1.39,1.56-1,.51-1.54.32-3.56.39a33.31,33.31,0,0,0-4.94.33,3,3,0,0,1-2.11-.11,1.88,1.88,0,0,1-.89-1.34A1.91,1.91,0,0,1,245.87,34Z"/><path class="cls-5" d="M251,39.61a16,16,0,0,1,3.89-1.22,20.71,20.71,0,0,1,4.11-.72,9.64,9.64,0,0,1,3.11.55c.94.29,1.53.48,1.62.89.16.78-1.66,1.74-1.84,1.83-1,.55-1.61.48-4.39.89a29.68,29.68,0,0,1-3.22.45,8,8,0,0,1-3.28-.39c-.54-.2-1.47-.54-1.5-1.06C249.52,40.63,249.66,40.27,251,39.61Z"/><path class="cls-5" d="M261,44.39c.21-1.17,1.75-1.74,3.94-2.56a19.51,19.51,0,0,1,2.56-.72c1.82-.38,3.29-.68,3.72,0s-.27,1.67-.61,2.22a6.5,6.5,0,0,1-2.78,2.39,8.91,8.91,0,0,1-3,.83c-1.51.21-2.37.33-3.05-.22A2.12,2.12,0,0,1,261,44.39Z"/><path class="cls-5" d="M288,48.17a2.8,2.8,0,0,1,.73-2.11,3.33,3.33,0,0,1,2.11-.67,11.07,11.07,0,0,1,2.16,0,8.75,8.75,0,0,1,3,.39,2.92,2.92,0,0,1,1.66,2.16,2.85,2.85,0,0,1-1.22,2.17c-.81.67-1.75.81-3.61,1.06-1.58.21-2.38.3-3,0A3.51,3.51,0,0,1,288,48.17Z"/><path class="cls-5" d="M304.76,47c-.62.64-1.58,1.64-1.39,2.61s1.57,1.51,2.83,2a5.48,5.48,0,0,0,4.22.16c.37-.17,1.35-.64,1.5-1.5.1-.56-.35-1.21-1.28-2.5a5.74,5.74,0,0,0-1.55-1.78,3.67,3.67,0,0,0-2.95,0A4.22,4.22,0,0,0,304.76,47Z"/><path class="cls-5" d="M315.37,46.11c.25.78.75,1.26,2.05,2.33a8.49,8.49,0,0,0,2.28,1.62,5.11,5.11,0,0,0,2.39-.23c.85-.2,1.28-.3,1.5-.66.45-.76-.33-1.92-.39-2-.49-.71-1.28-1-2.83-1.61a10.47,10.47,0,0,0-2.95-.78c-.8-.08-1.77-.16-2.09.35A1.2,1.2,0,0,0,315.37,46.11Z"/><path class="cls-5" d="M327.09,47.06a5.9,5.9,0,0,0,2.39,1.44c2.37.89,2.4,1,3,1.06a3.53,3.53,0,0,0,2.11-.34c.65-.37,1.51-1.2,1.34-2s-1.19-1.08-2-1.33a10.81,10.81,0,0,0-3.78-.17,23.26,23.26,0,0,0-2.39.39c-.36,0-.85.12-.94.39S327,46.92,327.09,47.06Z"/><path class="cls-5" d="M337.81,34.94c0,.34.77.63,3.61,1.62,2.4.83,3.61,1.24,3.95,1.33a19.53,19.53,0,0,0,5.39.61c1.91-.06,2.54-.38,2.94-.83a2,2,0,0,0,.5-1.89c-.43-1-2.3-1.11-5.33-1.22-3.19-.13-2.91.26-4.78,0a13.08,13.08,0,0,0-4.39-.34C339.31,34.28,337.85,34.5,337.81,34.94Z"/><path class="cls-5" d="M347.09,32.56a29.22,29.22,0,0,1,6.33.66,4.47,4.47,0,0,0,1.5.11c.55,0,1.79-.16,2.11-.94a1.74,1.74,0,0,0-.66-1.89c-.61-.44-1.25-.21-3.5.17a23.2,23.2,0,0,1-3.23.44c-1.41,0-1.93-.35-3.88-.33-1.54,0-1.79.22-1.84.39s.41.73.72.94A3.91,3.91,0,0,0,347.09,32.56Z"/><path class="cls-5" d="M345.31,28.83c-.21-.44.29-1.14.67-1.5.54-.52,1.15-.66,2.72-.89a21.15,21.15,0,0,1,3.61-.38,11.21,11.21,0,0,1,3.45.94c1.05.4,1.22.57,1.22.72,0,.44-1.46.76-2.34,1a30,30,0,0,1-3.94.44c-1,.09-1.85.17-3.06.17C345.77,29.27,345.43,29.08,345.31,28.83Z"/><path class="cls-5" d="M337.2,24.39h0a19.17,19.17,0,0,1,5.28-1.89c1.19-.21.8,0,3.39-.22a26.82,26.82,0,0,1,4.33-.34c1.11.06,2.81.15,3,.84s-.85,1.42-1.56,1.83c-1.08.64-1.83.55-5.38.61-1.39,0-2.65,0-5.17.06-.84,0-1.67-.22-2.5-.17a3,3,0,0,1-1.11-.22.38.38,0,0,1-.21-.15A.63.63,0,0,1,337.2,24.39Z"/><path class="cls-5" d="M325.06,17.28c.12.18.46.55,2.61.47a29.61,29.61,0,0,0,3.25-.39,23.92,23.92,0,0,0,3.2-.47,5.93,5.93,0,0,0,2.61-1.33c.37-.35.91-.86.8-1.37s-1.13-.88-1.66-1c-1.26-.33-1.77,0-4.39.11a6.8,6.8,0,0,0-2.36.25c-.91.36-.89.74-2,1.28s-1.55.38-1.92.91A1.49,1.49,0,0,0,325.06,17.28Z"/><path class="cls-5" d="M317.62,14.72a7,7,0,0,0,3.55-.3,15.78,15.78,0,0,0,2-.7c1.25-.52,1.4-.77,1.44-.94.16-.54-.34-1.26-.91-1.61s-1.09-.12-3.56.11c-1.58.14-2.18.08-2.66.61a2.87,2.87,0,0,0-.59,1.22,1.51,1.51,0,0,0,0,1.2A1.14,1.14,0,0,0,317.62,14.72Z"/><path class="cls-5" d="M304.62,13c.53.32,1.31.46,3.05.31a15.33,15.33,0,0,0,2.72-.48,4.65,4.65,0,0,0,1.39-.55A2.21,2.21,0,0,0,313,11a1.92,1.92,0,0,0-.53-1.56,3.32,3.32,0,0,0-2.28-.78,22.12,22.12,0,0,0-3.22.12c-1.45,0-1.83,0-2.19.36s-.38.76-.56,1.72c-.24,1.31,0,1.7.14,1.86A1.07,1.07,0,0,0,304.62,13Z"/><path class="cls-5" d="M290.89,11.64a5.89,5.89,0,0,0,2.53,1,15.11,15.11,0,0,0,2.95.45c1.45.08,1.85-.1,2.11-.28a2.12,2.12,0,0,0,.83-1.28,2.42,2.42,0,0,0-.39-1.66,3.86,3.86,0,0,0-1.5-1.64c-.37-.22-.71-.31-3.33-.31a7.6,7.6,0,0,0-3.42.45c-.92.41-1.05.8-1.08.94-.12.52.28,1.08.61,1.53A5.2,5.2,0,0,0,290.89,11.64Z"/><path class="cls-5" d="M275.39,11.69c.31-.65,1.32-.73,2.89-.86a14.68,14.68,0,0,1,3.06.09,6.06,6.06,0,0,1,2.78.72,3,3,0,0,1,1.5,1.94,2.12,2.12,0,0,1-.31,1.59,2.63,2.63,0,0,1-1.94.8,7.6,7.6,0,0,1-2.56-.11,11.5,11.5,0,0,1-3.11-1,4.18,4.18,0,0,1-2-1.5C275.57,13,275.12,12.28,275.39,11.69Z"/><path class="cls-1" d="M360.35,42.67a41,41,0,0,0,4.44,8.22c5.43,7.48,25.38,11.75,26.45,12a179.29,179.29,0,0,0,34.44,4.22c8.83.3,18.45.57,31.11-1.33,4.87-.73,12.06-2.71,26.45-6.67,10.34-2.84,15.34-4.49,19.11-9.33,1-1.33,4.57-5.88,3.78-10.67-1.49-9-17.35-13.12-23.56-14.67-31.63-7.88-49.72,5.09-91.33,5.12-2.57,0-13.12-3.14-26.89-1.78-2.25.22-4.06.49-5.1.67a22.68,22.68,0,0,0-.23,9.91A25.63,25.63,0,0,0,360.35,42.67Z"/><path class="cls-2" d="M359.47,26.76c-1.27,5.51,2.74,10.71,4.78,13.27,2.58,3.24,9.59,10.85,32.39,16.46a157.07,157.07,0,0,0,34.52,4.25c12.51.21,21.08-1.1,38.23-3.72s22.4-5,27.09-9c2.25-2,9.84-8.56,9-16.44-.83-7.59-9-12.25-18-17.34a78.75,78.75,0,0,0-18.89-7.55C464,5.42,455,3.33,438.06,2.86,412.15,2.15,395.28,6,390.8,7.11A82.21,82.21,0,0,0,367.24,18C362.87,20.92,360.27,23.29,359.47,26.76Z"/><path class="cls-3" d="M371.74,33.67c0-1.15.37-2.82,1.16-6.17a10.16,10.16,0,0,1,1.5-3.83,8.88,8.88,0,0,1,2.5-2.34c1.41-.86,2.85-1.18,6.34-1.33,2.86-.13,3.73,0,6.83,0,5.29,0,5.13-.39,7.67-.17a39.3,39.3,0,0,1,7.83,1.84,42.51,42.51,0,0,1,7.83,3c.49.25,1.32.69,2.34,1.33,2.66,1.69,4.62,2.93,4.83,4.67.06.52,0,1.11-1.5,3.33a41.67,41.67,0,0,1-4.5,5.67c-2.51,2.57-3.88,4-6.17,5.33a22.65,22.65,0,0,1-7,2.67,31.94,31.94,0,0,1-14.83-.5c-4.54-1.05-7.16-1.66-9.83-4C376.05,42.56,371.85,38.87,371.74,33.67Z"/><path class="cls-3" d="M398.9,13c0-1.12,1.83-2,3.67-2.67a49.39,49.39,0,0,1,13.5-3c6.89-.62,10.34-.92,13.83-1,6.48-.13,11.36.22,12.84.34,3.87.3,7.13.81,13.66,1.83a55,55,0,0,1,12.5,3.17c4.62,1.81,5.19,2.85,5.17,3.5,0,1.1-1.78,2-4.17,2.83-5.79,2.14-9.54,2.32-15.5,3.33-5.67,1-6.72,1.55-13.33,2.5-2.59.38-3.89.56-5.67.67a52.88,52.88,0,0,1-12.83-1c-4.21-.8-9.41-3-19.83-7.5C401.25,15.36,398.87,14.31,398.9,13Z"/><path class="cls-3" d="M413.4,50.83c-.6-1.55,1-3.61,4.17-7.66,2.52-3.21,3.79-4.81,5.83-6.17a18.8,18.8,0,0,1,9-3c2.22-.17,4.48.27,9,1.17a90.92,90.92,0,0,1,9,2.16c3.14.94,5.93,2.07,11.5,4.34,6.53,2.65,8,3.47,8.17,4.83.18,1.65-1.76,3.14-2.67,3.83-2.11,1.62-4.36,2-7.66,2.34-5.94.62-9.47.63-9.47.63s-7.56,0-16.2.37a71.42,71.42,0,0,1-14.33-.34C415.32,52.71,413.85,52,413.4,50.83Z"/><path class="cls-3" d="M444.07,32.17c5,1.47,9.75,3.65,14.83,4.66,12.51,2.5,11.18,3.91,17.5,4.17,4.6.19,11.22.46,14.5-3.83a9.21,9.21,0,0,0,1.67-6.84c-.81-4.23-4.93-6.36-6.5-7.16C481.86,21,478,21.34,471.4,22c-9.9,1-8.58,2.93-17,3.5a38.07,38.07,0,0,0-11,3c-.9.38-2.36,1-2.33,1.83C441.1,31.29,443.28,31.93,444.07,32.17Z"/><path class="cls-4" d="M415.57,31.83c1.42-.11,1.75,1.36,3.83,2.67,3,1.85,6.5,1.55,9,1.33a20.06,20.06,0,0,0,2.34-.33,3.24,3.24,0,0,1-.17,2c-.49,1.11-2,.69-3.67,2-.35.28-1.14.93-1,1.33.07.17.32.4,3.5.34,2,0,2.51-.15,3.34.16,1,.38.86.75,1.83,1.17a6.8,6.8,0,0,0,4.33,0c1.59-.37,1.44-.69,2.67-.83,1.45-.17,2,.24,3.17-.17.41-.14,1.5-.52,1.66-1.33s-.87-1.76-1.16-2c-.87-.71-1.43-.61-3.34-1.34-1.43-.54-2.5-1-2.5-1.5s1.49-1.1,1.67-1.16c1.49-.49,2.19.1,3-.5s.39-1,1-1.5c.85-.65,2-.07,3.67.16s1.72-.24,4.66-.33c3.67-.11,4.91.62,5.5-.17s0-2.55-1-3.5c-1.32-1.23-3.28-1-5.16-.83a42,42,0,0,0-5,1.17c-3.17.76-3.8.84-4.5.5-1.29-.63-.75-1.65-2.34-2.84-1-.75-1.54-.59-4.16-2-1-.54-1.38-.8-1.34-1s1.05-.2,2.5-.33a15.29,15.29,0,0,0,4.84-1.17,4.89,4.89,0,0,0,2.66-2c.41-.74.71-1.95.17-2.5-.11-.11-.39-.33-1.83-.16-2.06.23-2.36.78-3.5.66a9.22,9.22,0,0,1-2.34-1c-1.79-.9-1.75-1.06-2.5-1.33-1.28-.47-1.52,0-4-.17s-3.25-.63-4,0-.36,1.11-1,1.5-1.36,0-3-.33a16.64,16.64,0,0,0-3.66-.17c-2,0-3,.07-3.34.67a1.73,1.73,0,0,0,.5,1.67c.59.61,1.17.43,3,1,1.58.48,1.89.84,2,1a2.15,2.15,0,0,1,.34,2c-.31.75-1,.72-2.5,1.66s-1.42,1.34-2.5,1.84a8.17,8.17,0,0,1-3.17.5c-3.05.21-3,.58-5,.66a32.51,32.51,0,0,1-5.67-.66c-3.67-.6-5.08-1-5.83-.17a1.76,1.76,0,0,0-.33,1.67c.38,1.07,2.13,1.46,3.16,1.5,1.26,0,2.07-.39,2.34,0s-.28.72-.17,1.5c0,.29.18.62,1,1.5a9.5,9.5,0,0,0,1.83,1.66,6,6,0,0,0,4.17,1,10.55,10.55,0,0,0,3-1.66C414.76,32.23,414.91,31.89,415.57,31.83Z"/><path class="cls-5" d="M383,24.28c1.59.48,2.47.16,4.11.28s1.85.57,4.44.83c1.6.16,2.18.05,2.45-.33a1.83,1.83,0,0,0-.23-1.73c-.75-1.26-2.4-1.53-4.55-1.89a22.71,22.71,0,0,0-3.84-.22c-3.41,0-3.81.46-3.94.72a1.66,1.66,0,0,0,.22,1.45A2.28,2.28,0,0,0,383,24.28Z"/><path class="cls-5" d="M378,27.44c.62-.49,1.77-.48,4.05-.44,1.25,0,1.92.09,2.17.11a8.22,8.22,0,0,1,3.05.72c.51.26,1.33.68,1.28,1.11s-1.56.85-2.39,1a16.73,16.73,0,0,1-4.39.12c-1.43-.1-1.31-.2-2.39-.23-1.42,0-2,.12-2.22-.22S377.27,28,378,27.44Z"/><path class="cls-5" d="M376,34c.75-.69,1.64-.48,4.61-.33,1.85.09,2.45,0,4.45.22,2.59.22,3.07.4,3.16.72.14.49-.72,1.2-1.39,1.56-1,.51-1.54.32-3.55.39a33.47,33.47,0,0,0-4.95.33,3,3,0,0,1-2.11-.11,1.88,1.88,0,0,1-.89-1.34A1.94,1.94,0,0,1,376,34Z"/><path class="cls-5" d="M381.13,39.61A15.78,15.78,0,0,1,385,38.39a20.46,20.46,0,0,1,4.11-.72,9.74,9.74,0,0,1,3.11.55c.93.29,1.52.48,1.61.89.16.78-1.66,1.74-1.83,1.83-1,.55-1.62.48-4.39.89a29.78,29.78,0,0,1-3.23.45,7.93,7.93,0,0,1-3.27-.39c-.55-.2-1.48-.54-1.5-1.06C379.62,40.63,379.75,40.27,381.13,39.61Z"/><path class="cls-5" d="M391.07,44.39c.21-1.17,1.75-1.74,3.95-2.56a18.67,18.67,0,0,1,2.55-.72c1.83-.38,3.29-.68,3.72,0s-.27,1.67-.61,2.22a6.5,6.5,0,0,1-2.78,2.39,8.79,8.79,0,0,1-3,.83c-1.5.21-2.36.33-3-.22A2.12,2.12,0,0,1,391.07,44.39Z"/><path class="cls-5" d="M418.13,48.17a2.78,2.78,0,0,1,.72-2.11,3.35,3.35,0,0,1,2.11-.67,11.19,11.19,0,0,1,2.17,0,8.72,8.72,0,0,1,2.94.39,3,3,0,0,1,1.67,2.16,2.88,2.88,0,0,1-1.22,2.17c-.81.67-1.76.81-3.62,1.06-1.57.21-2.38.3-3,0A3.5,3.5,0,0,1,418.13,48.17Z"/><path class="cls-5" d="M434.85,47c-.62.64-1.57,1.64-1.39,2.61s1.58,1.51,2.83,2a5.51,5.51,0,0,0,4.23.16c.36-.17,1.34-.64,1.5-1.5.1-.56-.36-1.21-1.28-2.5a5.86,5.86,0,0,0-1.56-1.78,3.64,3.64,0,0,0-2.94,0A4.27,4.27,0,0,0,434.85,47Z"/><path class="cls-5" d="M445.46,46.11c.26.78.75,1.26,2.06,2.33a8.35,8.35,0,0,0,2.27,1.62,5.1,5.1,0,0,0,2.39-.23c.85-.2,1.28-.3,1.5-.66.46-.76-.33-1.92-.39-2-.48-.71-1.27-1-2.83-1.61a10.51,10.51,0,0,0-2.94-.78c-.81-.08-1.78-.16-2.09.35A1.16,1.16,0,0,0,445.46,46.11Z"/><path class="cls-5" d="M457.18,47.06a6,6,0,0,0,2.39,1.44c2.38.89,2.41,1,3.06,1.06a3.54,3.54,0,0,0,2.11-.34c.65-.37,1.5-1.2,1.33-2s-1.19-1.08-2-1.33a10.81,10.81,0,0,0-3.78-.17,23.26,23.26,0,0,0-2.39.39c-.36,0-.85.12-.94.39S457.06,46.92,457.18,47.06Z"/><path class="cls-5" d="M467.9,34.94c0,.34.77.63,3.62,1.62,2.39.83,3.6,1.24,3.94,1.33a19.64,19.64,0,0,0,5.39.61c1.91-.06,2.54-.38,2.94-.83a2,2,0,0,0,.5-1.89c-.42-1-2.3-1.11-5.33-1.22-3.19-.13-2.91.26-4.78,0a13.08,13.08,0,0,0-4.39-.34C469.4,34.28,467.94,34.5,467.9,34.94Z"/><path class="cls-5" d="M477.18,32.56a29.35,29.35,0,0,1,6.34.66,4.44,4.44,0,0,0,1.5.11c.54,0,1.78-.16,2.11-.94a1.75,1.75,0,0,0-.67-1.89c-.61-.44-1.25-.21-3.5.17a23.33,23.33,0,0,1-3.22.44c-1.42,0-1.94-.35-3.89-.33-1.54,0-1.78.22-1.83.39s.4.73.72.94A3.87,3.87,0,0,0,477.18,32.56Z"/><path class="cls-5" d="M475.4,28.83c-.21-.44.29-1.14.67-1.5.54-.52,1.16-.66,2.72-.89a21.24,21.24,0,0,1,3.61-.38,11.21,11.21,0,0,1,3.45.94c1,.4,1.22.57,1.22.72,0,.44-1.46.76-2.33,1a30.23,30.23,0,0,1-3.95.44c-1,.09-1.85.17-3.05.17C475.86,29.27,475.52,29.08,475.4,28.83Z"/><path class="cls-5" d="M467.29,24.39h0a19.32,19.32,0,0,1,5.28-1.89c1.2-.21.8,0,3.39-.22a26.82,26.82,0,0,1,4.33-.34c1.12.06,2.81.15,3,.84s-.85,1.42-1.55,1.83c-1.09.64-1.84.55-5.39.61-1.38,0-2.65,0-5.17.06-.83,0-1.66-.22-2.5-.17a3,3,0,0,1-1.11-.22.41.41,0,0,1-.21-.15A.74.74,0,0,1,467.29,24.39Z"/><path class="cls-5" d="M455.15,17.28c.12.18.46.55,2.62.47a30.18,30.18,0,0,0,3.25-.39,24,24,0,0,0,3.19-.47,5.88,5.88,0,0,0,2.61-1.33c.37-.35.91-.86.81-1.37s-1.14-.88-1.67-1c-1.26-.33-1.77,0-4.39.11a6.8,6.8,0,0,0-2.36.25c-.91.36-.88.74-2,1.28s-1.55.38-1.91.91A1.5,1.5,0,0,0,455.15,17.28Z"/><path class="cls-5" d="M447.71,14.72a7.06,7.06,0,0,0,3.56-.3,16.42,16.42,0,0,0,2-.7c1.26-.52,1.4-.77,1.45-.94.15-.54-.35-1.26-.92-1.61s-1.09-.12-3.55.11c-1.59.14-2.18.08-2.67.61a2.72,2.72,0,0,0-.58,1.22,1.47,1.47,0,0,0,0,1.2A1.09,1.09,0,0,0,447.71,14.72Z"/><path class="cls-5" d="M434.71,13c.53.32,1.32.46,3.06.31a15.65,15.65,0,0,0,2.72-.48,4.65,4.65,0,0,0,1.39-.55c.49-.31,1-.64,1.16-1.25a1.92,1.92,0,0,0-.52-1.56,3.33,3.33,0,0,0-2.28-.78,22.07,22.07,0,0,0-3.22.12c-1.45,0-1.84,0-2.2.36s-.38.76-.55,1.72c-.24,1.31,0,1.7.13,1.86A1.42,1.42,0,0,0,434.71,13Z"/><path class="cls-5" d="M421,11.64a5.81,5.81,0,0,0,2.53,1,14.85,14.85,0,0,0,2.94.45c1.46.08,1.85-.1,2.11-.28a2.07,2.07,0,0,0,.83-1.28A2.47,2.47,0,0,0,429,9.92a3.93,3.93,0,0,0-1.5-1.64c-.38-.22-.72-.31-3.34-.31a7.56,7.56,0,0,0-3.41.45c-.92.41-1,.8-1.09.94-.12.52.29,1.08.61,1.53A4.53,4.53,0,0,0,421,11.64Z"/><path class="cls-5" d="M405.49,11.69c.3-.65,1.32-.73,2.89-.86a14.59,14.59,0,0,1,3.05.09,6.06,6.06,0,0,1,2.78.72,3,3,0,0,1,1.5,1.94,2.12,2.12,0,0,1-.31,1.59,2.63,2.63,0,0,1-1.94.8,7.62,7.62,0,0,1-2.56-.11,11.5,11.5,0,0,1-3.11-1,4.18,4.18,0,0,1-2-1.5C405.66,13,405.21,12.28,405.49,11.69Z"/></g></g></svg>